%TF.GenerationSoftware,KiCad,Pcbnew,(6.0.7)*%
%TF.CreationDate,2022-08-25T19:07:38-04:00*%
%TF.ProjectId,msbaker,6d736261-6b65-4722-9e6b-696361645f70,3*%
%TF.SameCoordinates,Original*%
%TF.FileFunction,Soldermask,Top*%
%TF.FilePolarity,Negative*%
%FSLAX46Y46*%
G04 Gerber Fmt 4.6, Leading zero omitted, Abs format (unit mm)*
G04 Created by KiCad (PCBNEW (6.0.7)) date 2022-08-25 19:07:38*
%MOMM*%
%LPD*%
G01*
G04 APERTURE LIST*
G04 Aperture macros list*
%AMRoundRect*
0 Rectangle with rounded corners*
0 $1 Rounding radius*
0 $2 $3 $4 $5 $6 $7 $8 $9 X,Y pos of 4 corners*
0 Add a 4 corners polygon primitive as box body*
4,1,4,$2,$3,$4,$5,$6,$7,$8,$9,$2,$3,0*
0 Add four circle primitives for the rounded corners*
1,1,$1+$1,$2,$3*
1,1,$1+$1,$4,$5*
1,1,$1+$1,$6,$7*
1,1,$1+$1,$8,$9*
0 Add four rect primitives between the rounded corners*
20,1,$1+$1,$2,$3,$4,$5,0*
20,1,$1+$1,$4,$5,$6,$7,0*
20,1,$1+$1,$6,$7,$8,$9,0*
20,1,$1+$1,$8,$9,$2,$3,0*%
%AMFreePoly0*
4,1,48,0.134742,0.310782,0.138024,0.311361,0.140910,0.309695,0.150652,0.307977,0.165579,0.295451,0.182453,0.285709,0.184767,0.279350,0.189952,0.275000,0.193336,0.255809,0.200000,0.237500,0.200000,-0.237500,0.198282,-0.247242,0.198861,-0.250524,0.197195,-0.253410,0.195477,-0.263152,0.182951,-0.278079,0.173209,-0.294953,0.166850,-0.297267,0.162500,-0.302452,0.143309,-0.305836,
0.125000,-0.312500,0.081066,-0.312500,0.076480,-0.311691,0.074529,-0.312214,0.071540,-0.310820,0.055414,-0.307977,0.042871,-0.297452,0.028033,-0.290533,-0.178033,-0.084467,-0.180703,-0.080653,-0.182453,-0.079643,-0.183581,-0.076543,-0.192973,-0.063130,-0.194400,-0.046819,-0.200000,-0.031434,-0.200000,0.237500,-0.198282,0.247242,-0.198861,0.250524,-0.197195,0.253410,-0.195477,0.263152,
-0.182951,0.278079,-0.173209,0.294953,-0.166850,0.297267,-0.162500,0.302452,-0.143309,0.305836,-0.125000,0.312500,0.125000,0.312500,0.134742,0.310782,0.134742,0.310782,$1*%
%AMFreePoly1*
4,1,48,0.134742,0.310782,0.138024,0.311361,0.140910,0.309695,0.150652,0.307977,0.165579,0.295451,0.182453,0.285709,0.184767,0.279350,0.189952,0.275000,0.193336,0.255809,0.200000,0.237500,0.200000,-0.031434,0.199191,-0.036020,0.199714,-0.037971,0.198320,-0.040960,0.195477,-0.057086,0.184952,-0.069629,0.178033,-0.084467,-0.028033,-0.290533,-0.031847,-0.293203,-0.032857,-0.294953,
-0.035957,-0.296081,-0.049370,-0.305473,-0.065681,-0.306900,-0.081066,-0.312500,-0.125000,-0.312500,-0.134742,-0.310782,-0.138024,-0.311361,-0.140910,-0.309695,-0.150652,-0.307977,-0.165579,-0.295451,-0.182453,-0.285709,-0.184767,-0.279350,-0.189952,-0.275000,-0.193336,-0.255809,-0.200000,-0.237500,-0.200000,0.237500,-0.198282,0.247242,-0.198861,0.250524,-0.197195,0.253410,-0.195477,0.263152,
-0.182951,0.278079,-0.173209,0.294953,-0.166850,0.297267,-0.162500,0.302452,-0.143309,0.305836,-0.125000,0.312500,0.125000,0.312500,0.134742,0.310782,0.134742,0.310782,$1*%
%AMFreePoly2*
4,1,48,0.247242,0.198282,0.250524,0.198861,0.253410,0.197195,0.263152,0.195477,0.278079,0.182951,0.294953,0.173209,0.297267,0.166850,0.302452,0.162500,0.305836,0.143309,0.312500,0.125000,0.312500,-0.125000,0.310782,-0.134742,0.311361,-0.138024,0.309695,-0.140910,0.307977,-0.150652,0.295451,-0.165579,0.285709,-0.182453,0.279350,-0.184767,0.275000,-0.189952,0.255809,-0.193336,
0.237500,-0.200000,-0.237500,-0.200000,-0.247242,-0.198282,-0.250524,-0.198861,-0.253410,-0.197195,-0.263152,-0.195477,-0.278079,-0.182951,-0.294953,-0.173209,-0.297267,-0.166850,-0.302452,-0.162500,-0.305836,-0.143309,-0.312500,-0.125000,-0.312500,-0.081066,-0.311691,-0.076480,-0.312214,-0.074530,-0.310821,-0.071542,-0.307977,-0.055414,-0.297451,-0.042870,-0.290533,-0.028033,-0.084467,0.178033,
-0.080653,0.180703,-0.079643,0.182453,-0.076543,0.183581,-0.063130,0.192973,-0.046820,0.194400,-0.031434,0.200000,0.237500,0.200000,0.247242,0.198282,0.247242,0.198282,$1*%
%AMFreePoly3*
4,1,48,0.247242,0.198282,0.250524,0.198861,0.253410,0.197195,0.263152,0.195477,0.278079,0.182951,0.294953,0.173209,0.297267,0.166850,0.302452,0.162500,0.305836,0.143309,0.312500,0.125000,0.312500,-0.125000,0.310782,-0.134742,0.311361,-0.138024,0.309695,-0.140910,0.307977,-0.150652,0.295451,-0.165579,0.285709,-0.182453,0.279350,-0.184767,0.275000,-0.189952,0.255809,-0.193336,
0.237500,-0.200000,-0.031434,-0.200000,-0.036020,-0.199191,-0.037971,-0.199714,-0.040960,-0.198320,-0.057086,-0.195477,-0.069629,-0.184952,-0.084467,-0.178033,-0.290533,0.028033,-0.293203,0.031847,-0.294953,0.032857,-0.296081,0.035957,-0.305473,0.049370,-0.306900,0.065681,-0.312500,0.081066,-0.312500,0.125000,-0.310782,0.134742,-0.311361,0.138024,-0.309695,0.140910,-0.307977,0.150652,
-0.295451,0.165579,-0.285709,0.182453,-0.279350,0.184767,-0.275000,0.189952,-0.255809,0.193336,-0.237500,0.200000,0.237500,0.200000,0.247242,0.198282,0.247242,0.198282,$1*%
%AMFreePoly4*
4,1,48,-0.076480,0.311691,-0.074530,0.312214,-0.071542,0.310821,-0.055414,0.307977,-0.042870,0.297451,-0.028033,0.290533,0.178033,0.084467,0.180703,0.080653,0.182453,0.079643,0.183581,0.076543,0.192973,0.063130,0.194400,0.046820,0.200000,0.031434,0.200000,-0.237500,0.198282,-0.247242,0.198861,-0.250524,0.197195,-0.253410,0.195477,-0.263152,0.182951,-0.278079,0.173209,-0.294953,
0.166850,-0.297267,0.162500,-0.302452,0.143309,-0.305836,0.125000,-0.312500,-0.125000,-0.312500,-0.134742,-0.310782,-0.138024,-0.311361,-0.140910,-0.309695,-0.150652,-0.307977,-0.165579,-0.295451,-0.182453,-0.285709,-0.184767,-0.279350,-0.189952,-0.275000,-0.193336,-0.255809,-0.200000,-0.237500,-0.200000,0.237500,-0.198282,0.247242,-0.198861,0.250524,-0.197195,0.253410,-0.195477,0.263152,
-0.182951,0.278079,-0.173209,0.294953,-0.166850,0.297267,-0.162500,0.302452,-0.143309,0.305836,-0.125000,0.312500,-0.081066,0.312500,-0.076480,0.311691,-0.076480,0.311691,$1*%
%AMFreePoly5*
4,1,48,0.134742,0.310782,0.138024,0.311361,0.140910,0.309695,0.150652,0.307977,0.165579,0.295451,0.182453,0.285709,0.184767,0.279350,0.189952,0.275000,0.193336,0.255809,0.200000,0.237500,0.200000,-0.237500,0.198282,-0.247242,0.198861,-0.250524,0.197195,-0.253410,0.195477,-0.263152,0.182951,-0.278079,0.173209,-0.294953,0.166850,-0.297267,0.162500,-0.302452,0.143309,-0.305836,
0.125000,-0.312500,-0.125000,-0.312500,-0.134742,-0.310782,-0.138024,-0.311361,-0.140910,-0.309695,-0.150652,-0.307977,-0.165579,-0.295451,-0.182453,-0.285709,-0.184767,-0.279350,-0.189952,-0.275000,-0.193336,-0.255809,-0.200000,-0.237500,-0.200000,0.031434,-0.199191,0.036020,-0.199714,0.037970,-0.198321,0.040958,-0.195477,0.057086,-0.184951,0.069630,-0.178033,0.084467,0.028033,0.290533,
0.031847,0.293203,0.032857,0.294953,0.035957,0.296081,0.049370,0.305473,0.065680,0.306900,0.081066,0.312500,0.125000,0.312500,0.134742,0.310782,0.134742,0.310782,$1*%
%AMFreePoly6*
4,1,48,0.247242,0.198282,0.250524,0.198861,0.253410,0.197195,0.263152,0.195477,0.278079,0.182951,0.294953,0.173209,0.297267,0.166850,0.302452,0.162500,0.305836,0.143309,0.312500,0.125000,0.312500,0.081066,0.311691,0.076480,0.312214,0.074529,0.310820,0.071540,0.307977,0.055414,0.297452,0.042871,0.290533,0.028033,0.084467,-0.178033,0.080653,-0.180703,0.079643,-0.182453,
0.076543,-0.183581,0.063130,-0.192973,0.046819,-0.194400,0.031434,-0.200000,-0.237500,-0.200000,-0.247242,-0.198282,-0.250524,-0.198861,-0.253410,-0.197195,-0.263152,-0.195477,-0.278079,-0.182951,-0.294953,-0.173209,-0.297267,-0.166850,-0.302452,-0.162500,-0.305836,-0.143309,-0.312500,-0.125000,-0.312500,0.125000,-0.310782,0.134742,-0.311361,0.138024,-0.309695,0.140910,-0.307977,0.150652,
-0.295451,0.165579,-0.285709,0.182453,-0.279350,0.184767,-0.275000,0.189952,-0.255809,0.193336,-0.237500,0.200000,0.237500,0.200000,0.247242,0.198282,0.247242,0.198282,$1*%
%AMFreePoly7*
4,1,48,0.036020,0.199191,0.037970,0.199714,0.040958,0.198321,0.057086,0.195477,0.069630,0.184951,0.084467,0.178033,0.290533,-0.028033,0.293203,-0.031847,0.294953,-0.032857,0.296081,-0.035957,0.305473,-0.049370,0.306900,-0.065680,0.312500,-0.081066,0.312500,-0.125000,0.310782,-0.134742,0.311361,-0.138024,0.309695,-0.140910,0.307977,-0.150652,0.295451,-0.165579,0.285709,-0.182453,
0.279350,-0.184767,0.275000,-0.189952,0.255809,-0.193336,0.237500,-0.200000,-0.237500,-0.200000,-0.247242,-0.198282,-0.250524,-0.198861,-0.253410,-0.197195,-0.263152,-0.195477,-0.278079,-0.182951,-0.294953,-0.173209,-0.297267,-0.166850,-0.302452,-0.162500,-0.305836,-0.143309,-0.312500,-0.125000,-0.312500,0.125000,-0.310782,0.134742,-0.311361,0.138024,-0.309695,0.140910,-0.307977,0.150652,
-0.295451,0.165579,-0.285709,0.182453,-0.279350,0.184767,-0.275000,0.189952,-0.255809,0.193336,-0.237500,0.200000,0.031434,0.200000,0.036020,0.199191,0.036020,0.199191,$1*%
G04 Aperture macros list end*
%ADD10R,0.850000X1.100000*%
%ADD11R,0.750000X1.100000*%
%ADD12R,1.200000X1.000000*%
%ADD13R,1.550000X1.350000*%
%ADD14R,1.900000X1.350000*%
%ADD15R,1.170000X1.800000*%
%ADD16R,1.350000X0.400000*%
%ADD17R,1.900000X1.200000*%
%ADD18R,1.900000X1.500000*%
%ADD19O,1.900000X1.200000*%
%ADD20C,1.450000*%
%ADD21RoundRect,0.135000X0.135000X0.185000X-0.135000X0.185000X-0.135000X-0.185000X0.135000X-0.185000X0*%
%ADD22R,0.400000X0.650000*%
%ADD23RoundRect,0.150000X0.150000X-0.650000X0.150000X0.650000X-0.150000X0.650000X-0.150000X-0.650000X0*%
%ADD24FreePoly0,0.000000*%
%ADD25RoundRect,0.085000X-0.085000X-0.227500X0.085000X-0.227500X0.085000X0.227500X-0.085000X0.227500X0*%
%ADD26FreePoly1,0.000000*%
%ADD27FreePoly2,0.000000*%
%ADD28RoundRect,0.085000X-0.227500X-0.085000X0.227500X-0.085000X0.227500X0.085000X-0.227500X0.085000X0*%
%ADD29FreePoly3,0.000000*%
%ADD30FreePoly4,0.000000*%
%ADD31FreePoly5,0.000000*%
%ADD32FreePoly6,0.000000*%
%ADD33FreePoly7,0.000000*%
%ADD34C,3.800000*%
%ADD35RoundRect,0.140000X0.140000X0.170000X-0.140000X0.170000X-0.140000X-0.170000X0.140000X-0.170000X0*%
%ADD36RoundRect,0.135000X-0.185000X0.135000X-0.185000X-0.135000X0.185000X-0.135000X0.185000X0.135000X0*%
%ADD37RoundRect,0.140000X0.170000X-0.140000X0.170000X0.140000X-0.170000X0.140000X-0.170000X-0.140000X0*%
%ADD38RoundRect,0.135000X0.035355X-0.226274X0.226274X-0.035355X-0.035355X0.226274X-0.226274X0.035355X0*%
%ADD39RoundRect,0.135000X-0.135000X-0.185000X0.135000X-0.185000X0.135000X0.185000X-0.135000X0.185000X0*%
%ADD40RoundRect,0.147500X0.172500X-0.147500X0.172500X0.147500X-0.172500X0.147500X-0.172500X-0.147500X0*%
%ADD41RoundRect,0.050000X-0.309359X0.238649X0.238649X-0.309359X0.309359X-0.238649X-0.238649X0.309359X0*%
%ADD42RoundRect,0.050000X-0.309359X-0.238649X-0.238649X-0.309359X0.309359X0.238649X0.238649X0.309359X0*%
%ADD43RoundRect,0.144000X-2.059095X0.000000X0.000000X-2.059095X2.059095X0.000000X0.000000X2.059095X0*%
%ADD44R,1.700000X1.700000*%
%ADD45O,1.700000X1.700000*%
%ADD46RoundRect,0.140000X-0.170000X0.140000X-0.170000X-0.140000X0.170000X-0.140000X0.170000X0.140000X0*%
%ADD47RoundRect,0.140000X-0.140000X-0.170000X0.140000X-0.170000X0.140000X0.170000X-0.140000X0.170000X0*%
G04 APERTURE END LIST*
D10*
%TO.C,J2*%
X181395000Y-68550000D03*
X182495000Y-68550000D03*
X183595000Y-68550000D03*
X184695000Y-68550000D03*
X185795000Y-68550000D03*
X186895000Y-68550000D03*
X187995000Y-68550000D03*
D11*
X189045000Y-68550000D03*
D12*
X178760000Y-74700000D03*
X178760000Y-78400000D03*
D13*
X178935000Y-68675000D03*
D14*
X182260000Y-79375000D03*
X188230000Y-79375000D03*
D15*
X190255000Y-68900000D03*
%TD*%
D16*
%TO.C,J1*%
X187300000Y-95050000D03*
X187300000Y-94400000D03*
X187300000Y-93750000D03*
X187300000Y-93100000D03*
X187300000Y-92450000D03*
D17*
X190000000Y-90850000D03*
D18*
X190000000Y-94750000D03*
X190000000Y-92750000D03*
D19*
X190000000Y-90250000D03*
X190000000Y-97250000D03*
D17*
X190000000Y-96650000D03*
D20*
X187300000Y-91250000D03*
X187300000Y-96250000D03*
%TD*%
D21*
%TO.C,R2*%
X188510000Y-120100000D03*
X187490000Y-120100000D03*
%TD*%
D22*
%TO.C,U1*%
X188650000Y-88550000D03*
X189300000Y-88550000D03*
X189950000Y-88550000D03*
X189950000Y-86650000D03*
X188650000Y-86650000D03*
%TD*%
D23*
%TO.C,U2*%
X179095000Y-100600000D03*
X180365000Y-100600000D03*
X181635000Y-100600000D03*
X182905000Y-100600000D03*
X182905000Y-93400000D03*
X181635000Y-93400000D03*
X180365000Y-93400000D03*
X179095000Y-93400000D03*
%TD*%
D24*
%TO.C,U4*%
X188500000Y-122675000D03*
D25*
X189000000Y-122675000D03*
D26*
X189500000Y-122675000D03*
D27*
X190162500Y-122837500D03*
D28*
X190162500Y-123337500D03*
X190162500Y-123837500D03*
D29*
X190162500Y-124337500D03*
D30*
X189500000Y-124500000D03*
D25*
X189000000Y-124500000D03*
D31*
X188500000Y-124500000D03*
D32*
X187837500Y-124337500D03*
D28*
X187837500Y-123837500D03*
X187837500Y-123337500D03*
D33*
X187837500Y-122837500D03*
%TD*%
D34*
%TO.C,M2*%
X188750000Y-83000000D03*
%TD*%
D35*
%TO.C,C3*%
X187380000Y-86600000D03*
X186420000Y-86600000D03*
%TD*%
D34*
%TO.C,M2*%
X180250000Y-83000000D03*
%TD*%
D36*
%TO.C,R7*%
X189500000Y-116990000D03*
X189500000Y-118010000D03*
%TD*%
D34*
%TO.C,M2*%
X184250000Y-125250000D03*
%TD*%
D37*
%TO.C,C6*%
X179100000Y-91780000D03*
X179100000Y-90820000D03*
%TD*%
D21*
%TO.C,R1*%
X188510000Y-121100000D03*
X187490000Y-121100000D03*
%TD*%
D38*
%TO.C,R6*%
X189239376Y-104810624D03*
X189960624Y-104089376D03*
%TD*%
D39*
%TO.C,R3*%
X184590000Y-92800000D03*
X185610000Y-92800000D03*
%TD*%
D40*
%TO.C,D1*%
X189500000Y-119985000D03*
X189500000Y-119015000D03*
%TD*%
D38*
%TO.C,R5*%
X188860624Y-103639376D03*
X188139376Y-104360624D03*
%TD*%
D41*
%TO.C,U3*%
X183657798Y-103230843D03*
X183374955Y-103513686D03*
X183092113Y-103796528D03*
X182809270Y-104079371D03*
X182526427Y-104362214D03*
X182243585Y-104645056D03*
X181960742Y-104927899D03*
X181677899Y-105210742D03*
X181395056Y-105493585D03*
X181112214Y-105776427D03*
X180829371Y-106059270D03*
X180546528Y-106342113D03*
X180263686Y-106624955D03*
X179980843Y-106907798D03*
D42*
X179980843Y-108092202D03*
X180263686Y-108375045D03*
X180546528Y-108657887D03*
X180829371Y-108940730D03*
X181112214Y-109223573D03*
X181395056Y-109506415D03*
X181677899Y-109789258D03*
X181960742Y-110072101D03*
X182243585Y-110354944D03*
X182526427Y-110637786D03*
X182809270Y-110920629D03*
X183092113Y-111203472D03*
X183374955Y-111486314D03*
X183657798Y-111769157D03*
D41*
X184842202Y-111769157D03*
X185125045Y-111486314D03*
X185407887Y-111203472D03*
X185690730Y-110920629D03*
X185973573Y-110637786D03*
X186256415Y-110354944D03*
X186539258Y-110072101D03*
X186822101Y-109789258D03*
X187104944Y-109506415D03*
X187387786Y-109223573D03*
X187670629Y-108940730D03*
X187953472Y-108657887D03*
X188236314Y-108375045D03*
X188519157Y-108092202D03*
D42*
X188519157Y-106907798D03*
X188236314Y-106624955D03*
X187953472Y-106342113D03*
X187670629Y-106059270D03*
X187387786Y-105776427D03*
X187104944Y-105493585D03*
X186822101Y-105210742D03*
X186539258Y-104927899D03*
X186256415Y-104645056D03*
X185973573Y-104362214D03*
X185690730Y-104079371D03*
X185407887Y-103796528D03*
X185125045Y-103513686D03*
X184842202Y-103230843D03*
D43*
X184250000Y-107500000D03*
%TD*%
D44*
%TO.C,JP1*%
X184075000Y-90400000D03*
D45*
X181535000Y-90400000D03*
%TD*%
D46*
%TO.C,C13*%
X190400000Y-125570000D03*
X190400000Y-126530000D03*
%TD*%
D35*
%TO.C,C1*%
X187380000Y-88700000D03*
X186420000Y-88700000D03*
%TD*%
D44*
%TO.C,JP2*%
X180000000Y-123540000D03*
D45*
X180000000Y-121000000D03*
%TD*%
D47*
%TO.C,C11*%
X188490000Y-125587500D03*
X189450000Y-125587500D03*
%TD*%
M02*
