%TF.GenerationSoftware,KiCad,Pcbnew,(6.0.7)*%
%TF.CreationDate,2022-08-25T19:07:38-04:00*%
%TF.ProjectId,msbaker,6d736261-6b65-4722-9e6b-696361645f70,3*%
%TF.SameCoordinates,Original*%
%TF.FileFunction,Copper,L4,Bot*%
%TF.FilePolarity,Positive*%
%FSLAX46Y46*%
G04 Gerber Fmt 4.6, Leading zero omitted, Abs format (unit mm)*
G04 Created by KiCad (PCBNEW (6.0.7)) date 2022-08-25 19:07:38*
%MOMM*%
%LPD*%
G01*
G04 APERTURE LIST*
G04 Aperture macros list*
%AMRoundRect*
0 Rectangle with rounded corners*
0 $1 Rounding radius*
0 $2 $3 $4 $5 $6 $7 $8 $9 X,Y pos of 4 corners*
0 Add a 4 corners polygon primitive as box body*
4,1,4,$2,$3,$4,$5,$6,$7,$8,$9,$2,$3,0*
0 Add four circle primitives for the rounded corners*
1,1,$1+$1,$2,$3*
1,1,$1+$1,$4,$5*
1,1,$1+$1,$6,$7*
1,1,$1+$1,$8,$9*
0 Add four rect primitives between the rounded corners*
20,1,$1+$1,$2,$3,$4,$5,0*
20,1,$1+$1,$4,$5,$6,$7,0*
20,1,$1+$1,$6,$7,$8,$9,0*
20,1,$1+$1,$8,$9,$2,$3,0*%
%AMRotRect*
0 Rectangle, with rotation*
0 The origin of the aperture is its center*
0 $1 length*
0 $2 width*
0 $3 Rotation angle, in degrees counterclockwise*
0 Add horizontal line*
21,1,$1,$2,0,0,$3*%
G04 Aperture macros list end*
%TA.AperFunction,ComponentPad*%
%ADD10O,1.900000X1.200000*%
%TD*%
%TA.AperFunction,ComponentPad*%
%ADD11C,1.450000*%
%TD*%
%TA.AperFunction,ComponentPad*%
%ADD12C,3.800000*%
%TD*%
%TA.AperFunction,ComponentPad*%
%ADD13C,0.600000*%
%TD*%
%TA.AperFunction,ComponentPad*%
%ADD14R,1.700000X1.700000*%
%TD*%
%TA.AperFunction,ComponentPad*%
%ADD15O,1.700000X1.700000*%
%TD*%
%TA.AperFunction,SMDPad,CuDef*%
%ADD16RoundRect,0.140000X0.219203X0.021213X0.021213X0.219203X-0.219203X-0.021213X-0.021213X-0.219203X0*%
%TD*%
%TA.AperFunction,SMDPad,CuDef*%
%ADD17RoundRect,0.140000X-0.219203X-0.021213X-0.021213X-0.219203X0.219203X0.021213X0.021213X0.219203X0*%
%TD*%
%TA.AperFunction,SMDPad,CuDef*%
%ADD18RoundRect,0.140000X-0.021213X0.219203X-0.219203X0.021213X0.021213X-0.219203X0.219203X-0.021213X0*%
%TD*%
%TA.AperFunction,SMDPad,CuDef*%
%ADD19RoundRect,0.140000X0.021213X-0.219203X0.219203X-0.021213X-0.021213X0.219203X-0.219203X0.021213X0*%
%TD*%
%TA.AperFunction,SMDPad,CuDef*%
%ADD20RoundRect,0.060000X-0.115000X0.060000X-0.115000X-0.060000X0.115000X-0.060000X0.115000X0.060000X0*%
%TD*%
%TA.AperFunction,SMDPad,CuDef*%
%ADD21RoundRect,0.075000X-0.135000X0.075000X-0.135000X-0.075000X0.135000X-0.075000X0.135000X0.075000X0*%
%TD*%
%TA.AperFunction,SMDPad,CuDef*%
%ADD22RoundRect,0.225000X-0.225000X-0.250000X0.225000X-0.250000X0.225000X0.250000X-0.225000X0.250000X0*%
%TD*%
%TA.AperFunction,SMDPad,CuDef*%
%ADD23RotRect,2.000000X2.400000X135.000000*%
%TD*%
%TA.AperFunction,SMDPad,CuDef*%
%ADD24RoundRect,0.135000X0.226274X0.035355X0.035355X0.226274X-0.226274X-0.035355X-0.035355X-0.226274X0*%
%TD*%
%TA.AperFunction,ViaPad*%
%ADD25C,0.800000*%
%TD*%
%TA.AperFunction,ViaPad*%
%ADD26C,0.457000*%
%TD*%
%TA.AperFunction,Conductor*%
%ADD27C,0.200000*%
%TD*%
%TA.AperFunction,Conductor*%
%ADD28C,0.400000*%
%TD*%
G04 APERTURE END LIST*
D10*
%TO.P,J1,6,Shield*%
%TO.N,GND*%
X190000000Y-90250000D03*
X190000000Y-97250000D03*
D11*
X187300000Y-91250000D03*
X187300000Y-96250000D03*
%TD*%
D12*
%TO.P,M2,1*%
%TO.N,N/C*%
X188750000Y-83000000D03*
%TD*%
%TO.P,M2,1*%
%TO.N,N/C*%
X180250000Y-83000000D03*
%TD*%
%TO.P,M2,1*%
%TO.N,N/C*%
X184250000Y-125250000D03*
%TD*%
D13*
%TO.P,U3,57,GND*%
%TO.N,GND*%
X184250000Y-107500000D03*
X182446878Y-107500000D03*
X183348439Y-108401561D03*
X184250000Y-109303122D03*
X185151561Y-106598439D03*
X185151561Y-108401561D03*
X184250000Y-105696878D03*
X183348439Y-106598439D03*
X186053122Y-107500000D03*
%TD*%
D14*
%TO.P,JP1,1,A*%
%TO.N,Net-(JP1-Pad1)*%
X184075000Y-90400000D03*
D15*
%TO.P,JP1,2,B*%
%TO.N,/QSPI_SS*%
X181535000Y-90400000D03*
%TD*%
D14*
%TO.P,JP2,1,A*%
%TO.N,GND*%
X180000000Y-123540000D03*
D15*
%TO.P,JP2,2,B*%
%TO.N,/RUN*%
X180000000Y-121000000D03*
%TD*%
D16*
%TO.P,C9,2*%
%TO.N,GND*%
X186660589Y-103360589D03*
%TO.P,C9,1*%
%TO.N,Net-(C7-Pad1)*%
X187339411Y-104039411D03*
%TD*%
%TO.P,C19,1*%
%TO.N,+3.3V*%
X185839411Y-105739411D03*
%TO.P,C19,2*%
%TO.N,GND*%
X185160589Y-105060589D03*
%TD*%
D17*
%TO.P,C10,1*%
%TO.N,+3.3V*%
X189460589Y-107760589D03*
%TO.P,C10,2*%
%TO.N,GND*%
X190139411Y-108439411D03*
%TD*%
%TO.P,C12,1*%
%TO.N,+3.3V*%
X186521178Y-106421178D03*
%TO.P,C12,2*%
%TO.N,GND*%
X187200000Y-107100000D03*
%TD*%
D18*
%TO.P,C18,1*%
%TO.N,+3.3V*%
X187578822Y-108021178D03*
%TO.P,C18,2*%
%TO.N,GND*%
X186900000Y-108700000D03*
%TD*%
D19*
%TO.P,C15,1*%
%TO.N,+3.3V*%
X181860589Y-106439411D03*
%TO.P,C15,2*%
%TO.N,GND*%
X182539411Y-105760589D03*
%TD*%
D16*
%TO.P,C16,1*%
%TO.N,+3.3V*%
X182639411Y-108939411D03*
%TO.P,C16,2*%
%TO.N,GND*%
X181960589Y-108260589D03*
%TD*%
D19*
%TO.P,C17,1*%
%TO.N,+3.3V*%
X185160589Y-110039411D03*
%TO.P,C17,2*%
%TO.N,GND*%
X185839411Y-109360589D03*
%TD*%
D20*
%TO.P,J3,1,Pin_1*%
%TO.N,/GPIO29*%
X185187500Y-115050000D03*
%TO.P,J3,2,Pin_2*%
%TO.N,+3.3V*%
X183312500Y-115050000D03*
%TO.P,J3,3,Pin_3*%
%TO.N,/GPIO28*%
X185187500Y-115450000D03*
%TO.P,J3,4,Pin_4*%
%TO.N,/GPIO12*%
X183312500Y-115450000D03*
%TO.P,J3,5,Pin_5*%
%TO.N,/GPIO27*%
X185187500Y-115850000D03*
%TO.P,J3,6,Pin_6*%
%TO.N,/GPIO13*%
X183312500Y-115850000D03*
%TO.P,J3,7,Pin_7*%
%TO.N,/GPIO26*%
X185187500Y-116250000D03*
%TO.P,J3,8,Pin_8*%
%TO.N,/GPIO14*%
X183312500Y-116250000D03*
%TO.P,J3,9,Pin_9*%
%TO.N,/LED*%
X185187500Y-116650000D03*
%TO.P,J3,10,Pin_10*%
%TO.N,/GPIO15*%
X183312500Y-116650000D03*
%TO.P,J3,11,Pin_11*%
%TO.N,/GPIO24*%
X185187500Y-117050000D03*
%TO.P,J3,12,Pin_12*%
%TO.N,/SWCLK*%
X183312500Y-117050000D03*
%TO.P,J3,13,Pin_13*%
%TO.N,GND*%
X185187500Y-117450000D03*
%TO.P,J3,14,Pin_14*%
X183312500Y-117450000D03*
%TO.P,J3,15,Pin_15*%
%TO.N,/GPIO23*%
X185187500Y-117850000D03*
%TO.P,J3,16,Pin_16*%
%TO.N,/SWD*%
X183312500Y-117850000D03*
%TO.P,J3,17,Pin_17*%
%TO.N,/GPIO22*%
X185187500Y-118250000D03*
%TO.P,J3,18,Pin_18*%
%TO.N,/RUN*%
X183312500Y-118250000D03*
%TO.P,J3,19,Pin_19*%
%TO.N,/GPIO21*%
X185187500Y-118650000D03*
%TO.P,J3,20,Pin_20*%
%TO.N,/GPIO16*%
X183312500Y-118650000D03*
%TO.P,J3,21,Pin_21*%
%TO.N,/GPIO20*%
X185187500Y-119050000D03*
%TO.P,J3,22,Pin_22*%
%TO.N,/GPIO17*%
X183312500Y-119050000D03*
%TO.P,J3,23,Pin_23*%
%TO.N,GND*%
X185187500Y-119450000D03*
%TO.P,J3,24,Pin_24*%
X183312500Y-119450000D03*
%TO.P,J3,25,Pin_25*%
%TO.N,/GPIO19*%
X185187500Y-119850000D03*
%TO.P,J3,26,Pin_26*%
%TO.N,/GPIO11*%
X183312500Y-119850000D03*
%TO.P,J3,27,Pin_27*%
%TO.N,/GPIO18*%
X185187500Y-120250000D03*
%TO.P,J3,28,Pin_28*%
%TO.N,/GPIO10*%
X183312500Y-120250000D03*
%TO.P,J3,29,Pin_29*%
%TO.N,/I2C0_SDA*%
X185187500Y-120650000D03*
%TO.P,J3,30,Pin_30*%
%TO.N,/GPIO9*%
X183312500Y-120650000D03*
%TO.P,J3,31,Pin_31*%
%TO.N,/I2C0_SCL*%
X185187500Y-121050000D03*
%TO.P,J3,32,Pin_32*%
%TO.N,/GPIO8*%
X183312500Y-121050000D03*
%TO.P,J3,33,Pin_33*%
%TO.N,GND*%
X185187500Y-121450000D03*
%TO.P,J3,34,Pin_34*%
X183312500Y-121450000D03*
D21*
%TO.P,J3,GND*%
X183875000Y-122075000D03*
X183875000Y-114425000D03*
X184625000Y-114425000D03*
X184625000Y-122075000D03*
%TD*%
D22*
%TO.P,C2,1*%
%TO.N,+3.3V*%
X185000000Y-70900000D03*
%TO.P,C2,2*%
%TO.N,GND*%
X186550000Y-70900000D03*
%TD*%
D23*
%TO.P,Y1,1,1*%
%TO.N,Net-(C5-Pad2)*%
X182308148Y-112058148D03*
%TO.P,Y1,2,2*%
%TO.N,Net-(C4-Pad2)*%
X179691852Y-109441852D03*
%TD*%
D18*
%TO.P,C14,1*%
%TO.N,+3.3V*%
X183939411Y-104360589D03*
%TO.P,C14,2*%
%TO.N,GND*%
X183260589Y-105039411D03*
%TD*%
%TO.P,C4,1*%
%TO.N,GND*%
X178978822Y-107621178D03*
%TO.P,C4,2*%
%TO.N,Net-(C4-Pad2)*%
X178300000Y-108300000D03*
%TD*%
D17*
%TO.P,C7,1*%
%TO.N,Net-(C7-Pad1)*%
X189460589Y-104960589D03*
%TO.P,C7,2*%
%TO.N,GND*%
X190139411Y-105639411D03*
%TD*%
D24*
%TO.P,R4,1*%
%TO.N,Net-(C5-Pad2)*%
X180360624Y-113610624D03*
%TO.P,R4,2*%
%TO.N,Net-(R4-Pad2)*%
X179639376Y-112889376D03*
%TD*%
D18*
%TO.P,C5,1*%
%TO.N,GND*%
X184039411Y-112860589D03*
%TO.P,C5,2*%
%TO.N,Net-(C5-Pad2)*%
X183360589Y-113539411D03*
%TD*%
D17*
%TO.P,C20,1*%
%TO.N,+3.3V*%
X189460589Y-106360589D03*
%TO.P,C20,2*%
%TO.N,GND*%
X190139411Y-107039411D03*
%TD*%
%TO.P,C8,1*%
%TO.N,Net-(C7-Pad1)*%
X183360589Y-109660589D03*
%TO.P,C8,2*%
%TO.N,GND*%
X184039411Y-110339411D03*
%TD*%
D25*
%TO.N,GND*%
X179100000Y-90000000D03*
D26*
X184650000Y-119450000D03*
X184650000Y-117450000D03*
D25*
X186550000Y-87650000D03*
D26*
X188500000Y-123337500D03*
D25*
X182900000Y-99300000D03*
X180000000Y-74700000D03*
D26*
X189850000Y-126150000D03*
X184650000Y-121450000D03*
X183850000Y-117450000D03*
X183850000Y-119450000D03*
X189500000Y-120650000D03*
X184625000Y-113675000D03*
D25*
X186900000Y-69900000D03*
D26*
X181600000Y-108700000D03*
X186500000Y-102700000D03*
X190600000Y-107500000D03*
X189000000Y-123837500D03*
X183850000Y-121450000D03*
X178200000Y-106900000D03*
X190600000Y-108900000D03*
X184250000Y-122100000D03*
%TO.N,+3.3V*%
X182500000Y-109500000D03*
D25*
X178300000Y-93400000D03*
D26*
X186500000Y-105800000D03*
X184200000Y-103800000D03*
X189000000Y-107300000D03*
X188000000Y-124887500D03*
D25*
X184700000Y-69800000D03*
D26*
X188000000Y-107600000D03*
X181400000Y-106900000D03*
X188900000Y-106100000D03*
D25*
X188700000Y-85800000D03*
D26*
X190150000Y-124887500D03*
X183300000Y-114550000D03*
X185100000Y-109500000D03*
%TO.N,Net-(C4-Pad2)*%
X180700000Y-110000000D03*
%TO.N,Net-(C7-Pad1)*%
X187150000Y-104500000D03*
X189050000Y-105500000D03*
X183360589Y-109660589D03*
%TO.N,/SD_DAT2*%
X181050000Y-103000000D03*
X180600000Y-89600000D03*
%TO.N,/SD_DAT3*%
X180600000Y-88950000D03*
X180450000Y-103000000D03*
%TO.N,/SD_CMD*%
X179850000Y-103000000D03*
X180600000Y-88300000D03*
%TO.N,/SD_CLK*%
X184850000Y-87850000D03*
X182900000Y-103000000D03*
%TO.N,/SD_DAT0*%
X184850000Y-88500000D03*
X182250000Y-103000000D03*
%TO.N,/SD_DAT1*%
X181650000Y-103000000D03*
X184850000Y-89150000D03*
%TO.N,/GPIO29*%
X189850000Y-114750000D03*
%TO.N,/GPIO28*%
X189500000Y-115250000D03*
%TO.N,/GPIO12*%
X179000000Y-115250000D03*
%TO.N,/GPIO27*%
X189150000Y-115750000D03*
%TO.N,/GPIO13*%
X179350000Y-115750000D03*
%TO.N,/GPIO26*%
X188800000Y-116250000D03*
%TO.N,/GPIO14*%
X179700000Y-116250000D03*
%TO.N,/LED*%
X188450000Y-116750000D03*
%TO.N,/GPIO15*%
X180050000Y-116750000D03*
%TO.N,/GPIO24*%
X188100000Y-117250000D03*
%TO.N,/SWCLK*%
X180400000Y-117250000D03*
%TO.N,/GPIO23*%
X187750000Y-117750000D03*
%TO.N,/SWD*%
X180750000Y-117750000D03*
%TO.N,/GPIO22*%
X187400000Y-118250000D03*
%TO.N,/RUN*%
X181100000Y-118250000D03*
%TO.N,/GPIO21*%
X187050000Y-118750000D03*
%TO.N,/GPIO16*%
X181450000Y-118750000D03*
%TO.N,/GPIO20*%
X186700000Y-119250000D03*
%TO.N,/GPIO17*%
X181800000Y-119250000D03*
%TO.N,/GPIO19*%
X186350000Y-119750000D03*
%TO.N,/GPIO11*%
X182150000Y-119750000D03*
X178500000Y-105750000D03*
%TO.N,/GPIO18*%
X186000000Y-120250000D03*
%TO.N,/GPIO10*%
X179050000Y-105550000D03*
X182500000Y-120250000D03*
%TO.N,/I2C0_SDA*%
X185800000Y-120800000D03*
X187800000Y-122100000D03*
X180750000Y-104450000D03*
%TO.N,/GPIO9*%
X182700000Y-120800000D03*
X179650000Y-105500000D03*
%TO.N,/I2C0_SCL*%
X180850000Y-105050000D03*
X185750000Y-121400000D03*
%TO.N,/GPIO8*%
X180300000Y-105500000D03*
X182750000Y-121400000D03*
%TO.N,Net-(R4-Pad2)*%
X181200000Y-110400000D03*
%TO.N,/QSPI_SCLK*%
X182400000Y-98100000D03*
X183400000Y-98100000D03*
%TO.N,/QSPI_SD3*%
X181100000Y-97600000D03*
X183900000Y-97600000D03*
%TD*%
D27*
%TO.N,GND*%
X186660589Y-103360589D02*
X186500000Y-103200000D01*
X184039411Y-110339411D02*
X184039411Y-109513711D01*
X184039411Y-112860589D02*
X184700000Y-113521178D01*
X190139411Y-107039411D02*
X190600000Y-107500000D01*
D28*
X186550000Y-70250000D02*
X186900000Y-69900000D01*
D27*
X184039411Y-109513711D02*
X184250000Y-109303122D01*
X183312500Y-121450000D02*
X183850000Y-121450000D01*
X184625000Y-113675000D02*
X184700000Y-113600000D01*
X181600000Y-108621178D02*
X181600000Y-108700000D01*
D28*
X184250000Y-122100000D02*
X184600000Y-122100000D01*
X186550000Y-70900000D02*
X186550000Y-70250000D01*
X183875000Y-122075000D02*
X183900000Y-122100000D01*
D27*
X190139411Y-105639411D02*
X190139411Y-107039411D01*
X178978822Y-107621178D02*
X178921178Y-107621178D01*
X186500000Y-103200000D02*
X186500000Y-102700000D01*
X183312500Y-119450000D02*
X183850000Y-119450000D01*
X184625000Y-114425000D02*
X184625000Y-113675000D01*
X178921178Y-107621178D02*
X178200000Y-106900000D01*
X183875000Y-114425000D02*
X184625000Y-114425000D01*
D28*
X183900000Y-122100000D02*
X184250000Y-122100000D01*
D27*
X183312500Y-117450000D02*
X183850000Y-117450000D01*
X184700000Y-113521178D02*
X184700000Y-113600000D01*
X185187500Y-121450000D02*
X184650000Y-121450000D01*
D28*
X184600000Y-122100000D02*
X184625000Y-122075000D01*
D27*
X190139411Y-108439411D02*
X190600000Y-108900000D01*
X185839411Y-109360589D02*
X185839411Y-109089411D01*
X185187500Y-119450000D02*
X184650000Y-119450000D01*
X185187500Y-117450000D02*
X184650000Y-117450000D01*
%TO.N,+3.3V*%
X183312500Y-115050000D02*
X183312500Y-114562500D01*
X185839411Y-105739411D02*
X186439411Y-105739411D01*
X189160589Y-106360589D02*
X188900000Y-106100000D01*
X185100000Y-109978822D02*
X185100000Y-109500000D01*
X183939411Y-104360589D02*
X184200000Y-104100000D01*
X186439411Y-105739411D02*
X186500000Y-105800000D01*
X183312500Y-114562500D02*
X183300000Y-114550000D01*
X182500000Y-109500000D02*
X182500000Y-109078822D01*
X187578822Y-108021178D02*
X188000000Y-107600000D01*
X181860589Y-106439411D02*
X181400000Y-106900000D01*
X189460589Y-106360589D02*
X189160589Y-106360589D01*
X189460589Y-107760589D02*
X189000000Y-107300000D01*
D28*
X185000000Y-70100000D02*
X184700000Y-69800000D01*
D27*
X186521178Y-106421178D02*
X186500000Y-106400000D01*
D28*
X185000000Y-70900000D02*
X185000000Y-70100000D01*
D27*
X186500000Y-106400000D02*
X186500000Y-105800000D01*
X182500000Y-109078822D02*
X182639411Y-108939411D01*
X185160589Y-110039411D02*
X185100000Y-109978822D01*
X184200000Y-104100000D02*
X184200000Y-103800000D01*
%TO.N,Net-(C4-Pad2)*%
X180250000Y-110000000D02*
X179691852Y-109441852D01*
X178300000Y-108300000D02*
X178550000Y-108300000D01*
X180700000Y-110000000D02*
X180250000Y-110000000D01*
X178550000Y-108300000D02*
X179691852Y-109441852D01*
%TO.N,Net-(C5-Pad2)*%
X180360624Y-113610624D02*
X180755672Y-113610624D01*
X180755672Y-113610624D02*
X182308148Y-112058148D01*
X183360589Y-113539411D02*
X182308148Y-112486970D01*
X182308148Y-112486970D02*
X182308148Y-112058148D01*
%TO.N,Net-(C7-Pad1)*%
X189050000Y-105500000D02*
X189460589Y-105089411D01*
X189460589Y-105089411D02*
X189460589Y-104960589D01*
X187150000Y-104500000D02*
X187150000Y-104228822D01*
X187150000Y-104228822D02*
X187339411Y-104039411D01*
%TO.N,/SD_DAT2*%
X180450000Y-89950000D02*
X180450000Y-89750000D01*
X180450000Y-97600000D02*
X180450000Y-89950000D01*
X180450000Y-89750000D02*
X180600000Y-89600000D01*
X181050000Y-103000000D02*
X181050000Y-98200000D01*
X181050000Y-98200000D02*
X180750000Y-97900000D01*
X180750000Y-97900000D02*
X180450000Y-97600000D01*
%TO.N,/SD_DAT3*%
X180100000Y-97750000D02*
X180100000Y-97450000D01*
X180450000Y-98100000D02*
X180150000Y-97800000D01*
X180450000Y-103000000D02*
X180450000Y-98100000D01*
X180150000Y-97800000D02*
X180100000Y-97750000D01*
X180100000Y-97450000D02*
X180100000Y-90000000D01*
X180100000Y-90000000D02*
X180100000Y-89450000D01*
X180100000Y-89450000D02*
X180600000Y-88950000D01*
%TO.N,/SD_CMD*%
X179750000Y-97350000D02*
X179750000Y-90150000D01*
X179800000Y-97950000D02*
X179750000Y-97900000D01*
X179750000Y-90150000D02*
X179750000Y-89150000D01*
X179850000Y-98000000D02*
X179800000Y-97950000D01*
X179850000Y-103000000D02*
X179850000Y-98000000D01*
X179750000Y-97900000D02*
X179750000Y-97350000D01*
X179750000Y-89150000D02*
X180600000Y-88300000D01*
%TO.N,/SD_CLK*%
X185100000Y-92450000D02*
X185650000Y-91900000D01*
X185900000Y-91650000D02*
X185900000Y-89300000D01*
X185900000Y-89300000D02*
X185900000Y-88900000D01*
X185900000Y-88900000D02*
X184850000Y-87850000D01*
X183750000Y-100350000D02*
X185100000Y-99000000D01*
X185100000Y-98700000D02*
X185100000Y-92450000D01*
X182900000Y-103000000D02*
X182900000Y-101200000D01*
X185650000Y-91900000D02*
X185900000Y-91650000D01*
X185100000Y-99000000D02*
X185100000Y-98700000D01*
X182900000Y-101200000D02*
X183750000Y-100350000D01*
%TO.N,/SD_DAT0*%
X185550000Y-91500000D02*
X185550000Y-89200000D01*
X182250000Y-103000000D02*
X182250000Y-101350000D01*
X183500000Y-100100000D02*
X184750000Y-98850000D01*
X184750000Y-92300000D02*
X185450000Y-91600000D01*
X184750000Y-98250000D02*
X184750000Y-92300000D01*
X185450000Y-91600000D02*
X185550000Y-91500000D01*
X185550000Y-89200000D02*
X184850000Y-88500000D01*
X184750000Y-98850000D02*
X184750000Y-98250000D01*
X182250000Y-101350000D02*
X183500000Y-100100000D01*
%TO.N,/SD_DAT1*%
X184400000Y-97400000D02*
X184400000Y-92100000D01*
X181650000Y-103000000D02*
X181650000Y-101450000D01*
X181650000Y-101450000D02*
X183800000Y-99300000D01*
X184400000Y-92100000D02*
X185200000Y-91300000D01*
X183800000Y-99300000D02*
X184400000Y-98700000D01*
X185200000Y-91300000D02*
X185200000Y-89500000D01*
X184400000Y-98700000D02*
X184400000Y-97400000D01*
X185200000Y-89500000D02*
X184850000Y-89150000D01*
%TO.N,/GPIO29*%
X188700000Y-114750000D02*
X189850000Y-114750000D01*
X188400000Y-115050000D02*
X188700000Y-114750000D01*
X185187500Y-115050000D02*
X188400000Y-115050000D01*
%TO.N,/GPIO28*%
X188700000Y-115250000D02*
X189500000Y-115250000D01*
X185187500Y-115450000D02*
X188500000Y-115450000D01*
X188500000Y-115450000D02*
X188700000Y-115250000D01*
%TO.N,/GPIO12*%
X179800000Y-115250000D02*
X180000000Y-115450000D01*
X180000000Y-115450000D02*
X183312500Y-115450000D01*
X179000000Y-115250000D02*
X179800000Y-115250000D01*
%TO.N,/GPIO27*%
X188550000Y-115850000D02*
X188650000Y-115750000D01*
X188650000Y-115750000D02*
X189150000Y-115750000D01*
X185187500Y-115850000D02*
X188550000Y-115850000D01*
%TO.N,/GPIO13*%
X179850000Y-115750000D02*
X179950000Y-115850000D01*
X179350000Y-115750000D02*
X179850000Y-115750000D01*
X179950000Y-115850000D02*
X183312500Y-115850000D01*
%TO.N,/GPIO26*%
X188800000Y-116250000D02*
X185187500Y-116250000D01*
%TO.N,/GPIO14*%
X179700000Y-116250000D02*
X183312500Y-116250000D01*
%TO.N,/LED*%
X185450000Y-116650000D02*
X185187500Y-116650000D01*
X185550000Y-116750000D02*
X185450000Y-116650000D01*
X188450000Y-116750000D02*
X185550000Y-116750000D01*
%TO.N,/GPIO15*%
X180050000Y-116750000D02*
X182950000Y-116750000D01*
X183050000Y-116650000D02*
X183312500Y-116650000D01*
X182950000Y-116750000D02*
X183050000Y-116650000D01*
%TO.N,/GPIO24*%
X188100000Y-117250000D02*
X185600000Y-117250000D01*
X185600000Y-117250000D02*
X185400000Y-117050000D01*
X185400000Y-117050000D02*
X185187500Y-117050000D01*
%TO.N,/SWCLK*%
X183100000Y-117050000D02*
X183312500Y-117050000D01*
X182900000Y-117250000D02*
X183100000Y-117050000D01*
X180400000Y-117250000D02*
X182900000Y-117250000D01*
%TO.N,/GPIO23*%
X187250000Y-117750000D02*
X187750000Y-117750000D01*
X185187500Y-117850000D02*
X187150000Y-117850000D01*
X187150000Y-117850000D02*
X187250000Y-117750000D01*
%TO.N,/SWD*%
X183312500Y-117850000D02*
X181350000Y-117850000D01*
X181250000Y-117750000D02*
X180750000Y-117750000D01*
X181350000Y-117850000D02*
X181250000Y-117750000D01*
%TO.N,/GPIO22*%
X187400000Y-118250000D02*
X185187500Y-118250000D01*
%TO.N,/RUN*%
X181100000Y-118250000D02*
X183312500Y-118250000D01*
%TO.N,/GPIO21*%
X187050000Y-118750000D02*
X185550000Y-118750000D01*
X185450000Y-118650000D02*
X185187500Y-118650000D01*
X185550000Y-118750000D02*
X185450000Y-118650000D01*
%TO.N,/GPIO16*%
X182950000Y-118750000D02*
X183050000Y-118650000D01*
X183050000Y-118650000D02*
X183312500Y-118650000D01*
X181450000Y-118750000D02*
X182950000Y-118750000D01*
%TO.N,/GPIO20*%
X185600000Y-119250000D02*
X185400000Y-119050000D01*
X186700000Y-119250000D02*
X185600000Y-119250000D01*
X185400000Y-119050000D02*
X185187500Y-119050000D01*
%TO.N,/GPIO17*%
X181800000Y-119250000D02*
X182900000Y-119250000D01*
X183100000Y-119050000D02*
X183312500Y-119050000D01*
X182900000Y-119250000D02*
X183100000Y-119050000D01*
%TO.N,/GPIO19*%
X185187500Y-119850000D02*
X185750000Y-119850000D01*
X185750000Y-119850000D02*
X185850000Y-119750000D01*
X185850000Y-119750000D02*
X186350000Y-119750000D01*
%TO.N,/GPIO11*%
X182750000Y-119850000D02*
X182650000Y-119750000D01*
X183312500Y-119850000D02*
X182750000Y-119850000D01*
X182650000Y-119750000D02*
X182150000Y-119750000D01*
%TO.N,/GPIO18*%
X186000000Y-120250000D02*
X185187500Y-120250000D01*
%TO.N,/GPIO10*%
X183312500Y-120250000D02*
X182500000Y-120250000D01*
%TO.N,/I2C0_SDA*%
X185187500Y-120650000D02*
X185650000Y-120650000D01*
X185800000Y-120800000D02*
X187100000Y-122100000D01*
X185650000Y-120650000D02*
X185800000Y-120800000D01*
X187100000Y-122100000D02*
X187800000Y-122100000D01*
%TO.N,/GPIO9*%
X183312500Y-120650000D02*
X182850000Y-120650000D01*
X182850000Y-120650000D02*
X182700000Y-120800000D01*
%TO.N,/I2C0_SCL*%
X185187500Y-121050000D02*
X185400000Y-121050000D01*
X185400000Y-121050000D02*
X185750000Y-121400000D01*
%TO.N,/GPIO8*%
X182750000Y-121400000D02*
X183100000Y-121050000D01*
X183100000Y-121050000D02*
X183312500Y-121050000D01*
%TO.N,Net-(R4-Pad2)*%
X179639376Y-111960624D02*
X179639376Y-112889376D01*
X181200000Y-110400000D02*
X179639376Y-111960624D01*
%TO.N,/QSPI_SCLK*%
X183400000Y-98100000D02*
X182400000Y-98100000D01*
%TO.N,/QSPI_SD3*%
X183900000Y-97600000D02*
X181100000Y-97600000D01*
%TD*%
%TA.AperFunction,Conductor*%
%TO.N,GND*%
G36*
X184294945Y-101751798D02*
G01*
X184320004Y-101770004D01*
X186800700Y-104250700D01*
X186828477Y-104305217D01*
X186818907Y-104365647D01*
X186813210Y-104376829D01*
X186807203Y-104388619D01*
X186789562Y-104500000D01*
X186790781Y-104507696D01*
X186804924Y-104596990D01*
X186807203Y-104611381D01*
X186810739Y-104618320D01*
X186810739Y-104618321D01*
X186832924Y-104661860D01*
X186858400Y-104711860D01*
X186938140Y-104791600D01*
X186945077Y-104795135D01*
X186945079Y-104795136D01*
X187029479Y-104838140D01*
X187038619Y-104842797D01*
X187046313Y-104844016D01*
X187046314Y-104844016D01*
X187142304Y-104859219D01*
X187150000Y-104860438D01*
X187157696Y-104859219D01*
X187253686Y-104844016D01*
X187253687Y-104844016D01*
X187261381Y-104842797D01*
X187270521Y-104838140D01*
X187284353Y-104831093D01*
X187344786Y-104821523D01*
X187399300Y-104849300D01*
X188518994Y-105968994D01*
X188546771Y-106023511D01*
X188546771Y-106054484D01*
X188539562Y-106100000D01*
X188540781Y-106107696D01*
X188552844Y-106183857D01*
X188557203Y-106211381D01*
X188560739Y-106218320D01*
X188560739Y-106218321D01*
X188597315Y-106290104D01*
X188608400Y-106311860D01*
X188688140Y-106391600D01*
X188695077Y-106395135D01*
X188695079Y-106395136D01*
X188723323Y-106409527D01*
X188788619Y-106442797D01*
X188796313Y-106444016D01*
X188796314Y-106444016D01*
X188866588Y-106455146D01*
X188900000Y-106460438D01*
X188900154Y-106460414D01*
X188954668Y-106478126D01*
X188966481Y-106488215D01*
X188993697Y-106515431D01*
X188997264Y-106519191D01*
X189023881Y-106548752D01*
X189032422Y-106552555D01*
X189042110Y-106560828D01*
X189268856Y-106787574D01*
X189272893Y-106790271D01*
X189272896Y-106790274D01*
X189281936Y-106796314D01*
X189335002Y-106831772D01*
X189344567Y-106833675D01*
X189344568Y-106833675D01*
X189363929Y-106837526D01*
X189414620Y-106864620D01*
X189551212Y-107001212D01*
X189578989Y-107055729D01*
X189580208Y-107071216D01*
X189580208Y-107111916D01*
X189583170Y-107128717D01*
X189586435Y-107137687D01*
X189588571Y-107198835D01*
X189554357Y-107249560D01*
X189493406Y-107270547D01*
X189491364Y-107270547D01*
X189481802Y-107268645D01*
X189472240Y-107270547D01*
X189472237Y-107270547D01*
X189460316Y-107272918D01*
X189399555Y-107265725D01*
X189354626Y-107224192D01*
X189347415Y-107203401D01*
X189346423Y-107203723D01*
X189344016Y-107196314D01*
X189342797Y-107188619D01*
X189316846Y-107137687D01*
X189295136Y-107095079D01*
X189295135Y-107095077D01*
X189291600Y-107088140D01*
X189211860Y-107008400D01*
X189204923Y-107004865D01*
X189204921Y-107004864D01*
X189118321Y-106960739D01*
X189118320Y-106960739D01*
X189111381Y-106957203D01*
X189103687Y-106955984D01*
X189103686Y-106955984D01*
X189007696Y-106940781D01*
X189000000Y-106939562D01*
X188992304Y-106940781D01*
X188896314Y-106955984D01*
X188896313Y-106955984D01*
X188888619Y-106957203D01*
X188881680Y-106960739D01*
X188881679Y-106960739D01*
X188795079Y-107004864D01*
X188795077Y-107004865D01*
X188788140Y-107008400D01*
X188708400Y-107088140D01*
X188704865Y-107095077D01*
X188704864Y-107095079D01*
X188683154Y-107137687D01*
X188657203Y-107188619D01*
X188655984Y-107196313D01*
X188655984Y-107196314D01*
X188649973Y-107234268D01*
X188639562Y-107300000D01*
X188644467Y-107330968D01*
X188655163Y-107398498D01*
X188657203Y-107411381D01*
X188660739Y-107418320D01*
X188660739Y-107418321D01*
X188683892Y-107463760D01*
X188708400Y-107511860D01*
X188788140Y-107591600D01*
X188795077Y-107595135D01*
X188795079Y-107595136D01*
X188876584Y-107636665D01*
X188888619Y-107642797D01*
X188896314Y-107644016D01*
X188903723Y-107646423D01*
X188902852Y-107649103D01*
X188945830Y-107671007D01*
X188973603Y-107725526D01*
X188972918Y-107760316D01*
X188970547Y-107772237D01*
X188970547Y-107772240D01*
X188968645Y-107781802D01*
X188970547Y-107791364D01*
X188987101Y-107874587D01*
X188989406Y-107886176D01*
X189008216Y-107914327D01*
X189030904Y-107948282D01*
X189030907Y-107948285D01*
X189033604Y-107952322D01*
X189245637Y-108164355D01*
X189273414Y-108218872D01*
X189263843Y-108279304D01*
X189245637Y-108304363D01*
X184743064Y-112806936D01*
X184688547Y-112834713D01*
X184628115Y-112825142D01*
X184584850Y-112781877D01*
X184580030Y-112770792D01*
X184560195Y-112716296D01*
X184552995Y-112703171D01*
X184529175Y-112672129D01*
X184524914Y-112667269D01*
X184460619Y-112602974D01*
X184448736Y-112596920D01*
X184443705Y-112597716D01*
X184109415Y-112932006D01*
X184054898Y-112959783D01*
X183994466Y-112950212D01*
X183969407Y-112932006D01*
X183967994Y-112930593D01*
X183940217Y-112876076D01*
X183949788Y-112815644D01*
X183967994Y-112790585D01*
X184297026Y-112461553D01*
X184303080Y-112449670D01*
X184302284Y-112444639D01*
X184232731Y-112375086D01*
X184227871Y-112370825D01*
X184196829Y-112347005D01*
X184183704Y-112339805D01*
X184086285Y-112304347D01*
X184069489Y-112301386D01*
X183966906Y-112301386D01*
X183950104Y-112304348D01*
X183908072Y-112319647D01*
X183846924Y-112321783D01*
X183796199Y-112287569D01*
X183775272Y-112230073D01*
X183792137Y-112171258D01*
X183804208Y-112156614D01*
X183962819Y-111998003D01*
X183983885Y-111966474D01*
X183993780Y-111916727D01*
X183983885Y-111866979D01*
X183962819Y-111835450D01*
X182898912Y-110771543D01*
X183754529Y-110771543D01*
X183755325Y-110776574D01*
X183803672Y-110824921D01*
X183808518Y-110829170D01*
X183839567Y-110852995D01*
X183852689Y-110860194D01*
X183950110Y-110895653D01*
X183966906Y-110898614D01*
X184069489Y-110898614D01*
X184086285Y-110895653D01*
X184183704Y-110860195D01*
X184196829Y-110852995D01*
X184227871Y-110829175D01*
X184232731Y-110824914D01*
X184297026Y-110760619D01*
X184303080Y-110748736D01*
X184302284Y-110743705D01*
X184050497Y-110491918D01*
X184038614Y-110485864D01*
X184033583Y-110486660D01*
X183760583Y-110759660D01*
X183754529Y-110771543D01*
X182898912Y-110771543D01*
X182530846Y-110403477D01*
X182499317Y-110382411D01*
X182489757Y-110380510D01*
X182489756Y-110380509D01*
X182459131Y-110374418D01*
X182449569Y-110372516D01*
X182399822Y-110382411D01*
X182368293Y-110403477D01*
X181930889Y-110840881D01*
X181876372Y-110868658D01*
X181815940Y-110859087D01*
X181790881Y-110840881D01*
X181564762Y-110614762D01*
X181536985Y-110560245D01*
X181540470Y-110515948D01*
X181542797Y-110511381D01*
X181546839Y-110485864D01*
X181559219Y-110407696D01*
X181560438Y-110400000D01*
X181542797Y-110288619D01*
X181531193Y-110265845D01*
X181495136Y-110195079D01*
X181495135Y-110195077D01*
X181491600Y-110188140D01*
X181411860Y-110108400D01*
X181404923Y-110104865D01*
X181404921Y-110104864D01*
X181318321Y-110060739D01*
X181318320Y-110060739D01*
X181311381Y-110057203D01*
X181303687Y-110055984D01*
X181303686Y-110055984D01*
X181207696Y-110040781D01*
X181200000Y-110039562D01*
X181192304Y-110040781D01*
X181192302Y-110040781D01*
X181167746Y-110044670D01*
X181107314Y-110035098D01*
X181064050Y-109991833D01*
X181054479Y-109962376D01*
X181044016Y-109896314D01*
X181044016Y-109896313D01*
X181042797Y-109888619D01*
X181039261Y-109881679D01*
X181039259Y-109881673D01*
X181006869Y-109818105D01*
X180997297Y-109757673D01*
X181025074Y-109703156D01*
X181346523Y-109381707D01*
X181359481Y-109362313D01*
X181362174Y-109358283D01*
X181362175Y-109358282D01*
X181367589Y-109350178D01*
X181377484Y-109300431D01*
X181367589Y-109250683D01*
X181358472Y-109237037D01*
X181356178Y-109233604D01*
X181346523Y-109219154D01*
X180820090Y-108692721D01*
X181675707Y-108692721D01*
X181676503Y-108697752D01*
X181724850Y-108746099D01*
X181729696Y-108750348D01*
X181760745Y-108774173D01*
X181773867Y-108781372D01*
X181871288Y-108816831D01*
X181888084Y-108819792D01*
X181990667Y-108819792D01*
X182007466Y-108816830D01*
X182023960Y-108810827D01*
X182085108Y-108808692D01*
X182135833Y-108842907D01*
X182156759Y-108900403D01*
X182154917Y-108923169D01*
X182147467Y-108960624D01*
X182149369Y-108970186D01*
X182162737Y-109037390D01*
X182168228Y-109064998D01*
X182189558Y-109096920D01*
X182209726Y-109127104D01*
X182209729Y-109127107D01*
X182212426Y-109131144D01*
X182218907Y-109137625D01*
X182246684Y-109192142D01*
X182237113Y-109252574D01*
X182218907Y-109277633D01*
X182208400Y-109288140D01*
X182204865Y-109295077D01*
X182204864Y-109295079D01*
X182162784Y-109377665D01*
X182157203Y-109388619D01*
X182155984Y-109396313D01*
X182155984Y-109396314D01*
X182155673Y-109398277D01*
X182139562Y-109500000D01*
X182157203Y-109611381D01*
X182160739Y-109618320D01*
X182160739Y-109618321D01*
X182202416Y-109700115D01*
X182208400Y-109711860D01*
X182288140Y-109791600D01*
X182295077Y-109795135D01*
X182295079Y-109795136D01*
X182368950Y-109832775D01*
X182388619Y-109842797D01*
X182396313Y-109844016D01*
X182396314Y-109844016D01*
X182492304Y-109859219D01*
X182500000Y-109860438D01*
X182507696Y-109859219D01*
X182603686Y-109844016D01*
X182603687Y-109844016D01*
X182611381Y-109842797D01*
X182631050Y-109832775D01*
X182704921Y-109795136D01*
X182704923Y-109795135D01*
X182711860Y-109791600D01*
X182735681Y-109767779D01*
X182790198Y-109740002D01*
X182850630Y-109749573D01*
X182888103Y-109787046D01*
X182889406Y-109786176D01*
X182910741Y-109818105D01*
X182930904Y-109848282D01*
X182930907Y-109848285D01*
X182933604Y-109852322D01*
X183168856Y-110087574D01*
X183172893Y-110090271D01*
X183172896Y-110090274D01*
X183194105Y-110104445D01*
X183235002Y-110131772D01*
X183244565Y-110133674D01*
X183244567Y-110133675D01*
X183329814Y-110150631D01*
X183339376Y-110152533D01*
X183376830Y-110145083D01*
X183437590Y-110152275D01*
X183482520Y-110193807D01*
X183494457Y-110253817D01*
X183489173Y-110276040D01*
X183483170Y-110292534D01*
X183480208Y-110309333D01*
X183480208Y-110411916D01*
X183483169Y-110428712D01*
X183518628Y-110526133D01*
X183525827Y-110539255D01*
X183549652Y-110570304D01*
X183553901Y-110575150D01*
X183596990Y-110618239D01*
X183608873Y-110624293D01*
X183613904Y-110623497D01*
X184318239Y-109919162D01*
X184324294Y-109907279D01*
X184322065Y-109893207D01*
X184331637Y-109832775D01*
X184374902Y-109789511D01*
X184393805Y-109782207D01*
X184443811Y-109768573D01*
X184456628Y-109763026D01*
X184566659Y-109695468D01*
X184577400Y-109686551D01*
X184620555Y-109638874D01*
X184673623Y-109608421D01*
X184734456Y-109614976D01*
X184782160Y-109660364D01*
X184796341Y-109688194D01*
X184805915Y-109748625D01*
X184778137Y-109803145D01*
X184733604Y-109847678D01*
X184730907Y-109851715D01*
X184730904Y-109851718D01*
X184728207Y-109855755D01*
X184689406Y-109913824D01*
X184687504Y-109923387D01*
X184687503Y-109923389D01*
X184679742Y-109962410D01*
X184668645Y-110018198D01*
X184668018Y-110018073D01*
X184651640Y-110068481D01*
X184602140Y-110104445D01*
X184540954Y-110104445D01*
X184501543Y-110080294D01*
X184481832Y-110060583D01*
X184469949Y-110054529D01*
X184464918Y-110055325D01*
X184191918Y-110328325D01*
X184185864Y-110340208D01*
X184186660Y-110345239D01*
X184438447Y-110597026D01*
X184450330Y-110603080D01*
X184455361Y-110602284D01*
X184524914Y-110532731D01*
X184529175Y-110527871D01*
X184552995Y-110496829D01*
X184560195Y-110483704D01*
X184595653Y-110386285D01*
X184598614Y-110369489D01*
X184598614Y-110292736D01*
X184617521Y-110234545D01*
X184667021Y-110198581D01*
X184728207Y-110198581D01*
X184767618Y-110222732D01*
X185011282Y-110466396D01*
X185015319Y-110469093D01*
X185015322Y-110469096D01*
X185037185Y-110483704D01*
X185077428Y-110510594D01*
X185086991Y-110512496D01*
X185086993Y-110512497D01*
X185172240Y-110529453D01*
X185181802Y-110531355D01*
X185191364Y-110529453D01*
X185276611Y-110512497D01*
X185276613Y-110512496D01*
X185286176Y-110510594D01*
X185326419Y-110483704D01*
X185348282Y-110469096D01*
X185348285Y-110469093D01*
X185352322Y-110466396D01*
X185587574Y-110231144D01*
X185590271Y-110227107D01*
X185590274Y-110227104D01*
X185612522Y-110193807D01*
X185631772Y-110164998D01*
X185634252Y-110152533D01*
X185650631Y-110070186D01*
X185652533Y-110060624D01*
X185645083Y-110023170D01*
X185652275Y-109962410D01*
X185693807Y-109917480D01*
X185753817Y-109905543D01*
X185776040Y-109910827D01*
X185792534Y-109916830D01*
X185809333Y-109919792D01*
X185911916Y-109919792D01*
X185928712Y-109916831D01*
X186026133Y-109881372D01*
X186039255Y-109874173D01*
X186070304Y-109850348D01*
X186075150Y-109846099D01*
X186118239Y-109803010D01*
X186124293Y-109791127D01*
X186123497Y-109786096D01*
X185698787Y-109361386D01*
X185985864Y-109361386D01*
X185986660Y-109366417D01*
X186259660Y-109639417D01*
X186271543Y-109645471D01*
X186276574Y-109644675D01*
X186324921Y-109596328D01*
X186329170Y-109591482D01*
X186352995Y-109560433D01*
X186360194Y-109547311D01*
X186395653Y-109449890D01*
X186398614Y-109433094D01*
X186398614Y-109330511D01*
X186395653Y-109313715D01*
X186360195Y-109216296D01*
X186352995Y-109203171D01*
X186329175Y-109172129D01*
X186324914Y-109167269D01*
X186268564Y-109110919D01*
X186636331Y-109110919D01*
X186637127Y-109115950D01*
X186706680Y-109185503D01*
X186711540Y-109189764D01*
X186742582Y-109213584D01*
X186755707Y-109220784D01*
X186853126Y-109256242D01*
X186869922Y-109259203D01*
X186972505Y-109259203D01*
X186989301Y-109256242D01*
X187086722Y-109220783D01*
X187099844Y-109213584D01*
X187130893Y-109189759D01*
X187135739Y-109185510D01*
X187178828Y-109142421D01*
X187184882Y-109130538D01*
X187184086Y-109125507D01*
X186911086Y-108852507D01*
X186899203Y-108846453D01*
X186894172Y-108847249D01*
X186642385Y-109099036D01*
X186636331Y-109110919D01*
X186268564Y-109110919D01*
X186260619Y-109102974D01*
X186248736Y-109096920D01*
X186243705Y-109097716D01*
X185991918Y-109349503D01*
X185985864Y-109361386D01*
X185698787Y-109361386D01*
X185419162Y-109081761D01*
X185407279Y-109075707D01*
X185402248Y-109076503D01*
X185353901Y-109124850D01*
X185349652Y-109129696D01*
X185345737Y-109134798D01*
X185295313Y-109169454D01*
X185234149Y-109167853D01*
X185222250Y-109162741D01*
X185218321Y-109160739D01*
X185218320Y-109160739D01*
X185211381Y-109157203D01*
X185203687Y-109155984D01*
X185203686Y-109155984D01*
X185107696Y-109140781D01*
X185100000Y-109139562D01*
X185092304Y-109140781D01*
X184996314Y-109155984D01*
X184996313Y-109155984D01*
X184988619Y-109157203D01*
X184981680Y-109160739D01*
X184981679Y-109160739D01*
X184967717Y-109167853D01*
X184888140Y-109208400D01*
X184884815Y-109211725D01*
X184828110Y-109230148D01*
X184769920Y-109211240D01*
X184733091Y-109158934D01*
X184731918Y-109154923D01*
X184678479Y-109037390D01*
X184670951Y-109025620D01*
X184586673Y-108927809D01*
X184576148Y-108918628D01*
X184467802Y-108848401D01*
X184455125Y-108842544D01*
X184365026Y-108815599D01*
X184353217Y-108815878D01*
X184350000Y-108826190D01*
X184350000Y-109304122D01*
X184331093Y-109362313D01*
X184281593Y-109398277D01*
X184251000Y-109403122D01*
X184249000Y-109403122D01*
X184190809Y-109384215D01*
X184154845Y-109334715D01*
X184150000Y-109304122D01*
X184150000Y-108827321D01*
X184146285Y-108815888D01*
X184135797Y-108815700D01*
X184050517Y-108840073D01*
X184037769Y-108845775D01*
X183928571Y-108914674D01*
X183917938Y-108923723D01*
X183832466Y-109020503D01*
X183824802Y-109032171D01*
X183769930Y-109149044D01*
X183765844Y-109162406D01*
X183757475Y-109216159D01*
X183729841Y-109270748D01*
X183675397Y-109298668D01*
X183614940Y-109289255D01*
X183589650Y-109270932D01*
X183552322Y-109233604D01*
X183548285Y-109230907D01*
X183548282Y-109230904D01*
X183524512Y-109215022D01*
X183486176Y-109189406D01*
X183476613Y-109187504D01*
X183476611Y-109187503D01*
X183391364Y-109170547D01*
X183381802Y-109168645D01*
X183372240Y-109170547D01*
X183286993Y-109187503D01*
X183286991Y-109187504D01*
X183277428Y-109189406D01*
X183239092Y-109215022D01*
X183215322Y-109230904D01*
X183215319Y-109230907D01*
X183211282Y-109233604D01*
X183008416Y-109436470D01*
X182953899Y-109464247D01*
X182893467Y-109454676D01*
X182850202Y-109411411D01*
X182844255Y-109397050D01*
X182844016Y-109396313D01*
X182842797Y-109388619D01*
X182841863Y-109386786D01*
X182841868Y-109328501D01*
X182866016Y-109289098D01*
X183066396Y-109088718D01*
X183069093Y-109084681D01*
X183069096Y-109084678D01*
X183088637Y-109055433D01*
X183110594Y-109022572D01*
X183118250Y-108984086D01*
X183121213Y-108969188D01*
X183151110Y-108915804D01*
X183206675Y-108890188D01*
X183217808Y-108891221D01*
X183217791Y-108889697D01*
X183245066Y-108889387D01*
X183248439Y-108878802D01*
X183248439Y-108876909D01*
X183448439Y-108876909D01*
X183452218Y-108888540D01*
X183462395Y-108888784D01*
X183542250Y-108867012D01*
X183555067Y-108861465D01*
X183665098Y-108793907D01*
X183675839Y-108784990D01*
X183762486Y-108689264D01*
X183770297Y-108677683D01*
X183826591Y-108561492D01*
X183830839Y-108548182D01*
X183836081Y-108517023D01*
X183835410Y-108512508D01*
X184661771Y-108512508D01*
X184664112Y-108530407D01*
X184667868Y-108543861D01*
X184719869Y-108662041D01*
X184727249Y-108673896D01*
X184810328Y-108772733D01*
X184820739Y-108782041D01*
X184928220Y-108853586D01*
X184940823Y-108859598D01*
X185036594Y-108889519D01*
X185048188Y-108889387D01*
X185051561Y-108878802D01*
X185051561Y-108876909D01*
X185251561Y-108876909D01*
X185255340Y-108888540D01*
X185265517Y-108888784D01*
X185345372Y-108867012D01*
X185358190Y-108861465D01*
X185400845Y-108835275D01*
X185460328Y-108820939D01*
X185516876Y-108844305D01*
X185548891Y-108896446D01*
X185550427Y-108904154D01*
X185555326Y-108935083D01*
X185828325Y-109208082D01*
X185840208Y-109214136D01*
X185845239Y-109213340D01*
X186097026Y-108961553D01*
X186103080Y-108949670D01*
X186102284Y-108944639D01*
X186032731Y-108875086D01*
X186027871Y-108870825D01*
X185996829Y-108847005D01*
X185983704Y-108839805D01*
X185886285Y-108804347D01*
X185869489Y-108801386D01*
X185766906Y-108801386D01*
X185750106Y-108804348D01*
X185689009Y-108826586D01*
X185627860Y-108828722D01*
X185577135Y-108794508D01*
X185556208Y-108737013D01*
X185558196Y-108730078D01*
X186340797Y-108730078D01*
X186343758Y-108746874D01*
X186379216Y-108844293D01*
X186386416Y-108857418D01*
X186410236Y-108888460D01*
X186414497Y-108893320D01*
X186478792Y-108957615D01*
X186490675Y-108963669D01*
X186495706Y-108962873D01*
X186747493Y-108711086D01*
X186753547Y-108699203D01*
X186752751Y-108694172D01*
X186479751Y-108421172D01*
X186467868Y-108415118D01*
X186462837Y-108415914D01*
X186414490Y-108464261D01*
X186410241Y-108469107D01*
X186386416Y-108500156D01*
X186379217Y-108513278D01*
X186343758Y-108610699D01*
X186340797Y-108627495D01*
X186340797Y-108730078D01*
X185558196Y-108730078D01*
X185571270Y-108684482D01*
X185570343Y-108684033D01*
X185572931Y-108678692D01*
X185573072Y-108678199D01*
X185573418Y-108677686D01*
X185629713Y-108561492D01*
X185633961Y-108548182D01*
X185639203Y-108517023D01*
X185637243Y-108503831D01*
X185636653Y-108503230D01*
X185629847Y-108501561D01*
X185267241Y-108501561D01*
X185254556Y-108505683D01*
X185251561Y-108509804D01*
X185251561Y-108876909D01*
X185051561Y-108876909D01*
X185051561Y-108517241D01*
X185047439Y-108504556D01*
X185043318Y-108501561D01*
X184676020Y-108501561D01*
X184663335Y-108505683D01*
X184662266Y-108507154D01*
X184661771Y-108512508D01*
X183835410Y-108512508D01*
X183834121Y-108503831D01*
X183833531Y-108503230D01*
X183826725Y-108501561D01*
X183464119Y-108501561D01*
X183451434Y-108505683D01*
X183448439Y-108509804D01*
X183448439Y-108876909D01*
X183248439Y-108876909D01*
X183248439Y-108517241D01*
X183244317Y-108504556D01*
X183240196Y-108501561D01*
X182857218Y-108501561D01*
X182857218Y-108499406D01*
X182818351Y-108499407D01*
X182793941Y-108487568D01*
X182778012Y-108476924D01*
X182774811Y-108472862D01*
X182769851Y-108471470D01*
X182764998Y-108468228D01*
X182660624Y-108447467D01*
X182623170Y-108454917D01*
X182562410Y-108447725D01*
X182517480Y-108406193D01*
X182505543Y-108346183D01*
X182510827Y-108323960D01*
X182516830Y-108307466D01*
X182519792Y-108290667D01*
X182519792Y-108286067D01*
X182860356Y-108286067D01*
X182862478Y-108299235D01*
X182863306Y-108300060D01*
X182869597Y-108301561D01*
X183232759Y-108301561D01*
X183245444Y-108297439D01*
X183248439Y-108293318D01*
X183248439Y-108285881D01*
X183448439Y-108285881D01*
X183452561Y-108298566D01*
X183456682Y-108301561D01*
X183823580Y-108301561D01*
X183836265Y-108297439D01*
X183837143Y-108296232D01*
X183837651Y-108290329D01*
X183837041Y-108286067D01*
X184663478Y-108286067D01*
X184665600Y-108299235D01*
X184666428Y-108300059D01*
X184672720Y-108301561D01*
X185035881Y-108301561D01*
X185048566Y-108297439D01*
X185051561Y-108293318D01*
X185051561Y-108285881D01*
X185251561Y-108285881D01*
X185255683Y-108298566D01*
X185259804Y-108301561D01*
X185626702Y-108301561D01*
X185639387Y-108297439D01*
X185640265Y-108296232D01*
X185640773Y-108290329D01*
X185637785Y-108269462D01*
X186615118Y-108269462D01*
X186615914Y-108274493D01*
X187320249Y-108978828D01*
X187332132Y-108984882D01*
X187337163Y-108984086D01*
X187385510Y-108935739D01*
X187389759Y-108930893D01*
X187413584Y-108899844D01*
X187420783Y-108886722D01*
X187456242Y-108789301D01*
X187459203Y-108772505D01*
X187459203Y-108669922D01*
X187456241Y-108653123D01*
X187450238Y-108636629D01*
X187448103Y-108575481D01*
X187482318Y-108524756D01*
X187539814Y-108503830D01*
X187562580Y-108505672D01*
X187600035Y-108513122D01*
X187609597Y-108511220D01*
X187694844Y-108494264D01*
X187694846Y-108494263D01*
X187704409Y-108492361D01*
X187752192Y-108460433D01*
X187766515Y-108450863D01*
X187766518Y-108450860D01*
X187770555Y-108448163D01*
X188005807Y-108212911D01*
X188008504Y-108208874D01*
X188008507Y-108208871D01*
X188031531Y-108174413D01*
X188050005Y-108146765D01*
X188052181Y-108135829D01*
X188068864Y-108051953D01*
X188070766Y-108042391D01*
X188068864Y-108032829D01*
X188068864Y-108025128D01*
X188087771Y-107966937D01*
X188122919Y-107936918D01*
X188204921Y-107895136D01*
X188204923Y-107895135D01*
X188211860Y-107891600D01*
X188291600Y-107811860D01*
X188302044Y-107791364D01*
X188339261Y-107718321D01*
X188339261Y-107718320D01*
X188342797Y-107711381D01*
X188345773Y-107692595D01*
X188357146Y-107620783D01*
X188360438Y-107600000D01*
X188342797Y-107488619D01*
X188314314Y-107432718D01*
X188295136Y-107395079D01*
X188295135Y-107395077D01*
X188291600Y-107388140D01*
X188211860Y-107308400D01*
X188204923Y-107304865D01*
X188204921Y-107304864D01*
X188118321Y-107260739D01*
X188118320Y-107260739D01*
X188111381Y-107257203D01*
X188103687Y-107255984D01*
X188103686Y-107255984D01*
X188028121Y-107244016D01*
X188000000Y-107239562D01*
X187888619Y-107257203D01*
X187883171Y-107259979D01*
X187822832Y-107259978D01*
X187773333Y-107224013D01*
X187754427Y-107165822D01*
X187755931Y-107148633D01*
X187759203Y-107130077D01*
X187759203Y-107027495D01*
X187756242Y-107010699D01*
X187720783Y-106913278D01*
X187713584Y-106900156D01*
X187689759Y-106869107D01*
X187685510Y-106864261D01*
X187642421Y-106821172D01*
X187630538Y-106815118D01*
X187625507Y-106815914D01*
X186921172Y-107520249D01*
X186915118Y-107532132D01*
X186915914Y-107537163D01*
X186964261Y-107585510D01*
X186969107Y-107589759D01*
X187000156Y-107613584D01*
X187013278Y-107620783D01*
X187118835Y-107659203D01*
X187117868Y-107661860D01*
X187159636Y-107684060D01*
X187186466Y-107739048D01*
X187175851Y-107799306D01*
X187158436Y-107822846D01*
X187151837Y-107829445D01*
X187149140Y-107833482D01*
X187149137Y-107833485D01*
X187133896Y-107856295D01*
X187107639Y-107895591D01*
X187105737Y-107905154D01*
X187105736Y-107905156D01*
X187091775Y-107975348D01*
X187086878Y-107999965D01*
X187088780Y-108009527D01*
X187094328Y-108037418D01*
X187087136Y-108098179D01*
X187045604Y-108143109D01*
X186985594Y-108155046D01*
X186963371Y-108149762D01*
X186946877Y-108143759D01*
X186930078Y-108140797D01*
X186827495Y-108140797D01*
X186810699Y-108143758D01*
X186713278Y-108179217D01*
X186700156Y-108186416D01*
X186669107Y-108210241D01*
X186664261Y-108214490D01*
X186621172Y-108257579D01*
X186615118Y-108269462D01*
X185637785Y-108269462D01*
X185637399Y-108266768D01*
X185633479Y-108253362D01*
X185580040Y-108135829D01*
X185572512Y-108124059D01*
X185488234Y-108026248D01*
X185477709Y-108017067D01*
X185369363Y-107946840D01*
X185356686Y-107940983D01*
X185266587Y-107914038D01*
X185254778Y-107914317D01*
X185251561Y-107924629D01*
X185251561Y-108285881D01*
X185051561Y-108285881D01*
X185051561Y-107925760D01*
X185047846Y-107914327D01*
X185037358Y-107914139D01*
X184952078Y-107938512D01*
X184939330Y-107944214D01*
X184830132Y-108013113D01*
X184819499Y-108022162D01*
X184734027Y-108118942D01*
X184726363Y-108130610D01*
X184671490Y-108247485D01*
X184667405Y-108260844D01*
X184663478Y-108286067D01*
X183837041Y-108286067D01*
X183834277Y-108266768D01*
X183830357Y-108253362D01*
X183776918Y-108135829D01*
X183769390Y-108124059D01*
X183685112Y-108026248D01*
X183674587Y-108017067D01*
X183566241Y-107946840D01*
X183553564Y-107940983D01*
X183463465Y-107914038D01*
X183451656Y-107914317D01*
X183448439Y-107924629D01*
X183448439Y-108285881D01*
X183248439Y-108285881D01*
X183248439Y-107925760D01*
X183244724Y-107914327D01*
X183234236Y-107914139D01*
X183148956Y-107938512D01*
X183136208Y-107944214D01*
X183027010Y-108013113D01*
X183016377Y-108022162D01*
X182930905Y-108118942D01*
X182923241Y-108130610D01*
X182868368Y-108247485D01*
X182864283Y-108260844D01*
X182860356Y-108286067D01*
X182519792Y-108286067D01*
X182519792Y-108188084D01*
X182516831Y-108171287D01*
X182496647Y-108115833D01*
X182494512Y-108054685D01*
X182528727Y-108003960D01*
X182563636Y-107986459D01*
X182640689Y-107965451D01*
X182653506Y-107959904D01*
X182763537Y-107892346D01*
X182774278Y-107883429D01*
X182860925Y-107787703D01*
X182868736Y-107776122D01*
X182925030Y-107659931D01*
X182929278Y-107646621D01*
X182934520Y-107615462D01*
X182933849Y-107610947D01*
X183760210Y-107610947D01*
X183762551Y-107628846D01*
X183766307Y-107642300D01*
X183818308Y-107760480D01*
X183825688Y-107772335D01*
X183908767Y-107871172D01*
X183919178Y-107880480D01*
X184026659Y-107952025D01*
X184039262Y-107958037D01*
X184135033Y-107987958D01*
X184146627Y-107987826D01*
X184150000Y-107977241D01*
X184150000Y-107975348D01*
X184350000Y-107975348D01*
X184353779Y-107986979D01*
X184363956Y-107987223D01*
X184443811Y-107965451D01*
X184456628Y-107959904D01*
X184566659Y-107892346D01*
X184577400Y-107883429D01*
X184664047Y-107787703D01*
X184671858Y-107776122D01*
X184728152Y-107659931D01*
X184732400Y-107646621D01*
X184737642Y-107615462D01*
X184736971Y-107610947D01*
X185563332Y-107610947D01*
X185565673Y-107628846D01*
X185569429Y-107642300D01*
X185621430Y-107760480D01*
X185628810Y-107772335D01*
X185711889Y-107871172D01*
X185722300Y-107880480D01*
X185829781Y-107952025D01*
X185842384Y-107958037D01*
X185938155Y-107987958D01*
X185949749Y-107987826D01*
X185953122Y-107977241D01*
X185953122Y-107975348D01*
X186153122Y-107975348D01*
X186156901Y-107986979D01*
X186167078Y-107987223D01*
X186246933Y-107965451D01*
X186259750Y-107959904D01*
X186369781Y-107892346D01*
X186380522Y-107883429D01*
X186467169Y-107787703D01*
X186474980Y-107776122D01*
X186531274Y-107659931D01*
X186535522Y-107646621D01*
X186540764Y-107615462D01*
X186538804Y-107602270D01*
X186538214Y-107601669D01*
X186531408Y-107600000D01*
X186168802Y-107600000D01*
X186156117Y-107604122D01*
X186153122Y-107608243D01*
X186153122Y-107975348D01*
X185953122Y-107975348D01*
X185953122Y-107615680D01*
X185949000Y-107602995D01*
X185944879Y-107600000D01*
X185577581Y-107600000D01*
X185564896Y-107604122D01*
X185563827Y-107605593D01*
X185563332Y-107610947D01*
X184736971Y-107610947D01*
X184735682Y-107602270D01*
X184735092Y-107601669D01*
X184728286Y-107600000D01*
X184365680Y-107600000D01*
X184352995Y-107604122D01*
X184350000Y-107608243D01*
X184350000Y-107975348D01*
X184150000Y-107975348D01*
X184150000Y-107615680D01*
X184145878Y-107602995D01*
X184141757Y-107600000D01*
X183774459Y-107600000D01*
X183761774Y-107604122D01*
X183760705Y-107605593D01*
X183760210Y-107610947D01*
X182933849Y-107610947D01*
X182932560Y-107602270D01*
X182931970Y-107601669D01*
X182925164Y-107600000D01*
X181971337Y-107600000D01*
X181958652Y-107604122D01*
X181957583Y-107605593D01*
X181956074Y-107621936D01*
X181953618Y-107621709D01*
X181945277Y-107666476D01*
X181900856Y-107708552D01*
X181892179Y-107712186D01*
X181816296Y-107739805D01*
X181803171Y-107747005D01*
X181772129Y-107770825D01*
X181767269Y-107775086D01*
X181702974Y-107839381D01*
X181696920Y-107851264D01*
X181697716Y-107856295D01*
X181949503Y-108108082D01*
X181961386Y-108114136D01*
X181966417Y-108113340D01*
X182208784Y-107870973D01*
X182263301Y-107843196D01*
X182323733Y-107852767D01*
X182348792Y-107870973D01*
X182350205Y-107872386D01*
X182377982Y-107926903D01*
X182368411Y-107987335D01*
X182350205Y-108012394D01*
X181681761Y-108680838D01*
X181675707Y-108692721D01*
X180820090Y-108692721D01*
X180460463Y-108333094D01*
X181401386Y-108333094D01*
X181404347Y-108349890D01*
X181439806Y-108447311D01*
X181447005Y-108460433D01*
X181470830Y-108491482D01*
X181475079Y-108496328D01*
X181518168Y-108539417D01*
X181530051Y-108545471D01*
X181535082Y-108544675D01*
X181808082Y-108271675D01*
X181814136Y-108259792D01*
X181813340Y-108254761D01*
X181561553Y-108002974D01*
X181549670Y-107996920D01*
X181544639Y-107997716D01*
X181475086Y-108067269D01*
X181470825Y-108072129D01*
X181447005Y-108103171D01*
X181439805Y-108116296D01*
X181404347Y-108213715D01*
X181401386Y-108230511D01*
X181401386Y-108333094D01*
X180460463Y-108333094D01*
X179914550Y-107787181D01*
X179896448Y-107775086D01*
X179891126Y-107771530D01*
X179891125Y-107771529D01*
X179883021Y-107766115D01*
X179873461Y-107764214D01*
X179873460Y-107764213D01*
X179842835Y-107758122D01*
X179833273Y-107756220D01*
X179783526Y-107766115D01*
X179775422Y-107771529D01*
X179775421Y-107771530D01*
X179770099Y-107775086D01*
X179751997Y-107787181D01*
X179682797Y-107856381D01*
X179628280Y-107884158D01*
X179567848Y-107874587D01*
X179524583Y-107831322D01*
X179515012Y-107770890D01*
X179519764Y-107752517D01*
X179535063Y-107710485D01*
X179538025Y-107693683D01*
X179538025Y-107591100D01*
X179535064Y-107574304D01*
X179499606Y-107476885D01*
X179492406Y-107463760D01*
X179468586Y-107432718D01*
X179464325Y-107427858D01*
X179420973Y-107384506D01*
X181958795Y-107384506D01*
X181960917Y-107397674D01*
X181961745Y-107398498D01*
X181968037Y-107400000D01*
X182331198Y-107400000D01*
X182343883Y-107395878D01*
X182346878Y-107391757D01*
X182346878Y-107384320D01*
X182546878Y-107384320D01*
X182551000Y-107397005D01*
X182555121Y-107400000D01*
X182922019Y-107400000D01*
X182934704Y-107395878D01*
X182935582Y-107394671D01*
X182936090Y-107388768D01*
X182935480Y-107384506D01*
X183761917Y-107384506D01*
X183764039Y-107397674D01*
X183764867Y-107398498D01*
X183771159Y-107400000D01*
X184134320Y-107400000D01*
X184147005Y-107395878D01*
X184150000Y-107391757D01*
X184150000Y-107384320D01*
X184350000Y-107384320D01*
X184354122Y-107397005D01*
X184358243Y-107400000D01*
X184725141Y-107400000D01*
X184737826Y-107395878D01*
X184738704Y-107394671D01*
X184739212Y-107388768D01*
X184738602Y-107384506D01*
X185565039Y-107384506D01*
X185567161Y-107397674D01*
X185567989Y-107398498D01*
X185574281Y-107400000D01*
X185937442Y-107400000D01*
X185950127Y-107395878D01*
X185953122Y-107391757D01*
X185953122Y-107024199D01*
X185949407Y-107012766D01*
X185938919Y-107012578D01*
X185853639Y-107036951D01*
X185840891Y-107042653D01*
X185731693Y-107111552D01*
X185721060Y-107120601D01*
X185635588Y-107217381D01*
X185627924Y-107229049D01*
X185573051Y-107345924D01*
X185568966Y-107359283D01*
X185565039Y-107384506D01*
X184738602Y-107384506D01*
X184735838Y-107365207D01*
X184731918Y-107351801D01*
X184678479Y-107234268D01*
X184670951Y-107222498D01*
X184586673Y-107124687D01*
X184576148Y-107115506D01*
X184467802Y-107045279D01*
X184455125Y-107039422D01*
X184365026Y-107012477D01*
X184353217Y-107012756D01*
X184350000Y-107023068D01*
X184350000Y-107384320D01*
X184150000Y-107384320D01*
X184150000Y-107024199D01*
X184146285Y-107012766D01*
X184135797Y-107012578D01*
X184050517Y-107036951D01*
X184037769Y-107042653D01*
X183928571Y-107111552D01*
X183917938Y-107120601D01*
X183832466Y-107217381D01*
X183824802Y-107229049D01*
X183769929Y-107345924D01*
X183765844Y-107359283D01*
X183761917Y-107384506D01*
X182935480Y-107384506D01*
X182932716Y-107365207D01*
X182928796Y-107351801D01*
X182875357Y-107234268D01*
X182867829Y-107222498D01*
X182783551Y-107124687D01*
X182773026Y-107115506D01*
X182664680Y-107045279D01*
X182652003Y-107039422D01*
X182561904Y-107012477D01*
X182550095Y-107012756D01*
X182546878Y-107023068D01*
X182546878Y-107384320D01*
X182346878Y-107384320D01*
X182346878Y-107024199D01*
X182343163Y-107012766D01*
X182332675Y-107012578D01*
X182247395Y-107036951D01*
X182234647Y-107042653D01*
X182125449Y-107111552D01*
X182114816Y-107120601D01*
X182029344Y-107217381D01*
X182021680Y-107229049D01*
X181966807Y-107345924D01*
X181962722Y-107359283D01*
X181958795Y-107384506D01*
X179420973Y-107384506D01*
X179400030Y-107363563D01*
X179388147Y-107357509D01*
X179383116Y-107358305D01*
X179048826Y-107692595D01*
X178994309Y-107720372D01*
X178933877Y-107710801D01*
X178908818Y-107692595D01*
X178907405Y-107691182D01*
X178879628Y-107636665D01*
X178889199Y-107576233D01*
X178907405Y-107551174D01*
X179236437Y-107222142D01*
X179242491Y-107210259D01*
X179241695Y-107205228D01*
X179172142Y-107135675D01*
X179167282Y-107131414D01*
X179136240Y-107107594D01*
X179123115Y-107100394D01*
X179068619Y-107080559D01*
X179020404Y-107042889D01*
X179003539Y-106984074D01*
X179024466Y-106926578D01*
X179032475Y-106917525D01*
X179050000Y-106900000D01*
X181039562Y-106900000D01*
X181041640Y-106913122D01*
X181052529Y-106981868D01*
X181057203Y-107011381D01*
X181060739Y-107018320D01*
X181060739Y-107018321D01*
X181102558Y-107100394D01*
X181108400Y-107111860D01*
X181188140Y-107191600D01*
X181195077Y-107195135D01*
X181195079Y-107195136D01*
X181261637Y-107229049D01*
X181288619Y-107242797D01*
X181296313Y-107244016D01*
X181296314Y-107244016D01*
X181392304Y-107259219D01*
X181400000Y-107260438D01*
X181407696Y-107259219D01*
X181503686Y-107244016D01*
X181503687Y-107244016D01*
X181511381Y-107242797D01*
X181538363Y-107229049D01*
X181604921Y-107195136D01*
X181604923Y-107195135D01*
X181611860Y-107191600D01*
X181691600Y-107111860D01*
X181697443Y-107100394D01*
X181739261Y-107018321D01*
X181739261Y-107018320D01*
X181742797Y-107011381D01*
X181744016Y-107003686D01*
X181746423Y-106996277D01*
X181749103Y-106997148D01*
X181771007Y-106954170D01*
X181825526Y-106926397D01*
X181860316Y-106927082D01*
X181872237Y-106929453D01*
X181872240Y-106929453D01*
X181881802Y-106931355D01*
X181891364Y-106929453D01*
X181976611Y-106912497D01*
X181976613Y-106912496D01*
X181986176Y-106910594D01*
X182024512Y-106884978D01*
X182048282Y-106869096D01*
X182048285Y-106869093D01*
X182052322Y-106866396D01*
X182209332Y-106709386D01*
X182858649Y-106709386D01*
X182860990Y-106727285D01*
X182864746Y-106740739D01*
X182916747Y-106858919D01*
X182924127Y-106870774D01*
X183007206Y-106969611D01*
X183017617Y-106978919D01*
X183125098Y-107050464D01*
X183137701Y-107056476D01*
X183233472Y-107086397D01*
X183245066Y-107086265D01*
X183248439Y-107075680D01*
X183248439Y-107073787D01*
X183448439Y-107073787D01*
X183452218Y-107085418D01*
X183462395Y-107085662D01*
X183542250Y-107063890D01*
X183555067Y-107058343D01*
X183665098Y-106990785D01*
X183675839Y-106981868D01*
X183762486Y-106886142D01*
X183770297Y-106874561D01*
X183826591Y-106758370D01*
X183830839Y-106745060D01*
X183836081Y-106713901D01*
X183835410Y-106709386D01*
X184661771Y-106709386D01*
X184664112Y-106727285D01*
X184667868Y-106740739D01*
X184719869Y-106858919D01*
X184727249Y-106870774D01*
X184810328Y-106969611D01*
X184820739Y-106978919D01*
X184928220Y-107050464D01*
X184940823Y-107056476D01*
X185036594Y-107086397D01*
X185048188Y-107086265D01*
X185051561Y-107075680D01*
X185051561Y-107073787D01*
X185251561Y-107073787D01*
X185255340Y-107085418D01*
X185265517Y-107085662D01*
X185345372Y-107063890D01*
X185358189Y-107058343D01*
X185468220Y-106990785D01*
X185478961Y-106981868D01*
X185565608Y-106886142D01*
X185573419Y-106874561D01*
X185629713Y-106758370D01*
X185633961Y-106745060D01*
X185639203Y-106713901D01*
X185637243Y-106700709D01*
X185636653Y-106700108D01*
X185629847Y-106698439D01*
X185267241Y-106698439D01*
X185254556Y-106702561D01*
X185251561Y-106706682D01*
X185251561Y-107073787D01*
X185051561Y-107073787D01*
X185051561Y-106714119D01*
X185047439Y-106701434D01*
X185043318Y-106698439D01*
X184676020Y-106698439D01*
X184663335Y-106702561D01*
X184662266Y-106704032D01*
X184661771Y-106709386D01*
X183835410Y-106709386D01*
X183834121Y-106700709D01*
X183833531Y-106700108D01*
X183826725Y-106698439D01*
X183464119Y-106698439D01*
X183451434Y-106702561D01*
X183448439Y-106706682D01*
X183448439Y-107073787D01*
X183248439Y-107073787D01*
X183248439Y-106714119D01*
X183244317Y-106701434D01*
X183240196Y-106698439D01*
X182872898Y-106698439D01*
X182860213Y-106702561D01*
X182859144Y-106704032D01*
X182858649Y-106709386D01*
X182209332Y-106709386D01*
X182287574Y-106631144D01*
X182290271Y-106627107D01*
X182290274Y-106627104D01*
X182306156Y-106603334D01*
X182331772Y-106564998D01*
X182334022Y-106553690D01*
X182350631Y-106470186D01*
X182352533Y-106460624D01*
X182345083Y-106423170D01*
X182352275Y-106362410D01*
X182393807Y-106317480D01*
X182453817Y-106305543D01*
X182476040Y-106310827D01*
X182492534Y-106316830D01*
X182509333Y-106319792D01*
X182611916Y-106319792D01*
X182628712Y-106316831D01*
X182726133Y-106281372D01*
X182739254Y-106274173D01*
X182743175Y-106271165D01*
X182800851Y-106250742D01*
X182859517Y-106268120D01*
X182896763Y-106316663D01*
X182898364Y-106377827D01*
X182893055Y-106391783D01*
X182868367Y-106444366D01*
X182864283Y-106457722D01*
X182860356Y-106482945D01*
X182862478Y-106496113D01*
X182863306Y-106496937D01*
X182869598Y-106498439D01*
X183232759Y-106498439D01*
X183245444Y-106494317D01*
X183248439Y-106490196D01*
X183248439Y-106482759D01*
X183448439Y-106482759D01*
X183452561Y-106495444D01*
X183456682Y-106498439D01*
X183823580Y-106498439D01*
X183836265Y-106494317D01*
X183837143Y-106493110D01*
X183837651Y-106487207D01*
X183837041Y-106482945D01*
X184663478Y-106482945D01*
X184665600Y-106496113D01*
X184666428Y-106496937D01*
X184672720Y-106498439D01*
X185035881Y-106498439D01*
X185048566Y-106494317D01*
X185051561Y-106490196D01*
X185051561Y-106122638D01*
X185047846Y-106111205D01*
X185037358Y-106111017D01*
X184952078Y-106135390D01*
X184939330Y-106141092D01*
X184830132Y-106209991D01*
X184819499Y-106219040D01*
X184734027Y-106315820D01*
X184726363Y-106327488D01*
X184671490Y-106444363D01*
X184667405Y-106457722D01*
X184663478Y-106482945D01*
X183837041Y-106482945D01*
X183834277Y-106463646D01*
X183830357Y-106450240D01*
X183776918Y-106332707D01*
X183769390Y-106320937D01*
X183685112Y-106223126D01*
X183674587Y-106213945D01*
X183566241Y-106143718D01*
X183553564Y-106137861D01*
X183463465Y-106110916D01*
X183451656Y-106111195D01*
X183448439Y-106121507D01*
X183448439Y-106482759D01*
X183248439Y-106482759D01*
X183248439Y-106122638D01*
X183244724Y-106111205D01*
X183234235Y-106111017D01*
X183142323Y-106137285D01*
X183081177Y-106135096D01*
X183032995Y-106097384D01*
X183016182Y-106038554D01*
X183036577Y-105981828D01*
X183052997Y-105960429D01*
X183060194Y-105947311D01*
X183095653Y-105849890D01*
X183098614Y-105833094D01*
X183098614Y-105807825D01*
X183760210Y-105807825D01*
X183762551Y-105825724D01*
X183766307Y-105839178D01*
X183818308Y-105957358D01*
X183825688Y-105969213D01*
X183908767Y-106068050D01*
X183919178Y-106077358D01*
X184026659Y-106148903D01*
X184039262Y-106154915D01*
X184135033Y-106184836D01*
X184146627Y-106184704D01*
X184150000Y-106174119D01*
X184150000Y-106172226D01*
X184350000Y-106172226D01*
X184353779Y-106183857D01*
X184363956Y-106184101D01*
X184443811Y-106162329D01*
X184456628Y-106156782D01*
X184566659Y-106089224D01*
X184577400Y-106080307D01*
X184664047Y-105984581D01*
X184671858Y-105973000D01*
X184728152Y-105856809D01*
X184732400Y-105843499D01*
X184737642Y-105812340D01*
X184735682Y-105799148D01*
X184735092Y-105798547D01*
X184728286Y-105796878D01*
X184365680Y-105796878D01*
X184352995Y-105801000D01*
X184350000Y-105805121D01*
X184350000Y-106172226D01*
X184150000Y-106172226D01*
X184150000Y-105812558D01*
X184145878Y-105799873D01*
X184141757Y-105796878D01*
X183774459Y-105796878D01*
X183761774Y-105801000D01*
X183760705Y-105802471D01*
X183760210Y-105807825D01*
X183098614Y-105807825D01*
X183098614Y-105730511D01*
X183094930Y-105709616D01*
X183103446Y-105649026D01*
X183145950Y-105605014D01*
X183209616Y-105594930D01*
X183230511Y-105598614D01*
X183333094Y-105598614D01*
X183349890Y-105595653D01*
X183447311Y-105560194D01*
X183460433Y-105552995D01*
X183491482Y-105529170D01*
X183496328Y-105524921D01*
X183539417Y-105481832D01*
X183545471Y-105469949D01*
X183544675Y-105464918D01*
X183271675Y-105191918D01*
X183259792Y-105185864D01*
X183254761Y-105186660D01*
X183002974Y-105438447D01*
X182998228Y-105447762D01*
X182962543Y-105483448D01*
X182962778Y-105483771D01*
X182960737Y-105485254D01*
X182954964Y-105491027D01*
X182951032Y-105492304D01*
X182944027Y-105497394D01*
X182609415Y-105832006D01*
X182554898Y-105859783D01*
X182494466Y-105850212D01*
X182469407Y-105832006D01*
X182119162Y-105481761D01*
X182107279Y-105475707D01*
X182102248Y-105476503D01*
X182053901Y-105524850D01*
X182049652Y-105529696D01*
X182025827Y-105560745D01*
X182018628Y-105573867D01*
X181983169Y-105671288D01*
X181980208Y-105688084D01*
X181980208Y-105790667D01*
X181983170Y-105807466D01*
X181989173Y-105823960D01*
X181991308Y-105885108D01*
X181957093Y-105935833D01*
X181899597Y-105956759D01*
X181876831Y-105954917D01*
X181839376Y-105947467D01*
X181829814Y-105949369D01*
X181744567Y-105966325D01*
X181744565Y-105966326D01*
X181735002Y-105968228D01*
X181705120Y-105988195D01*
X181672896Y-106009726D01*
X181672893Y-106009729D01*
X181668856Y-106012426D01*
X181433604Y-106247678D01*
X181430907Y-106251715D01*
X181430904Y-106251718D01*
X181415900Y-106274173D01*
X181389406Y-106313824D01*
X181387504Y-106323387D01*
X181387503Y-106323389D01*
X181384323Y-106339376D01*
X181368645Y-106418198D01*
X181370547Y-106427760D01*
X181370547Y-106427763D01*
X181372918Y-106439684D01*
X181365725Y-106500445D01*
X181324192Y-106545374D01*
X181303401Y-106552585D01*
X181303723Y-106553577D01*
X181296314Y-106555984D01*
X181288619Y-106557203D01*
X181281680Y-106560739D01*
X181281679Y-106560739D01*
X181195079Y-106604864D01*
X181195077Y-106604865D01*
X181188140Y-106608400D01*
X181108400Y-106688140D01*
X181104865Y-106695077D01*
X181104864Y-106695079D01*
X181072616Y-106758370D01*
X181057203Y-106788619D01*
X181055984Y-106796313D01*
X181055984Y-106796314D01*
X181050368Y-106831772D01*
X181039562Y-106900000D01*
X179050000Y-106900000D01*
X180085238Y-105864762D01*
X180139755Y-105836985D01*
X180184052Y-105840470D01*
X180188619Y-105842797D01*
X180196315Y-105844016D01*
X180244309Y-105851617D01*
X180300000Y-105860438D01*
X180307696Y-105859219D01*
X180322913Y-105856809D01*
X180331600Y-105855433D01*
X180403686Y-105844016D01*
X180403687Y-105844016D01*
X180411381Y-105842797D01*
X180430424Y-105833094D01*
X180504921Y-105795136D01*
X180504923Y-105795135D01*
X180511860Y-105791600D01*
X180591600Y-105711860D01*
X180628919Y-105638619D01*
X180639261Y-105618321D01*
X180639261Y-105618320D01*
X180642797Y-105611381D01*
X180645463Y-105594552D01*
X180656502Y-105524850D01*
X180660438Y-105500000D01*
X180659627Y-105494879D01*
X180678126Y-105437944D01*
X180727626Y-105401980D01*
X180773705Y-105398354D01*
X180850000Y-105410438D01*
X180857696Y-105409219D01*
X180953686Y-105394016D01*
X180953687Y-105394016D01*
X180961381Y-105392797D01*
X180971632Y-105387574D01*
X181054921Y-105345136D01*
X181054923Y-105345135D01*
X181061860Y-105341600D01*
X181073409Y-105330051D01*
X182254529Y-105330051D01*
X182255325Y-105335082D01*
X182528325Y-105608082D01*
X182540208Y-105614136D01*
X182545239Y-105613340D01*
X182797026Y-105361553D01*
X182801772Y-105352238D01*
X182837457Y-105316552D01*
X182837222Y-105316229D01*
X182839263Y-105314746D01*
X182845036Y-105308973D01*
X182848968Y-105307696D01*
X182855973Y-105302606D01*
X183108082Y-105050497D01*
X183114136Y-105038614D01*
X183113340Y-105033583D01*
X182840340Y-104760583D01*
X182828457Y-104754529D01*
X182823426Y-104755325D01*
X182775079Y-104803672D01*
X182770830Y-104808518D01*
X182747005Y-104839567D01*
X182739806Y-104852689D01*
X182704347Y-104950110D01*
X182701386Y-104966906D01*
X182701386Y-105069489D01*
X182705070Y-105090384D01*
X182696554Y-105150974D01*
X182654050Y-105194986D01*
X182590384Y-105205070D01*
X182569489Y-105201386D01*
X182466906Y-105201386D01*
X182450110Y-105204347D01*
X182352689Y-105239806D01*
X182339567Y-105247005D01*
X182308518Y-105270830D01*
X182303672Y-105275079D01*
X182260583Y-105318168D01*
X182254529Y-105330051D01*
X181073409Y-105330051D01*
X181141600Y-105261860D01*
X181148782Y-105247766D01*
X181189261Y-105168321D01*
X181189261Y-105168320D01*
X181192797Y-105161381D01*
X181194446Y-105150974D01*
X181209219Y-105057696D01*
X181210438Y-105050000D01*
X181201336Y-104992534D01*
X181194016Y-104946314D01*
X181194016Y-104946313D01*
X181192797Y-104938619D01*
X181189261Y-104931680D01*
X181189260Y-104931676D01*
X181164217Y-104882528D01*
X181154645Y-104822096D01*
X181182422Y-104767578D01*
X181341127Y-104608873D01*
X182975707Y-104608873D01*
X182976503Y-104613904D01*
X183680838Y-105318239D01*
X183692720Y-105324293D01*
X183702482Y-105322747D01*
X183762914Y-105332318D01*
X183806179Y-105375583D01*
X183815750Y-105436015D01*
X183807583Y-105462602D01*
X183769929Y-105542802D01*
X183765844Y-105556161D01*
X183761917Y-105581384D01*
X183764039Y-105594552D01*
X183764867Y-105595376D01*
X183771159Y-105596878D01*
X184134320Y-105596878D01*
X184147005Y-105592756D01*
X184150000Y-105588635D01*
X184150000Y-105581198D01*
X184350000Y-105581198D01*
X184354122Y-105593883D01*
X184358243Y-105596878D01*
X184725141Y-105596878D01*
X184737826Y-105592756D01*
X184738704Y-105591548D01*
X184738819Y-105590213D01*
X184762652Y-105533860D01*
X184815057Y-105502278D01*
X184876016Y-105507530D01*
X184907458Y-105528707D01*
X184924850Y-105546099D01*
X184929696Y-105550348D01*
X184960745Y-105574173D01*
X184973867Y-105581372D01*
X185071288Y-105616831D01*
X185088084Y-105619792D01*
X185190667Y-105619792D01*
X185207466Y-105616830D01*
X185223960Y-105610827D01*
X185285108Y-105608692D01*
X185335833Y-105642907D01*
X185356759Y-105700403D01*
X185354917Y-105723169D01*
X185347467Y-105760624D01*
X185349369Y-105770186D01*
X185365223Y-105849890D01*
X185368228Y-105864998D01*
X185384537Y-105889406D01*
X185409726Y-105927104D01*
X185409729Y-105927107D01*
X185412426Y-105931144D01*
X185453964Y-105972682D01*
X185481741Y-106027199D01*
X185472170Y-106087631D01*
X185428905Y-106130896D01*
X185368473Y-106140467D01*
X185355595Y-106137535D01*
X185266587Y-106110916D01*
X185254778Y-106111195D01*
X185251561Y-106121507D01*
X185251561Y-106482759D01*
X185255683Y-106495444D01*
X185259804Y-106498439D01*
X185626702Y-106498439D01*
X185639387Y-106494317D01*
X185640265Y-106493110D01*
X185640773Y-106487207D01*
X185637399Y-106463646D01*
X185633479Y-106450240D01*
X185583331Y-106339946D01*
X185576458Y-106279148D01*
X185606633Y-106225921D01*
X185662331Y-106200597D01*
X185708632Y-106207124D01*
X185713824Y-106210594D01*
X185723382Y-106212495D01*
X185723384Y-106212496D01*
X185808636Y-106229453D01*
X185818198Y-106231355D01*
X185827760Y-106229453D01*
X185913010Y-106212496D01*
X185922572Y-106210594D01*
X185926193Y-106208175D01*
X185983794Y-106203641D01*
X186035963Y-106235611D01*
X186059378Y-106292138D01*
X186052769Y-106333866D01*
X186049995Y-106338017D01*
X186029234Y-106442391D01*
X186031136Y-106451953D01*
X186045183Y-106522572D01*
X186049995Y-106546765D01*
X186071679Y-106579217D01*
X186091493Y-106608871D01*
X186091496Y-106608874D01*
X186094193Y-106612911D01*
X186329445Y-106848163D01*
X186365202Y-106872056D01*
X186375398Y-106884988D01*
X186387717Y-106887099D01*
X186395591Y-106892361D01*
X186499965Y-106913122D01*
X186537419Y-106905672D01*
X186598179Y-106912864D01*
X186643109Y-106954396D01*
X186655046Y-107014406D01*
X186649762Y-107036629D01*
X186643759Y-107053123D01*
X186640797Y-107069922D01*
X186640797Y-107149431D01*
X186621890Y-107207622D01*
X186572390Y-107243586D01*
X186511204Y-107243586D01*
X186466798Y-107214054D01*
X186389795Y-107124687D01*
X186379272Y-107115507D01*
X186296227Y-107061681D01*
X186284665Y-107047428D01*
X186268677Y-107044241D01*
X186258247Y-107039422D01*
X186168148Y-107012477D01*
X186156339Y-107012756D01*
X186153122Y-107023068D01*
X186153122Y-107384320D01*
X186157244Y-107397005D01*
X186161365Y-107400000D01*
X186528263Y-107400000D01*
X186540948Y-107395878D01*
X186541826Y-107394671D01*
X186541959Y-107393126D01*
X186565792Y-107336773D01*
X186618197Y-107305192D01*
X186679157Y-107310444D01*
X186711711Y-107333956D01*
X186712209Y-107333458D01*
X186757579Y-107378828D01*
X186769462Y-107384882D01*
X186774493Y-107384086D01*
X187478828Y-106679751D01*
X187484882Y-106667868D01*
X187484086Y-106662837D01*
X187435739Y-106614490D01*
X187430893Y-106610241D01*
X187399844Y-106586416D01*
X187386722Y-106579217D01*
X187289301Y-106543758D01*
X187272505Y-106540797D01*
X187169922Y-106540797D01*
X187153123Y-106543759D01*
X187136629Y-106549762D01*
X187075481Y-106551897D01*
X187024756Y-106517682D01*
X187003830Y-106460186D01*
X187005672Y-106437418D01*
X187011220Y-106409527D01*
X187013122Y-106399965D01*
X187001184Y-106339946D01*
X186994264Y-106305156D01*
X186994263Y-106305154D01*
X186992361Y-106295591D01*
X186963046Y-106251718D01*
X186950863Y-106233485D01*
X186950860Y-106233482D01*
X186948163Y-106229445D01*
X186821863Y-106103145D01*
X186794086Y-106048628D01*
X186803658Y-105988195D01*
X186839260Y-105918324D01*
X186839261Y-105918320D01*
X186842797Y-105911381D01*
X186845741Y-105892797D01*
X186858449Y-105812558D01*
X186860438Y-105800000D01*
X186849432Y-105730511D01*
X186844016Y-105696314D01*
X186844016Y-105696313D01*
X186842797Y-105688619D01*
X186839261Y-105681679D01*
X186795136Y-105595079D01*
X186795135Y-105595077D01*
X186791600Y-105588140D01*
X186711860Y-105508400D01*
X186704923Y-105504865D01*
X186704921Y-105504864D01*
X186618321Y-105460739D01*
X186618320Y-105460739D01*
X186611381Y-105457203D01*
X186603687Y-105455984D01*
X186603686Y-105455984D01*
X186507696Y-105440781D01*
X186500000Y-105439562D01*
X186492304Y-105440781D01*
X186396314Y-105455984D01*
X186396313Y-105455984D01*
X186388619Y-105457203D01*
X186381680Y-105460739D01*
X186381676Y-105460740D01*
X186311805Y-105496342D01*
X186251373Y-105505914D01*
X186196855Y-105478137D01*
X186031144Y-105312426D01*
X186027107Y-105309729D01*
X186027104Y-105309726D01*
X185994798Y-105288140D01*
X185964998Y-105268228D01*
X185955435Y-105266326D01*
X185955433Y-105266325D01*
X185870186Y-105249369D01*
X185860624Y-105247467D01*
X185823170Y-105254917D01*
X185762410Y-105247725D01*
X185717480Y-105206193D01*
X185705543Y-105146183D01*
X185710827Y-105123960D01*
X185716830Y-105107466D01*
X185719792Y-105090667D01*
X185719792Y-104988084D01*
X185716831Y-104971288D01*
X185681372Y-104873867D01*
X185674173Y-104860745D01*
X185650348Y-104829696D01*
X185646099Y-104824850D01*
X185603010Y-104781761D01*
X185591127Y-104775707D01*
X185586096Y-104776503D01*
X185230593Y-105132006D01*
X185176076Y-105159783D01*
X185115644Y-105150212D01*
X185090585Y-105132006D01*
X184761553Y-104802974D01*
X184749670Y-104796920D01*
X184744639Y-104797716D01*
X184675086Y-104867269D01*
X184670825Y-104872129D01*
X184647005Y-104903171D01*
X184639805Y-104916296D01*
X184604347Y-105013715D01*
X184601386Y-105030511D01*
X184601386Y-105141754D01*
X184599994Y-105141754D01*
X184592771Y-105193133D01*
X184550266Y-105237144D01*
X184490009Y-105247766D01*
X184462267Y-105239600D01*
X184455125Y-105236300D01*
X184365026Y-105209355D01*
X184353217Y-105209634D01*
X184350000Y-105219946D01*
X184350000Y-105581198D01*
X184150000Y-105581198D01*
X184150000Y-105221077D01*
X184146285Y-105209644D01*
X184135797Y-105209456D01*
X184050517Y-105233829D01*
X184037769Y-105239531D01*
X183943504Y-105299008D01*
X183884201Y-105314069D01*
X183827372Y-105291396D01*
X183794722Y-105239650D01*
X183797647Y-105181421D01*
X183816830Y-105128718D01*
X183819792Y-105111916D01*
X183819792Y-105009333D01*
X183816830Y-104992534D01*
X183810827Y-104976040D01*
X183808692Y-104914892D01*
X183842907Y-104864167D01*
X183900403Y-104843241D01*
X183923169Y-104845083D01*
X183960624Y-104852533D01*
X183970186Y-104850631D01*
X184055433Y-104833675D01*
X184055435Y-104833674D01*
X184064998Y-104831772D01*
X184125119Y-104791600D01*
X184127104Y-104790274D01*
X184127107Y-104790271D01*
X184131144Y-104787574D01*
X184267454Y-104651264D01*
X184896920Y-104651264D01*
X184897716Y-104656295D01*
X185149503Y-104908082D01*
X185161386Y-104914136D01*
X185166417Y-104913340D01*
X185439417Y-104640340D01*
X185445471Y-104628457D01*
X185444675Y-104623426D01*
X185396328Y-104575079D01*
X185391482Y-104570830D01*
X185360433Y-104547005D01*
X185347311Y-104539806D01*
X185249890Y-104504347D01*
X185233094Y-104501386D01*
X185130511Y-104501386D01*
X185113715Y-104504347D01*
X185016296Y-104539805D01*
X185003171Y-104547005D01*
X184972129Y-104570825D01*
X184967269Y-104575086D01*
X184902974Y-104639381D01*
X184896920Y-104651264D01*
X184267454Y-104651264D01*
X184366396Y-104552322D01*
X184369093Y-104548285D01*
X184369096Y-104548282D01*
X184388910Y-104518628D01*
X184410594Y-104486176D01*
X184431355Y-104381802D01*
X184410594Y-104277428D01*
X184407791Y-104273233D01*
X184403223Y-104215197D01*
X184408806Y-104202202D01*
X184407738Y-104201792D01*
X184411468Y-104192074D01*
X184417134Y-104183350D01*
X184418762Y-104173074D01*
X184421613Y-104165646D01*
X184423267Y-104157864D01*
X184427500Y-104148357D01*
X184427500Y-104125691D01*
X184428718Y-104110208D01*
X184430361Y-104099836D01*
X184458138Y-104045322D01*
X184491600Y-104011860D01*
X184532848Y-103930908D01*
X184539261Y-103918321D01*
X184539261Y-103918320D01*
X184542797Y-103911381D01*
X184544520Y-103900506D01*
X184559219Y-103807696D01*
X184560438Y-103800000D01*
X184542797Y-103688619D01*
X184539261Y-103681679D01*
X184495136Y-103595079D01*
X184495135Y-103595077D01*
X184491600Y-103588140D01*
X184411860Y-103508400D01*
X184404923Y-103504865D01*
X184404921Y-103504864D01*
X184318321Y-103460739D01*
X184318320Y-103460739D01*
X184311381Y-103457203D01*
X184303687Y-103455984D01*
X184303686Y-103455984D01*
X184207696Y-103440781D01*
X184200000Y-103439562D01*
X184192304Y-103440781D01*
X184096314Y-103455984D01*
X184096313Y-103455984D01*
X184088619Y-103457203D01*
X184081680Y-103460739D01*
X184081679Y-103460739D01*
X183995079Y-103504864D01*
X183995077Y-103504865D01*
X183988140Y-103508400D01*
X183908400Y-103588140D01*
X183904865Y-103595077D01*
X183904864Y-103595079D01*
X183860739Y-103681679D01*
X183857203Y-103688619D01*
X183839562Y-103800000D01*
X183840781Y-103807696D01*
X183840781Y-103815487D01*
X183837968Y-103815487D01*
X183830414Y-103863145D01*
X183797212Y-103900506D01*
X183747678Y-103933604D01*
X183512426Y-104168856D01*
X183509729Y-104172893D01*
X183509726Y-104172896D01*
X183502741Y-104183350D01*
X183468228Y-104235002D01*
X183466326Y-104244565D01*
X183466325Y-104244567D01*
X183450322Y-104325022D01*
X183447467Y-104339376D01*
X183449369Y-104348938D01*
X183454917Y-104376829D01*
X183447725Y-104437590D01*
X183406193Y-104482520D01*
X183346183Y-104494457D01*
X183323960Y-104489173D01*
X183307466Y-104483170D01*
X183290667Y-104480208D01*
X183188084Y-104480208D01*
X183171288Y-104483169D01*
X183073867Y-104518628D01*
X183060745Y-104525827D01*
X183029696Y-104549652D01*
X183024850Y-104553901D01*
X182981761Y-104596990D01*
X182975707Y-104608873D01*
X181341127Y-104608873D01*
X182617578Y-103332422D01*
X182672095Y-103304645D01*
X182732528Y-103314217D01*
X182781676Y-103339260D01*
X182781680Y-103339261D01*
X182788619Y-103342797D01*
X182796313Y-103344016D01*
X182796314Y-103344016D01*
X182892304Y-103359219D01*
X182900000Y-103360438D01*
X182907696Y-103359219D01*
X183003686Y-103344016D01*
X183003687Y-103344016D01*
X183011381Y-103342797D01*
X183031743Y-103332422D01*
X183104921Y-103295136D01*
X183104923Y-103295135D01*
X183111860Y-103291600D01*
X183191600Y-103211860D01*
X183242797Y-103111381D01*
X183260438Y-103000000D01*
X183242797Y-102888619D01*
X183239261Y-102881680D01*
X183239260Y-102881676D01*
X183214217Y-102832528D01*
X183204645Y-102772096D01*
X183232422Y-102717578D01*
X184179996Y-101770004D01*
X184234513Y-101742227D01*
X184294945Y-101751798D01*
G37*
%TD.AperFunction*%
%TD*%
M02*
