%TF.GenerationSoftware,KiCad,Pcbnew,(6.0.7)*%
%TF.CreationDate,2022-08-25T19:07:38-04:00*%
%TF.ProjectId,msbaker,6d736261-6b65-4722-9e6b-696361645f70,3*%
%TF.SameCoordinates,Original*%
%TF.FileFunction,Copper,L2,Inr*%
%TF.FilePolarity,Positive*%
%FSLAX46Y46*%
G04 Gerber Fmt 4.6, Leading zero omitted, Abs format (unit mm)*
G04 Created by KiCad (PCBNEW (6.0.7)) date 2022-08-25 19:07:38*
%MOMM*%
%LPD*%
G01*
G04 APERTURE LIST*
%TA.AperFunction,ComponentPad*%
%ADD10O,1.900000X1.200000*%
%TD*%
%TA.AperFunction,ComponentPad*%
%ADD11C,1.450000*%
%TD*%
%TA.AperFunction,ComponentPad*%
%ADD12C,3.800000*%
%TD*%
%TA.AperFunction,ComponentPad*%
%ADD13C,0.600000*%
%TD*%
%TA.AperFunction,ComponentPad*%
%ADD14R,1.700000X1.700000*%
%TD*%
%TA.AperFunction,ComponentPad*%
%ADD15O,1.700000X1.700000*%
%TD*%
%TA.AperFunction,ViaPad*%
%ADD16C,0.800000*%
%TD*%
%TA.AperFunction,ViaPad*%
%ADD17C,0.457000*%
%TD*%
%TA.AperFunction,Conductor*%
%ADD18C,0.200000*%
%TD*%
G04 APERTURE END LIST*
D10*
%TO.N,GND*%
%TO.C,J1*%
X190000000Y-90250000D03*
X190000000Y-97250000D03*
D11*
X187300000Y-91250000D03*
X187300000Y-96250000D03*
%TD*%
D12*
%TO.N,N/C*%
%TO.C,M2*%
X188750000Y-83000000D03*
%TD*%
%TO.N,N/C*%
%TO.C,M2*%
X180250000Y-83000000D03*
%TD*%
%TO.N,N/C*%
%TO.C,M2*%
X184250000Y-125250000D03*
%TD*%
D13*
%TO.N,GND*%
%TO.C,U3*%
X184250000Y-107500000D03*
X182446878Y-107500000D03*
X183348439Y-108401561D03*
X184250000Y-109303122D03*
X185151561Y-106598439D03*
X185151561Y-108401561D03*
X184250000Y-105696878D03*
X183348439Y-106598439D03*
X186053122Y-107500000D03*
%TD*%
D14*
%TO.N,Net-(JP1-Pad1)*%
%TO.C,JP1*%
X184075000Y-90400000D03*
D15*
%TO.N,/QSPI_SS*%
X181535000Y-90400000D03*
%TD*%
D14*
%TO.N,GND*%
%TO.C,JP2*%
X180000000Y-123540000D03*
D15*
%TO.N,/RUN*%
X180000000Y-121000000D03*
%TD*%
D16*
%TO.N,GND*%
X179100000Y-90000000D03*
D17*
X184650000Y-119450000D03*
X184650000Y-117450000D03*
D16*
X186550000Y-87650000D03*
D17*
X188500000Y-123337500D03*
D16*
X182900000Y-99300000D03*
X180000000Y-74700000D03*
D17*
X189850000Y-126150000D03*
X184650000Y-121450000D03*
X183850000Y-117450000D03*
X183850000Y-119450000D03*
X189500000Y-120650000D03*
X184625000Y-113675000D03*
D16*
X186900000Y-69900000D03*
D17*
X181600000Y-108700000D03*
X186500000Y-102700000D03*
X190600000Y-107500000D03*
X189000000Y-123837500D03*
X183850000Y-121450000D03*
X178200000Y-106900000D03*
X190600000Y-108900000D03*
X184250000Y-122100000D03*
%TO.N,+3.3V*%
X182500000Y-109500000D03*
D16*
X178300000Y-93400000D03*
D17*
X186500000Y-105800000D03*
X184200000Y-103800000D03*
X189000000Y-107300000D03*
X188000000Y-124887500D03*
D16*
X184700000Y-69800000D03*
D17*
X188000000Y-107600000D03*
X181400000Y-106900000D03*
X188900000Y-106100000D03*
D16*
X188700000Y-85800000D03*
D17*
X190150000Y-124887500D03*
X183300000Y-114550000D03*
X185100000Y-109500000D03*
%TO.N,Net-(C4-Pad2)*%
X180700000Y-110000000D03*
%TO.N,Net-(C7-Pad1)*%
X187150000Y-104500000D03*
X189050000Y-105500000D03*
X183360589Y-109660589D03*
%TO.N,/SD_DAT2*%
X181050000Y-103000000D03*
X180600000Y-89600000D03*
%TO.N,/SD_DAT3*%
X180600000Y-88950000D03*
X180450000Y-103000000D03*
%TO.N,/SD_CMD*%
X179850000Y-103000000D03*
X180600000Y-88300000D03*
%TO.N,/SD_CLK*%
X184850000Y-87850000D03*
X182900000Y-103000000D03*
%TO.N,/SD_DAT0*%
X184850000Y-88500000D03*
X182250000Y-103000000D03*
%TO.N,/SD_DAT1*%
X181650000Y-103000000D03*
X184850000Y-89150000D03*
%TO.N,/GPIO29*%
X189850000Y-114750000D03*
%TO.N,/GPIO28*%
X189500000Y-115250000D03*
%TO.N,/GPIO12*%
X179000000Y-115250000D03*
%TO.N,/GPIO27*%
X189150000Y-115750000D03*
%TO.N,/GPIO13*%
X179350000Y-115750000D03*
%TO.N,/GPIO26*%
X188800000Y-116250000D03*
%TO.N,/GPIO14*%
X179700000Y-116250000D03*
%TO.N,/LED*%
X188450000Y-116750000D03*
%TO.N,/GPIO15*%
X180050000Y-116750000D03*
%TO.N,/GPIO24*%
X188100000Y-117250000D03*
%TO.N,/SWCLK*%
X180400000Y-117250000D03*
%TO.N,/GPIO23*%
X187750000Y-117750000D03*
%TO.N,/SWD*%
X180750000Y-117750000D03*
%TO.N,/GPIO22*%
X187400000Y-118250000D03*
%TO.N,/RUN*%
X181100000Y-118250000D03*
%TO.N,/GPIO21*%
X187050000Y-118750000D03*
%TO.N,/GPIO16*%
X181450000Y-118750000D03*
%TO.N,/GPIO20*%
X186700000Y-119250000D03*
%TO.N,/GPIO17*%
X181800000Y-119250000D03*
%TO.N,/GPIO19*%
X186350000Y-119750000D03*
%TO.N,/GPIO11*%
X182150000Y-119750000D03*
X178500000Y-105750000D03*
%TO.N,/GPIO18*%
X186000000Y-120250000D03*
%TO.N,/GPIO10*%
X179050000Y-105550000D03*
X182500000Y-120250000D03*
%TO.N,/I2C0_SDA*%
X185800000Y-120800000D03*
X187800000Y-122100000D03*
X180750000Y-104450000D03*
%TO.N,/GPIO9*%
X182700000Y-120800000D03*
X179650000Y-105500000D03*
%TO.N,/I2C0_SCL*%
X180850000Y-105050000D03*
X185750000Y-121400000D03*
%TO.N,/GPIO8*%
X180300000Y-105500000D03*
X182750000Y-121400000D03*
%TO.N,Net-(R4-Pad2)*%
X181200000Y-110400000D03*
%TO.N,/QSPI_SCLK*%
X182400000Y-98100000D03*
X183400000Y-98100000D03*
%TO.N,/QSPI_SD3*%
X181100000Y-97600000D03*
X183900000Y-97600000D03*
%TD*%
D18*
%TO.N,/GPIO11*%
X181750000Y-113200000D02*
X181750000Y-115250000D01*
X181750000Y-115250000D02*
X182300000Y-115800000D01*
X179150000Y-106850000D02*
X179150000Y-110600000D01*
X182300000Y-115800000D02*
X182300000Y-119600000D01*
X178500000Y-105750000D02*
X178500000Y-106200000D01*
X178500000Y-106200000D02*
X179150000Y-106850000D01*
X179150000Y-110600000D02*
X181750000Y-113200000D01*
X182300000Y-119600000D02*
X182150000Y-119750000D01*
%TO.N,/GPIO10*%
X179500000Y-106650000D02*
X179500000Y-110450000D01*
X182650000Y-115650000D02*
X182650000Y-120100000D01*
X179050000Y-106200000D02*
X179500000Y-106650000D01*
X182100000Y-115100000D02*
X182650000Y-115650000D01*
X182650000Y-120100000D02*
X182500000Y-120250000D01*
X182100000Y-113050000D02*
X182100000Y-115100000D01*
X179500000Y-110450000D02*
X182100000Y-113050000D01*
X179050000Y-105550000D02*
X179050000Y-106200000D01*
%TO.N,/I2C0_SDA*%
X184150000Y-114200000D02*
X184150000Y-114700000D01*
X184800000Y-116450000D02*
X185500000Y-117150000D01*
X181350000Y-105700000D02*
X181350000Y-106300000D01*
X181150000Y-106500000D02*
X180900000Y-106750000D01*
X180900000Y-106750000D02*
X180900000Y-107000000D01*
X184150000Y-114700000D02*
X184150000Y-115800000D01*
X185500000Y-120500000D02*
X185800000Y-120800000D01*
X181350000Y-106300000D02*
X181150000Y-106500000D01*
X180750000Y-104450000D02*
X181000000Y-104450000D01*
X185500000Y-117150000D02*
X185500000Y-118150000D01*
X185500000Y-118150000D02*
X185500000Y-120500000D01*
X184150000Y-111900000D02*
X184150000Y-114200000D01*
X182050000Y-109800000D02*
X184150000Y-111900000D01*
X184150000Y-115800000D02*
X184800000Y-116450000D01*
X180900000Y-107000000D02*
X180900000Y-108650000D01*
X181350000Y-104800000D02*
X181350000Y-105700000D01*
X180900000Y-108650000D02*
X182050000Y-109800000D01*
X181000000Y-104450000D02*
X181050000Y-104500000D01*
X181050000Y-104500000D02*
X181350000Y-104800000D01*
%TO.N,/GPIO9*%
X179850000Y-106500000D02*
X179850000Y-110300000D01*
X183000000Y-120500000D02*
X182700000Y-120800000D01*
X179650000Y-106300000D02*
X179850000Y-106500000D01*
X183000000Y-115500000D02*
X183000000Y-120500000D01*
X182450000Y-112900000D02*
X182450000Y-114950000D01*
X179650000Y-105500000D02*
X179650000Y-106300000D01*
X179850000Y-110300000D02*
X182450000Y-112900000D01*
X182450000Y-114950000D02*
X183000000Y-115500000D01*
%TO.N,/I2C0_SCL*%
X183800000Y-113400000D02*
X183800000Y-114850000D01*
X185150000Y-117300000D02*
X185150000Y-117550000D01*
X180850000Y-109100000D02*
X183800000Y-112050000D01*
X180850000Y-106300000D02*
X180650000Y-106500000D01*
X185150000Y-120800000D02*
X185750000Y-121400000D01*
X183800000Y-114850000D02*
X183800000Y-115950000D01*
X180850000Y-105050000D02*
X180850000Y-106300000D01*
X183800000Y-112050000D02*
X183800000Y-113400000D01*
X180550000Y-106600000D02*
X180550000Y-107450000D01*
X183800000Y-115950000D02*
X184900000Y-117050000D01*
X184900000Y-117050000D02*
X185150000Y-117300000D01*
X180650000Y-106500000D02*
X180550000Y-106600000D01*
X185150000Y-117550000D02*
X185150000Y-120800000D01*
X180550000Y-107450000D02*
X180550000Y-108800000D01*
X180550000Y-108800000D02*
X180850000Y-109100000D01*
%TO.N,/GPIO8*%
X182800000Y-112750000D02*
X182800000Y-114800000D01*
X180300000Y-106350000D02*
X180200000Y-106450000D01*
X183350000Y-120800000D02*
X182750000Y-121400000D01*
X180200000Y-106450000D02*
X180200000Y-110150000D01*
X182800000Y-114800000D02*
X183350000Y-115350000D01*
X180200000Y-110150000D02*
X182800000Y-112750000D01*
X183350000Y-115350000D02*
X183350000Y-120800000D01*
X180300000Y-105500000D02*
X180300000Y-106350000D01*
%TD*%
%TA.AperFunction,Conductor*%
%TO.N,GND*%
G36*
X190959191Y-68018907D02*
G01*
X190995155Y-68068407D01*
X191000000Y-68099000D01*
X191000000Y-89535526D01*
X190981093Y-89593717D01*
X190931593Y-89629681D01*
X190870407Y-89629681D01*
X190847370Y-89618742D01*
X190712604Y-89531890D01*
X190702763Y-89527005D01*
X190544504Y-89469404D01*
X190533810Y-89466817D01*
X190403775Y-89450390D01*
X190397587Y-89450000D01*
X190115680Y-89450000D01*
X190102995Y-89454122D01*
X190100000Y-89458243D01*
X190100000Y-91034320D01*
X190104122Y-91047005D01*
X190108243Y-91050000D01*
X190392356Y-91050000D01*
X190397885Y-91049691D01*
X190522855Y-91035673D01*
X190533592Y-91033234D01*
X190692629Y-90977851D01*
X190702548Y-90973099D01*
X190848538Y-90881874D01*
X190907906Y-90867072D01*
X190964636Y-90889992D01*
X190997059Y-90941881D01*
X191000000Y-90965831D01*
X191000000Y-96535526D01*
X190981093Y-96593717D01*
X190931593Y-96629681D01*
X190870407Y-96629681D01*
X190847370Y-96618742D01*
X190712604Y-96531890D01*
X190702763Y-96527005D01*
X190544504Y-96469404D01*
X190533810Y-96466817D01*
X190403775Y-96450390D01*
X190397587Y-96450000D01*
X190115680Y-96450000D01*
X190102995Y-96454122D01*
X190100000Y-96458243D01*
X190100000Y-98034320D01*
X190104122Y-98047005D01*
X190108243Y-98050000D01*
X190392356Y-98050000D01*
X190397885Y-98049691D01*
X190522855Y-98035673D01*
X190533592Y-98033234D01*
X190692629Y-97977851D01*
X190702548Y-97973099D01*
X190848538Y-97881874D01*
X190907906Y-97867072D01*
X190964636Y-97889992D01*
X190997059Y-97941881D01*
X191000000Y-97965831D01*
X191000000Y-128901000D01*
X190981093Y-128959191D01*
X190931593Y-128995155D01*
X190901000Y-129000000D01*
X178099000Y-129000000D01*
X178040809Y-128981093D01*
X178004845Y-128931593D01*
X178000000Y-128901000D01*
X178000000Y-125228719D01*
X182217873Y-125228719D01*
X182218067Y-125232084D01*
X182218067Y-125232088D01*
X182219100Y-125250000D01*
X182233787Y-125504707D01*
X182287009Y-125775982D01*
X182376555Y-126037524D01*
X182500767Y-126284493D01*
X182657348Y-126512320D01*
X182843400Y-126716789D01*
X183055480Y-126894115D01*
X183289664Y-127041018D01*
X183292732Y-127042403D01*
X183292739Y-127042407D01*
X183456332Y-127116272D01*
X183541619Y-127154780D01*
X183544841Y-127155734D01*
X183544848Y-127155737D01*
X183755952Y-127218268D01*
X183806681Y-127233295D01*
X183810006Y-127233804D01*
X183810007Y-127233804D01*
X184076613Y-127274601D01*
X184076616Y-127274601D01*
X184079947Y-127275111D01*
X184083319Y-127275164D01*
X184128016Y-127275866D01*
X184356359Y-127279453D01*
X184359695Y-127279049D01*
X184359700Y-127279049D01*
X184627459Y-127246646D01*
X184627464Y-127246645D01*
X184630803Y-127246241D01*
X184898201Y-127176091D01*
X185062334Y-127108105D01*
X185150496Y-127071587D01*
X185150499Y-127071586D01*
X185153605Y-127070299D01*
X185203714Y-127041018D01*
X185389372Y-126932529D01*
X185389378Y-126932525D01*
X185392287Y-126930825D01*
X185609833Y-126760247D01*
X185802215Y-126561724D01*
X185836673Y-126514816D01*
X185868747Y-126471151D01*
X185965875Y-126338928D01*
X186097784Y-126095982D01*
X186195501Y-125837381D01*
X186221420Y-125724214D01*
X186256465Y-125571202D01*
X186256466Y-125571195D01*
X186257218Y-125567912D01*
X186281792Y-125292560D01*
X186282238Y-125250000D01*
X186263435Y-124974194D01*
X186245482Y-124887500D01*
X187639562Y-124887500D01*
X187657203Y-124998881D01*
X187708400Y-125099360D01*
X187788140Y-125179100D01*
X187795077Y-125182635D01*
X187795079Y-125182636D01*
X187878920Y-125225355D01*
X187888619Y-125230297D01*
X187896313Y-125231516D01*
X187896314Y-125231516D01*
X187992304Y-125246719D01*
X188000000Y-125247938D01*
X188007696Y-125246719D01*
X188103686Y-125231516D01*
X188103687Y-125231516D01*
X188111381Y-125230297D01*
X188121080Y-125225355D01*
X188204921Y-125182636D01*
X188204923Y-125182635D01*
X188211860Y-125179100D01*
X188291600Y-125099360D01*
X188342797Y-124998881D01*
X188360438Y-124887500D01*
X189789562Y-124887500D01*
X189807203Y-124998881D01*
X189858400Y-125099360D01*
X189938140Y-125179100D01*
X189945077Y-125182635D01*
X189945079Y-125182636D01*
X190028920Y-125225355D01*
X190038619Y-125230297D01*
X190046313Y-125231516D01*
X190046314Y-125231516D01*
X190142304Y-125246719D01*
X190150000Y-125247938D01*
X190157696Y-125246719D01*
X190253686Y-125231516D01*
X190253687Y-125231516D01*
X190261381Y-125230297D01*
X190271080Y-125225355D01*
X190354921Y-125182636D01*
X190354923Y-125182635D01*
X190361860Y-125179100D01*
X190441600Y-125099360D01*
X190492797Y-124998881D01*
X190510438Y-124887500D01*
X190492797Y-124776119D01*
X190454171Y-124700312D01*
X190445136Y-124682579D01*
X190445135Y-124682577D01*
X190441600Y-124675640D01*
X190361860Y-124595900D01*
X190354923Y-124592365D01*
X190354921Y-124592364D01*
X190268321Y-124548239D01*
X190268320Y-124548239D01*
X190261381Y-124544703D01*
X190253687Y-124543484D01*
X190253686Y-124543484D01*
X190157696Y-124528281D01*
X190150000Y-124527062D01*
X190142304Y-124528281D01*
X190046314Y-124543484D01*
X190046313Y-124543484D01*
X190038619Y-124544703D01*
X190031680Y-124548239D01*
X190031679Y-124548239D01*
X189945079Y-124592364D01*
X189945077Y-124592365D01*
X189938140Y-124595900D01*
X189858400Y-124675640D01*
X189854865Y-124682577D01*
X189854864Y-124682579D01*
X189845829Y-124700312D01*
X189807203Y-124776119D01*
X189789562Y-124887500D01*
X188360438Y-124887500D01*
X188342797Y-124776119D01*
X188304171Y-124700312D01*
X188295136Y-124682579D01*
X188295135Y-124682577D01*
X188291600Y-124675640D01*
X188211860Y-124595900D01*
X188204923Y-124592365D01*
X188204921Y-124592364D01*
X188118321Y-124548239D01*
X188118320Y-124548239D01*
X188111381Y-124544703D01*
X188103687Y-124543484D01*
X188103686Y-124543484D01*
X188007696Y-124528281D01*
X188000000Y-124527062D01*
X187992304Y-124528281D01*
X187896314Y-124543484D01*
X187896313Y-124543484D01*
X187888619Y-124544703D01*
X187881680Y-124548239D01*
X187881679Y-124548239D01*
X187795079Y-124592364D01*
X187795077Y-124592365D01*
X187788140Y-124595900D01*
X187708400Y-124675640D01*
X187704865Y-124682577D01*
X187704864Y-124682579D01*
X187695829Y-124700312D01*
X187657203Y-124776119D01*
X187639562Y-124887500D01*
X186245482Y-124887500D01*
X186207376Y-124703491D01*
X186115096Y-124442901D01*
X185988304Y-124197246D01*
X185977648Y-124182083D01*
X185831285Y-123973830D01*
X185829346Y-123971071D01*
X185816587Y-123957340D01*
X185643457Y-123771031D01*
X185641163Y-123768562D01*
X185427237Y-123593466D01*
X185191528Y-123449023D01*
X185169294Y-123439263D01*
X184941479Y-123339259D01*
X184941475Y-123339257D01*
X184938396Y-123337906D01*
X184889030Y-123323844D01*
X184675778Y-123263097D01*
X184675773Y-123263096D01*
X184672526Y-123262171D01*
X184398837Y-123223220D01*
X184395471Y-123223202D01*
X184395466Y-123223202D01*
X184271067Y-123222551D01*
X184122395Y-123221772D01*
X183848313Y-123257856D01*
X183845056Y-123258747D01*
X183845051Y-123258748D01*
X183584921Y-123329911D01*
X183584917Y-123329912D01*
X183581665Y-123330802D01*
X183578561Y-123332126D01*
X183330474Y-123437944D01*
X183330467Y-123437947D01*
X183327383Y-123439263D01*
X183324501Y-123440988D01*
X183093069Y-123579496D01*
X183093065Y-123579499D01*
X183090174Y-123581229D01*
X183074900Y-123593466D01*
X182877060Y-123751966D01*
X182877055Y-123751970D01*
X182874427Y-123754076D01*
X182684134Y-123954603D01*
X182682169Y-123957338D01*
X182682167Y-123957340D01*
X182672301Y-123971071D01*
X182522816Y-124179100D01*
X182393458Y-124423414D01*
X182298455Y-124683024D01*
X182239563Y-124953125D01*
X182217873Y-125228719D01*
X178000000Y-125228719D01*
X178000000Y-124404840D01*
X178950000Y-124404840D01*
X178950948Y-124414462D01*
X178959702Y-124458474D01*
X178967021Y-124476142D01*
X179000389Y-124526082D01*
X179013918Y-124539611D01*
X179063858Y-124572979D01*
X179081526Y-124580298D01*
X179125538Y-124589052D01*
X179135160Y-124590000D01*
X179884320Y-124590000D01*
X179897005Y-124585878D01*
X179900000Y-124581757D01*
X179900000Y-124574320D01*
X180100000Y-124574320D01*
X180104122Y-124587005D01*
X180108243Y-124590000D01*
X180864840Y-124590000D01*
X180874462Y-124589052D01*
X180918474Y-124580298D01*
X180936142Y-124572979D01*
X180986082Y-124539611D01*
X180999611Y-124526082D01*
X181032979Y-124476142D01*
X181040298Y-124458474D01*
X181049052Y-124414462D01*
X181050000Y-124404840D01*
X181050000Y-123655680D01*
X181045878Y-123642995D01*
X181041757Y-123640000D01*
X180115680Y-123640000D01*
X180102995Y-123644122D01*
X180100000Y-123648243D01*
X180100000Y-124574320D01*
X179900000Y-124574320D01*
X179900000Y-123655680D01*
X179895878Y-123642995D01*
X179891757Y-123640000D01*
X178965680Y-123640000D01*
X178952995Y-123644122D01*
X178950000Y-123648243D01*
X178950000Y-124404840D01*
X178000000Y-124404840D01*
X178000000Y-123424320D01*
X178950000Y-123424320D01*
X178954122Y-123437005D01*
X178958243Y-123440000D01*
X179884320Y-123440000D01*
X179897005Y-123435878D01*
X179900000Y-123431757D01*
X179900000Y-123424320D01*
X180100000Y-123424320D01*
X180104122Y-123437005D01*
X180108243Y-123440000D01*
X181034320Y-123440000D01*
X181047005Y-123435878D01*
X181050000Y-123431757D01*
X181050000Y-122675160D01*
X181049052Y-122665538D01*
X181040298Y-122621526D01*
X181032979Y-122603858D01*
X180999611Y-122553918D01*
X180986082Y-122540389D01*
X180936142Y-122507021D01*
X180918474Y-122499702D01*
X180874462Y-122490948D01*
X180864840Y-122490000D01*
X180115680Y-122490000D01*
X180102995Y-122494122D01*
X180100000Y-122498243D01*
X180100000Y-123424320D01*
X179900000Y-123424320D01*
X179900000Y-122505680D01*
X179895878Y-122492995D01*
X179891757Y-122490000D01*
X179135160Y-122490000D01*
X179125538Y-122490948D01*
X179081526Y-122499702D01*
X179063858Y-122507021D01*
X179013918Y-122540389D01*
X179000389Y-122553918D01*
X178967021Y-122603858D01*
X178959702Y-122621526D01*
X178950948Y-122665538D01*
X178950000Y-122675160D01*
X178950000Y-123424320D01*
X178000000Y-123424320D01*
X178000000Y-122100000D01*
X187439562Y-122100000D01*
X187457203Y-122211381D01*
X187508400Y-122311860D01*
X187588140Y-122391600D01*
X187595077Y-122395135D01*
X187595079Y-122395136D01*
X187681679Y-122439261D01*
X187688619Y-122442797D01*
X187696313Y-122444016D01*
X187696314Y-122444016D01*
X187792304Y-122459219D01*
X187800000Y-122460438D01*
X187807696Y-122459219D01*
X187903686Y-122444016D01*
X187903687Y-122444016D01*
X187911381Y-122442797D01*
X187918321Y-122439261D01*
X188004921Y-122395136D01*
X188004923Y-122395135D01*
X188011860Y-122391600D01*
X188091600Y-122311860D01*
X188142797Y-122211381D01*
X188160438Y-122100000D01*
X188142797Y-121988619D01*
X188132128Y-121967680D01*
X188095136Y-121895079D01*
X188095135Y-121895077D01*
X188091600Y-121888140D01*
X188011860Y-121808400D01*
X188004923Y-121804865D01*
X188004921Y-121804864D01*
X187918321Y-121760739D01*
X187918320Y-121760739D01*
X187911381Y-121757203D01*
X187903687Y-121755984D01*
X187903686Y-121755984D01*
X187807696Y-121740781D01*
X187800000Y-121739562D01*
X187792304Y-121740781D01*
X187696314Y-121755984D01*
X187696313Y-121755984D01*
X187688619Y-121757203D01*
X187681680Y-121760739D01*
X187681679Y-121760739D01*
X187595079Y-121804864D01*
X187595077Y-121804865D01*
X187588140Y-121808400D01*
X187508400Y-121888140D01*
X187504865Y-121895077D01*
X187504864Y-121895079D01*
X187467872Y-121967680D01*
X187457203Y-121988619D01*
X187439562Y-122100000D01*
X178000000Y-122100000D01*
X178000000Y-120986286D01*
X179017866Y-120986286D01*
X179019431Y-121004921D01*
X179033380Y-121171032D01*
X179033907Y-121177311D01*
X179086746Y-121361583D01*
X179103879Y-121394920D01*
X179167298Y-121518321D01*
X179174370Y-121532082D01*
X179293443Y-121682314D01*
X179297123Y-121685446D01*
X179297125Y-121685448D01*
X179380005Y-121755984D01*
X179439428Y-121806557D01*
X179443651Y-121808917D01*
X179443655Y-121808920D01*
X179552628Y-121869822D01*
X179606765Y-121900079D01*
X179611363Y-121901573D01*
X179784476Y-121957821D01*
X179784478Y-121957822D01*
X179789081Y-121959317D01*
X179979430Y-121982015D01*
X179984252Y-121981644D01*
X179984255Y-121981644D01*
X180165734Y-121967680D01*
X180165739Y-121967679D01*
X180170562Y-121967308D01*
X180355199Y-121915756D01*
X180383277Y-121901573D01*
X180521984Y-121831507D01*
X180521986Y-121831506D01*
X180526305Y-121829324D01*
X180553087Y-121808400D01*
X180673550Y-121714284D01*
X180673552Y-121714282D01*
X180677365Y-121711303D01*
X180680521Y-121707647D01*
X180680526Y-121707642D01*
X180769191Y-121604921D01*
X180802624Y-121566189D01*
X180897312Y-121399509D01*
X180908264Y-121366588D01*
X180956294Y-121222203D01*
X180956294Y-121222201D01*
X180957821Y-121217612D01*
X180960668Y-121195080D01*
X180973740Y-121091600D01*
X180981847Y-121027425D01*
X180982230Y-121000000D01*
X180974637Y-120922555D01*
X180963997Y-120814036D01*
X180963996Y-120814031D01*
X180963524Y-120809217D01*
X180942539Y-120739711D01*
X180909516Y-120630333D01*
X180909514Y-120630328D01*
X180908117Y-120625701D01*
X180860385Y-120535931D01*
X180820393Y-120460716D01*
X180820391Y-120460713D01*
X180818120Y-120456442D01*
X180812313Y-120449321D01*
X180700023Y-120311640D01*
X180700022Y-120311639D01*
X180696962Y-120307887D01*
X180549256Y-120185694D01*
X180380629Y-120094518D01*
X180322409Y-120076496D01*
X180202126Y-120039262D01*
X180202122Y-120039261D01*
X180197505Y-120037832D01*
X180192697Y-120037327D01*
X180192694Y-120037326D01*
X180011673Y-120018300D01*
X180011671Y-120018300D01*
X180006857Y-120017794D01*
X179943540Y-120023556D01*
X179820768Y-120034729D01*
X179820765Y-120034730D01*
X179815948Y-120035168D01*
X179811306Y-120036534D01*
X179811302Y-120036535D01*
X179636697Y-120087924D01*
X179636694Y-120087925D01*
X179632050Y-120089292D01*
X179462167Y-120178105D01*
X179458398Y-120181135D01*
X179458397Y-120181136D01*
X179316543Y-120295189D01*
X179316541Y-120295191D01*
X179312770Y-120298223D01*
X179189549Y-120445072D01*
X179097198Y-120613058D01*
X179095735Y-120617671D01*
X179095733Y-120617675D01*
X179069861Y-120699234D01*
X179039234Y-120795783D01*
X179038694Y-120800595D01*
X179038694Y-120800596D01*
X179020441Y-120963333D01*
X179017866Y-120986286D01*
X178000000Y-120986286D01*
X178000000Y-105965218D01*
X178018907Y-105907027D01*
X178068407Y-105871063D01*
X178129593Y-105871063D01*
X178179093Y-105907027D01*
X178187209Y-105920272D01*
X178204862Y-105954918D01*
X178204865Y-105954922D01*
X178208400Y-105961860D01*
X178243504Y-105996964D01*
X178271281Y-106051481D01*
X178272500Y-106066968D01*
X178272500Y-106191471D01*
X178272364Y-106196652D01*
X178270826Y-106225993D01*
X178270826Y-106225995D01*
X178270282Y-106236384D01*
X178274010Y-106246096D01*
X178274010Y-106246097D01*
X178278404Y-106257544D01*
X178282814Y-106272433D01*
X178287526Y-106294600D01*
X178293642Y-106303019D01*
X178296878Y-106310286D01*
X178301211Y-106316958D01*
X178304940Y-106326673D01*
X178320964Y-106342697D01*
X178331053Y-106354510D01*
X178344372Y-106372842D01*
X178353388Y-106378048D01*
X178359614Y-106383653D01*
X178369525Y-106391258D01*
X178893504Y-106915237D01*
X178921281Y-106969754D01*
X178922500Y-106985241D01*
X178922500Y-110591471D01*
X178922364Y-110596652D01*
X178920826Y-110625993D01*
X178920826Y-110625995D01*
X178920282Y-110636384D01*
X178924010Y-110646096D01*
X178924010Y-110646097D01*
X178928404Y-110657544D01*
X178932814Y-110672433D01*
X178937526Y-110694600D01*
X178943642Y-110703019D01*
X178946878Y-110710286D01*
X178951211Y-110716958D01*
X178954940Y-110726673D01*
X178970964Y-110742697D01*
X178981053Y-110754510D01*
X178994372Y-110772842D01*
X179003388Y-110778048D01*
X179009614Y-110783653D01*
X179019525Y-110791258D01*
X181493504Y-113265238D01*
X181521281Y-113319755D01*
X181522500Y-113335242D01*
X181522500Y-115241471D01*
X181522364Y-115246652D01*
X181520826Y-115275993D01*
X181520826Y-115275995D01*
X181520282Y-115286384D01*
X181524010Y-115296096D01*
X181524010Y-115296097D01*
X181528404Y-115307544D01*
X181532814Y-115322433D01*
X181537526Y-115344600D01*
X181543642Y-115353019D01*
X181546878Y-115360286D01*
X181551211Y-115366958D01*
X181554940Y-115376673D01*
X181570964Y-115392697D01*
X181581053Y-115404510D01*
X181594372Y-115422842D01*
X181603386Y-115428046D01*
X181609614Y-115433654D01*
X181619528Y-115441261D01*
X182043504Y-115865238D01*
X182071281Y-115919754D01*
X182072500Y-115935241D01*
X182072500Y-118827744D01*
X182053593Y-118885935D01*
X182004093Y-118921899D01*
X181942907Y-118921899D01*
X181928557Y-118915955D01*
X181911381Y-118907203D01*
X181888526Y-118903583D01*
X181886398Y-118903246D01*
X181831882Y-118875467D01*
X181804106Y-118820950D01*
X181804106Y-118789978D01*
X181809219Y-118757696D01*
X181810438Y-118750000D01*
X181792797Y-118638619D01*
X181770070Y-118594015D01*
X181745136Y-118545079D01*
X181745135Y-118545077D01*
X181741600Y-118538140D01*
X181661860Y-118458400D01*
X181654923Y-118454865D01*
X181654921Y-118454864D01*
X181568321Y-118410739D01*
X181568320Y-118410739D01*
X181561381Y-118407203D01*
X181538526Y-118403583D01*
X181536398Y-118403246D01*
X181481882Y-118375467D01*
X181454106Y-118320950D01*
X181454106Y-118289978D01*
X181459219Y-118257696D01*
X181460438Y-118250000D01*
X181442797Y-118138619D01*
X181420070Y-118094015D01*
X181395136Y-118045079D01*
X181395135Y-118045077D01*
X181391600Y-118038140D01*
X181311860Y-117958400D01*
X181304923Y-117954865D01*
X181304921Y-117954864D01*
X181218321Y-117910739D01*
X181218320Y-117910739D01*
X181211381Y-117907203D01*
X181188526Y-117903583D01*
X181186398Y-117903246D01*
X181131882Y-117875467D01*
X181104106Y-117820950D01*
X181104106Y-117789978D01*
X181109219Y-117757696D01*
X181110438Y-117750000D01*
X181092797Y-117638619D01*
X181070070Y-117594015D01*
X181045136Y-117545079D01*
X181045135Y-117545077D01*
X181041600Y-117538140D01*
X180961860Y-117458400D01*
X180954923Y-117454865D01*
X180954921Y-117454864D01*
X180868321Y-117410739D01*
X180868320Y-117410739D01*
X180861381Y-117407203D01*
X180838526Y-117403583D01*
X180836398Y-117403246D01*
X180781882Y-117375467D01*
X180754106Y-117320950D01*
X180754106Y-117289978D01*
X180759219Y-117257696D01*
X180760438Y-117250000D01*
X180742797Y-117138619D01*
X180720070Y-117094015D01*
X180695136Y-117045079D01*
X180695135Y-117045077D01*
X180691600Y-117038140D01*
X180611860Y-116958400D01*
X180604923Y-116954865D01*
X180604921Y-116954864D01*
X180518321Y-116910739D01*
X180518320Y-116910739D01*
X180511381Y-116907203D01*
X180488526Y-116903583D01*
X180486398Y-116903246D01*
X180431882Y-116875467D01*
X180404106Y-116820950D01*
X180404106Y-116789978D01*
X180409219Y-116757696D01*
X180410438Y-116750000D01*
X180392797Y-116638619D01*
X180370070Y-116594015D01*
X180345136Y-116545079D01*
X180345135Y-116545077D01*
X180341600Y-116538140D01*
X180261860Y-116458400D01*
X180254923Y-116454865D01*
X180254921Y-116454864D01*
X180168321Y-116410739D01*
X180168320Y-116410739D01*
X180161381Y-116407203D01*
X180138526Y-116403583D01*
X180136398Y-116403246D01*
X180081882Y-116375467D01*
X180054106Y-116320950D01*
X180054106Y-116289978D01*
X180059219Y-116257696D01*
X180060438Y-116250000D01*
X180042797Y-116138619D01*
X180026342Y-116106325D01*
X179995136Y-116045079D01*
X179995135Y-116045077D01*
X179991600Y-116038140D01*
X179911860Y-115958400D01*
X179904923Y-115954865D01*
X179904921Y-115954864D01*
X179818321Y-115910739D01*
X179818320Y-115910739D01*
X179811381Y-115907203D01*
X179788526Y-115903583D01*
X179786398Y-115903246D01*
X179731882Y-115875467D01*
X179704106Y-115820950D01*
X179704106Y-115789978D01*
X179709219Y-115757696D01*
X179710438Y-115750000D01*
X179692797Y-115638619D01*
X179670070Y-115594015D01*
X179645136Y-115545079D01*
X179645135Y-115545077D01*
X179641600Y-115538140D01*
X179561860Y-115458400D01*
X179554923Y-115454865D01*
X179554921Y-115454864D01*
X179468321Y-115410739D01*
X179468320Y-115410739D01*
X179461381Y-115407203D01*
X179438526Y-115403583D01*
X179436398Y-115403246D01*
X179381882Y-115375467D01*
X179354106Y-115320950D01*
X179354106Y-115289978D01*
X179359219Y-115257696D01*
X179360438Y-115250000D01*
X179354106Y-115210022D01*
X179344016Y-115146314D01*
X179344016Y-115146313D01*
X179342797Y-115138619D01*
X179320070Y-115094015D01*
X179295136Y-115045079D01*
X179295135Y-115045077D01*
X179291600Y-115038140D01*
X179211860Y-114958400D01*
X179204923Y-114954865D01*
X179204921Y-114954864D01*
X179118321Y-114910739D01*
X179118320Y-114910739D01*
X179111381Y-114907203D01*
X179103687Y-114905984D01*
X179103686Y-114905984D01*
X179025968Y-114893675D01*
X179000000Y-114889562D01*
X178974032Y-114893675D01*
X178896314Y-114905984D01*
X178896313Y-114905984D01*
X178888619Y-114907203D01*
X178881680Y-114910739D01*
X178881679Y-114910739D01*
X178795079Y-114954864D01*
X178795077Y-114954865D01*
X178788140Y-114958400D01*
X178708400Y-115038140D01*
X178704865Y-115045077D01*
X178704864Y-115045079D01*
X178679930Y-115094015D01*
X178657203Y-115138619D01*
X178655984Y-115146313D01*
X178655984Y-115146314D01*
X178645894Y-115210022D01*
X178639562Y-115250000D01*
X178657203Y-115361381D01*
X178660739Y-115368320D01*
X178660739Y-115368321D01*
X178680551Y-115407203D01*
X178708400Y-115461860D01*
X178788140Y-115541600D01*
X178795077Y-115545135D01*
X178795079Y-115545136D01*
X178881679Y-115589261D01*
X178888619Y-115592797D01*
X178911474Y-115596417D01*
X178913602Y-115596754D01*
X178968118Y-115624533D01*
X178995894Y-115679050D01*
X178995894Y-115710021D01*
X178989562Y-115750000D01*
X179007203Y-115861381D01*
X179010739Y-115868320D01*
X179010739Y-115868321D01*
X179036946Y-115919754D01*
X179058400Y-115961860D01*
X179138140Y-116041600D01*
X179145077Y-116045135D01*
X179145079Y-116045136D01*
X179206974Y-116076673D01*
X179238619Y-116092797D01*
X179261474Y-116096417D01*
X179263602Y-116096754D01*
X179318118Y-116124533D01*
X179345894Y-116179050D01*
X179345894Y-116210021D01*
X179339562Y-116250000D01*
X179357203Y-116361381D01*
X179360739Y-116368320D01*
X179360739Y-116368321D01*
X179380551Y-116407203D01*
X179408400Y-116461860D01*
X179488140Y-116541600D01*
X179495077Y-116545135D01*
X179495079Y-116545136D01*
X179581679Y-116589261D01*
X179588619Y-116592797D01*
X179611474Y-116596417D01*
X179613602Y-116596754D01*
X179668118Y-116624533D01*
X179695894Y-116679050D01*
X179695894Y-116710021D01*
X179689562Y-116750000D01*
X179707203Y-116861381D01*
X179710739Y-116868320D01*
X179710739Y-116868321D01*
X179730551Y-116907203D01*
X179758400Y-116961860D01*
X179838140Y-117041600D01*
X179845077Y-117045135D01*
X179845079Y-117045136D01*
X179931679Y-117089261D01*
X179938619Y-117092797D01*
X179961474Y-117096417D01*
X179963602Y-117096754D01*
X180018118Y-117124533D01*
X180045894Y-117179050D01*
X180045894Y-117210021D01*
X180039562Y-117250000D01*
X180057203Y-117361381D01*
X180060739Y-117368320D01*
X180060739Y-117368321D01*
X180080551Y-117407203D01*
X180108400Y-117461860D01*
X180188140Y-117541600D01*
X180195077Y-117545135D01*
X180195079Y-117545136D01*
X180281679Y-117589261D01*
X180288619Y-117592797D01*
X180311474Y-117596417D01*
X180313602Y-117596754D01*
X180368118Y-117624533D01*
X180395894Y-117679050D01*
X180395894Y-117710021D01*
X180389562Y-117750000D01*
X180407203Y-117861381D01*
X180410739Y-117868320D01*
X180410739Y-117868321D01*
X180430551Y-117907203D01*
X180458400Y-117961860D01*
X180538140Y-118041600D01*
X180545077Y-118045135D01*
X180545079Y-118045136D01*
X180631679Y-118089261D01*
X180638619Y-118092797D01*
X180661474Y-118096417D01*
X180663602Y-118096754D01*
X180718118Y-118124533D01*
X180745894Y-118179050D01*
X180745894Y-118210021D01*
X180739562Y-118250000D01*
X180757203Y-118361381D01*
X180760739Y-118368320D01*
X180760739Y-118368321D01*
X180780551Y-118407203D01*
X180808400Y-118461860D01*
X180888140Y-118541600D01*
X180895077Y-118545135D01*
X180895079Y-118545136D01*
X180981679Y-118589261D01*
X180988619Y-118592797D01*
X181011474Y-118596417D01*
X181013602Y-118596754D01*
X181068118Y-118624533D01*
X181095894Y-118679050D01*
X181095894Y-118710021D01*
X181089562Y-118750000D01*
X181107203Y-118861381D01*
X181110739Y-118868320D01*
X181110739Y-118868321D01*
X181138039Y-118921899D01*
X181158400Y-118961860D01*
X181238140Y-119041600D01*
X181245077Y-119045135D01*
X181245079Y-119045136D01*
X181331679Y-119089261D01*
X181338619Y-119092797D01*
X181361474Y-119096417D01*
X181363602Y-119096754D01*
X181418118Y-119124533D01*
X181445894Y-119179050D01*
X181445894Y-119210021D01*
X181439562Y-119250000D01*
X181457203Y-119361381D01*
X181460739Y-119368320D01*
X181460739Y-119368321D01*
X181480551Y-119407203D01*
X181508400Y-119461860D01*
X181588140Y-119541600D01*
X181595077Y-119545135D01*
X181595079Y-119545136D01*
X181681679Y-119589261D01*
X181688619Y-119592797D01*
X181711474Y-119596417D01*
X181713602Y-119596754D01*
X181768118Y-119624533D01*
X181795894Y-119679050D01*
X181795894Y-119710021D01*
X181789562Y-119750000D01*
X181790781Y-119757696D01*
X181804329Y-119843233D01*
X181807203Y-119861381D01*
X181810739Y-119868320D01*
X181810739Y-119868321D01*
X181830551Y-119907203D01*
X181858400Y-119961860D01*
X181938140Y-120041600D01*
X181945077Y-120045135D01*
X181945079Y-120045136D01*
X182029055Y-120087924D01*
X182038619Y-120092797D01*
X182061474Y-120096417D01*
X182063602Y-120096754D01*
X182118118Y-120124533D01*
X182145894Y-120179050D01*
X182145894Y-120210021D01*
X182139562Y-120250000D01*
X182157203Y-120361381D01*
X182208400Y-120461860D01*
X182288140Y-120541600D01*
X182295077Y-120545135D01*
X182295079Y-120545136D01*
X182314229Y-120554893D01*
X182357494Y-120598158D01*
X182367065Y-120658590D01*
X182362084Y-120673919D01*
X182363148Y-120674265D01*
X182360739Y-120681679D01*
X182357203Y-120688619D01*
X182339562Y-120800000D01*
X182357203Y-120911381D01*
X182360739Y-120918320D01*
X182360739Y-120918321D01*
X182385492Y-120966900D01*
X182408400Y-121011860D01*
X182452623Y-121056083D01*
X182480400Y-121110600D01*
X182470829Y-121171032D01*
X182463424Y-121183116D01*
X182458400Y-121188140D01*
X182407203Y-121288619D01*
X182405984Y-121296313D01*
X182405984Y-121296314D01*
X182398221Y-121345330D01*
X182389562Y-121400000D01*
X182407203Y-121511381D01*
X182410739Y-121518320D01*
X182410739Y-121518321D01*
X182432982Y-121561974D01*
X182458400Y-121611860D01*
X182538140Y-121691600D01*
X182545077Y-121695135D01*
X182545079Y-121695136D01*
X182631679Y-121739261D01*
X182638619Y-121742797D01*
X182646313Y-121744016D01*
X182646314Y-121744016D01*
X182742304Y-121759219D01*
X182750000Y-121760438D01*
X182757696Y-121759219D01*
X182853686Y-121744016D01*
X182853687Y-121744016D01*
X182861381Y-121742797D01*
X182868321Y-121739261D01*
X182954921Y-121695136D01*
X182954923Y-121695135D01*
X182961860Y-121691600D01*
X183041600Y-121611860D01*
X183067019Y-121561974D01*
X183089261Y-121518321D01*
X183089261Y-121518320D01*
X183092797Y-121511381D01*
X183110438Y-121400000D01*
X183110413Y-121399845D01*
X183128126Y-121345330D01*
X183138216Y-121333517D01*
X183504834Y-120966900D01*
X183508593Y-120963333D01*
X183530430Y-120943671D01*
X183538163Y-120936708D01*
X183547381Y-120916004D01*
X183554793Y-120902353D01*
X183561468Y-120892076D01*
X183561469Y-120892073D01*
X183567134Y-120883350D01*
X183568761Y-120873075D01*
X183571613Y-120865646D01*
X183573267Y-120857864D01*
X183577500Y-120848357D01*
X183577500Y-120825691D01*
X183578719Y-120810204D01*
X183580636Y-120798103D01*
X183580636Y-120798101D01*
X183582263Y-120787828D01*
X183579570Y-120777779D01*
X183579132Y-120769417D01*
X183577500Y-120757017D01*
X183577500Y-116288241D01*
X183596407Y-116230050D01*
X183645907Y-116194086D01*
X183707093Y-116194086D01*
X183746504Y-116218237D01*
X184270570Y-116742304D01*
X184893504Y-117365238D01*
X184921281Y-117419755D01*
X184922500Y-117435242D01*
X184922500Y-120791471D01*
X184922364Y-120796652D01*
X184920826Y-120825993D01*
X184920826Y-120825995D01*
X184920282Y-120836384D01*
X184924010Y-120846096D01*
X184924010Y-120846097D01*
X184928404Y-120857544D01*
X184932814Y-120872433D01*
X184937526Y-120894600D01*
X184943642Y-120903019D01*
X184946878Y-120910286D01*
X184951211Y-120916958D01*
X184954940Y-120926673D01*
X184970964Y-120942697D01*
X184981053Y-120954510D01*
X184994372Y-120972842D01*
X185003386Y-120978046D01*
X185009614Y-120983654D01*
X185019528Y-120991261D01*
X185361785Y-121333519D01*
X185389562Y-121388035D01*
X185390191Y-121396028D01*
X185389562Y-121400000D01*
X185407203Y-121511381D01*
X185410739Y-121518320D01*
X185410739Y-121518321D01*
X185432982Y-121561974D01*
X185458400Y-121611860D01*
X185538140Y-121691600D01*
X185545077Y-121695135D01*
X185545079Y-121695136D01*
X185631679Y-121739261D01*
X185638619Y-121742797D01*
X185646313Y-121744016D01*
X185646314Y-121744016D01*
X185742304Y-121759219D01*
X185750000Y-121760438D01*
X185757696Y-121759219D01*
X185853686Y-121744016D01*
X185853687Y-121744016D01*
X185861381Y-121742797D01*
X185868321Y-121739261D01*
X185954921Y-121695136D01*
X185954923Y-121695135D01*
X185961860Y-121691600D01*
X186041600Y-121611860D01*
X186067019Y-121561974D01*
X186089261Y-121518321D01*
X186089261Y-121518320D01*
X186092797Y-121511381D01*
X186110438Y-121400000D01*
X186101779Y-121345330D01*
X186094016Y-121296314D01*
X186094016Y-121296313D01*
X186092797Y-121288619D01*
X186041600Y-121188140D01*
X186037071Y-121183611D01*
X186018381Y-121126084D01*
X186037290Y-121067894D01*
X186047377Y-121056083D01*
X186091600Y-121011860D01*
X186114509Y-120966900D01*
X186139261Y-120918321D01*
X186139261Y-120918320D01*
X186142797Y-120911381D01*
X186160438Y-120800000D01*
X186142797Y-120688619D01*
X186139261Y-120681679D01*
X186136852Y-120674265D01*
X186140155Y-120673192D01*
X186132934Y-120627624D01*
X186160706Y-120573105D01*
X186185771Y-120554893D01*
X186204921Y-120545136D01*
X186204923Y-120545135D01*
X186211860Y-120541600D01*
X186291600Y-120461860D01*
X186342797Y-120361381D01*
X186360438Y-120250000D01*
X186354106Y-120210022D01*
X186363677Y-120149590D01*
X186406942Y-120106325D01*
X186436398Y-120096754D01*
X186438526Y-120096417D01*
X186461381Y-120092797D01*
X186470945Y-120087924D01*
X186554921Y-120045136D01*
X186554923Y-120045135D01*
X186561860Y-120041600D01*
X186641600Y-119961860D01*
X186669450Y-119907203D01*
X186689261Y-119868321D01*
X186689261Y-119868320D01*
X186692797Y-119861381D01*
X186695672Y-119843233D01*
X186709219Y-119757696D01*
X186710438Y-119750000D01*
X186704106Y-119710022D01*
X186713677Y-119649590D01*
X186756942Y-119606325D01*
X186786398Y-119596754D01*
X186788526Y-119596417D01*
X186811381Y-119592797D01*
X186818321Y-119589261D01*
X186904921Y-119545136D01*
X186904923Y-119545135D01*
X186911860Y-119541600D01*
X186991600Y-119461860D01*
X187019450Y-119407203D01*
X187039261Y-119368321D01*
X187039261Y-119368320D01*
X187042797Y-119361381D01*
X187060438Y-119250000D01*
X187054106Y-119210022D01*
X187063677Y-119149590D01*
X187106942Y-119106325D01*
X187136398Y-119096754D01*
X187138526Y-119096417D01*
X187161381Y-119092797D01*
X187168321Y-119089261D01*
X187254921Y-119045136D01*
X187254923Y-119045135D01*
X187261860Y-119041600D01*
X187341600Y-118961860D01*
X187361962Y-118921899D01*
X187389261Y-118868321D01*
X187389261Y-118868320D01*
X187392797Y-118861381D01*
X187410438Y-118750000D01*
X187404106Y-118710022D01*
X187413677Y-118649590D01*
X187456942Y-118606325D01*
X187486398Y-118596754D01*
X187488526Y-118596417D01*
X187511381Y-118592797D01*
X187518321Y-118589261D01*
X187604921Y-118545136D01*
X187604923Y-118545135D01*
X187611860Y-118541600D01*
X187691600Y-118461860D01*
X187719450Y-118407203D01*
X187739261Y-118368321D01*
X187739261Y-118368320D01*
X187742797Y-118361381D01*
X187760438Y-118250000D01*
X187754106Y-118210022D01*
X187763677Y-118149590D01*
X187806942Y-118106325D01*
X187836398Y-118096754D01*
X187838526Y-118096417D01*
X187861381Y-118092797D01*
X187868321Y-118089261D01*
X187954921Y-118045136D01*
X187954923Y-118045135D01*
X187961860Y-118041600D01*
X188041600Y-117961860D01*
X188069450Y-117907203D01*
X188089261Y-117868321D01*
X188089261Y-117868320D01*
X188092797Y-117861381D01*
X188110438Y-117750000D01*
X188104106Y-117710022D01*
X188113677Y-117649590D01*
X188156942Y-117606325D01*
X188186398Y-117596754D01*
X188188526Y-117596417D01*
X188211381Y-117592797D01*
X188218321Y-117589261D01*
X188304921Y-117545136D01*
X188304923Y-117545135D01*
X188311860Y-117541600D01*
X188391600Y-117461860D01*
X188419450Y-117407203D01*
X188439261Y-117368321D01*
X188439261Y-117368320D01*
X188442797Y-117361381D01*
X188460438Y-117250000D01*
X188454106Y-117210022D01*
X188463677Y-117149590D01*
X188506942Y-117106325D01*
X188536398Y-117096754D01*
X188538526Y-117096417D01*
X188561381Y-117092797D01*
X188568321Y-117089261D01*
X188654921Y-117045136D01*
X188654923Y-117045135D01*
X188661860Y-117041600D01*
X188741600Y-116961860D01*
X188769450Y-116907203D01*
X188789261Y-116868321D01*
X188789261Y-116868320D01*
X188792797Y-116861381D01*
X188810438Y-116750000D01*
X188804106Y-116710022D01*
X188813677Y-116649590D01*
X188856942Y-116606325D01*
X188886398Y-116596754D01*
X188888526Y-116596417D01*
X188911381Y-116592797D01*
X188918321Y-116589261D01*
X189004921Y-116545136D01*
X189004923Y-116545135D01*
X189011860Y-116541600D01*
X189091600Y-116461860D01*
X189119450Y-116407203D01*
X189139261Y-116368321D01*
X189139261Y-116368320D01*
X189142797Y-116361381D01*
X189160438Y-116250000D01*
X189154106Y-116210022D01*
X189163677Y-116149590D01*
X189206942Y-116106325D01*
X189236398Y-116096754D01*
X189238526Y-116096417D01*
X189261381Y-116092797D01*
X189293026Y-116076673D01*
X189354921Y-116045136D01*
X189354923Y-116045135D01*
X189361860Y-116041600D01*
X189441600Y-115961860D01*
X189463055Y-115919754D01*
X189489261Y-115868321D01*
X189489261Y-115868320D01*
X189492797Y-115861381D01*
X189510438Y-115750000D01*
X189504106Y-115710022D01*
X189513677Y-115649590D01*
X189556942Y-115606325D01*
X189586398Y-115596754D01*
X189588526Y-115596417D01*
X189611381Y-115592797D01*
X189618321Y-115589261D01*
X189704921Y-115545136D01*
X189704923Y-115545135D01*
X189711860Y-115541600D01*
X189791600Y-115461860D01*
X189819450Y-115407203D01*
X189839261Y-115368321D01*
X189839261Y-115368320D01*
X189842797Y-115361381D01*
X189860438Y-115250000D01*
X189854106Y-115210022D01*
X189863677Y-115149590D01*
X189906942Y-115106325D01*
X189936398Y-115096754D01*
X189938526Y-115096417D01*
X189961381Y-115092797D01*
X189968321Y-115089261D01*
X190054921Y-115045136D01*
X190054923Y-115045135D01*
X190061860Y-115041600D01*
X190141600Y-114961860D01*
X190169450Y-114907203D01*
X190189261Y-114868321D01*
X190189261Y-114868320D01*
X190192797Y-114861381D01*
X190210438Y-114750000D01*
X190192797Y-114638619D01*
X190141600Y-114538140D01*
X190061860Y-114458400D01*
X190054923Y-114454865D01*
X190054921Y-114454864D01*
X189968321Y-114410739D01*
X189968320Y-114410739D01*
X189961381Y-114407203D01*
X189953687Y-114405984D01*
X189953686Y-114405984D01*
X189857696Y-114390781D01*
X189850000Y-114389562D01*
X189842304Y-114390781D01*
X189746314Y-114405984D01*
X189746313Y-114405984D01*
X189738619Y-114407203D01*
X189731680Y-114410739D01*
X189731679Y-114410739D01*
X189645079Y-114454864D01*
X189645077Y-114454865D01*
X189638140Y-114458400D01*
X189558400Y-114538140D01*
X189507203Y-114638619D01*
X189489562Y-114750000D01*
X189490781Y-114757696D01*
X189495894Y-114789978D01*
X189486323Y-114850410D01*
X189443058Y-114893675D01*
X189413602Y-114903246D01*
X189411474Y-114903583D01*
X189388619Y-114907203D01*
X189381680Y-114910739D01*
X189381679Y-114910739D01*
X189295079Y-114954864D01*
X189295077Y-114954865D01*
X189288140Y-114958400D01*
X189208400Y-115038140D01*
X189204865Y-115045077D01*
X189204864Y-115045079D01*
X189179930Y-115094015D01*
X189157203Y-115138619D01*
X189155984Y-115146313D01*
X189155984Y-115146314D01*
X189145894Y-115210022D01*
X189139562Y-115250000D01*
X189140781Y-115257696D01*
X189145894Y-115289978D01*
X189136323Y-115350410D01*
X189093058Y-115393675D01*
X189063602Y-115403246D01*
X189061474Y-115403583D01*
X189038619Y-115407203D01*
X189031680Y-115410739D01*
X189031679Y-115410739D01*
X188945079Y-115454864D01*
X188945077Y-115454865D01*
X188938140Y-115458400D01*
X188858400Y-115538140D01*
X188854865Y-115545077D01*
X188854864Y-115545079D01*
X188829930Y-115594015D01*
X188807203Y-115638619D01*
X188789562Y-115750000D01*
X188790781Y-115757696D01*
X188795894Y-115789978D01*
X188786323Y-115850410D01*
X188743058Y-115893675D01*
X188713602Y-115903246D01*
X188711474Y-115903583D01*
X188688619Y-115907203D01*
X188681680Y-115910739D01*
X188681679Y-115910739D01*
X188595079Y-115954864D01*
X188595077Y-115954865D01*
X188588140Y-115958400D01*
X188508400Y-116038140D01*
X188504865Y-116045077D01*
X188504864Y-116045079D01*
X188473658Y-116106325D01*
X188457203Y-116138619D01*
X188439562Y-116250000D01*
X188440781Y-116257696D01*
X188445894Y-116289978D01*
X188436323Y-116350410D01*
X188393058Y-116393675D01*
X188363602Y-116403246D01*
X188361474Y-116403583D01*
X188338619Y-116407203D01*
X188331680Y-116410739D01*
X188331679Y-116410739D01*
X188245079Y-116454864D01*
X188245077Y-116454865D01*
X188238140Y-116458400D01*
X188158400Y-116538140D01*
X188154865Y-116545077D01*
X188154864Y-116545079D01*
X188129930Y-116594015D01*
X188107203Y-116638619D01*
X188089562Y-116750000D01*
X188090781Y-116757696D01*
X188095894Y-116789978D01*
X188086323Y-116850410D01*
X188043058Y-116893675D01*
X188013602Y-116903246D01*
X188011474Y-116903583D01*
X187988619Y-116907203D01*
X187981680Y-116910739D01*
X187981679Y-116910739D01*
X187895079Y-116954864D01*
X187895077Y-116954865D01*
X187888140Y-116958400D01*
X187808400Y-117038140D01*
X187804865Y-117045077D01*
X187804864Y-117045079D01*
X187779930Y-117094015D01*
X187757203Y-117138619D01*
X187739562Y-117250000D01*
X187740781Y-117257696D01*
X187745894Y-117289978D01*
X187736323Y-117350410D01*
X187693058Y-117393675D01*
X187663602Y-117403246D01*
X187661474Y-117403583D01*
X187638619Y-117407203D01*
X187631680Y-117410739D01*
X187631679Y-117410739D01*
X187545079Y-117454864D01*
X187545077Y-117454865D01*
X187538140Y-117458400D01*
X187458400Y-117538140D01*
X187454865Y-117545077D01*
X187454864Y-117545079D01*
X187429930Y-117594015D01*
X187407203Y-117638619D01*
X187389562Y-117750000D01*
X187390781Y-117757696D01*
X187395894Y-117789978D01*
X187386323Y-117850410D01*
X187343058Y-117893675D01*
X187313602Y-117903246D01*
X187311474Y-117903583D01*
X187288619Y-117907203D01*
X187281680Y-117910739D01*
X187281679Y-117910739D01*
X187195079Y-117954864D01*
X187195077Y-117954865D01*
X187188140Y-117958400D01*
X187108400Y-118038140D01*
X187104865Y-118045077D01*
X187104864Y-118045079D01*
X187079930Y-118094015D01*
X187057203Y-118138619D01*
X187039562Y-118250000D01*
X187040781Y-118257696D01*
X187045894Y-118289978D01*
X187036323Y-118350410D01*
X186993058Y-118393675D01*
X186963602Y-118403246D01*
X186961474Y-118403583D01*
X186938619Y-118407203D01*
X186931680Y-118410739D01*
X186931679Y-118410739D01*
X186845079Y-118454864D01*
X186845077Y-118454865D01*
X186838140Y-118458400D01*
X186758400Y-118538140D01*
X186754865Y-118545077D01*
X186754864Y-118545079D01*
X186729930Y-118594015D01*
X186707203Y-118638619D01*
X186689562Y-118750000D01*
X186690781Y-118757696D01*
X186695894Y-118789978D01*
X186686323Y-118850410D01*
X186643058Y-118893675D01*
X186613602Y-118903246D01*
X186611474Y-118903583D01*
X186588619Y-118907203D01*
X186581680Y-118910739D01*
X186581679Y-118910739D01*
X186495079Y-118954864D01*
X186495077Y-118954865D01*
X186488140Y-118958400D01*
X186408400Y-119038140D01*
X186404865Y-119045077D01*
X186404864Y-119045079D01*
X186379930Y-119094015D01*
X186357203Y-119138619D01*
X186339562Y-119250000D01*
X186340781Y-119257696D01*
X186345894Y-119289978D01*
X186336323Y-119350410D01*
X186293058Y-119393675D01*
X186263602Y-119403246D01*
X186261474Y-119403583D01*
X186238619Y-119407203D01*
X186231680Y-119410739D01*
X186231679Y-119410739D01*
X186145079Y-119454864D01*
X186145077Y-119454865D01*
X186138140Y-119458400D01*
X186058400Y-119538140D01*
X186054865Y-119545077D01*
X186054864Y-119545079D01*
X186029930Y-119594015D01*
X186007203Y-119638619D01*
X185989562Y-119750000D01*
X185990781Y-119757696D01*
X185995894Y-119789978D01*
X185986323Y-119850410D01*
X185943058Y-119893675D01*
X185913602Y-119903246D01*
X185911474Y-119903583D01*
X185888619Y-119907203D01*
X185871446Y-119915953D01*
X185811015Y-119925525D01*
X185756498Y-119897749D01*
X185728719Y-119843233D01*
X185727500Y-119827744D01*
X185727500Y-117158528D01*
X185727636Y-117153347D01*
X185727833Y-117149590D01*
X185729718Y-117113615D01*
X185721597Y-117092458D01*
X185717186Y-117077568D01*
X185714637Y-117065575D01*
X185714636Y-117065574D01*
X185712474Y-117055400D01*
X185706361Y-117046985D01*
X185703123Y-117039713D01*
X185698789Y-117033039D01*
X185695060Y-117023326D01*
X185679033Y-117007299D01*
X185668944Y-116995486D01*
X185655628Y-116977158D01*
X185646615Y-116971954D01*
X185640388Y-116966347D01*
X185630476Y-116958742D01*
X184943961Y-116272227D01*
X184943958Y-116272225D01*
X184406496Y-115734762D01*
X184378719Y-115680245D01*
X184377500Y-115664758D01*
X184377500Y-111908528D01*
X184377636Y-111903347D01*
X184379173Y-111874007D01*
X184379718Y-111863615D01*
X184371597Y-111842458D01*
X184367186Y-111827568D01*
X184364637Y-111815575D01*
X184364636Y-111815574D01*
X184362474Y-111805400D01*
X184356361Y-111796985D01*
X184353123Y-111789713D01*
X184348789Y-111783039D01*
X184345060Y-111773326D01*
X184329033Y-111757299D01*
X184318944Y-111745486D01*
X184305628Y-111727158D01*
X184296615Y-111721954D01*
X184290388Y-111716347D01*
X184280476Y-111708742D01*
X182576074Y-110004340D01*
X182548297Y-109949823D01*
X182557868Y-109889391D01*
X182601133Y-109846126D01*
X182607802Y-109843364D01*
X182611381Y-109842797D01*
X182618322Y-109839260D01*
X182618326Y-109839259D01*
X182704921Y-109795136D01*
X182704923Y-109795135D01*
X182711860Y-109791600D01*
X182791600Y-109711860D01*
X182795138Y-109704918D01*
X182816850Y-109662304D01*
X182818565Y-109658939D01*
X182861829Y-109615675D01*
X182922261Y-109606104D01*
X182976777Y-109633881D01*
X183004555Y-109688397D01*
X183016080Y-109761159D01*
X183017792Y-109771970D01*
X183021328Y-109778909D01*
X183021328Y-109778910D01*
X183055577Y-109846126D01*
X183068989Y-109872449D01*
X183148729Y-109952189D01*
X183155666Y-109955724D01*
X183155668Y-109955725D01*
X183226534Y-109991833D01*
X183249208Y-110003386D01*
X183256902Y-110004605D01*
X183256903Y-110004605D01*
X183352893Y-110019808D01*
X183360589Y-110021027D01*
X183368285Y-110019808D01*
X183464275Y-110004605D01*
X183464276Y-110004605D01*
X183471970Y-110003386D01*
X183494644Y-109991833D01*
X183565510Y-109955725D01*
X183565512Y-109955724D01*
X183572449Y-109952189D01*
X183652189Y-109872449D01*
X183665602Y-109846126D01*
X183699850Y-109778910D01*
X183699850Y-109778909D01*
X183703386Y-109771970D01*
X183706051Y-109755147D01*
X183713454Y-109708400D01*
X183715022Y-109698500D01*
X183742799Y-109643984D01*
X183797315Y-109616206D01*
X183857747Y-109625777D01*
X183888586Y-109650285D01*
X183908767Y-109674293D01*
X183919178Y-109683602D01*
X184026659Y-109755147D01*
X184039262Y-109761159D01*
X184135033Y-109791080D01*
X184146627Y-109790948D01*
X184150000Y-109780363D01*
X184150000Y-109778470D01*
X184350000Y-109778470D01*
X184353779Y-109790101D01*
X184363956Y-109790345D01*
X184443811Y-109768573D01*
X184456628Y-109763026D01*
X184566659Y-109695468D01*
X184577400Y-109686551D01*
X184620555Y-109638874D01*
X184673623Y-109608421D01*
X184734456Y-109614976D01*
X184782161Y-109660365D01*
X184804862Y-109704918D01*
X184804864Y-109704921D01*
X184808400Y-109711860D01*
X184888140Y-109791600D01*
X184895077Y-109795135D01*
X184895079Y-109795136D01*
X184956242Y-109826300D01*
X184988619Y-109842797D01*
X184996313Y-109844016D01*
X184996314Y-109844016D01*
X185092304Y-109859219D01*
X185100000Y-109860438D01*
X185107696Y-109859219D01*
X185203686Y-109844016D01*
X185203687Y-109844016D01*
X185211381Y-109842797D01*
X185243758Y-109826300D01*
X185304921Y-109795136D01*
X185304923Y-109795135D01*
X185311860Y-109791600D01*
X185391600Y-109711860D01*
X185395138Y-109704918D01*
X185439261Y-109618321D01*
X185439261Y-109618320D01*
X185442797Y-109611381D01*
X185445672Y-109593233D01*
X185459219Y-109507696D01*
X185460438Y-109500000D01*
X185452982Y-109452922D01*
X185444016Y-109396314D01*
X185444016Y-109396313D01*
X185442797Y-109388619D01*
X185439258Y-109381674D01*
X185395136Y-109295079D01*
X185395135Y-109295077D01*
X185391600Y-109288140D01*
X185311860Y-109208400D01*
X185304923Y-109204865D01*
X185304921Y-109204864D01*
X185218321Y-109160739D01*
X185218320Y-109160739D01*
X185211381Y-109157203D01*
X185203687Y-109155984D01*
X185203686Y-109155984D01*
X185107696Y-109140781D01*
X185100000Y-109139562D01*
X185092304Y-109140781D01*
X184996314Y-109155984D01*
X184996313Y-109155984D01*
X184988619Y-109157203D01*
X184981680Y-109160739D01*
X184981679Y-109160739D01*
X184966964Y-109168237D01*
X184888140Y-109208400D01*
X184884815Y-109211725D01*
X184828110Y-109230148D01*
X184769920Y-109211240D01*
X184733091Y-109158934D01*
X184731918Y-109154923D01*
X184678479Y-109037390D01*
X184670951Y-109025620D01*
X184586673Y-108927809D01*
X184576148Y-108918628D01*
X184467802Y-108848401D01*
X184455125Y-108842544D01*
X184365026Y-108815599D01*
X184353217Y-108815878D01*
X184350000Y-108826190D01*
X184350000Y-109778470D01*
X184150000Y-109778470D01*
X184150000Y-109418802D01*
X184145878Y-109406117D01*
X184141757Y-109403122D01*
X183774459Y-109403122D01*
X183754392Y-109409642D01*
X183716833Y-109436929D01*
X183655648Y-109436928D01*
X183616238Y-109412778D01*
X183572449Y-109368989D01*
X183565512Y-109365454D01*
X183565510Y-109365453D01*
X183478910Y-109321328D01*
X183478909Y-109321328D01*
X183471970Y-109317792D01*
X183464276Y-109316573D01*
X183464275Y-109316573D01*
X183368285Y-109301370D01*
X183360589Y-109300151D01*
X183352893Y-109301370D01*
X183256903Y-109316573D01*
X183256902Y-109316573D01*
X183249208Y-109317792D01*
X183242269Y-109321328D01*
X183242268Y-109321328D01*
X183155668Y-109365453D01*
X183155666Y-109365454D01*
X183148729Y-109368989D01*
X183068989Y-109448729D01*
X183065454Y-109455666D01*
X183065453Y-109455668D01*
X183042025Y-109501649D01*
X182998760Y-109544914D01*
X182938328Y-109554485D01*
X182883812Y-109526708D01*
X182856034Y-109472192D01*
X182844016Y-109396313D01*
X182844015Y-109396311D01*
X182842797Y-109388619D01*
X182839258Y-109381674D01*
X182795136Y-109295079D01*
X182795135Y-109295077D01*
X182791600Y-109288140D01*
X182711860Y-109208400D01*
X182704923Y-109204865D01*
X182704921Y-109204864D01*
X182671094Y-109187628D01*
X183761917Y-109187628D01*
X183764039Y-109200796D01*
X183764867Y-109201620D01*
X183771159Y-109203122D01*
X184134320Y-109203122D01*
X184147005Y-109199000D01*
X184150000Y-109194879D01*
X184150000Y-108827321D01*
X184146285Y-108815888D01*
X184135797Y-108815700D01*
X184050517Y-108840073D01*
X184037769Y-108845775D01*
X183928571Y-108914674D01*
X183917938Y-108923723D01*
X183832466Y-109020503D01*
X183824802Y-109032171D01*
X183769929Y-109149046D01*
X183765844Y-109162405D01*
X183761917Y-109187628D01*
X182671094Y-109187628D01*
X182618321Y-109160739D01*
X182618320Y-109160739D01*
X182611381Y-109157203D01*
X182603687Y-109155984D01*
X182603686Y-109155984D01*
X182507696Y-109140781D01*
X182500000Y-109139562D01*
X182492304Y-109140781D01*
X182396314Y-109155984D01*
X182396313Y-109155984D01*
X182388619Y-109157203D01*
X182381680Y-109160739D01*
X182381679Y-109160739D01*
X182295079Y-109204864D01*
X182295077Y-109204865D01*
X182288140Y-109208400D01*
X182208400Y-109288140D01*
X182204865Y-109295077D01*
X182204864Y-109295079D01*
X182160741Y-109381674D01*
X182160740Y-109381678D01*
X182157203Y-109388619D01*
X182156934Y-109388482D01*
X182123860Y-109434011D01*
X182065671Y-109452922D01*
X182007479Y-109434019D01*
X181995660Y-109423926D01*
X181156496Y-108584762D01*
X181128719Y-108530245D01*
X181127500Y-108514758D01*
X181127500Y-108512508D01*
X182858649Y-108512508D01*
X182860990Y-108530407D01*
X182864746Y-108543861D01*
X182916747Y-108662041D01*
X182924127Y-108673896D01*
X183007206Y-108772733D01*
X183017617Y-108782041D01*
X183125098Y-108853586D01*
X183137701Y-108859598D01*
X183233472Y-108889519D01*
X183245066Y-108889387D01*
X183248439Y-108878802D01*
X183248439Y-108876909D01*
X183448439Y-108876909D01*
X183452218Y-108888540D01*
X183462395Y-108888784D01*
X183542250Y-108867012D01*
X183555067Y-108861465D01*
X183665098Y-108793907D01*
X183675839Y-108784990D01*
X183762486Y-108689264D01*
X183770297Y-108677683D01*
X183826591Y-108561492D01*
X183830839Y-108548182D01*
X183836081Y-108517023D01*
X183835410Y-108512508D01*
X184661771Y-108512508D01*
X184664112Y-108530407D01*
X184667868Y-108543861D01*
X184719869Y-108662041D01*
X184727249Y-108673896D01*
X184810328Y-108772733D01*
X184820739Y-108782041D01*
X184928220Y-108853586D01*
X184940823Y-108859598D01*
X185036594Y-108889519D01*
X185048188Y-108889387D01*
X185051561Y-108878802D01*
X185051561Y-108876909D01*
X185251561Y-108876909D01*
X185255340Y-108888540D01*
X185265517Y-108888784D01*
X185345372Y-108867012D01*
X185358189Y-108861465D01*
X185468220Y-108793907D01*
X185478961Y-108784990D01*
X185565608Y-108689264D01*
X185573419Y-108677683D01*
X185629713Y-108561492D01*
X185633961Y-108548182D01*
X185639203Y-108517023D01*
X185637243Y-108503831D01*
X185636653Y-108503230D01*
X185629847Y-108501561D01*
X185267241Y-108501561D01*
X185254556Y-108505683D01*
X185251561Y-108509804D01*
X185251561Y-108876909D01*
X185051561Y-108876909D01*
X185051561Y-108517241D01*
X185047439Y-108504556D01*
X185043318Y-108501561D01*
X184676020Y-108501561D01*
X184663335Y-108505683D01*
X184662266Y-108507154D01*
X184661771Y-108512508D01*
X183835410Y-108512508D01*
X183834121Y-108503831D01*
X183833531Y-108503230D01*
X183826725Y-108501561D01*
X183464119Y-108501561D01*
X183451434Y-108505683D01*
X183448439Y-108509804D01*
X183448439Y-108876909D01*
X183248439Y-108876909D01*
X183248439Y-108517241D01*
X183244317Y-108504556D01*
X183240196Y-108501561D01*
X182872898Y-108501561D01*
X182860213Y-108505683D01*
X182859144Y-108507154D01*
X182858649Y-108512508D01*
X181127500Y-108512508D01*
X181127500Y-108286067D01*
X182860356Y-108286067D01*
X182862478Y-108299235D01*
X182863306Y-108300059D01*
X182869598Y-108301561D01*
X183232759Y-108301561D01*
X183245444Y-108297439D01*
X183248439Y-108293318D01*
X183248439Y-108285881D01*
X183448439Y-108285881D01*
X183452561Y-108298566D01*
X183456682Y-108301561D01*
X183823580Y-108301561D01*
X183836265Y-108297439D01*
X183837143Y-108296232D01*
X183837651Y-108290329D01*
X183837041Y-108286067D01*
X184663478Y-108286067D01*
X184665600Y-108299235D01*
X184666428Y-108300059D01*
X184672720Y-108301561D01*
X185035881Y-108301561D01*
X185048566Y-108297439D01*
X185051561Y-108293318D01*
X185051561Y-108285881D01*
X185251561Y-108285881D01*
X185255683Y-108298566D01*
X185259804Y-108301561D01*
X185626702Y-108301561D01*
X185639387Y-108297439D01*
X185640265Y-108296232D01*
X185640773Y-108290329D01*
X185637399Y-108266768D01*
X185633479Y-108253362D01*
X185580040Y-108135829D01*
X185572512Y-108124059D01*
X185488234Y-108026248D01*
X185477709Y-108017067D01*
X185369363Y-107946840D01*
X185356686Y-107940983D01*
X185266587Y-107914038D01*
X185254778Y-107914317D01*
X185251561Y-107924629D01*
X185251561Y-108285881D01*
X185051561Y-108285881D01*
X185051561Y-107925760D01*
X185047846Y-107914327D01*
X185037358Y-107914139D01*
X184952078Y-107938512D01*
X184939330Y-107944214D01*
X184830132Y-108013113D01*
X184819499Y-108022162D01*
X184734027Y-108118942D01*
X184726363Y-108130610D01*
X184671490Y-108247485D01*
X184667405Y-108260844D01*
X184663478Y-108286067D01*
X183837041Y-108286067D01*
X183834277Y-108266768D01*
X183830357Y-108253362D01*
X183776918Y-108135829D01*
X183769390Y-108124059D01*
X183685112Y-108026248D01*
X183674587Y-108017067D01*
X183566241Y-107946840D01*
X183553564Y-107940983D01*
X183463465Y-107914038D01*
X183451656Y-107914317D01*
X183448439Y-107924629D01*
X183448439Y-108285881D01*
X183248439Y-108285881D01*
X183248439Y-107925760D01*
X183244724Y-107914327D01*
X183234236Y-107914139D01*
X183148956Y-107938512D01*
X183136208Y-107944214D01*
X183027010Y-108013113D01*
X183016377Y-108022162D01*
X182930905Y-108118942D01*
X182923241Y-108130610D01*
X182868368Y-108247485D01*
X182864283Y-108260844D01*
X182860356Y-108286067D01*
X181127500Y-108286067D01*
X181127500Y-107610947D01*
X181957088Y-107610947D01*
X181959429Y-107628846D01*
X181963185Y-107642300D01*
X182015186Y-107760480D01*
X182022566Y-107772335D01*
X182105645Y-107871172D01*
X182116056Y-107880480D01*
X182223537Y-107952025D01*
X182236140Y-107958037D01*
X182331911Y-107987958D01*
X182343505Y-107987826D01*
X182346878Y-107977241D01*
X182346878Y-107975348D01*
X182546878Y-107975348D01*
X182550657Y-107986979D01*
X182560834Y-107987223D01*
X182640689Y-107965451D01*
X182653506Y-107959904D01*
X182763537Y-107892346D01*
X182774278Y-107883429D01*
X182860925Y-107787703D01*
X182868736Y-107776122D01*
X182925030Y-107659931D01*
X182929278Y-107646621D01*
X182934520Y-107615462D01*
X182933849Y-107610947D01*
X183760210Y-107610947D01*
X183762551Y-107628846D01*
X183766307Y-107642300D01*
X183818308Y-107760480D01*
X183825688Y-107772335D01*
X183908767Y-107871172D01*
X183919178Y-107880480D01*
X184026659Y-107952025D01*
X184039262Y-107958037D01*
X184135033Y-107987958D01*
X184146627Y-107987826D01*
X184150000Y-107977241D01*
X184150000Y-107975348D01*
X184350000Y-107975348D01*
X184353779Y-107986979D01*
X184363956Y-107987223D01*
X184443811Y-107965451D01*
X184456628Y-107959904D01*
X184566659Y-107892346D01*
X184577400Y-107883429D01*
X184664047Y-107787703D01*
X184671858Y-107776122D01*
X184728152Y-107659931D01*
X184732400Y-107646621D01*
X184737642Y-107615462D01*
X184736971Y-107610947D01*
X185563332Y-107610947D01*
X185565673Y-107628846D01*
X185569429Y-107642300D01*
X185621430Y-107760480D01*
X185628810Y-107772335D01*
X185711889Y-107871172D01*
X185722300Y-107880480D01*
X185829781Y-107952025D01*
X185842384Y-107958037D01*
X185938155Y-107987958D01*
X185949749Y-107987826D01*
X185953122Y-107977241D01*
X185953122Y-107975348D01*
X186153122Y-107975348D01*
X186156901Y-107986979D01*
X186167078Y-107987223D01*
X186246933Y-107965451D01*
X186259750Y-107959904D01*
X186369781Y-107892346D01*
X186380522Y-107883429D01*
X186467169Y-107787703D01*
X186474980Y-107776122D01*
X186531274Y-107659931D01*
X186535522Y-107646621D01*
X186540764Y-107615462D01*
X186538804Y-107602270D01*
X186538214Y-107601669D01*
X186531408Y-107600000D01*
X187639562Y-107600000D01*
X187657203Y-107711381D01*
X187708400Y-107811860D01*
X187788140Y-107891600D01*
X187795077Y-107895135D01*
X187795079Y-107895136D01*
X187855182Y-107925760D01*
X187888619Y-107942797D01*
X187896313Y-107944016D01*
X187896314Y-107944016D01*
X187992304Y-107959219D01*
X188000000Y-107960438D01*
X188007696Y-107959219D01*
X188103686Y-107944016D01*
X188103687Y-107944016D01*
X188111381Y-107942797D01*
X188144818Y-107925760D01*
X188204921Y-107895136D01*
X188204923Y-107895135D01*
X188211860Y-107891600D01*
X188291600Y-107811860D01*
X188342797Y-107711381D01*
X188360438Y-107600000D01*
X188342797Y-107488619D01*
X188291600Y-107388140D01*
X188211860Y-107308400D01*
X188204923Y-107304865D01*
X188204921Y-107304864D01*
X188195375Y-107300000D01*
X188639562Y-107300000D01*
X188643087Y-107322256D01*
X188655163Y-107398498D01*
X188657203Y-107411381D01*
X188708400Y-107511860D01*
X188788140Y-107591600D01*
X188795077Y-107595135D01*
X188795079Y-107595136D01*
X188881679Y-107639261D01*
X188888619Y-107642797D01*
X188896313Y-107644016D01*
X188896314Y-107644016D01*
X188992304Y-107659219D01*
X189000000Y-107660438D01*
X189007696Y-107659219D01*
X189103686Y-107644016D01*
X189103687Y-107644016D01*
X189111381Y-107642797D01*
X189118321Y-107639261D01*
X189204921Y-107595136D01*
X189204923Y-107595135D01*
X189211860Y-107591600D01*
X189291600Y-107511860D01*
X189342797Y-107411381D01*
X189344838Y-107398498D01*
X189356913Y-107322256D01*
X189360438Y-107300000D01*
X189349992Y-107234047D01*
X189344016Y-107196314D01*
X189344016Y-107196313D01*
X189342797Y-107188619D01*
X189303529Y-107111552D01*
X189295136Y-107095079D01*
X189295135Y-107095077D01*
X189291600Y-107088140D01*
X189211860Y-107008400D01*
X189204923Y-107004865D01*
X189204921Y-107004864D01*
X189118321Y-106960739D01*
X189118320Y-106960739D01*
X189111381Y-106957203D01*
X189103687Y-106955984D01*
X189103686Y-106955984D01*
X189007696Y-106940781D01*
X189000000Y-106939562D01*
X188992304Y-106940781D01*
X188896314Y-106955984D01*
X188896313Y-106955984D01*
X188888619Y-106957203D01*
X188881680Y-106960739D01*
X188881679Y-106960739D01*
X188795079Y-107004864D01*
X188795077Y-107004865D01*
X188788140Y-107008400D01*
X188708400Y-107088140D01*
X188704865Y-107095077D01*
X188704864Y-107095079D01*
X188696471Y-107111552D01*
X188657203Y-107188619D01*
X188655984Y-107196313D01*
X188655984Y-107196314D01*
X188650008Y-107234047D01*
X188639562Y-107300000D01*
X188195375Y-107300000D01*
X188118321Y-107260739D01*
X188118320Y-107260739D01*
X188111381Y-107257203D01*
X188103687Y-107255984D01*
X188103686Y-107255984D01*
X188007696Y-107240781D01*
X188000000Y-107239562D01*
X187992304Y-107240781D01*
X187896314Y-107255984D01*
X187896313Y-107255984D01*
X187888619Y-107257203D01*
X187881680Y-107260739D01*
X187881679Y-107260739D01*
X187795079Y-107304864D01*
X187795077Y-107304865D01*
X187788140Y-107308400D01*
X187708400Y-107388140D01*
X187657203Y-107488619D01*
X187639562Y-107600000D01*
X186531408Y-107600000D01*
X186168802Y-107600000D01*
X186156117Y-107604122D01*
X186153122Y-107608243D01*
X186153122Y-107975348D01*
X185953122Y-107975348D01*
X185953122Y-107615680D01*
X185949000Y-107602995D01*
X185944879Y-107600000D01*
X185577581Y-107600000D01*
X185564896Y-107604122D01*
X185563827Y-107605593D01*
X185563332Y-107610947D01*
X184736971Y-107610947D01*
X184735682Y-107602270D01*
X184735092Y-107601669D01*
X184728286Y-107600000D01*
X184365680Y-107600000D01*
X184352995Y-107604122D01*
X184350000Y-107608243D01*
X184350000Y-107975348D01*
X184150000Y-107975348D01*
X184150000Y-107615680D01*
X184145878Y-107602995D01*
X184141757Y-107600000D01*
X183774459Y-107600000D01*
X183761774Y-107604122D01*
X183760705Y-107605593D01*
X183760210Y-107610947D01*
X182933849Y-107610947D01*
X182932560Y-107602270D01*
X182931970Y-107601669D01*
X182925164Y-107600000D01*
X182562558Y-107600000D01*
X182549873Y-107604122D01*
X182546878Y-107608243D01*
X182546878Y-107975348D01*
X182346878Y-107975348D01*
X182346878Y-107615680D01*
X182342756Y-107602995D01*
X182338635Y-107600000D01*
X181971337Y-107600000D01*
X181958652Y-107604122D01*
X181957583Y-107605593D01*
X181957088Y-107610947D01*
X181127500Y-107610947D01*
X181127500Y-107384506D01*
X181958795Y-107384506D01*
X181960917Y-107397674D01*
X181961745Y-107398498D01*
X181968037Y-107400000D01*
X182331198Y-107400000D01*
X182343883Y-107395878D01*
X182346878Y-107391757D01*
X182346878Y-107384320D01*
X182546878Y-107384320D01*
X182551000Y-107397005D01*
X182555121Y-107400000D01*
X182922019Y-107400000D01*
X182934704Y-107395878D01*
X182935582Y-107394671D01*
X182936090Y-107388768D01*
X182935480Y-107384506D01*
X183761917Y-107384506D01*
X183764039Y-107397674D01*
X183764867Y-107398498D01*
X183771159Y-107400000D01*
X184134320Y-107400000D01*
X184147005Y-107395878D01*
X184150000Y-107391757D01*
X184150000Y-107384320D01*
X184350000Y-107384320D01*
X184354122Y-107397005D01*
X184358243Y-107400000D01*
X184725141Y-107400000D01*
X184737826Y-107395878D01*
X184738704Y-107394671D01*
X184739212Y-107388768D01*
X184738602Y-107384506D01*
X185565039Y-107384506D01*
X185567161Y-107397674D01*
X185567989Y-107398498D01*
X185574281Y-107400000D01*
X185937442Y-107400000D01*
X185950127Y-107395878D01*
X185953122Y-107391757D01*
X185953122Y-107384320D01*
X186153122Y-107384320D01*
X186157244Y-107397005D01*
X186161365Y-107400000D01*
X186528263Y-107400000D01*
X186540948Y-107395878D01*
X186541826Y-107394671D01*
X186542334Y-107388768D01*
X186538960Y-107365207D01*
X186535040Y-107351801D01*
X186481601Y-107234268D01*
X186474073Y-107222498D01*
X186389795Y-107124687D01*
X186379270Y-107115506D01*
X186270924Y-107045279D01*
X186258247Y-107039422D01*
X186168148Y-107012477D01*
X186156339Y-107012756D01*
X186153122Y-107023068D01*
X186153122Y-107384320D01*
X185953122Y-107384320D01*
X185953122Y-107024199D01*
X185949407Y-107012766D01*
X185938919Y-107012578D01*
X185853639Y-107036951D01*
X185840891Y-107042653D01*
X185731693Y-107111552D01*
X185721060Y-107120601D01*
X185635588Y-107217381D01*
X185627924Y-107229049D01*
X185573051Y-107345924D01*
X185568966Y-107359283D01*
X185565039Y-107384506D01*
X184738602Y-107384506D01*
X184735838Y-107365207D01*
X184731918Y-107351801D01*
X184678479Y-107234268D01*
X184670951Y-107222498D01*
X184586673Y-107124687D01*
X184576148Y-107115506D01*
X184467802Y-107045279D01*
X184455125Y-107039422D01*
X184365026Y-107012477D01*
X184353217Y-107012756D01*
X184350000Y-107023068D01*
X184350000Y-107384320D01*
X184150000Y-107384320D01*
X184150000Y-107024199D01*
X184146285Y-107012766D01*
X184135797Y-107012578D01*
X184050517Y-107036951D01*
X184037769Y-107042653D01*
X183928571Y-107111552D01*
X183917938Y-107120601D01*
X183832466Y-107217381D01*
X183824802Y-107229049D01*
X183769929Y-107345924D01*
X183765844Y-107359283D01*
X183761917Y-107384506D01*
X182935480Y-107384506D01*
X182932716Y-107365207D01*
X182928796Y-107351801D01*
X182875357Y-107234268D01*
X182867829Y-107222498D01*
X182783551Y-107124687D01*
X182773026Y-107115506D01*
X182664680Y-107045279D01*
X182652003Y-107039422D01*
X182561904Y-107012477D01*
X182550095Y-107012756D01*
X182546878Y-107023068D01*
X182546878Y-107384320D01*
X182346878Y-107384320D01*
X182346878Y-107024199D01*
X182343163Y-107012766D01*
X182332675Y-107012578D01*
X182247395Y-107036951D01*
X182234647Y-107042653D01*
X182125449Y-107111552D01*
X182114816Y-107120601D01*
X182029344Y-107217381D01*
X182021680Y-107229049D01*
X181966807Y-107345924D01*
X181962722Y-107359283D01*
X181958795Y-107384506D01*
X181127500Y-107384506D01*
X181127500Y-107322256D01*
X181146407Y-107264065D01*
X181195907Y-107228101D01*
X181257093Y-107228101D01*
X181271443Y-107234045D01*
X181288619Y-107242797D01*
X181296313Y-107244016D01*
X181296314Y-107244016D01*
X181392304Y-107259219D01*
X181400000Y-107260438D01*
X181407696Y-107259219D01*
X181503686Y-107244016D01*
X181503687Y-107244016D01*
X181511381Y-107242797D01*
X181538363Y-107229049D01*
X181604921Y-107195136D01*
X181604923Y-107195135D01*
X181611860Y-107191600D01*
X181691600Y-107111860D01*
X181700151Y-107095079D01*
X181739261Y-107018321D01*
X181739261Y-107018320D01*
X181742797Y-107011381D01*
X181747472Y-106981868D01*
X181759219Y-106907696D01*
X181760438Y-106900000D01*
X181742797Y-106788619D01*
X181727384Y-106758370D01*
X181702426Y-106709386D01*
X182858649Y-106709386D01*
X182860990Y-106727285D01*
X182864746Y-106740739D01*
X182916747Y-106858919D01*
X182924127Y-106870774D01*
X183007206Y-106969611D01*
X183017617Y-106978919D01*
X183125098Y-107050464D01*
X183137701Y-107056476D01*
X183233472Y-107086397D01*
X183245066Y-107086265D01*
X183248439Y-107075680D01*
X183248439Y-107073787D01*
X183448439Y-107073787D01*
X183452218Y-107085418D01*
X183462395Y-107085662D01*
X183542250Y-107063890D01*
X183555067Y-107058343D01*
X183665098Y-106990785D01*
X183675839Y-106981868D01*
X183762486Y-106886142D01*
X183770297Y-106874561D01*
X183826591Y-106758370D01*
X183830839Y-106745060D01*
X183836081Y-106713901D01*
X183835410Y-106709386D01*
X184661771Y-106709386D01*
X184664112Y-106727285D01*
X184667868Y-106740739D01*
X184719869Y-106858919D01*
X184727249Y-106870774D01*
X184810328Y-106969611D01*
X184820739Y-106978919D01*
X184928220Y-107050464D01*
X184940823Y-107056476D01*
X185036594Y-107086397D01*
X185048188Y-107086265D01*
X185051561Y-107075680D01*
X185051561Y-107073787D01*
X185251561Y-107073787D01*
X185255340Y-107085418D01*
X185265517Y-107085662D01*
X185345372Y-107063890D01*
X185358189Y-107058343D01*
X185468220Y-106990785D01*
X185478961Y-106981868D01*
X185565608Y-106886142D01*
X185573419Y-106874561D01*
X185629713Y-106758370D01*
X185633961Y-106745060D01*
X185639203Y-106713901D01*
X185637243Y-106700709D01*
X185636653Y-106700108D01*
X185629847Y-106698439D01*
X185267241Y-106698439D01*
X185254556Y-106702561D01*
X185251561Y-106706682D01*
X185251561Y-107073787D01*
X185051561Y-107073787D01*
X185051561Y-106714119D01*
X185047439Y-106701434D01*
X185043318Y-106698439D01*
X184676020Y-106698439D01*
X184663335Y-106702561D01*
X184662266Y-106704032D01*
X184661771Y-106709386D01*
X183835410Y-106709386D01*
X183834121Y-106700709D01*
X183833531Y-106700108D01*
X183826725Y-106698439D01*
X183464119Y-106698439D01*
X183451434Y-106702561D01*
X183448439Y-106706682D01*
X183448439Y-107073787D01*
X183248439Y-107073787D01*
X183248439Y-106714119D01*
X183244317Y-106701434D01*
X183240196Y-106698439D01*
X182872898Y-106698439D01*
X182860213Y-106702561D01*
X182859144Y-106704032D01*
X182858649Y-106709386D01*
X181702426Y-106709386D01*
X181695136Y-106695079D01*
X181695135Y-106695077D01*
X181691600Y-106688140D01*
X181611860Y-106608400D01*
X181604922Y-106604865D01*
X181604918Y-106604862D01*
X181568363Y-106586236D01*
X181525099Y-106542971D01*
X181515592Y-106482945D01*
X182860356Y-106482945D01*
X182862478Y-106496113D01*
X182863306Y-106496937D01*
X182869598Y-106498439D01*
X183232759Y-106498439D01*
X183245444Y-106494317D01*
X183248439Y-106490196D01*
X183248439Y-106482759D01*
X183448439Y-106482759D01*
X183452561Y-106495444D01*
X183456682Y-106498439D01*
X183823580Y-106498439D01*
X183836265Y-106494317D01*
X183837143Y-106493110D01*
X183837651Y-106487207D01*
X183837041Y-106482945D01*
X184663478Y-106482945D01*
X184665600Y-106496113D01*
X184666428Y-106496937D01*
X184672720Y-106498439D01*
X185035881Y-106498439D01*
X185048566Y-106494317D01*
X185051561Y-106490196D01*
X185051561Y-106482759D01*
X185251561Y-106482759D01*
X185255683Y-106495444D01*
X185259804Y-106498439D01*
X185626702Y-106498439D01*
X185639387Y-106494317D01*
X185640265Y-106493110D01*
X185640773Y-106487207D01*
X185637399Y-106463646D01*
X185633479Y-106450240D01*
X185580040Y-106332707D01*
X185572512Y-106320937D01*
X185488234Y-106223126D01*
X185477709Y-106213945D01*
X185369363Y-106143718D01*
X185356686Y-106137861D01*
X185266587Y-106110916D01*
X185254778Y-106111195D01*
X185251561Y-106121507D01*
X185251561Y-106482759D01*
X185051561Y-106482759D01*
X185051561Y-106122638D01*
X185047846Y-106111205D01*
X185037358Y-106111017D01*
X184952078Y-106135390D01*
X184939330Y-106141092D01*
X184830132Y-106209991D01*
X184819499Y-106219040D01*
X184734027Y-106315820D01*
X184726363Y-106327488D01*
X184671490Y-106444363D01*
X184667405Y-106457722D01*
X184663478Y-106482945D01*
X183837041Y-106482945D01*
X183834277Y-106463646D01*
X183830357Y-106450240D01*
X183776918Y-106332707D01*
X183769390Y-106320937D01*
X183685112Y-106223126D01*
X183674587Y-106213945D01*
X183566241Y-106143718D01*
X183553564Y-106137861D01*
X183463465Y-106110916D01*
X183451656Y-106111195D01*
X183448439Y-106121507D01*
X183448439Y-106482759D01*
X183248439Y-106482759D01*
X183248439Y-106122638D01*
X183244724Y-106111205D01*
X183234236Y-106111017D01*
X183148956Y-106135390D01*
X183136208Y-106141092D01*
X183027010Y-106209991D01*
X183016377Y-106219040D01*
X182930905Y-106315820D01*
X182923241Y-106327488D01*
X182868368Y-106444363D01*
X182864283Y-106457722D01*
X182860356Y-106482945D01*
X181515592Y-106482945D01*
X181515528Y-106482539D01*
X181532341Y-106441950D01*
X181538163Y-106436708D01*
X181542395Y-106427204D01*
X181542396Y-106427202D01*
X181547382Y-106416003D01*
X181554795Y-106402351D01*
X181561466Y-106392079D01*
X181561468Y-106392074D01*
X181567134Y-106383349D01*
X181568762Y-106373070D01*
X181571614Y-106365640D01*
X181573267Y-106357865D01*
X181577500Y-106348357D01*
X181577500Y-106325697D01*
X181578719Y-106310209D01*
X181578833Y-106309490D01*
X181582264Y-106287828D01*
X181579572Y-106277780D01*
X181579134Y-106269422D01*
X181577500Y-106257015D01*
X181577500Y-105807825D01*
X183760210Y-105807825D01*
X183762551Y-105825724D01*
X183766307Y-105839178D01*
X183818308Y-105957358D01*
X183825688Y-105969213D01*
X183908767Y-106068050D01*
X183919178Y-106077358D01*
X184026659Y-106148903D01*
X184039262Y-106154915D01*
X184135033Y-106184836D01*
X184146627Y-106184704D01*
X184150000Y-106174119D01*
X184150000Y-106172226D01*
X184350000Y-106172226D01*
X184353779Y-106183857D01*
X184363956Y-106184101D01*
X184443811Y-106162329D01*
X184456628Y-106156782D01*
X184566659Y-106089224D01*
X184577400Y-106080307D01*
X184664047Y-105984581D01*
X184671858Y-105973000D01*
X184728152Y-105856809D01*
X184732400Y-105843499D01*
X184737642Y-105812340D01*
X184735809Y-105800000D01*
X186139562Y-105800000D01*
X186157203Y-105911381D01*
X186160739Y-105918320D01*
X186160739Y-105918321D01*
X186194501Y-105984581D01*
X186208400Y-106011860D01*
X186288140Y-106091600D01*
X186295077Y-106095135D01*
X186295079Y-106095136D01*
X186381679Y-106139261D01*
X186388619Y-106142797D01*
X186396313Y-106144016D01*
X186396314Y-106144016D01*
X186492304Y-106159219D01*
X186500000Y-106160438D01*
X186507696Y-106159219D01*
X186603686Y-106144016D01*
X186603687Y-106144016D01*
X186611381Y-106142797D01*
X186618321Y-106139261D01*
X186695375Y-106100000D01*
X188539562Y-106100000D01*
X188540781Y-106107696D01*
X188554050Y-106191471D01*
X188557203Y-106211381D01*
X188560739Y-106218320D01*
X188560739Y-106218321D01*
X188599606Y-106294600D01*
X188608400Y-106311860D01*
X188688140Y-106391600D01*
X188695077Y-106395135D01*
X188695079Y-106395136D01*
X188781679Y-106439261D01*
X188788619Y-106442797D01*
X188796313Y-106444016D01*
X188796314Y-106444016D01*
X188892304Y-106459219D01*
X188900000Y-106460438D01*
X188907696Y-106459219D01*
X189003686Y-106444016D01*
X189003687Y-106444016D01*
X189011381Y-106442797D01*
X189018321Y-106439261D01*
X189104921Y-106395136D01*
X189104923Y-106395135D01*
X189111860Y-106391600D01*
X189191600Y-106311860D01*
X189200395Y-106294600D01*
X189239261Y-106218321D01*
X189239261Y-106218320D01*
X189242797Y-106211381D01*
X189245951Y-106191471D01*
X189259219Y-106107696D01*
X189260438Y-106100000D01*
X189242797Y-105988619D01*
X189239261Y-105981679D01*
X189239259Y-105981673D01*
X189211976Y-105928128D01*
X189202404Y-105867696D01*
X189230181Y-105813180D01*
X189248648Y-105799763D01*
X189248615Y-105799717D01*
X189254921Y-105795136D01*
X189261860Y-105791600D01*
X189341600Y-105711860D01*
X189378919Y-105638619D01*
X189389261Y-105618321D01*
X189389261Y-105618320D01*
X189392797Y-105611381D01*
X189395463Y-105594552D01*
X189405533Y-105530968D01*
X189410438Y-105500000D01*
X189403289Y-105454864D01*
X189394016Y-105396314D01*
X189394016Y-105396313D01*
X189392797Y-105388619D01*
X189370612Y-105345079D01*
X189345136Y-105295079D01*
X189345135Y-105295077D01*
X189341600Y-105288140D01*
X189261860Y-105208400D01*
X189254923Y-105204865D01*
X189254921Y-105204864D01*
X189168321Y-105160739D01*
X189168320Y-105160739D01*
X189161381Y-105157203D01*
X189153687Y-105155984D01*
X189153686Y-105155984D01*
X189057696Y-105140781D01*
X189050000Y-105139562D01*
X189042304Y-105140781D01*
X188946314Y-105155984D01*
X188946313Y-105155984D01*
X188938619Y-105157203D01*
X188931680Y-105160739D01*
X188931679Y-105160739D01*
X188845079Y-105204864D01*
X188845077Y-105204865D01*
X188838140Y-105208400D01*
X188758400Y-105288140D01*
X188754865Y-105295077D01*
X188754864Y-105295079D01*
X188729388Y-105345079D01*
X188707203Y-105388619D01*
X188705984Y-105396313D01*
X188705984Y-105396314D01*
X188696711Y-105454864D01*
X188689562Y-105500000D01*
X188694467Y-105530968D01*
X188704538Y-105594552D01*
X188707203Y-105611381D01*
X188710739Y-105618321D01*
X188710741Y-105618327D01*
X188738024Y-105671872D01*
X188747596Y-105732304D01*
X188719819Y-105786820D01*
X188701352Y-105800237D01*
X188701385Y-105800283D01*
X188695079Y-105804864D01*
X188688140Y-105808400D01*
X188608400Y-105888140D01*
X188604865Y-105895077D01*
X188604864Y-105895079D01*
X188573131Y-105957358D01*
X188557203Y-105988619D01*
X188539562Y-106100000D01*
X186695375Y-106100000D01*
X186704921Y-106095136D01*
X186704923Y-106095135D01*
X186711860Y-106091600D01*
X186791600Y-106011860D01*
X186805500Y-105984581D01*
X186839261Y-105918321D01*
X186839261Y-105918320D01*
X186842797Y-105911381D01*
X186860438Y-105800000D01*
X186849716Y-105732304D01*
X186844016Y-105696314D01*
X186844016Y-105696313D01*
X186842797Y-105688619D01*
X186799521Y-105603686D01*
X186795136Y-105595079D01*
X186795135Y-105595077D01*
X186791600Y-105588140D01*
X186711860Y-105508400D01*
X186704923Y-105504865D01*
X186704921Y-105504864D01*
X186618321Y-105460739D01*
X186618320Y-105460739D01*
X186611381Y-105457203D01*
X186603687Y-105455984D01*
X186603686Y-105455984D01*
X186507696Y-105440781D01*
X186500000Y-105439562D01*
X186492304Y-105440781D01*
X186396314Y-105455984D01*
X186396313Y-105455984D01*
X186388619Y-105457203D01*
X186381680Y-105460739D01*
X186381679Y-105460739D01*
X186295079Y-105504864D01*
X186295077Y-105504865D01*
X186288140Y-105508400D01*
X186208400Y-105588140D01*
X186204865Y-105595077D01*
X186204864Y-105595079D01*
X186200479Y-105603686D01*
X186157203Y-105688619D01*
X186155984Y-105696313D01*
X186155984Y-105696314D01*
X186150284Y-105732304D01*
X186139562Y-105800000D01*
X184735809Y-105800000D01*
X184735682Y-105799148D01*
X184735092Y-105798547D01*
X184728286Y-105796878D01*
X184365680Y-105796878D01*
X184352995Y-105801000D01*
X184350000Y-105805121D01*
X184350000Y-106172226D01*
X184150000Y-106172226D01*
X184150000Y-105812558D01*
X184145878Y-105799873D01*
X184141757Y-105796878D01*
X183774459Y-105796878D01*
X183761774Y-105801000D01*
X183760705Y-105802471D01*
X183760210Y-105807825D01*
X181577500Y-105807825D01*
X181577500Y-105581384D01*
X183761917Y-105581384D01*
X183764039Y-105594552D01*
X183764867Y-105595376D01*
X183771159Y-105596878D01*
X184134320Y-105596878D01*
X184147005Y-105592756D01*
X184150000Y-105588635D01*
X184150000Y-105581198D01*
X184350000Y-105581198D01*
X184354122Y-105593883D01*
X184358243Y-105596878D01*
X184725141Y-105596878D01*
X184737826Y-105592756D01*
X184738704Y-105591549D01*
X184739212Y-105585646D01*
X184735838Y-105562085D01*
X184731918Y-105548679D01*
X184678479Y-105431146D01*
X184670951Y-105419376D01*
X184586673Y-105321565D01*
X184576148Y-105312384D01*
X184467802Y-105242157D01*
X184455125Y-105236300D01*
X184365026Y-105209355D01*
X184353217Y-105209634D01*
X184350000Y-105219946D01*
X184350000Y-105581198D01*
X184150000Y-105581198D01*
X184150000Y-105221077D01*
X184146285Y-105209644D01*
X184135797Y-105209456D01*
X184050517Y-105233829D01*
X184037769Y-105239531D01*
X183928571Y-105308430D01*
X183917938Y-105317479D01*
X183832466Y-105414259D01*
X183824802Y-105425927D01*
X183769929Y-105542802D01*
X183765844Y-105556161D01*
X183761917Y-105581384D01*
X181577500Y-105581384D01*
X181577500Y-104808529D01*
X181577636Y-104803348D01*
X181579174Y-104774007D01*
X181579174Y-104774005D01*
X181579718Y-104763616D01*
X181571596Y-104742456D01*
X181567186Y-104727567D01*
X181562474Y-104705400D01*
X181556358Y-104696981D01*
X181553122Y-104689714D01*
X181548789Y-104683042D01*
X181545060Y-104673327D01*
X181529036Y-104657303D01*
X181518947Y-104645490D01*
X181511745Y-104635578D01*
X181505628Y-104627158D01*
X181496614Y-104621954D01*
X181490386Y-104616346D01*
X181480472Y-104608739D01*
X181371733Y-104500000D01*
X186789562Y-104500000D01*
X186807203Y-104611381D01*
X186810739Y-104618320D01*
X186810739Y-104618321D01*
X186847522Y-104690510D01*
X186858400Y-104711860D01*
X186938140Y-104791600D01*
X186945077Y-104795135D01*
X186945079Y-104795136D01*
X187029479Y-104838140D01*
X187038619Y-104842797D01*
X187046313Y-104844016D01*
X187046314Y-104844016D01*
X187142304Y-104859219D01*
X187150000Y-104860438D01*
X187157696Y-104859219D01*
X187253686Y-104844016D01*
X187253687Y-104844016D01*
X187261381Y-104842797D01*
X187270521Y-104838140D01*
X187354921Y-104795136D01*
X187354923Y-104795135D01*
X187361860Y-104791600D01*
X187441600Y-104711860D01*
X187452479Y-104690510D01*
X187489261Y-104618321D01*
X187489261Y-104618320D01*
X187492797Y-104611381D01*
X187510438Y-104500000D01*
X187492797Y-104388619D01*
X187489261Y-104381679D01*
X187445136Y-104295079D01*
X187445135Y-104295077D01*
X187441600Y-104288140D01*
X187361860Y-104208400D01*
X187354923Y-104204865D01*
X187354921Y-104204864D01*
X187268321Y-104160739D01*
X187268320Y-104160739D01*
X187261381Y-104157203D01*
X187253687Y-104155984D01*
X187253686Y-104155984D01*
X187157696Y-104140781D01*
X187150000Y-104139562D01*
X187142304Y-104140781D01*
X187046314Y-104155984D01*
X187046313Y-104155984D01*
X187038619Y-104157203D01*
X187031680Y-104160739D01*
X187031679Y-104160739D01*
X186945079Y-104204864D01*
X186945077Y-104204865D01*
X186938140Y-104208400D01*
X186858400Y-104288140D01*
X186854865Y-104295077D01*
X186854864Y-104295079D01*
X186810739Y-104381679D01*
X186807203Y-104388619D01*
X186789562Y-104500000D01*
X181371733Y-104500000D01*
X181193961Y-104322227D01*
X181166900Y-104295166D01*
X181163333Y-104291407D01*
X181143671Y-104269570D01*
X181136708Y-104261837D01*
X181116004Y-104252619D01*
X181102353Y-104245207D01*
X181092076Y-104238532D01*
X181092073Y-104238531D01*
X181083350Y-104232866D01*
X181073074Y-104231238D01*
X181065645Y-104228387D01*
X181057865Y-104226733D01*
X181048357Y-104222500D01*
X181046141Y-104222500D01*
X181001988Y-104198528D01*
X180961860Y-104158400D01*
X180954923Y-104154865D01*
X180954921Y-104154864D01*
X180868321Y-104110739D01*
X180868320Y-104110739D01*
X180861381Y-104107203D01*
X180853687Y-104105984D01*
X180853686Y-104105984D01*
X180757696Y-104090781D01*
X180750000Y-104089562D01*
X180742304Y-104090781D01*
X180646314Y-104105984D01*
X180646313Y-104105984D01*
X180638619Y-104107203D01*
X180631680Y-104110739D01*
X180631679Y-104110739D01*
X180545079Y-104154864D01*
X180545077Y-104154865D01*
X180538140Y-104158400D01*
X180458400Y-104238140D01*
X180454865Y-104245077D01*
X180454864Y-104245079D01*
X180415555Y-104322227D01*
X180407203Y-104338619D01*
X180389562Y-104450000D01*
X180407203Y-104561381D01*
X180410739Y-104568320D01*
X180410739Y-104568321D01*
X180445009Y-104635578D01*
X180458400Y-104661860D01*
X180533287Y-104736747D01*
X180561064Y-104791264D01*
X180551492Y-104851696D01*
X180510741Y-104931673D01*
X180510739Y-104931679D01*
X180507203Y-104938619D01*
X180489562Y-105050000D01*
X180490373Y-105055121D01*
X180471874Y-105112056D01*
X180422374Y-105148020D01*
X180376295Y-105151646D01*
X180300000Y-105139562D01*
X180292304Y-105140781D01*
X180196314Y-105155984D01*
X180196313Y-105155984D01*
X180188619Y-105157203D01*
X180181680Y-105160739D01*
X180181679Y-105160739D01*
X180095079Y-105204864D01*
X180095077Y-105204865D01*
X180088140Y-105208400D01*
X180045004Y-105251536D01*
X179990487Y-105279313D01*
X179930055Y-105269742D01*
X179904996Y-105251536D01*
X179861860Y-105208400D01*
X179854923Y-105204865D01*
X179854921Y-105204864D01*
X179768321Y-105160739D01*
X179768320Y-105160739D01*
X179761381Y-105157203D01*
X179753687Y-105155984D01*
X179753686Y-105155984D01*
X179657696Y-105140781D01*
X179650000Y-105139562D01*
X179642304Y-105140781D01*
X179546314Y-105155984D01*
X179546313Y-105155984D01*
X179538619Y-105157203D01*
X179531680Y-105160739D01*
X179531679Y-105160739D01*
X179445079Y-105204864D01*
X179445077Y-105204865D01*
X179438140Y-105208400D01*
X179393917Y-105252623D01*
X179339400Y-105280400D01*
X179278968Y-105270829D01*
X179266884Y-105263424D01*
X179261860Y-105258400D01*
X179188610Y-105221077D01*
X179168321Y-105210739D01*
X179168320Y-105210739D01*
X179161381Y-105207203D01*
X179153687Y-105205984D01*
X179153686Y-105205984D01*
X179057696Y-105190781D01*
X179050000Y-105189562D01*
X179042304Y-105190781D01*
X178946314Y-105205984D01*
X178946313Y-105205984D01*
X178938619Y-105207203D01*
X178931680Y-105210739D01*
X178931679Y-105210739D01*
X178845079Y-105254864D01*
X178845077Y-105254865D01*
X178838140Y-105258400D01*
X178758400Y-105338140D01*
X178754865Y-105345077D01*
X178754864Y-105345079D01*
X178745107Y-105364229D01*
X178701842Y-105407494D01*
X178641410Y-105417065D01*
X178626081Y-105412084D01*
X178625735Y-105413148D01*
X178618321Y-105410739D01*
X178611381Y-105407203D01*
X178603687Y-105405984D01*
X178603686Y-105405984D01*
X178507696Y-105390781D01*
X178500000Y-105389562D01*
X178492304Y-105390781D01*
X178396314Y-105405984D01*
X178396313Y-105405984D01*
X178388619Y-105407203D01*
X178381680Y-105410739D01*
X178381679Y-105410739D01*
X178295079Y-105454864D01*
X178295077Y-105454865D01*
X178288140Y-105458400D01*
X178208400Y-105538140D01*
X178204865Y-105545078D01*
X178204862Y-105545082D01*
X178187209Y-105579728D01*
X178143944Y-105622992D01*
X178083512Y-105632563D01*
X178028996Y-105604785D01*
X178001219Y-105550268D01*
X178000000Y-105534782D01*
X178000000Y-103800000D01*
X183839562Y-103800000D01*
X183857203Y-103911381D01*
X183908400Y-104011860D01*
X183988140Y-104091600D01*
X183995077Y-104095135D01*
X183995079Y-104095136D01*
X184018762Y-104107203D01*
X184088619Y-104142797D01*
X184096313Y-104144016D01*
X184096314Y-104144016D01*
X184192304Y-104159219D01*
X184200000Y-104160438D01*
X184207696Y-104159219D01*
X184303686Y-104144016D01*
X184303687Y-104144016D01*
X184311381Y-104142797D01*
X184381238Y-104107203D01*
X184404921Y-104095136D01*
X184404923Y-104095135D01*
X184411860Y-104091600D01*
X184491600Y-104011860D01*
X184542797Y-103911381D01*
X184560438Y-103800000D01*
X184542797Y-103688619D01*
X184491600Y-103588140D01*
X184411860Y-103508400D01*
X184404923Y-103504865D01*
X184404921Y-103504864D01*
X184318321Y-103460739D01*
X184318320Y-103460739D01*
X184311381Y-103457203D01*
X184303687Y-103455984D01*
X184303686Y-103455984D01*
X184207696Y-103440781D01*
X184200000Y-103439562D01*
X184192304Y-103440781D01*
X184096314Y-103455984D01*
X184096313Y-103455984D01*
X184088619Y-103457203D01*
X184081680Y-103460739D01*
X184081679Y-103460739D01*
X183995079Y-103504864D01*
X183995077Y-103504865D01*
X183988140Y-103508400D01*
X183908400Y-103588140D01*
X183857203Y-103688619D01*
X183839562Y-103800000D01*
X178000000Y-103800000D01*
X178000000Y-103000000D01*
X179489562Y-103000000D01*
X179507203Y-103111381D01*
X179558400Y-103211860D01*
X179638140Y-103291600D01*
X179645077Y-103295135D01*
X179645079Y-103295136D01*
X179731679Y-103339261D01*
X179738619Y-103342797D01*
X179746313Y-103344016D01*
X179746314Y-103344016D01*
X179842304Y-103359219D01*
X179850000Y-103360438D01*
X179857696Y-103359219D01*
X179953686Y-103344016D01*
X179953687Y-103344016D01*
X179961381Y-103342797D01*
X179968321Y-103339261D01*
X180054921Y-103295136D01*
X180054923Y-103295135D01*
X180061860Y-103291600D01*
X180079996Y-103273464D01*
X180134513Y-103245687D01*
X180194945Y-103255258D01*
X180220004Y-103273464D01*
X180238140Y-103291600D01*
X180245077Y-103295135D01*
X180245079Y-103295136D01*
X180331679Y-103339261D01*
X180338619Y-103342797D01*
X180346313Y-103344016D01*
X180346314Y-103344016D01*
X180442304Y-103359219D01*
X180450000Y-103360438D01*
X180457696Y-103359219D01*
X180553686Y-103344016D01*
X180553687Y-103344016D01*
X180561381Y-103342797D01*
X180568321Y-103339261D01*
X180654921Y-103295136D01*
X180654923Y-103295135D01*
X180661860Y-103291600D01*
X180679996Y-103273464D01*
X180734513Y-103245687D01*
X180794945Y-103255258D01*
X180820004Y-103273464D01*
X180838140Y-103291600D01*
X180845077Y-103295135D01*
X180845079Y-103295136D01*
X180931679Y-103339261D01*
X180938619Y-103342797D01*
X180946313Y-103344016D01*
X180946314Y-103344016D01*
X181042304Y-103359219D01*
X181050000Y-103360438D01*
X181057696Y-103359219D01*
X181153686Y-103344016D01*
X181153687Y-103344016D01*
X181161381Y-103342797D01*
X181168321Y-103339261D01*
X181254921Y-103295136D01*
X181254923Y-103295135D01*
X181261860Y-103291600D01*
X181279996Y-103273464D01*
X181334513Y-103245687D01*
X181394945Y-103255258D01*
X181420004Y-103273464D01*
X181438140Y-103291600D01*
X181445077Y-103295135D01*
X181445079Y-103295136D01*
X181531679Y-103339261D01*
X181538619Y-103342797D01*
X181546313Y-103344016D01*
X181546314Y-103344016D01*
X181642304Y-103359219D01*
X181650000Y-103360438D01*
X181657696Y-103359219D01*
X181753686Y-103344016D01*
X181753687Y-103344016D01*
X181761381Y-103342797D01*
X181768321Y-103339261D01*
X181854921Y-103295136D01*
X181854923Y-103295135D01*
X181861860Y-103291600D01*
X181879996Y-103273464D01*
X181934513Y-103245687D01*
X181994945Y-103255258D01*
X182020004Y-103273464D01*
X182038140Y-103291600D01*
X182045077Y-103295135D01*
X182045079Y-103295136D01*
X182131679Y-103339261D01*
X182138619Y-103342797D01*
X182146313Y-103344016D01*
X182146314Y-103344016D01*
X182242304Y-103359219D01*
X182250000Y-103360438D01*
X182257696Y-103359219D01*
X182353686Y-103344016D01*
X182353687Y-103344016D01*
X182361381Y-103342797D01*
X182368321Y-103339261D01*
X182454921Y-103295136D01*
X182454923Y-103295135D01*
X182461860Y-103291600D01*
X182504996Y-103248464D01*
X182559513Y-103220687D01*
X182619945Y-103230258D01*
X182645004Y-103248464D01*
X182688140Y-103291600D01*
X182695077Y-103295135D01*
X182695079Y-103295136D01*
X182781679Y-103339261D01*
X182788619Y-103342797D01*
X182796313Y-103344016D01*
X182796314Y-103344016D01*
X182892304Y-103359219D01*
X182900000Y-103360438D01*
X182907696Y-103359219D01*
X183003686Y-103344016D01*
X183003687Y-103344016D01*
X183011381Y-103342797D01*
X183018321Y-103339261D01*
X183104921Y-103295136D01*
X183104923Y-103295135D01*
X183111860Y-103291600D01*
X183191600Y-103211860D01*
X183242797Y-103111381D01*
X183260438Y-103000000D01*
X183242797Y-102888619D01*
X183191600Y-102788140D01*
X183111860Y-102708400D01*
X183104923Y-102704865D01*
X183104921Y-102704864D01*
X183018321Y-102660739D01*
X183018320Y-102660739D01*
X183011381Y-102657203D01*
X183003687Y-102655984D01*
X183003686Y-102655984D01*
X182907696Y-102640781D01*
X182900000Y-102639562D01*
X182892304Y-102640781D01*
X182796314Y-102655984D01*
X182796313Y-102655984D01*
X182788619Y-102657203D01*
X182781680Y-102660739D01*
X182781679Y-102660739D01*
X182695079Y-102704864D01*
X182695077Y-102704865D01*
X182688140Y-102708400D01*
X182645004Y-102751536D01*
X182590487Y-102779313D01*
X182530055Y-102769742D01*
X182504996Y-102751536D01*
X182461860Y-102708400D01*
X182454923Y-102704865D01*
X182454921Y-102704864D01*
X182368321Y-102660739D01*
X182368320Y-102660739D01*
X182361381Y-102657203D01*
X182353687Y-102655984D01*
X182353686Y-102655984D01*
X182257696Y-102640781D01*
X182250000Y-102639562D01*
X182242304Y-102640781D01*
X182146314Y-102655984D01*
X182146313Y-102655984D01*
X182138619Y-102657203D01*
X182131680Y-102660739D01*
X182131679Y-102660739D01*
X182045079Y-102704864D01*
X182045077Y-102704865D01*
X182038140Y-102708400D01*
X182020004Y-102726536D01*
X181965487Y-102754313D01*
X181905055Y-102744742D01*
X181879996Y-102726536D01*
X181861860Y-102708400D01*
X181854923Y-102704865D01*
X181854921Y-102704864D01*
X181768321Y-102660739D01*
X181768320Y-102660739D01*
X181761381Y-102657203D01*
X181753687Y-102655984D01*
X181753686Y-102655984D01*
X181657696Y-102640781D01*
X181650000Y-102639562D01*
X181642304Y-102640781D01*
X181546314Y-102655984D01*
X181546313Y-102655984D01*
X181538619Y-102657203D01*
X181531680Y-102660739D01*
X181531679Y-102660739D01*
X181445079Y-102704864D01*
X181445077Y-102704865D01*
X181438140Y-102708400D01*
X181420004Y-102726536D01*
X181365487Y-102754313D01*
X181305055Y-102744742D01*
X181279996Y-102726536D01*
X181261860Y-102708400D01*
X181254923Y-102704865D01*
X181254921Y-102704864D01*
X181168321Y-102660739D01*
X181168320Y-102660739D01*
X181161381Y-102657203D01*
X181153687Y-102655984D01*
X181153686Y-102655984D01*
X181057696Y-102640781D01*
X181050000Y-102639562D01*
X181042304Y-102640781D01*
X180946314Y-102655984D01*
X180946313Y-102655984D01*
X180938619Y-102657203D01*
X180931680Y-102660739D01*
X180931679Y-102660739D01*
X180845079Y-102704864D01*
X180845077Y-102704865D01*
X180838140Y-102708400D01*
X180820004Y-102726536D01*
X180765487Y-102754313D01*
X180705055Y-102744742D01*
X180679996Y-102726536D01*
X180661860Y-102708400D01*
X180654923Y-102704865D01*
X180654921Y-102704864D01*
X180568321Y-102660739D01*
X180568320Y-102660739D01*
X180561381Y-102657203D01*
X180553687Y-102655984D01*
X180553686Y-102655984D01*
X180457696Y-102640781D01*
X180450000Y-102639562D01*
X180442304Y-102640781D01*
X180346314Y-102655984D01*
X180346313Y-102655984D01*
X180338619Y-102657203D01*
X180331680Y-102660739D01*
X180331679Y-102660739D01*
X180245079Y-102704864D01*
X180245077Y-102704865D01*
X180238140Y-102708400D01*
X180220004Y-102726536D01*
X180165487Y-102754313D01*
X180105055Y-102744742D01*
X180079996Y-102726536D01*
X180061860Y-102708400D01*
X180054923Y-102704865D01*
X180054921Y-102704864D01*
X179968321Y-102660739D01*
X179968320Y-102660739D01*
X179961381Y-102657203D01*
X179953687Y-102655984D01*
X179953686Y-102655984D01*
X179857696Y-102640781D01*
X179850000Y-102639562D01*
X179842304Y-102640781D01*
X179746314Y-102655984D01*
X179746313Y-102655984D01*
X179738619Y-102657203D01*
X179731680Y-102660739D01*
X179731679Y-102660739D01*
X179645079Y-102704864D01*
X179645077Y-102704865D01*
X179638140Y-102708400D01*
X179558400Y-102788140D01*
X179507203Y-102888619D01*
X179489562Y-103000000D01*
X178000000Y-103000000D01*
X178000000Y-98100000D01*
X182039562Y-98100000D01*
X182057203Y-98211381D01*
X182108400Y-98311860D01*
X182188140Y-98391600D01*
X182195077Y-98395135D01*
X182195079Y-98395136D01*
X182281679Y-98439261D01*
X182288619Y-98442797D01*
X182296313Y-98444016D01*
X182296314Y-98444016D01*
X182392304Y-98459219D01*
X182400000Y-98460438D01*
X182407696Y-98459219D01*
X182503686Y-98444016D01*
X182503687Y-98444016D01*
X182511381Y-98442797D01*
X182518321Y-98439261D01*
X182604921Y-98395136D01*
X182604923Y-98395135D01*
X182611860Y-98391600D01*
X182691600Y-98311860D01*
X182742797Y-98211381D01*
X182760438Y-98100000D01*
X183039562Y-98100000D01*
X183057203Y-98211381D01*
X183108400Y-98311860D01*
X183188140Y-98391600D01*
X183195077Y-98395135D01*
X183195079Y-98395136D01*
X183281679Y-98439261D01*
X183288619Y-98442797D01*
X183296313Y-98444016D01*
X183296314Y-98444016D01*
X183392304Y-98459219D01*
X183400000Y-98460438D01*
X183407696Y-98459219D01*
X183503686Y-98444016D01*
X183503687Y-98444016D01*
X183511381Y-98442797D01*
X183518321Y-98439261D01*
X183604921Y-98395136D01*
X183604923Y-98395135D01*
X183611860Y-98391600D01*
X183691600Y-98311860D01*
X183742797Y-98211381D01*
X183760438Y-98100000D01*
X183755490Y-98068757D01*
X183765062Y-98008325D01*
X183808327Y-97965061D01*
X183868757Y-97955490D01*
X183892302Y-97959219D01*
X183892304Y-97959219D01*
X183900000Y-97960438D01*
X183907696Y-97959219D01*
X184003686Y-97944016D01*
X184003687Y-97944016D01*
X184011381Y-97942797D01*
X184018321Y-97939261D01*
X184104921Y-97895136D01*
X184104923Y-97895135D01*
X184111860Y-97891600D01*
X184191600Y-97811860D01*
X184195195Y-97804806D01*
X184239261Y-97718321D01*
X184239261Y-97718320D01*
X184242797Y-97711381D01*
X184260438Y-97600000D01*
X184242797Y-97488619D01*
X184191600Y-97388140D01*
X184163808Y-97360348D01*
X188857147Y-97360348D01*
X188863140Y-97417372D01*
X188865502Y-97428116D01*
X188919773Y-97587536D01*
X188924460Y-97597496D01*
X189012701Y-97740931D01*
X189019473Y-97749599D01*
X189137306Y-97869925D01*
X189145829Y-97876876D01*
X189287391Y-97968108D01*
X189297237Y-97972995D01*
X189455496Y-98030596D01*
X189466190Y-98033183D01*
X189596225Y-98049610D01*
X189602413Y-98050000D01*
X189884320Y-98050000D01*
X189897005Y-98045878D01*
X189900000Y-98041757D01*
X189900000Y-97365680D01*
X189895878Y-97352995D01*
X189891757Y-97350000D01*
X188871739Y-97350000D01*
X188859054Y-97354122D01*
X188857589Y-97356137D01*
X188857147Y-97360348D01*
X184163808Y-97360348D01*
X184111860Y-97308400D01*
X184104923Y-97304865D01*
X184104921Y-97304864D01*
X184018321Y-97260739D01*
X184018320Y-97260739D01*
X184011381Y-97257203D01*
X184003687Y-97255984D01*
X184003686Y-97255984D01*
X183907696Y-97240781D01*
X183900000Y-97239562D01*
X183892304Y-97240781D01*
X183796314Y-97255984D01*
X183796313Y-97255984D01*
X183788619Y-97257203D01*
X183781680Y-97260739D01*
X183781679Y-97260739D01*
X183695079Y-97304864D01*
X183695077Y-97304865D01*
X183688140Y-97308400D01*
X183608400Y-97388140D01*
X183557203Y-97488619D01*
X183539562Y-97600000D01*
X183540781Y-97607696D01*
X183540781Y-97607698D01*
X183544510Y-97631243D01*
X183534938Y-97691675D01*
X183491673Y-97734939D01*
X183431243Y-97744510D01*
X183407698Y-97740781D01*
X183407696Y-97740781D01*
X183400000Y-97739562D01*
X183369032Y-97744467D01*
X183296314Y-97755984D01*
X183296313Y-97755984D01*
X183288619Y-97757203D01*
X183281680Y-97760739D01*
X183281679Y-97760739D01*
X183195079Y-97804864D01*
X183195077Y-97804865D01*
X183188140Y-97808400D01*
X183108400Y-97888140D01*
X183104865Y-97895077D01*
X183104864Y-97895079D01*
X183060739Y-97981679D01*
X183057203Y-97988619D01*
X183055984Y-97996313D01*
X183055984Y-97996314D01*
X183050145Y-98033183D01*
X183039562Y-98100000D01*
X182760438Y-98100000D01*
X182749855Y-98033183D01*
X182744016Y-97996314D01*
X182744016Y-97996313D01*
X182742797Y-97988619D01*
X182739261Y-97981679D01*
X182695136Y-97895079D01*
X182695135Y-97895077D01*
X182691600Y-97888140D01*
X182611860Y-97808400D01*
X182604923Y-97804865D01*
X182604921Y-97804864D01*
X182518321Y-97760739D01*
X182518320Y-97760739D01*
X182511381Y-97757203D01*
X182503687Y-97755984D01*
X182503686Y-97755984D01*
X182430968Y-97744467D01*
X182400000Y-97739562D01*
X182369032Y-97744467D01*
X182296314Y-97755984D01*
X182296313Y-97755984D01*
X182288619Y-97757203D01*
X182281680Y-97760739D01*
X182281679Y-97760739D01*
X182195079Y-97804864D01*
X182195077Y-97804865D01*
X182188140Y-97808400D01*
X182108400Y-97888140D01*
X182104865Y-97895077D01*
X182104864Y-97895079D01*
X182060739Y-97981679D01*
X182057203Y-97988619D01*
X182055984Y-97996313D01*
X182055984Y-97996314D01*
X182050145Y-98033183D01*
X182039562Y-98100000D01*
X178000000Y-98100000D01*
X178000000Y-97600000D01*
X180739562Y-97600000D01*
X180757203Y-97711381D01*
X180760739Y-97718320D01*
X180760739Y-97718321D01*
X180804806Y-97804806D01*
X180808400Y-97811860D01*
X180888140Y-97891600D01*
X180895077Y-97895135D01*
X180895079Y-97895136D01*
X180981679Y-97939261D01*
X180988619Y-97942797D01*
X180996313Y-97944016D01*
X180996314Y-97944016D01*
X181092304Y-97959219D01*
X181100000Y-97960438D01*
X181107696Y-97959219D01*
X181203686Y-97944016D01*
X181203687Y-97944016D01*
X181211381Y-97942797D01*
X181218321Y-97939261D01*
X181304921Y-97895136D01*
X181304923Y-97895135D01*
X181311860Y-97891600D01*
X181391600Y-97811860D01*
X181395195Y-97804806D01*
X181439261Y-97718321D01*
X181439261Y-97718320D01*
X181442797Y-97711381D01*
X181460438Y-97600000D01*
X181442797Y-97488619D01*
X181391600Y-97388140D01*
X181311860Y-97308400D01*
X181304923Y-97304865D01*
X181304921Y-97304864D01*
X181218321Y-97260739D01*
X181218320Y-97260739D01*
X181211381Y-97257203D01*
X181203687Y-97255984D01*
X181203686Y-97255984D01*
X181107696Y-97240781D01*
X181100000Y-97239562D01*
X181092304Y-97240781D01*
X180996314Y-97255984D01*
X180996313Y-97255984D01*
X180988619Y-97257203D01*
X180981680Y-97260739D01*
X180981679Y-97260739D01*
X180895079Y-97304864D01*
X180895077Y-97304865D01*
X180888140Y-97308400D01*
X180808400Y-97388140D01*
X180757203Y-97488619D01*
X180739562Y-97600000D01*
X178000000Y-97600000D01*
X178000000Y-96972535D01*
X186724716Y-96972535D01*
X186724887Y-96973618D01*
X186729165Y-96978627D01*
X186830755Y-97052436D01*
X186839690Y-97057595D01*
X187007847Y-97132464D01*
X187017656Y-97135651D01*
X187197705Y-97173921D01*
X187207968Y-97175000D01*
X187392032Y-97175000D01*
X187402295Y-97173921D01*
X187582344Y-97135651D01*
X187586096Y-97134432D01*
X188858068Y-97134432D01*
X188860659Y-97147514D01*
X188862215Y-97148955D01*
X188866969Y-97150000D01*
X189884320Y-97150000D01*
X189897005Y-97145878D01*
X189900000Y-97141757D01*
X189900000Y-96465680D01*
X189895878Y-96452995D01*
X189891757Y-96450000D01*
X189607644Y-96450000D01*
X189602115Y-96450309D01*
X189477145Y-96464327D01*
X189466408Y-96466766D01*
X189307371Y-96522149D01*
X189297452Y-96526901D01*
X189154630Y-96616146D01*
X189146013Y-96622976D01*
X189026512Y-96741645D01*
X189019618Y-96750221D01*
X188929381Y-96892410D01*
X188924559Y-96902296D01*
X188868064Y-97060954D01*
X188865554Y-97071653D01*
X188858068Y-97134432D01*
X187586096Y-97134432D01*
X187592153Y-97132464D01*
X187760310Y-97057595D01*
X187769245Y-97052436D01*
X187867629Y-96980956D01*
X187875470Y-96970163D01*
X187875470Y-96969065D01*
X187872032Y-96963454D01*
X187311086Y-96402507D01*
X187299203Y-96396453D01*
X187294172Y-96397249D01*
X186730770Y-96960652D01*
X186724716Y-96972535D01*
X178000000Y-96972535D01*
X178000000Y-96255157D01*
X186370447Y-96255157D01*
X186389688Y-96438220D01*
X186391832Y-96448310D01*
X186448714Y-96623374D01*
X186452908Y-96632794D01*
X186544943Y-96792204D01*
X186551010Y-96800553D01*
X186567532Y-96818903D01*
X186579082Y-96825572D01*
X186582937Y-96825167D01*
X186584455Y-96824123D01*
X187147493Y-96261086D01*
X187152735Y-96250797D01*
X187446453Y-96250797D01*
X187447249Y-96255828D01*
X188010891Y-96819469D01*
X188022774Y-96825523D01*
X188026600Y-96824917D01*
X188028065Y-96823794D01*
X188048990Y-96800553D01*
X188055057Y-96792204D01*
X188147092Y-96632794D01*
X188151286Y-96623374D01*
X188208168Y-96448310D01*
X188210312Y-96438220D01*
X188229553Y-96255157D01*
X188229553Y-96244843D01*
X188210312Y-96061780D01*
X188208168Y-96051690D01*
X188151286Y-95876626D01*
X188147092Y-95867206D01*
X188055057Y-95707796D01*
X188048990Y-95699447D01*
X188032468Y-95681097D01*
X188020918Y-95674428D01*
X188017063Y-95674833D01*
X188015545Y-95675877D01*
X187452507Y-96238914D01*
X187446453Y-96250797D01*
X187152735Y-96250797D01*
X187153547Y-96249203D01*
X187152751Y-96244172D01*
X186589109Y-95680531D01*
X186577226Y-95674477D01*
X186573400Y-95675083D01*
X186571935Y-95676206D01*
X186551010Y-95699447D01*
X186544943Y-95707796D01*
X186452908Y-95867206D01*
X186448714Y-95876626D01*
X186391832Y-96051690D01*
X186389688Y-96061780D01*
X186370447Y-96244843D01*
X186370447Y-96255157D01*
X178000000Y-96255157D01*
X178000000Y-95530935D01*
X186724529Y-95530935D01*
X186727966Y-95536544D01*
X187288914Y-96097493D01*
X187300797Y-96103547D01*
X187305828Y-96102751D01*
X187869230Y-95539348D01*
X187875284Y-95527465D01*
X187875113Y-95526382D01*
X187870835Y-95521373D01*
X187769245Y-95447564D01*
X187760310Y-95442405D01*
X187592153Y-95367536D01*
X187582344Y-95364349D01*
X187402295Y-95326079D01*
X187392032Y-95325000D01*
X187207968Y-95325000D01*
X187197705Y-95326079D01*
X187017656Y-95364349D01*
X187007847Y-95367536D01*
X186839687Y-95442406D01*
X186830762Y-95447559D01*
X186732369Y-95519045D01*
X186724529Y-95529837D01*
X186724529Y-95530935D01*
X178000000Y-95530935D01*
X178000000Y-93994862D01*
X178018907Y-93936671D01*
X178068407Y-93900707D01*
X178129593Y-93900707D01*
X178136885Y-93903398D01*
X178162295Y-93913923D01*
X178168723Y-93914769D01*
X178168726Y-93914770D01*
X178293566Y-93931205D01*
X178300000Y-93932052D01*
X178306434Y-93931205D01*
X178431274Y-93914770D01*
X178431277Y-93914769D01*
X178437705Y-93913923D01*
X178566026Y-93860771D01*
X178676218Y-93776218D01*
X178760771Y-93666026D01*
X178813923Y-93537705D01*
X178832052Y-93400000D01*
X178813923Y-93262295D01*
X178760771Y-93133974D01*
X178676218Y-93023782D01*
X178566026Y-92939229D01*
X178437705Y-92886077D01*
X178431277Y-92885231D01*
X178431274Y-92885230D01*
X178306434Y-92868795D01*
X178300000Y-92867948D01*
X178293566Y-92868795D01*
X178168726Y-92885230D01*
X178168723Y-92885231D01*
X178162295Y-92886077D01*
X178143300Y-92893945D01*
X178136885Y-92896602D01*
X178075888Y-92901402D01*
X178023719Y-92869433D01*
X178000305Y-92812905D01*
X178000000Y-92805138D01*
X178000000Y-91972535D01*
X186724716Y-91972535D01*
X186724887Y-91973618D01*
X186729165Y-91978627D01*
X186830755Y-92052436D01*
X186839690Y-92057595D01*
X187007847Y-92132464D01*
X187017656Y-92135651D01*
X187197705Y-92173921D01*
X187207968Y-92175000D01*
X187392032Y-92175000D01*
X187402295Y-92173921D01*
X187582344Y-92135651D01*
X187592153Y-92132464D01*
X187760310Y-92057595D01*
X187769245Y-92052436D01*
X187867629Y-91980956D01*
X187875470Y-91970163D01*
X187875470Y-91969065D01*
X187872032Y-91963454D01*
X187311086Y-91402507D01*
X187299203Y-91396453D01*
X187294172Y-91397249D01*
X186730770Y-91960652D01*
X186724716Y-91972535D01*
X178000000Y-91972535D01*
X178000000Y-89600000D01*
X180239562Y-89600000D01*
X180257203Y-89711381D01*
X180308400Y-89811860D01*
X180388140Y-89891600D01*
X180395077Y-89895135D01*
X180395079Y-89895136D01*
X180481679Y-89939261D01*
X180488619Y-89942797D01*
X180496311Y-89944015D01*
X180496313Y-89944016D01*
X180532871Y-89949806D01*
X180587387Y-89977584D01*
X180615164Y-90032101D01*
X180611749Y-90077521D01*
X180574234Y-90195783D01*
X180573694Y-90200595D01*
X180573694Y-90200596D01*
X180555327Y-90364349D01*
X180552866Y-90386286D01*
X180557579Y-90442406D01*
X180565484Y-90536544D01*
X180568907Y-90577311D01*
X180621746Y-90761583D01*
X180709370Y-90932082D01*
X180828443Y-91082314D01*
X180832123Y-91085446D01*
X180832125Y-91085448D01*
X180937691Y-91175291D01*
X180974428Y-91206557D01*
X180978651Y-91208917D01*
X180978655Y-91208920D01*
X181074629Y-91262558D01*
X181141765Y-91300079D01*
X181146363Y-91301573D01*
X181319476Y-91357821D01*
X181319478Y-91357822D01*
X181324081Y-91359317D01*
X181514430Y-91382015D01*
X181519252Y-91381644D01*
X181519255Y-91381644D01*
X181700734Y-91367680D01*
X181700739Y-91367679D01*
X181705562Y-91367308D01*
X181890199Y-91315756D01*
X181894517Y-91313575D01*
X181995513Y-91262558D01*
X183097500Y-91262558D01*
X183104898Y-91299748D01*
X183133078Y-91341922D01*
X183175252Y-91370102D01*
X183184813Y-91372004D01*
X183207680Y-91376553D01*
X183207683Y-91376553D01*
X183212442Y-91377500D01*
X184937558Y-91377500D01*
X184942317Y-91376553D01*
X184942320Y-91376553D01*
X184965187Y-91372004D01*
X184974748Y-91370102D01*
X185016922Y-91341922D01*
X185045102Y-91299748D01*
X185052500Y-91262558D01*
X185052500Y-91255157D01*
X186370447Y-91255157D01*
X186389688Y-91438220D01*
X186391832Y-91448310D01*
X186448714Y-91623374D01*
X186452908Y-91632794D01*
X186544943Y-91792204D01*
X186551010Y-91800553D01*
X186567532Y-91818903D01*
X186579082Y-91825572D01*
X186582937Y-91825167D01*
X186584455Y-91824123D01*
X187147493Y-91261086D01*
X187152735Y-91250797D01*
X187446453Y-91250797D01*
X187447249Y-91255828D01*
X188010891Y-91819469D01*
X188022774Y-91825523D01*
X188026600Y-91824917D01*
X188028065Y-91823794D01*
X188048990Y-91800553D01*
X188055057Y-91792204D01*
X188147092Y-91632794D01*
X188151286Y-91623374D01*
X188208168Y-91448310D01*
X188210312Y-91438220D01*
X188229553Y-91255157D01*
X188229553Y-91244843D01*
X188210312Y-91061780D01*
X188208168Y-91051690D01*
X188151286Y-90876626D01*
X188147092Y-90867206D01*
X188055057Y-90707796D01*
X188048990Y-90699447D01*
X188032468Y-90681097D01*
X188020918Y-90674428D01*
X188017063Y-90674833D01*
X188015545Y-90675877D01*
X187452507Y-91238914D01*
X187446453Y-91250797D01*
X187152735Y-91250797D01*
X187153547Y-91249203D01*
X187152751Y-91244172D01*
X186589109Y-90680531D01*
X186577226Y-90674477D01*
X186573400Y-90675083D01*
X186571935Y-90676206D01*
X186551010Y-90699447D01*
X186544943Y-90707796D01*
X186452908Y-90867206D01*
X186448714Y-90876626D01*
X186391832Y-91051690D01*
X186389688Y-91061780D01*
X186370447Y-91244843D01*
X186370447Y-91255157D01*
X185052500Y-91255157D01*
X185052500Y-90530935D01*
X186724529Y-90530935D01*
X186727966Y-90536544D01*
X187288914Y-91097493D01*
X187300797Y-91103547D01*
X187305828Y-91102751D01*
X187869230Y-90539348D01*
X187875284Y-90527465D01*
X187875113Y-90526382D01*
X187870835Y-90521373D01*
X187769245Y-90447564D01*
X187760310Y-90442405D01*
X187592153Y-90367536D01*
X187582344Y-90364349D01*
X187563520Y-90360348D01*
X188857147Y-90360348D01*
X188863140Y-90417372D01*
X188865502Y-90428116D01*
X188919773Y-90587536D01*
X188924460Y-90597496D01*
X189012701Y-90740931D01*
X189019473Y-90749599D01*
X189137306Y-90869925D01*
X189145829Y-90876876D01*
X189287391Y-90968108D01*
X189297237Y-90972995D01*
X189455496Y-91030596D01*
X189466190Y-91033183D01*
X189596225Y-91049610D01*
X189602413Y-91050000D01*
X189884320Y-91050000D01*
X189897005Y-91045878D01*
X189900000Y-91041757D01*
X189900000Y-90365680D01*
X189895878Y-90352995D01*
X189891757Y-90350000D01*
X188871739Y-90350000D01*
X188859054Y-90354122D01*
X188857589Y-90356137D01*
X188857147Y-90360348D01*
X187563520Y-90360348D01*
X187402295Y-90326079D01*
X187392032Y-90325000D01*
X187207968Y-90325000D01*
X187197705Y-90326079D01*
X187017656Y-90364349D01*
X187007847Y-90367536D01*
X186839687Y-90442406D01*
X186830762Y-90447559D01*
X186732369Y-90519045D01*
X186724529Y-90529837D01*
X186724529Y-90530935D01*
X185052500Y-90530935D01*
X185052500Y-90134432D01*
X188858068Y-90134432D01*
X188860659Y-90147514D01*
X188862215Y-90148955D01*
X188866969Y-90150000D01*
X189884320Y-90150000D01*
X189897005Y-90145878D01*
X189900000Y-90141757D01*
X189900000Y-89465680D01*
X189895878Y-89452995D01*
X189891757Y-89450000D01*
X189607644Y-89450000D01*
X189602115Y-89450309D01*
X189477145Y-89464327D01*
X189466408Y-89466766D01*
X189307371Y-89522149D01*
X189297452Y-89526901D01*
X189154630Y-89616146D01*
X189146013Y-89622976D01*
X189026512Y-89741645D01*
X189019618Y-89750221D01*
X188929381Y-89892410D01*
X188924559Y-89902296D01*
X188868064Y-90060954D01*
X188865554Y-90071653D01*
X188858068Y-90134432D01*
X185052500Y-90134432D01*
X185052500Y-89537442D01*
X185048476Y-89517212D01*
X185055666Y-89456450D01*
X185075569Y-89427891D01*
X185141600Y-89361860D01*
X185153256Y-89338985D01*
X185189261Y-89268321D01*
X185189261Y-89268320D01*
X185192797Y-89261381D01*
X185201728Y-89204996D01*
X185209219Y-89157696D01*
X185210438Y-89150000D01*
X185196402Y-89061381D01*
X185194016Y-89046314D01*
X185194016Y-89046313D01*
X185192797Y-89038619D01*
X185189261Y-89031679D01*
X185145136Y-88945079D01*
X185145135Y-88945077D01*
X185141600Y-88938140D01*
X185098464Y-88895004D01*
X185070687Y-88840487D01*
X185080258Y-88780055D01*
X185098464Y-88754996D01*
X185141600Y-88711860D01*
X185168840Y-88658400D01*
X185189261Y-88618321D01*
X185189261Y-88618320D01*
X185192797Y-88611381D01*
X185201728Y-88554996D01*
X185209219Y-88507696D01*
X185210438Y-88500000D01*
X185196402Y-88411381D01*
X185194016Y-88396314D01*
X185194016Y-88396313D01*
X185192797Y-88388619D01*
X185189261Y-88381679D01*
X185145136Y-88295079D01*
X185145135Y-88295077D01*
X185141600Y-88288140D01*
X185098464Y-88245004D01*
X185070687Y-88190487D01*
X185080258Y-88130055D01*
X185098464Y-88104996D01*
X185141600Y-88061860D01*
X185168840Y-88008400D01*
X185189261Y-87968321D01*
X185189261Y-87968320D01*
X185192797Y-87961381D01*
X185210438Y-87850000D01*
X185192797Y-87738619D01*
X185141600Y-87638140D01*
X185061860Y-87558400D01*
X185054923Y-87554865D01*
X185054921Y-87554864D01*
X184968321Y-87510739D01*
X184968320Y-87510739D01*
X184961381Y-87507203D01*
X184953687Y-87505984D01*
X184953686Y-87505984D01*
X184857696Y-87490781D01*
X184850000Y-87489562D01*
X184842304Y-87490781D01*
X184746314Y-87505984D01*
X184746313Y-87505984D01*
X184738619Y-87507203D01*
X184731680Y-87510739D01*
X184731679Y-87510739D01*
X184645079Y-87554864D01*
X184645077Y-87554865D01*
X184638140Y-87558400D01*
X184558400Y-87638140D01*
X184507203Y-87738619D01*
X184489562Y-87850000D01*
X184507203Y-87961381D01*
X184510739Y-87968320D01*
X184510739Y-87968321D01*
X184531161Y-88008400D01*
X184558400Y-88061860D01*
X184601536Y-88104996D01*
X184629313Y-88159513D01*
X184619742Y-88219945D01*
X184601536Y-88245004D01*
X184558400Y-88288140D01*
X184554865Y-88295077D01*
X184554864Y-88295079D01*
X184510739Y-88381679D01*
X184507203Y-88388619D01*
X184505984Y-88396313D01*
X184505984Y-88396314D01*
X184503598Y-88411381D01*
X184489562Y-88500000D01*
X184490781Y-88507696D01*
X184498273Y-88554996D01*
X184507203Y-88611381D01*
X184510739Y-88618320D01*
X184510739Y-88618321D01*
X184531161Y-88658400D01*
X184558400Y-88711860D01*
X184601536Y-88754996D01*
X184629313Y-88809513D01*
X184619742Y-88869945D01*
X184601536Y-88895004D01*
X184558400Y-88938140D01*
X184554865Y-88945077D01*
X184554864Y-88945079D01*
X184510739Y-89031679D01*
X184507203Y-89038619D01*
X184505984Y-89046313D01*
X184505984Y-89046314D01*
X184503598Y-89061381D01*
X184489562Y-89150000D01*
X184490781Y-89157696D01*
X184498273Y-89204996D01*
X184507203Y-89261381D01*
X184515953Y-89278553D01*
X184525525Y-89338985D01*
X184497749Y-89393502D01*
X184443233Y-89421281D01*
X184427744Y-89422500D01*
X183212442Y-89422500D01*
X183207683Y-89423447D01*
X183207680Y-89423447D01*
X183185341Y-89427891D01*
X183175252Y-89429898D01*
X183133078Y-89458078D01*
X183104898Y-89500252D01*
X183097500Y-89537442D01*
X183097500Y-91262558D01*
X181995513Y-91262558D01*
X182056984Y-91231507D01*
X182056986Y-91231506D01*
X182061305Y-91229324D01*
X182087421Y-91208920D01*
X182208550Y-91114284D01*
X182208552Y-91114282D01*
X182212365Y-91111303D01*
X182215521Y-91107647D01*
X182215526Y-91107642D01*
X182287470Y-91024293D01*
X182337624Y-90966189D01*
X182432312Y-90799509D01*
X182443495Y-90765894D01*
X182491294Y-90622203D01*
X182491294Y-90622201D01*
X182492821Y-90617612D01*
X182496621Y-90587536D01*
X182514303Y-90447564D01*
X182516847Y-90427425D01*
X182517230Y-90400000D01*
X182509637Y-90322555D01*
X182498997Y-90214036D01*
X182498996Y-90214031D01*
X182498524Y-90209217D01*
X182453761Y-90060954D01*
X182444516Y-90030333D01*
X182444514Y-90030328D01*
X182443117Y-90025701D01*
X182371814Y-89891600D01*
X182355393Y-89860716D01*
X182355391Y-89860713D01*
X182353120Y-89856442D01*
X182231962Y-89707887D01*
X182084256Y-89585694D01*
X181915629Y-89494518D01*
X181857409Y-89476496D01*
X181737126Y-89439262D01*
X181737122Y-89439261D01*
X181732505Y-89437832D01*
X181727697Y-89437327D01*
X181727694Y-89437326D01*
X181546673Y-89418300D01*
X181546671Y-89418300D01*
X181541857Y-89417794D01*
X181490147Y-89422500D01*
X181355768Y-89434729D01*
X181355765Y-89434730D01*
X181350948Y-89435168D01*
X181346306Y-89436534D01*
X181346302Y-89436535D01*
X181171697Y-89487924D01*
X181171694Y-89487925D01*
X181167050Y-89489292D01*
X181078268Y-89535706D01*
X181017941Y-89545910D01*
X180963137Y-89518705D01*
X180944079Y-89487966D01*
X180942797Y-89488619D01*
X180895136Y-89395079D01*
X180895135Y-89395077D01*
X180891600Y-89388140D01*
X180848464Y-89345004D01*
X180820687Y-89290487D01*
X180830258Y-89230055D01*
X180848464Y-89204996D01*
X180891600Y-89161860D01*
X180901565Y-89142304D01*
X180939261Y-89068321D01*
X180939261Y-89068320D01*
X180942797Y-89061381D01*
X180945184Y-89046314D01*
X180959219Y-88957696D01*
X180960438Y-88950000D01*
X180955533Y-88919032D01*
X180944016Y-88846314D01*
X180944016Y-88846313D01*
X180942797Y-88838619D01*
X180927967Y-88809513D01*
X180895136Y-88745079D01*
X180895135Y-88745077D01*
X180891600Y-88738140D01*
X180848464Y-88695004D01*
X180820687Y-88640487D01*
X180830258Y-88580055D01*
X180848464Y-88554996D01*
X180891600Y-88511860D01*
X180901565Y-88492304D01*
X180939261Y-88418321D01*
X180939261Y-88418320D01*
X180942797Y-88411381D01*
X180945184Y-88396314D01*
X180959219Y-88307696D01*
X180960438Y-88300000D01*
X180955533Y-88269032D01*
X180944016Y-88196314D01*
X180944016Y-88196313D01*
X180942797Y-88188619D01*
X180927967Y-88159513D01*
X180895136Y-88095079D01*
X180895135Y-88095077D01*
X180891600Y-88088140D01*
X180811860Y-88008400D01*
X180804923Y-88004865D01*
X180804921Y-88004864D01*
X180718321Y-87960739D01*
X180718320Y-87960739D01*
X180711381Y-87957203D01*
X180703687Y-87955984D01*
X180703686Y-87955984D01*
X180607696Y-87940781D01*
X180600000Y-87939562D01*
X180592304Y-87940781D01*
X180496314Y-87955984D01*
X180496313Y-87955984D01*
X180488619Y-87957203D01*
X180481680Y-87960739D01*
X180481679Y-87960739D01*
X180395079Y-88004864D01*
X180395077Y-88004865D01*
X180388140Y-88008400D01*
X180308400Y-88088140D01*
X180304865Y-88095077D01*
X180304864Y-88095079D01*
X180272033Y-88159513D01*
X180257203Y-88188619D01*
X180255984Y-88196313D01*
X180255984Y-88196314D01*
X180244467Y-88269032D01*
X180239562Y-88300000D01*
X180240781Y-88307696D01*
X180254817Y-88396314D01*
X180257203Y-88411381D01*
X180260739Y-88418320D01*
X180260739Y-88418321D01*
X180298436Y-88492304D01*
X180308400Y-88511860D01*
X180351536Y-88554996D01*
X180379313Y-88609513D01*
X180369742Y-88669945D01*
X180351536Y-88695004D01*
X180308400Y-88738140D01*
X180304865Y-88745077D01*
X180304864Y-88745079D01*
X180272033Y-88809513D01*
X180257203Y-88838619D01*
X180255984Y-88846313D01*
X180255984Y-88846314D01*
X180244467Y-88919032D01*
X180239562Y-88950000D01*
X180240781Y-88957696D01*
X180254817Y-89046314D01*
X180257203Y-89061381D01*
X180260739Y-89068320D01*
X180260739Y-89068321D01*
X180298436Y-89142304D01*
X180308400Y-89161860D01*
X180351536Y-89204996D01*
X180379313Y-89259513D01*
X180369742Y-89319945D01*
X180351536Y-89345004D01*
X180308400Y-89388140D01*
X180304865Y-89395077D01*
X180304864Y-89395079D01*
X180260739Y-89481679D01*
X180257203Y-89488619D01*
X180255984Y-89496313D01*
X180255984Y-89496314D01*
X180250225Y-89532675D01*
X180239562Y-89600000D01*
X178000000Y-89600000D01*
X178000000Y-85800000D01*
X188167948Y-85800000D01*
X188186077Y-85937705D01*
X188239229Y-86066026D01*
X188323782Y-86176218D01*
X188433974Y-86260771D01*
X188562295Y-86313923D01*
X188568723Y-86314769D01*
X188568726Y-86314770D01*
X188693566Y-86331205D01*
X188700000Y-86332052D01*
X188706434Y-86331205D01*
X188831274Y-86314770D01*
X188831277Y-86314769D01*
X188837705Y-86313923D01*
X188966026Y-86260771D01*
X189076218Y-86176218D01*
X189160771Y-86066026D01*
X189213923Y-85937705D01*
X189232052Y-85800000D01*
X189213923Y-85662295D01*
X189160771Y-85533974D01*
X189076218Y-85423782D01*
X188966026Y-85339229D01*
X188837705Y-85286077D01*
X188831277Y-85285231D01*
X188831274Y-85285230D01*
X188706434Y-85268795D01*
X188700000Y-85267948D01*
X188693566Y-85268795D01*
X188568726Y-85285230D01*
X188568723Y-85285231D01*
X188562295Y-85286077D01*
X188433974Y-85339229D01*
X188323782Y-85423782D01*
X188239229Y-85533974D01*
X188186077Y-85662295D01*
X188167948Y-85800000D01*
X178000000Y-85800000D01*
X178000000Y-82978719D01*
X178217873Y-82978719D01*
X178218067Y-82982084D01*
X178218067Y-82982088D01*
X178219100Y-83000000D01*
X178233787Y-83254707D01*
X178287009Y-83525982D01*
X178376555Y-83787524D01*
X178500767Y-84034493D01*
X178657348Y-84262320D01*
X178843400Y-84466789D01*
X179055480Y-84644115D01*
X179289664Y-84791018D01*
X179292732Y-84792403D01*
X179292739Y-84792407D01*
X179456332Y-84866272D01*
X179541619Y-84904780D01*
X179544841Y-84905734D01*
X179544848Y-84905737D01*
X179755952Y-84968268D01*
X179806681Y-84983295D01*
X179810006Y-84983804D01*
X179810007Y-84983804D01*
X180076613Y-85024601D01*
X180076616Y-85024601D01*
X180079947Y-85025111D01*
X180083319Y-85025164D01*
X180128016Y-85025866D01*
X180356359Y-85029453D01*
X180359695Y-85029049D01*
X180359700Y-85029049D01*
X180627459Y-84996646D01*
X180627464Y-84996645D01*
X180630803Y-84996241D01*
X180898201Y-84926091D01*
X181062334Y-84858105D01*
X181150496Y-84821587D01*
X181150499Y-84821586D01*
X181153605Y-84820299D01*
X181203714Y-84791018D01*
X181389372Y-84682529D01*
X181389378Y-84682525D01*
X181392287Y-84680825D01*
X181609833Y-84510247D01*
X181802215Y-84311724D01*
X181836673Y-84264816D01*
X181868747Y-84221151D01*
X181965875Y-84088928D01*
X182097784Y-83845982D01*
X182195501Y-83587381D01*
X182221420Y-83474214D01*
X182256465Y-83321202D01*
X182256466Y-83321195D01*
X182257218Y-83317912D01*
X182281792Y-83042560D01*
X182282238Y-83000000D01*
X182280787Y-82978719D01*
X186717873Y-82978719D01*
X186718067Y-82982084D01*
X186718067Y-82982088D01*
X186719100Y-83000000D01*
X186733787Y-83254707D01*
X186787009Y-83525982D01*
X186876555Y-83787524D01*
X187000767Y-84034493D01*
X187157348Y-84262320D01*
X187343400Y-84466789D01*
X187555480Y-84644115D01*
X187789664Y-84791018D01*
X187792732Y-84792403D01*
X187792739Y-84792407D01*
X187956332Y-84866272D01*
X188041619Y-84904780D01*
X188044841Y-84905734D01*
X188044848Y-84905737D01*
X188255952Y-84968268D01*
X188306681Y-84983295D01*
X188310006Y-84983804D01*
X188310007Y-84983804D01*
X188576613Y-85024601D01*
X188576616Y-85024601D01*
X188579947Y-85025111D01*
X188583319Y-85025164D01*
X188628016Y-85025866D01*
X188856359Y-85029453D01*
X188859695Y-85029049D01*
X188859700Y-85029049D01*
X189127459Y-84996646D01*
X189127464Y-84996645D01*
X189130803Y-84996241D01*
X189398201Y-84926091D01*
X189562334Y-84858105D01*
X189650496Y-84821587D01*
X189650499Y-84821586D01*
X189653605Y-84820299D01*
X189703714Y-84791018D01*
X189889372Y-84682529D01*
X189889378Y-84682525D01*
X189892287Y-84680825D01*
X190109833Y-84510247D01*
X190302215Y-84311724D01*
X190336673Y-84264816D01*
X190368747Y-84221151D01*
X190465875Y-84088928D01*
X190597784Y-83845982D01*
X190695501Y-83587381D01*
X190721420Y-83474214D01*
X190756465Y-83321202D01*
X190756466Y-83321195D01*
X190757218Y-83317912D01*
X190781792Y-83042560D01*
X190782238Y-83000000D01*
X190763435Y-82724194D01*
X190707376Y-82453491D01*
X190615096Y-82192901D01*
X190488304Y-81947246D01*
X190477648Y-81932083D01*
X190331285Y-81723830D01*
X190329346Y-81721071D01*
X190316587Y-81707340D01*
X190143457Y-81521031D01*
X190141163Y-81518562D01*
X189927237Y-81343466D01*
X189691528Y-81199023D01*
X189669294Y-81189263D01*
X189441479Y-81089259D01*
X189441475Y-81089257D01*
X189438396Y-81087906D01*
X189389030Y-81073844D01*
X189175778Y-81013097D01*
X189175773Y-81013096D01*
X189172526Y-81012171D01*
X188898837Y-80973220D01*
X188895471Y-80973202D01*
X188895466Y-80973202D01*
X188771067Y-80972551D01*
X188622395Y-80971772D01*
X188348313Y-81007856D01*
X188345056Y-81008747D01*
X188345051Y-81008748D01*
X188084921Y-81079911D01*
X188084917Y-81079912D01*
X188081665Y-81080802D01*
X188078561Y-81082126D01*
X187830474Y-81187944D01*
X187830467Y-81187947D01*
X187827383Y-81189263D01*
X187824501Y-81190988D01*
X187593069Y-81329496D01*
X187593065Y-81329499D01*
X187590174Y-81331229D01*
X187574900Y-81343466D01*
X187377060Y-81501966D01*
X187377055Y-81501970D01*
X187374427Y-81504076D01*
X187184134Y-81704603D01*
X187182169Y-81707338D01*
X187182167Y-81707340D01*
X187172301Y-81721071D01*
X187022816Y-81929100D01*
X186893458Y-82173414D01*
X186798455Y-82433024D01*
X186739563Y-82703125D01*
X186717873Y-82978719D01*
X182280787Y-82978719D01*
X182263435Y-82724194D01*
X182207376Y-82453491D01*
X182115096Y-82192901D01*
X181988304Y-81947246D01*
X181977648Y-81932083D01*
X181831285Y-81723830D01*
X181829346Y-81721071D01*
X181816587Y-81707340D01*
X181643457Y-81521031D01*
X181641163Y-81518562D01*
X181427237Y-81343466D01*
X181191528Y-81199023D01*
X181169294Y-81189263D01*
X180941479Y-81089259D01*
X180941475Y-81089257D01*
X180938396Y-81087906D01*
X180889030Y-81073844D01*
X180675778Y-81013097D01*
X180675773Y-81013096D01*
X180672526Y-81012171D01*
X180398837Y-80973220D01*
X180395471Y-80973202D01*
X180395466Y-80973202D01*
X180271067Y-80972551D01*
X180122395Y-80971772D01*
X179848313Y-81007856D01*
X179845056Y-81008747D01*
X179845051Y-81008748D01*
X179584921Y-81079911D01*
X179584917Y-81079912D01*
X179581665Y-81080802D01*
X179578561Y-81082126D01*
X179330474Y-81187944D01*
X179330467Y-81187947D01*
X179327383Y-81189263D01*
X179324501Y-81190988D01*
X179093069Y-81329496D01*
X179093065Y-81329499D01*
X179090174Y-81331229D01*
X179074900Y-81343466D01*
X178877060Y-81501966D01*
X178877055Y-81501970D01*
X178874427Y-81504076D01*
X178684134Y-81704603D01*
X178682169Y-81707338D01*
X178682167Y-81707340D01*
X178672301Y-81721071D01*
X178522816Y-81929100D01*
X178393458Y-82173414D01*
X178298455Y-82433024D01*
X178239563Y-82703125D01*
X178217873Y-82978719D01*
X178000000Y-82978719D01*
X178000000Y-69800000D01*
X184167948Y-69800000D01*
X184186077Y-69937705D01*
X184239229Y-70066026D01*
X184323782Y-70176218D01*
X184433974Y-70260771D01*
X184562295Y-70313923D01*
X184568723Y-70314769D01*
X184568726Y-70314770D01*
X184693566Y-70331205D01*
X184700000Y-70332052D01*
X184706434Y-70331205D01*
X184831274Y-70314770D01*
X184831277Y-70314769D01*
X184837705Y-70313923D01*
X184966026Y-70260771D01*
X185076218Y-70176218D01*
X185160771Y-70066026D01*
X185213923Y-69937705D01*
X185232052Y-69800000D01*
X185213923Y-69662295D01*
X185160771Y-69533974D01*
X185076218Y-69423782D01*
X184966026Y-69339229D01*
X184837705Y-69286077D01*
X184831277Y-69285231D01*
X184831274Y-69285230D01*
X184706434Y-69268795D01*
X184700000Y-69267948D01*
X184693566Y-69268795D01*
X184568726Y-69285230D01*
X184568723Y-69285231D01*
X184562295Y-69286077D01*
X184433974Y-69339229D01*
X184323782Y-69423782D01*
X184239229Y-69533974D01*
X184186077Y-69662295D01*
X184167948Y-69800000D01*
X178000000Y-69800000D01*
X178000000Y-68099000D01*
X178018907Y-68040809D01*
X178068407Y-68004845D01*
X178099000Y-68000000D01*
X190901000Y-68000000D01*
X190959191Y-68018907D01*
G37*
%TD.AperFunction*%
%TD*%
M02*
