%TF.GenerationSoftware,KiCad,Pcbnew,(6.0.7)*%
%TF.CreationDate,2022-08-25T19:07:38-04:00*%
%TF.ProjectId,msbaker,6d736261-6b65-4722-9e6b-696361645f70,3*%
%TF.SameCoordinates,Original*%
%TF.FileFunction,Soldermask,Bot*%
%TF.FilePolarity,Negative*%
%FSLAX46Y46*%
G04 Gerber Fmt 4.6, Leading zero omitted, Abs format (unit mm)*
G04 Created by KiCad (PCBNEW (6.0.7)) date 2022-08-25 19:07:38*
%MOMM*%
%LPD*%
G01*
G04 APERTURE LIST*
G04 Aperture macros list*
%AMRoundRect*
0 Rectangle with rounded corners*
0 $1 Rounding radius*
0 $2 $3 $4 $5 $6 $7 $8 $9 X,Y pos of 4 corners*
0 Add a 4 corners polygon primitive as box body*
4,1,4,$2,$3,$4,$5,$6,$7,$8,$9,$2,$3,0*
0 Add four circle primitives for the rounded corners*
1,1,$1+$1,$2,$3*
1,1,$1+$1,$4,$5*
1,1,$1+$1,$6,$7*
1,1,$1+$1,$8,$9*
0 Add four rect primitives between the rounded corners*
20,1,$1+$1,$2,$3,$4,$5,0*
20,1,$1+$1,$4,$5,$6,$7,0*
20,1,$1+$1,$6,$7,$8,$9,0*
20,1,$1+$1,$8,$9,$2,$3,0*%
%AMRotRect*
0 Rectangle, with rotation*
0 The origin of the aperture is its center*
0 $1 length*
0 $2 width*
0 $3 Rotation angle, in degrees counterclockwise*
0 Add horizontal line*
21,1,$1,$2,0,0,$3*%
G04 Aperture macros list end*
%ADD10O,1.900000X1.200000*%
%ADD11C,1.450000*%
%ADD12C,3.800000*%
%ADD13R,1.700000X1.700000*%
%ADD14O,1.700000X1.700000*%
%ADD15RoundRect,0.140000X0.219203X0.021213X0.021213X0.219203X-0.219203X-0.021213X-0.021213X-0.219203X0*%
%ADD16RoundRect,0.140000X-0.219203X-0.021213X-0.021213X-0.219203X0.219203X0.021213X0.021213X0.219203X0*%
%ADD17RoundRect,0.140000X-0.021213X0.219203X-0.219203X0.021213X0.021213X-0.219203X0.219203X-0.021213X0*%
%ADD18RoundRect,0.140000X0.021213X-0.219203X0.219203X-0.021213X-0.021213X0.219203X-0.219203X0.021213X0*%
%ADD19RoundRect,0.060000X-0.115000X0.060000X-0.115000X-0.060000X0.115000X-0.060000X0.115000X0.060000X0*%
%ADD20RoundRect,0.075000X-0.135000X0.075000X-0.135000X-0.075000X0.135000X-0.075000X0.135000X0.075000X0*%
%ADD21RoundRect,0.225000X-0.225000X-0.250000X0.225000X-0.250000X0.225000X0.250000X-0.225000X0.250000X0*%
%ADD22RotRect,2.000000X2.400000X135.000000*%
%ADD23RoundRect,0.135000X0.226274X0.035355X0.035355X0.226274X-0.226274X-0.035355X-0.035355X-0.226274X0*%
G04 APERTURE END LIST*
D10*
%TO.C,J1*%
X190000000Y-90250000D03*
X190000000Y-97250000D03*
D11*
X187300000Y-91250000D03*
X187300000Y-96250000D03*
%TD*%
D12*
%TO.C,M2*%
X188750000Y-83000000D03*
%TD*%
%TO.C,M2*%
X180250000Y-83000000D03*
%TD*%
%TO.C,M2*%
X184250000Y-125250000D03*
%TD*%
D13*
%TO.C,JP1*%
X184075000Y-90400000D03*
D14*
X181535000Y-90400000D03*
%TD*%
D13*
%TO.C,JP2*%
X180000000Y-123540000D03*
D14*
X180000000Y-121000000D03*
%TD*%
D15*
%TO.C,C9*%
X186660589Y-103360589D03*
X187339411Y-104039411D03*
%TD*%
%TO.C,C19*%
X185839411Y-105739411D03*
X185160589Y-105060589D03*
%TD*%
D16*
%TO.C,C10*%
X189460589Y-107760589D03*
X190139411Y-108439411D03*
%TD*%
%TO.C,C12*%
X186521178Y-106421178D03*
X187200000Y-107100000D03*
%TD*%
D17*
%TO.C,C18*%
X187578822Y-108021178D03*
X186900000Y-108700000D03*
%TD*%
D18*
%TO.C,C15*%
X181860589Y-106439411D03*
X182539411Y-105760589D03*
%TD*%
D15*
%TO.C,C16*%
X182639411Y-108939411D03*
X181960589Y-108260589D03*
%TD*%
D18*
%TO.C,C17*%
X185160589Y-110039411D03*
X185839411Y-109360589D03*
%TD*%
D19*
%TO.C,J3*%
X185187500Y-115050000D03*
X183312500Y-115050000D03*
X185187500Y-115450000D03*
X183312500Y-115450000D03*
X185187500Y-115850000D03*
X183312500Y-115850000D03*
X185187500Y-116250000D03*
X183312500Y-116250000D03*
X185187500Y-116650000D03*
X183312500Y-116650000D03*
X185187500Y-117050000D03*
X183312500Y-117050000D03*
X185187500Y-117450000D03*
X183312500Y-117450000D03*
X185187500Y-117850000D03*
X183312500Y-117850000D03*
X185187500Y-118250000D03*
X183312500Y-118250000D03*
X185187500Y-118650000D03*
X183312500Y-118650000D03*
X185187500Y-119050000D03*
X183312500Y-119050000D03*
X185187500Y-119450000D03*
X183312500Y-119450000D03*
X185187500Y-119850000D03*
X183312500Y-119850000D03*
X185187500Y-120250000D03*
X183312500Y-120250000D03*
X185187500Y-120650000D03*
X183312500Y-120650000D03*
X185187500Y-121050000D03*
X183312500Y-121050000D03*
X185187500Y-121450000D03*
X183312500Y-121450000D03*
D20*
X183875000Y-122075000D03*
X183875000Y-114425000D03*
X184625000Y-114425000D03*
X184625000Y-122075000D03*
%TD*%
D21*
%TO.C,C2*%
X185000000Y-70900000D03*
X186550000Y-70900000D03*
%TD*%
D22*
%TO.C,Y1*%
X182308148Y-112058148D03*
X179691852Y-109441852D03*
%TD*%
D17*
%TO.C,C14*%
X183939411Y-104360589D03*
X183260589Y-105039411D03*
%TD*%
%TO.C,C4*%
X178978822Y-107621178D03*
X178300000Y-108300000D03*
%TD*%
D16*
%TO.C,C7*%
X189460589Y-104960589D03*
X190139411Y-105639411D03*
%TD*%
D23*
%TO.C,R4*%
X180360624Y-113610624D03*
X179639376Y-112889376D03*
%TD*%
D17*
%TO.C,C5*%
X184039411Y-112860589D03*
X183360589Y-113539411D03*
%TD*%
D16*
%TO.C,C20*%
X189460589Y-106360589D03*
X190139411Y-107039411D03*
%TD*%
%TO.C,C8*%
X183360589Y-109660589D03*
X184039411Y-110339411D03*
%TD*%
G36*
X184294945Y-105276798D02*
G01*
X184320004Y-105295004D01*
X186454996Y-107429996D01*
X186482773Y-107484513D01*
X186473202Y-107544945D01*
X186454996Y-107570004D01*
X184320004Y-109704996D01*
X184265487Y-109732773D01*
X184205055Y-109723202D01*
X184179996Y-109704996D01*
X182045004Y-107570004D01*
X182017227Y-107515487D01*
X182026798Y-107455055D01*
X182045004Y-107429996D01*
X184179996Y-105295004D01*
X184234513Y-105267227D01*
X184294945Y-105276798D01*
G37*
M02*
