%TF.GenerationSoftware,KiCad,Pcbnew,(6.0.7)*%
%TF.CreationDate,2022-08-25T19:07:38-04:00*%
%TF.ProjectId,msbaker,6d736261-6b65-4722-9e6b-696361645f70,3*%
%TF.SameCoordinates,Original*%
%TF.FileFunction,Copper,L1,Top*%
%TF.FilePolarity,Positive*%
%FSLAX46Y46*%
G04 Gerber Fmt 4.6, Leading zero omitted, Abs format (unit mm)*
G04 Created by KiCad (PCBNEW (6.0.7)) date 2022-08-25 19:07:38*
%MOMM*%
%LPD*%
G01*
G04 APERTURE LIST*
G04 Aperture macros list*
%AMRoundRect*
0 Rectangle with rounded corners*
0 $1 Rounding radius*
0 $2 $3 $4 $5 $6 $7 $8 $9 X,Y pos of 4 corners*
0 Add a 4 corners polygon primitive as box body*
4,1,4,$2,$3,$4,$5,$6,$7,$8,$9,$2,$3,0*
0 Add four circle primitives for the rounded corners*
1,1,$1+$1,$2,$3*
1,1,$1+$1,$4,$5*
1,1,$1+$1,$6,$7*
1,1,$1+$1,$8,$9*
0 Add four rect primitives between the rounded corners*
20,1,$1+$1,$2,$3,$4,$5,0*
20,1,$1+$1,$4,$5,$6,$7,0*
20,1,$1+$1,$6,$7,$8,$9,0*
20,1,$1+$1,$8,$9,$2,$3,0*%
%AMFreePoly0*
4,1,48,0.134742,0.310782,0.138024,0.311361,0.140910,0.309695,0.150652,0.307977,0.165579,0.295451,0.182453,0.285709,0.184767,0.279350,0.189952,0.275000,0.193336,0.255809,0.200000,0.237500,0.200000,-0.237500,0.198282,-0.247242,0.198861,-0.250524,0.197195,-0.253410,0.195477,-0.263152,0.182951,-0.278079,0.173209,-0.294953,0.166850,-0.297267,0.162500,-0.302452,0.143309,-0.305836,
0.125000,-0.312500,0.081066,-0.312500,0.076480,-0.311691,0.074529,-0.312214,0.071540,-0.310820,0.055414,-0.307977,0.042871,-0.297452,0.028033,-0.290533,-0.178033,-0.084467,-0.180703,-0.080653,-0.182453,-0.079643,-0.183581,-0.076543,-0.192973,-0.063130,-0.194400,-0.046819,-0.200000,-0.031434,-0.200000,0.237500,-0.198282,0.247242,-0.198861,0.250524,-0.197195,0.253410,-0.195477,0.263152,
-0.182951,0.278079,-0.173209,0.294953,-0.166850,0.297267,-0.162500,0.302452,-0.143309,0.305836,-0.125000,0.312500,0.125000,0.312500,0.134742,0.310782,0.134742,0.310782,$1*%
%AMFreePoly1*
4,1,48,0.134742,0.310782,0.138024,0.311361,0.140910,0.309695,0.150652,0.307977,0.165579,0.295451,0.182453,0.285709,0.184767,0.279350,0.189952,0.275000,0.193336,0.255809,0.200000,0.237500,0.200000,-0.031434,0.199191,-0.036020,0.199714,-0.037971,0.198320,-0.040960,0.195477,-0.057086,0.184952,-0.069629,0.178033,-0.084467,-0.028033,-0.290533,-0.031847,-0.293203,-0.032857,-0.294953,
-0.035957,-0.296081,-0.049370,-0.305473,-0.065681,-0.306900,-0.081066,-0.312500,-0.125000,-0.312500,-0.134742,-0.310782,-0.138024,-0.311361,-0.140910,-0.309695,-0.150652,-0.307977,-0.165579,-0.295451,-0.182453,-0.285709,-0.184767,-0.279350,-0.189952,-0.275000,-0.193336,-0.255809,-0.200000,-0.237500,-0.200000,0.237500,-0.198282,0.247242,-0.198861,0.250524,-0.197195,0.253410,-0.195477,0.263152,
-0.182951,0.278079,-0.173209,0.294953,-0.166850,0.297267,-0.162500,0.302452,-0.143309,0.305836,-0.125000,0.312500,0.125000,0.312500,0.134742,0.310782,0.134742,0.310782,$1*%
%AMFreePoly2*
4,1,48,0.247242,0.198282,0.250524,0.198861,0.253410,0.197195,0.263152,0.195477,0.278079,0.182951,0.294953,0.173209,0.297267,0.166850,0.302452,0.162500,0.305836,0.143309,0.312500,0.125000,0.312500,-0.125000,0.310782,-0.134742,0.311361,-0.138024,0.309695,-0.140910,0.307977,-0.150652,0.295451,-0.165579,0.285709,-0.182453,0.279350,-0.184767,0.275000,-0.189952,0.255809,-0.193336,
0.237500,-0.200000,-0.237500,-0.200000,-0.247242,-0.198282,-0.250524,-0.198861,-0.253410,-0.197195,-0.263152,-0.195477,-0.278079,-0.182951,-0.294953,-0.173209,-0.297267,-0.166850,-0.302452,-0.162500,-0.305836,-0.143309,-0.312500,-0.125000,-0.312500,-0.081066,-0.311691,-0.076480,-0.312214,-0.074530,-0.310821,-0.071542,-0.307977,-0.055414,-0.297451,-0.042870,-0.290533,-0.028033,-0.084467,0.178033,
-0.080653,0.180703,-0.079643,0.182453,-0.076543,0.183581,-0.063130,0.192973,-0.046820,0.194400,-0.031434,0.200000,0.237500,0.200000,0.247242,0.198282,0.247242,0.198282,$1*%
%AMFreePoly3*
4,1,48,0.247242,0.198282,0.250524,0.198861,0.253410,0.197195,0.263152,0.195477,0.278079,0.182951,0.294953,0.173209,0.297267,0.166850,0.302452,0.162500,0.305836,0.143309,0.312500,0.125000,0.312500,-0.125000,0.310782,-0.134742,0.311361,-0.138024,0.309695,-0.140910,0.307977,-0.150652,0.295451,-0.165579,0.285709,-0.182453,0.279350,-0.184767,0.275000,-0.189952,0.255809,-0.193336,
0.237500,-0.200000,-0.031434,-0.200000,-0.036020,-0.199191,-0.037971,-0.199714,-0.040960,-0.198320,-0.057086,-0.195477,-0.069629,-0.184952,-0.084467,-0.178033,-0.290533,0.028033,-0.293203,0.031847,-0.294953,0.032857,-0.296081,0.035957,-0.305473,0.049370,-0.306900,0.065681,-0.312500,0.081066,-0.312500,0.125000,-0.310782,0.134742,-0.311361,0.138024,-0.309695,0.140910,-0.307977,0.150652,
-0.295451,0.165579,-0.285709,0.182453,-0.279350,0.184767,-0.275000,0.189952,-0.255809,0.193336,-0.237500,0.200000,0.237500,0.200000,0.247242,0.198282,0.247242,0.198282,$1*%
%AMFreePoly4*
4,1,48,-0.076480,0.311691,-0.074530,0.312214,-0.071542,0.310821,-0.055414,0.307977,-0.042870,0.297451,-0.028033,0.290533,0.178033,0.084467,0.180703,0.080653,0.182453,0.079643,0.183581,0.076543,0.192973,0.063130,0.194400,0.046820,0.200000,0.031434,0.200000,-0.237500,0.198282,-0.247242,0.198861,-0.250524,0.197195,-0.253410,0.195477,-0.263152,0.182951,-0.278079,0.173209,-0.294953,
0.166850,-0.297267,0.162500,-0.302452,0.143309,-0.305836,0.125000,-0.312500,-0.125000,-0.312500,-0.134742,-0.310782,-0.138024,-0.311361,-0.140910,-0.309695,-0.150652,-0.307977,-0.165579,-0.295451,-0.182453,-0.285709,-0.184767,-0.279350,-0.189952,-0.275000,-0.193336,-0.255809,-0.200000,-0.237500,-0.200000,0.237500,-0.198282,0.247242,-0.198861,0.250524,-0.197195,0.253410,-0.195477,0.263152,
-0.182951,0.278079,-0.173209,0.294953,-0.166850,0.297267,-0.162500,0.302452,-0.143309,0.305836,-0.125000,0.312500,-0.081066,0.312500,-0.076480,0.311691,-0.076480,0.311691,$1*%
%AMFreePoly5*
4,1,48,0.134742,0.310782,0.138024,0.311361,0.140910,0.309695,0.150652,0.307977,0.165579,0.295451,0.182453,0.285709,0.184767,0.279350,0.189952,0.275000,0.193336,0.255809,0.200000,0.237500,0.200000,-0.237500,0.198282,-0.247242,0.198861,-0.250524,0.197195,-0.253410,0.195477,-0.263152,0.182951,-0.278079,0.173209,-0.294953,0.166850,-0.297267,0.162500,-0.302452,0.143309,-0.305836,
0.125000,-0.312500,-0.125000,-0.312500,-0.134742,-0.310782,-0.138024,-0.311361,-0.140910,-0.309695,-0.150652,-0.307977,-0.165579,-0.295451,-0.182453,-0.285709,-0.184767,-0.279350,-0.189952,-0.275000,-0.193336,-0.255809,-0.200000,-0.237500,-0.200000,0.031434,-0.199191,0.036020,-0.199714,0.037970,-0.198321,0.040958,-0.195477,0.057086,-0.184951,0.069630,-0.178033,0.084467,0.028033,0.290533,
0.031847,0.293203,0.032857,0.294953,0.035957,0.296081,0.049370,0.305473,0.065680,0.306900,0.081066,0.312500,0.125000,0.312500,0.134742,0.310782,0.134742,0.310782,$1*%
%AMFreePoly6*
4,1,48,0.247242,0.198282,0.250524,0.198861,0.253410,0.197195,0.263152,0.195477,0.278079,0.182951,0.294953,0.173209,0.297267,0.166850,0.302452,0.162500,0.305836,0.143309,0.312500,0.125000,0.312500,0.081066,0.311691,0.076480,0.312214,0.074529,0.310820,0.071540,0.307977,0.055414,0.297452,0.042871,0.290533,0.028033,0.084467,-0.178033,0.080653,-0.180703,0.079643,-0.182453,
0.076543,-0.183581,0.063130,-0.192973,0.046819,-0.194400,0.031434,-0.200000,-0.237500,-0.200000,-0.247242,-0.198282,-0.250524,-0.198861,-0.253410,-0.197195,-0.263152,-0.195477,-0.278079,-0.182951,-0.294953,-0.173209,-0.297267,-0.166850,-0.302452,-0.162500,-0.305836,-0.143309,-0.312500,-0.125000,-0.312500,0.125000,-0.310782,0.134742,-0.311361,0.138024,-0.309695,0.140910,-0.307977,0.150652,
-0.295451,0.165579,-0.285709,0.182453,-0.279350,0.184767,-0.275000,0.189952,-0.255809,0.193336,-0.237500,0.200000,0.237500,0.200000,0.247242,0.198282,0.247242,0.198282,$1*%
%AMFreePoly7*
4,1,48,0.036020,0.199191,0.037970,0.199714,0.040958,0.198321,0.057086,0.195477,0.069630,0.184951,0.084467,0.178033,0.290533,-0.028033,0.293203,-0.031847,0.294953,-0.032857,0.296081,-0.035957,0.305473,-0.049370,0.306900,-0.065680,0.312500,-0.081066,0.312500,-0.125000,0.310782,-0.134742,0.311361,-0.138024,0.309695,-0.140910,0.307977,-0.150652,0.295451,-0.165579,0.285709,-0.182453,
0.279350,-0.184767,0.275000,-0.189952,0.255809,-0.193336,0.237500,-0.200000,-0.237500,-0.200000,-0.247242,-0.198282,-0.250524,-0.198861,-0.253410,-0.197195,-0.263152,-0.195477,-0.278079,-0.182951,-0.294953,-0.173209,-0.297267,-0.166850,-0.302452,-0.162500,-0.305836,-0.143309,-0.312500,-0.125000,-0.312500,0.125000,-0.310782,0.134742,-0.311361,0.138024,-0.309695,0.140910,-0.307977,0.150652,
-0.295451,0.165579,-0.285709,0.182453,-0.279350,0.184767,-0.275000,0.189952,-0.255809,0.193336,-0.237500,0.200000,0.031434,0.200000,0.036020,0.199191,0.036020,0.199191,$1*%
G04 Aperture macros list end*
%TA.AperFunction,SMDPad,CuDef*%
%ADD10R,0.850000X1.100000*%
%TD*%
%TA.AperFunction,SMDPad,CuDef*%
%ADD11R,0.750000X1.100000*%
%TD*%
%TA.AperFunction,SMDPad,CuDef*%
%ADD12R,1.200000X1.000000*%
%TD*%
%TA.AperFunction,SMDPad,CuDef*%
%ADD13R,1.550000X1.350000*%
%TD*%
%TA.AperFunction,SMDPad,CuDef*%
%ADD14R,1.900000X1.350000*%
%TD*%
%TA.AperFunction,SMDPad,CuDef*%
%ADD15R,1.170000X1.800000*%
%TD*%
%TA.AperFunction,SMDPad,CuDef*%
%ADD16R,1.350000X0.400000*%
%TD*%
%TA.AperFunction,SMDPad,CuDef*%
%ADD17R,1.900000X1.200000*%
%TD*%
%TA.AperFunction,SMDPad,CuDef*%
%ADD18R,1.900000X1.500000*%
%TD*%
%TA.AperFunction,ComponentPad*%
%ADD19O,1.900000X1.200000*%
%TD*%
%TA.AperFunction,ComponentPad*%
%ADD20C,1.450000*%
%TD*%
%TA.AperFunction,SMDPad,CuDef*%
%ADD21RoundRect,0.135000X0.135000X0.185000X-0.135000X0.185000X-0.135000X-0.185000X0.135000X-0.185000X0*%
%TD*%
%TA.AperFunction,SMDPad,CuDef*%
%ADD22R,0.400000X0.650000*%
%TD*%
%TA.AperFunction,SMDPad,CuDef*%
%ADD23RoundRect,0.150000X0.150000X-0.650000X0.150000X0.650000X-0.150000X0.650000X-0.150000X-0.650000X0*%
%TD*%
%TA.AperFunction,SMDPad,CuDef*%
%ADD24FreePoly0,0.000000*%
%TD*%
%TA.AperFunction,SMDPad,CuDef*%
%ADD25RoundRect,0.085000X-0.085000X-0.227500X0.085000X-0.227500X0.085000X0.227500X-0.085000X0.227500X0*%
%TD*%
%TA.AperFunction,SMDPad,CuDef*%
%ADD26FreePoly1,0.000000*%
%TD*%
%TA.AperFunction,SMDPad,CuDef*%
%ADD27FreePoly2,0.000000*%
%TD*%
%TA.AperFunction,SMDPad,CuDef*%
%ADD28RoundRect,0.085000X-0.227500X-0.085000X0.227500X-0.085000X0.227500X0.085000X-0.227500X0.085000X0*%
%TD*%
%TA.AperFunction,SMDPad,CuDef*%
%ADD29FreePoly3,0.000000*%
%TD*%
%TA.AperFunction,SMDPad,CuDef*%
%ADD30FreePoly4,0.000000*%
%TD*%
%TA.AperFunction,SMDPad,CuDef*%
%ADD31FreePoly5,0.000000*%
%TD*%
%TA.AperFunction,SMDPad,CuDef*%
%ADD32FreePoly6,0.000000*%
%TD*%
%TA.AperFunction,SMDPad,CuDef*%
%ADD33FreePoly7,0.000000*%
%TD*%
%TA.AperFunction,ComponentPad*%
%ADD34C,3.800000*%
%TD*%
%TA.AperFunction,SMDPad,CuDef*%
%ADD35RoundRect,0.140000X0.140000X0.170000X-0.140000X0.170000X-0.140000X-0.170000X0.140000X-0.170000X0*%
%TD*%
%TA.AperFunction,SMDPad,CuDef*%
%ADD36RoundRect,0.135000X-0.185000X0.135000X-0.185000X-0.135000X0.185000X-0.135000X0.185000X0.135000X0*%
%TD*%
%TA.AperFunction,SMDPad,CuDef*%
%ADD37RoundRect,0.140000X0.170000X-0.140000X0.170000X0.140000X-0.170000X0.140000X-0.170000X-0.140000X0*%
%TD*%
%TA.AperFunction,SMDPad,CuDef*%
%ADD38RoundRect,0.135000X0.035355X-0.226274X0.226274X-0.035355X-0.035355X0.226274X-0.226274X0.035355X0*%
%TD*%
%TA.AperFunction,SMDPad,CuDef*%
%ADD39RoundRect,0.135000X-0.135000X-0.185000X0.135000X-0.185000X0.135000X0.185000X-0.135000X0.185000X0*%
%TD*%
%TA.AperFunction,SMDPad,CuDef*%
%ADD40RoundRect,0.147500X0.172500X-0.147500X0.172500X0.147500X-0.172500X0.147500X-0.172500X-0.147500X0*%
%TD*%
%TA.AperFunction,SMDPad,CuDef*%
%ADD41RoundRect,0.050000X-0.309359X0.238649X0.238649X-0.309359X0.309359X-0.238649X-0.238649X0.309359X0*%
%TD*%
%TA.AperFunction,SMDPad,CuDef*%
%ADD42RoundRect,0.050000X-0.309359X-0.238649X-0.238649X-0.309359X0.309359X0.238649X0.238649X0.309359X0*%
%TD*%
%TA.AperFunction,ComponentPad*%
%ADD43C,0.600000*%
%TD*%
%TA.AperFunction,SMDPad,CuDef*%
%ADD44RoundRect,0.144000X-2.059095X0.000000X0.000000X-2.059095X2.059095X0.000000X0.000000X2.059095X0*%
%TD*%
%TA.AperFunction,ComponentPad*%
%ADD45R,1.700000X1.700000*%
%TD*%
%TA.AperFunction,ComponentPad*%
%ADD46O,1.700000X1.700000*%
%TD*%
%TA.AperFunction,SMDPad,CuDef*%
%ADD47RoundRect,0.140000X-0.170000X0.140000X-0.170000X-0.140000X0.170000X-0.140000X0.170000X0.140000X0*%
%TD*%
%TA.AperFunction,SMDPad,CuDef*%
%ADD48RoundRect,0.140000X-0.140000X-0.170000X0.140000X-0.170000X0.140000X0.170000X-0.140000X0.170000X0*%
%TD*%
%TA.AperFunction,ViaPad*%
%ADD49C,0.800000*%
%TD*%
%TA.AperFunction,ViaPad*%
%ADD50C,0.457000*%
%TD*%
%TA.AperFunction,Conductor*%
%ADD51C,0.200000*%
%TD*%
%TA.AperFunction,Conductor*%
%ADD52C,0.400000*%
%TD*%
%TA.AperFunction,Conductor*%
%ADD53C,0.800000*%
%TD*%
%TA.AperFunction,Conductor*%
%ADD54C,0.152400*%
%TD*%
G04 APERTURE END LIST*
D10*
%TO.P,J2,1,DAT2*%
%TO.N,/SD_DAT2*%
X181395000Y-68550000D03*
%TO.P,J2,2,DAT3/CD*%
%TO.N,/SD_DAT3*%
X182495000Y-68550000D03*
%TO.P,J2,3,CMD*%
%TO.N,/SD_CMD*%
X183595000Y-68550000D03*
%TO.P,J2,4,VDD*%
%TO.N,+3.3V*%
X184695000Y-68550000D03*
%TO.P,J2,5,CLK*%
%TO.N,/SD_CLK*%
X185795000Y-68550000D03*
%TO.P,J2,6,VSS*%
%TO.N,GND*%
X186895000Y-68550000D03*
%TO.P,J2,7,DAT0*%
%TO.N,/SD_DAT0*%
X187995000Y-68550000D03*
D11*
%TO.P,J2,8,DAT1*%
%TO.N,/SD_DAT1*%
X189045000Y-68550000D03*
D12*
%TO.P,J2,9,SHIELD*%
%TO.N,GND*%
X178760000Y-74700000D03*
%TO.P,J2,10*%
%TO.N,N/C*%
X178760000Y-78400000D03*
D13*
%TO.P,J2,11*%
X178935000Y-68675000D03*
D14*
X182260000Y-79375000D03*
X188230000Y-79375000D03*
D15*
X190255000Y-68900000D03*
%TD*%
D16*
%TO.P,J1,1,VBUS*%
%TO.N,+5V*%
X187300000Y-95050000D03*
%TO.P,J1,2,D-*%
%TO.N,/USB_D-*%
X187300000Y-94400000D03*
%TO.P,J1,3,D+*%
%TO.N,/USB_D+*%
X187300000Y-93750000D03*
%TO.P,J1,4,ID*%
%TO.N,unconnected-(J1-Pad4)*%
X187300000Y-93100000D03*
%TO.P,J1,5,GND*%
%TO.N,GND*%
X187300000Y-92450000D03*
D17*
%TO.P,J1,6,Shield*%
X190000000Y-90850000D03*
D18*
X190000000Y-94750000D03*
X190000000Y-92750000D03*
D19*
X190000000Y-90250000D03*
X190000000Y-97250000D03*
D17*
X190000000Y-96650000D03*
D20*
X187300000Y-91250000D03*
X187300000Y-96250000D03*
%TD*%
D21*
%TO.P,R2,1*%
%TO.N,+3.3V*%
X188510000Y-120100000D03*
%TO.P,R2,2*%
%TO.N,/I2C0_SDA*%
X187490000Y-120100000D03*
%TD*%
D22*
%TO.P,U1,1,VIN*%
%TO.N,+5V*%
X188650000Y-88550000D03*
%TO.P,U1,2,GND*%
%TO.N,GND*%
X189300000Y-88550000D03*
%TO.P,U1,3,EN*%
%TO.N,+5V*%
X189950000Y-88550000D03*
%TO.P,U1,4,NC*%
%TO.N,unconnected-(U1-Pad4)*%
X189950000Y-86650000D03*
%TO.P,U1,5,VOUT*%
%TO.N,+3.3V*%
X188650000Y-86650000D03*
%TD*%
D23*
%TO.P,U2,1,~{CS}*%
%TO.N,/QSPI_SS*%
X179095000Y-100600000D03*
%TO.P,U2,2,DO(IO1)*%
%TO.N,/QSPI_SD1*%
X180365000Y-100600000D03*
%TO.P,U2,3,IO2*%
%TO.N,/QSPI_SD2*%
X181635000Y-100600000D03*
%TO.P,U2,4,GND*%
%TO.N,GND*%
X182905000Y-100600000D03*
%TO.P,U2,5,DI(IO0)*%
%TO.N,/QSPI_SD0*%
X182905000Y-93400000D03*
%TO.P,U2,6,CLK*%
%TO.N,/QSPI_SCLK*%
X181635000Y-93400000D03*
%TO.P,U2,7,IO3*%
%TO.N,/QSPI_SD3*%
X180365000Y-93400000D03*
%TO.P,U2,8,VCC*%
%TO.N,+3.3V*%
X179095000Y-93400000D03*
%TD*%
D24*
%TO.P,U4,14,SDA*%
%TO.N,/I2C0_SDA*%
X188500000Y-122675000D03*
D25*
%TO.P,U4,13,SCL*%
%TO.N,/I2C0_SCL*%
X189000000Y-122675000D03*
D26*
%TO.P,U4,12,CS*%
%TO.N,+3.3V*%
X189500000Y-122675000D03*
D27*
%TO.P,U4,11,NC*%
%TO.N,unconnected-(U4-Pad11)*%
X190162500Y-122837500D03*
D28*
%TO.P,U4,10,NC*%
%TO.N,unconnected-(U4-Pad10)*%
X190162500Y-123337500D03*
%TO.P,U4,9,INT2*%
%TO.N,unconnected-(U4-Pad9)*%
X190162500Y-123837500D03*
D29*
%TO.P,U4,8,VDD*%
%TO.N,+3.3V*%
X190162500Y-124337500D03*
D30*
%TO.P,U4,7,GND*%
%TO.N,GND*%
X189500000Y-124500000D03*
D25*
%TO.P,U4,6,GND*%
X189000000Y-124500000D03*
D31*
%TO.P,U4,5,VDDIO*%
%TO.N,+3.3V*%
X188500000Y-124500000D03*
D32*
%TO.P,U4,4,INT1*%
%TO.N,unconnected-(U4-Pad4)*%
X187837500Y-124337500D03*
D28*
%TO.P,U4,3,SCX*%
%TO.N,GND*%
X187837500Y-123837500D03*
%TO.P,U4,2,SDX*%
X187837500Y-123337500D03*
D33*
%TO.P,U4,1,SDO/SA0*%
X187837500Y-122837500D03*
%TD*%
D34*
%TO.P,M2,1*%
%TO.N,N/C*%
X188750000Y-83000000D03*
%TD*%
D35*
%TO.P,C3,1*%
%TO.N,+3.3V*%
X187380000Y-86600000D03*
%TO.P,C3,2*%
%TO.N,GND*%
X186420000Y-86600000D03*
%TD*%
D34*
%TO.P,M2,1*%
%TO.N,N/C*%
X180250000Y-83000000D03*
%TD*%
D36*
%TO.P,R7,1*%
%TO.N,/LED*%
X189500000Y-116990000D03*
%TO.P,R7,2*%
%TO.N,Net-(D1-Pad2)*%
X189500000Y-118010000D03*
%TD*%
D34*
%TO.P,M2,1*%
%TO.N,N/C*%
X184250000Y-125250000D03*
%TD*%
D37*
%TO.P,C6,1*%
%TO.N,+3.3V*%
X179100000Y-91780000D03*
%TO.P,C6,2*%
%TO.N,GND*%
X179100000Y-90820000D03*
%TD*%
D21*
%TO.P,R1,1*%
%TO.N,+3.3V*%
X188510000Y-121100000D03*
%TO.P,R1,2*%
%TO.N,/I2C0_SCL*%
X187490000Y-121100000D03*
%TD*%
D38*
%TO.P,R6,1*%
%TO.N,Net-(R6-Pad1)*%
X189239376Y-104810624D03*
%TO.P,R6,2*%
%TO.N,/USB_D-*%
X189960624Y-104089376D03*
%TD*%
D39*
%TO.P,R3,1*%
%TO.N,Net-(JP1-Pad1)*%
X184590000Y-92800000D03*
%TO.P,R3,2*%
%TO.N,GND*%
X185610000Y-92800000D03*
%TD*%
D40*
%TO.P,D1,1,K*%
%TO.N,GND*%
X189500000Y-119985000D03*
%TO.P,D1,2,A*%
%TO.N,Net-(D1-Pad2)*%
X189500000Y-119015000D03*
%TD*%
D38*
%TO.P,R5,2*%
%TO.N,/USB_D+*%
X188860624Y-103639376D03*
%TO.P,R5,1*%
%TO.N,Net-(R5-Pad1)*%
X188139376Y-104360624D03*
%TD*%
D41*
%TO.P,U3,1,IOVDD*%
%TO.N,+3.3V*%
X183657798Y-103230843D03*
%TO.P,U3,2,GPIO0*%
%TO.N,/SD_CLK*%
X183374955Y-103513686D03*
%TO.P,U3,3,GPIO1*%
%TO.N,/SD_DAT0*%
X183092113Y-103796528D03*
%TO.P,U3,4,GPIO2*%
%TO.N,/SD_DAT1*%
X182809270Y-104079371D03*
%TO.P,U3,5,GPIO3*%
%TO.N,/SD_DAT2*%
X182526427Y-104362214D03*
%TO.P,U3,6,GPIO4*%
%TO.N,/SD_DAT3*%
X182243585Y-104645056D03*
%TO.P,U3,7,GPIO5*%
%TO.N,/SD_CMD*%
X181960742Y-104927899D03*
%TO.P,U3,8,GPIO6*%
%TO.N,/I2C0_SDA*%
X181677899Y-105210742D03*
%TO.P,U3,9,GPIO7*%
%TO.N,/I2C0_SCL*%
X181395056Y-105493585D03*
%TO.P,U3,10,IOVDD*%
%TO.N,+3.3V*%
X181112214Y-105776427D03*
%TO.P,U3,11,GPIO8*%
%TO.N,/GPIO8*%
X180829371Y-106059270D03*
%TO.P,U3,12,GPIO9*%
%TO.N,/GPIO9*%
X180546528Y-106342113D03*
%TO.P,U3,13,GPIO10*%
%TO.N,/GPIO10*%
X180263686Y-106624955D03*
%TO.P,U3,14,GPIO11*%
%TO.N,/GPIO11*%
X179980843Y-106907798D03*
D42*
%TO.P,U3,15,GPIO12*%
%TO.N,/GPIO12*%
X179980843Y-108092202D03*
%TO.P,U3,16,GPIO13*%
%TO.N,/GPIO13*%
X180263686Y-108375045D03*
%TO.P,U3,17,GPIO14*%
%TO.N,/GPIO14*%
X180546528Y-108657887D03*
%TO.P,U3,18,GPIO15*%
%TO.N,/GPIO15*%
X180829371Y-108940730D03*
%TO.P,U3,19,TESTEN*%
%TO.N,GND*%
X181112214Y-109223573D03*
%TO.P,U3,20,XIN*%
%TO.N,Net-(C4-Pad2)*%
X181395056Y-109506415D03*
%TO.P,U3,21,XOUT*%
%TO.N,Net-(R4-Pad2)*%
X181677899Y-109789258D03*
%TO.P,U3,22,IOVDD*%
%TO.N,+3.3V*%
X181960742Y-110072101D03*
%TO.P,U3,23,DVDD*%
%TO.N,Net-(C7-Pad1)*%
X182243585Y-110354944D03*
%TO.P,U3,24,SWCLK*%
%TO.N,/SWCLK*%
X182526427Y-110637786D03*
%TO.P,U3,25,SWD*%
%TO.N,/SWD*%
X182809270Y-110920629D03*
%TO.P,U3,26,RUN*%
%TO.N,/RUN*%
X183092113Y-111203472D03*
%TO.P,U3,27,GPIO16*%
%TO.N,/GPIO16*%
X183374955Y-111486314D03*
%TO.P,U3,28,GPIO17*%
%TO.N,/GPIO17*%
X183657798Y-111769157D03*
D41*
%TO.P,U3,29,GPIO18*%
%TO.N,/GPIO18*%
X184842202Y-111769157D03*
%TO.P,U3,30,GPIO19*%
%TO.N,/GPIO19*%
X185125045Y-111486314D03*
%TO.P,U3,31,GPIO20*%
%TO.N,/GPIO20*%
X185407887Y-111203472D03*
%TO.P,U3,32,GPIO21*%
%TO.N,/GPIO21*%
X185690730Y-110920629D03*
%TO.P,U3,33,IOVDD*%
%TO.N,+3.3V*%
X185973573Y-110637786D03*
%TO.P,U3,34,GPIO22*%
%TO.N,/GPIO22*%
X186256415Y-110354944D03*
%TO.P,U3,35,GPIO23*%
%TO.N,/GPIO23*%
X186539258Y-110072101D03*
%TO.P,U3,36,GPIO24*%
%TO.N,/GPIO24*%
X186822101Y-109789258D03*
%TO.P,U3,37,GPIO25*%
%TO.N,/LED*%
X187104944Y-109506415D03*
%TO.P,U3,38,GPIO26_ADC0*%
%TO.N,/GPIO26*%
X187387786Y-109223573D03*
%TO.P,U3,39,GPIO27_ADC1*%
%TO.N,/GPIO27*%
X187670629Y-108940730D03*
%TO.P,U3,40,GPIO28_ADC2*%
%TO.N,/GPIO28*%
X187953472Y-108657887D03*
%TO.P,U3,41,GPIO29_ADC3*%
%TO.N,/GPIO29*%
X188236314Y-108375045D03*
%TO.P,U3,42,IOVDD*%
%TO.N,+3.3V*%
X188519157Y-108092202D03*
D42*
%TO.P,U3,43,ADC_AVDD*%
X188519157Y-106907798D03*
%TO.P,U3,44,VREG_IN*%
X188236314Y-106624955D03*
%TO.P,U3,45,VREG_VOUT*%
%TO.N,Net-(C7-Pad1)*%
X187953472Y-106342113D03*
%TO.P,U3,46,USB_DM*%
%TO.N,Net-(R6-Pad1)*%
X187670629Y-106059270D03*
%TO.P,U3,47,USB_DP*%
%TO.N,Net-(R5-Pad1)*%
X187387786Y-105776427D03*
%TO.P,U3,48,USB_VDD*%
%TO.N,+3.3V*%
X187104944Y-105493585D03*
%TO.P,U3,49,IOVDD*%
X186822101Y-105210742D03*
%TO.P,U3,50,DVDD*%
%TO.N,Net-(C7-Pad1)*%
X186539258Y-104927899D03*
%TO.P,U3,51,QSPI_SD3*%
%TO.N,/QSPI_SD3*%
X186256415Y-104645056D03*
%TO.P,U3,52,QSPI_SCLK*%
%TO.N,/QSPI_SCLK*%
X185973573Y-104362214D03*
%TO.P,U3,53,QSPI_SD0*%
%TO.N,/QSPI_SD0*%
X185690730Y-104079371D03*
%TO.P,U3,54,QSPI_SD2*%
%TO.N,/QSPI_SD2*%
X185407887Y-103796528D03*
%TO.P,U3,55,QSPI_SD1*%
%TO.N,/QSPI_SD1*%
X185125045Y-103513686D03*
%TO.P,U3,56,QSPI_SS*%
%TO.N,/QSPI_SS*%
X184842202Y-103230843D03*
D43*
%TO.P,U3,57,GND*%
%TO.N,GND*%
X184250000Y-107500000D03*
X182446878Y-107500000D03*
X183348439Y-108401561D03*
X184250000Y-109303122D03*
X185151561Y-106598439D03*
X185151561Y-108401561D03*
X184250000Y-105696878D03*
D44*
X184250000Y-107500000D03*
D43*
X183348439Y-106598439D03*
X186053122Y-107500000D03*
%TD*%
D45*
%TO.P,JP1,1,A*%
%TO.N,Net-(JP1-Pad1)*%
X184075000Y-90400000D03*
D46*
%TO.P,JP1,2,B*%
%TO.N,/QSPI_SS*%
X181535000Y-90400000D03*
%TD*%
D47*
%TO.P,C13,1*%
%TO.N,+3.3V*%
X190400000Y-125570000D03*
%TO.P,C13,2*%
%TO.N,GND*%
X190400000Y-126530000D03*
%TD*%
D35*
%TO.P,C1,1*%
%TO.N,+5V*%
X187380000Y-88700000D03*
%TO.P,C1,2*%
%TO.N,GND*%
X186420000Y-88700000D03*
%TD*%
D45*
%TO.P,JP2,1,A*%
%TO.N,GND*%
X180000000Y-123540000D03*
D46*
%TO.P,JP2,2,B*%
%TO.N,/RUN*%
X180000000Y-121000000D03*
%TD*%
D48*
%TO.P,C11,1*%
%TO.N,+3.3V*%
X188490000Y-125587500D03*
%TO.P,C11,2*%
%TO.N,GND*%
X189450000Y-125587500D03*
%TD*%
D49*
%TO.N,GND*%
X179100000Y-90000000D03*
D50*
X184650000Y-119450000D03*
X184650000Y-117450000D03*
D49*
X186550000Y-87650000D03*
D50*
X188500000Y-123337500D03*
D49*
X182900000Y-99300000D03*
X180000000Y-74700000D03*
D50*
X189850000Y-126150000D03*
X184650000Y-121450000D03*
X183850000Y-117450000D03*
X183850000Y-119450000D03*
X189500000Y-120650000D03*
X184625000Y-113675000D03*
D49*
X186900000Y-69900000D03*
D50*
X181600000Y-108700000D03*
X186500000Y-102700000D03*
X190600000Y-107500000D03*
X189000000Y-123837500D03*
X183850000Y-121450000D03*
X178200000Y-106900000D03*
X190600000Y-108900000D03*
X184250000Y-122100000D03*
%TO.N,+3.3V*%
X182500000Y-109500000D03*
D49*
X178300000Y-93400000D03*
D50*
X186500000Y-105800000D03*
X184200000Y-103800000D03*
X189000000Y-107300000D03*
X188000000Y-124887500D03*
D49*
X184700000Y-69800000D03*
D50*
X188000000Y-107600000D03*
X181400000Y-106900000D03*
X188900000Y-106100000D03*
D49*
X188700000Y-85800000D03*
D50*
X190150000Y-124887500D03*
X183300000Y-114550000D03*
X185100000Y-109500000D03*
%TO.N,Net-(C4-Pad2)*%
X180700000Y-110000000D03*
%TO.N,Net-(C7-Pad1)*%
X187150000Y-104500000D03*
X189050000Y-105500000D03*
X183360589Y-109660589D03*
%TO.N,/SD_DAT2*%
X181050000Y-103000000D03*
X180600000Y-89600000D03*
%TO.N,/SD_DAT3*%
X180600000Y-88950000D03*
X180450000Y-103000000D03*
%TO.N,/SD_CMD*%
X179850000Y-103000000D03*
X180600000Y-88300000D03*
%TO.N,/SD_CLK*%
X184850000Y-87850000D03*
X182900000Y-103000000D03*
%TO.N,/SD_DAT0*%
X184850000Y-88500000D03*
X182250000Y-103000000D03*
%TO.N,/SD_DAT1*%
X181650000Y-103000000D03*
X184850000Y-89150000D03*
%TO.N,/GPIO29*%
X189850000Y-114750000D03*
%TO.N,/GPIO28*%
X189500000Y-115250000D03*
%TO.N,/GPIO12*%
X179000000Y-115250000D03*
%TO.N,/GPIO27*%
X189150000Y-115750000D03*
%TO.N,/GPIO13*%
X179350000Y-115750000D03*
%TO.N,/GPIO26*%
X188800000Y-116250000D03*
%TO.N,/GPIO14*%
X179700000Y-116250000D03*
%TO.N,/LED*%
X188450000Y-116750000D03*
%TO.N,/GPIO15*%
X180050000Y-116750000D03*
%TO.N,/GPIO24*%
X188100000Y-117250000D03*
%TO.N,/SWCLK*%
X180400000Y-117250000D03*
%TO.N,/GPIO23*%
X187750000Y-117750000D03*
%TO.N,/SWD*%
X180750000Y-117750000D03*
%TO.N,/GPIO22*%
X187400000Y-118250000D03*
%TO.N,/RUN*%
X181100000Y-118250000D03*
%TO.N,/GPIO21*%
X187050000Y-118750000D03*
%TO.N,/GPIO16*%
X181450000Y-118750000D03*
%TO.N,/GPIO20*%
X186700000Y-119250000D03*
%TO.N,/GPIO17*%
X181800000Y-119250000D03*
%TO.N,/GPIO19*%
X186350000Y-119750000D03*
%TO.N,/GPIO11*%
X182150000Y-119750000D03*
X178500000Y-105750000D03*
%TO.N,/GPIO18*%
X186000000Y-120250000D03*
%TO.N,/GPIO10*%
X179050000Y-105550000D03*
X182500000Y-120250000D03*
%TO.N,/I2C0_SDA*%
X185800000Y-120800000D03*
X187800000Y-122100000D03*
X180750000Y-104450000D03*
%TO.N,/GPIO9*%
X182700000Y-120800000D03*
X179650000Y-105500000D03*
%TO.N,/I2C0_SCL*%
X180850000Y-105050000D03*
X185750000Y-121400000D03*
%TO.N,/GPIO8*%
X180300000Y-105500000D03*
X182750000Y-121400000D03*
%TO.N,Net-(R4-Pad2)*%
X181200000Y-110400000D03*
%TO.N,/QSPI_SCLK*%
X182400000Y-98100000D03*
X183400000Y-98100000D03*
%TO.N,/QSPI_SD3*%
X181100000Y-97600000D03*
X183900000Y-97600000D03*
%TD*%
D51*
%TO.N,+5V*%
X188650000Y-88550000D02*
X188650000Y-88150000D01*
X189700000Y-87900000D02*
X189950000Y-88150000D01*
D52*
X187300000Y-95050000D02*
X188150000Y-95050000D01*
X188500000Y-88700000D02*
X188650000Y-88550000D01*
D51*
X188650000Y-88150000D02*
X188900000Y-87900000D01*
X189950000Y-88150000D02*
X189950000Y-88550000D01*
D52*
X188150000Y-95050000D02*
X188650000Y-94550000D01*
X188650000Y-94550000D02*
X188650000Y-88550000D01*
X187380000Y-88700000D02*
X188500000Y-88700000D01*
D51*
X188900000Y-87900000D02*
X189700000Y-87900000D01*
%TO.N,GND*%
X181112214Y-109187786D02*
X181600000Y-108700000D01*
D52*
X182905000Y-100600000D02*
X182905000Y-99305000D01*
X189300000Y-89550000D02*
X190000000Y-90250000D01*
X179100000Y-90820000D02*
X179100000Y-90000000D01*
X186420000Y-86600000D02*
X186420000Y-87520000D01*
D51*
X187837500Y-123837500D02*
X187837500Y-123337500D01*
X189910000Y-126040000D02*
X189850000Y-126100000D01*
X181112214Y-109223573D02*
X181112214Y-109187786D01*
X185650000Y-92450000D02*
X187300000Y-92450000D01*
D52*
X186900000Y-69900000D02*
X186895000Y-69895000D01*
D51*
X189450000Y-125587500D02*
X189457500Y-125587500D01*
X185610000Y-92800000D02*
X185610000Y-92510000D01*
D52*
X186420000Y-87520000D02*
X186550000Y-87650000D01*
D51*
X185600000Y-92500000D02*
X185650000Y-92450000D01*
D52*
X190000000Y-94750000D02*
X190000000Y-96650000D01*
X186420000Y-88700000D02*
X186420000Y-87780000D01*
D51*
X189000000Y-124500000D02*
X189000000Y-123837500D01*
X189000000Y-124500000D02*
X189500000Y-124500000D01*
X187837500Y-123337500D02*
X188500000Y-123337500D01*
D52*
X190000000Y-92750000D02*
X190000000Y-90850000D01*
D51*
X185610000Y-92510000D02*
X185600000Y-92500000D01*
X189500000Y-119985000D02*
X189500000Y-120650000D01*
D52*
X187300000Y-92450000D02*
X187300000Y-91250000D01*
X186895000Y-69895000D02*
X186895000Y-68550000D01*
X190000000Y-94750000D02*
X190000000Y-92750000D01*
X189300000Y-88550000D02*
X189300000Y-89550000D01*
D51*
X189850000Y-126100000D02*
X189850000Y-126150000D01*
X189910000Y-126040000D02*
X190400000Y-126530000D01*
D52*
X182905000Y-99305000D02*
X182900000Y-99300000D01*
D51*
X187837500Y-122837500D02*
X187837500Y-123337500D01*
X178760000Y-74700000D02*
X180000000Y-74700000D01*
X189457500Y-125587500D02*
X189910000Y-126040000D01*
D52*
X186420000Y-87780000D02*
X186550000Y-87650000D01*
D51*
%TO.N,+3.3V*%
X186500000Y-105800000D02*
X186798529Y-105800000D01*
X188000000Y-107600000D02*
X188492202Y-108092202D01*
D52*
X188700000Y-86600000D02*
X188700000Y-85800000D01*
D51*
X188490000Y-124510000D02*
X188500000Y-124500000D01*
X186500000Y-105532843D02*
X186822101Y-105210742D01*
X190162500Y-124337500D02*
X190162500Y-124875000D01*
X184200000Y-103800000D02*
X183657798Y-103257798D01*
X181960742Y-110039258D02*
X182500000Y-109500000D01*
X190462500Y-124337500D02*
X190750000Y-124050000D01*
X186500000Y-105800000D02*
X186500000Y-105532843D01*
X188510000Y-120100000D02*
X188510000Y-121100000D01*
D52*
X184700000Y-68555000D02*
X184695000Y-68550000D01*
D51*
X188500000Y-124500000D02*
X188112500Y-124887500D01*
D52*
X179100000Y-91780000D02*
X179100000Y-93395000D01*
D51*
X189500000Y-121600000D02*
X189500000Y-122675000D01*
X189787500Y-122387500D02*
X189500000Y-122675000D01*
D52*
X184700000Y-69800000D02*
X184700000Y-68555000D01*
D51*
X190162500Y-124875000D02*
X190150000Y-124887500D01*
X189000000Y-107300000D02*
X188607798Y-106907798D01*
D52*
X188650000Y-86650000D02*
X188700000Y-86600000D01*
D51*
X190550000Y-122387500D02*
X189787500Y-122387500D01*
X190400000Y-125570000D02*
X190400000Y-125137500D01*
D52*
X179100000Y-93395000D02*
X179095000Y-93400000D01*
D51*
X190162500Y-124337500D02*
X190462500Y-124337500D01*
X190750000Y-124050000D02*
X190750000Y-122587500D01*
X185100000Y-109764213D02*
X185973573Y-110637786D01*
X188112500Y-124887500D02*
X188000000Y-124887500D01*
D52*
X187380000Y-86600000D02*
X188600000Y-86600000D01*
D51*
X181400000Y-106900000D02*
X181500000Y-106800000D01*
X190400000Y-125137500D02*
X190150000Y-124887500D01*
D52*
X188600000Y-86600000D02*
X188650000Y-86650000D01*
D51*
X188492202Y-108092202D02*
X188519157Y-108092202D01*
X186798529Y-105800000D02*
X187104944Y-105493585D01*
X190750000Y-122587500D02*
X190550000Y-122387500D01*
X188607798Y-106907798D02*
X188519157Y-106907798D01*
X181960742Y-110072101D02*
X181960742Y-110039258D01*
X183657798Y-103257798D02*
X183657798Y-103230843D01*
X181500000Y-106800000D02*
X181500000Y-106164213D01*
X188761269Y-106100000D02*
X188236314Y-106624955D01*
D52*
X179095000Y-93400000D02*
X178300000Y-93400000D01*
D51*
X189000000Y-121100000D02*
X189500000Y-121600000D01*
X188900000Y-106100000D02*
X188761269Y-106100000D01*
X181500000Y-106164213D02*
X181112214Y-105776427D01*
X188490000Y-125587500D02*
X188490000Y-124510000D01*
X188510000Y-121100000D02*
X189000000Y-121100000D01*
X185100000Y-109500000D02*
X185100000Y-109764213D01*
%TO.N,Net-(C4-Pad2)*%
X180901471Y-110000000D02*
X180700000Y-110000000D01*
X181395056Y-109506415D02*
X180901471Y-110000000D01*
%TO.N,Net-(C7-Pad1)*%
X182345056Y-110354944D02*
X183039411Y-109660589D01*
X188650000Y-105650000D02*
X188750000Y-105550000D01*
X186539258Y-104927899D02*
X186539258Y-104860742D01*
X188750000Y-105550000D02*
X189000000Y-105550000D01*
X186900000Y-104500000D02*
X187150000Y-104500000D01*
X187957887Y-106342113D02*
X188650000Y-105650000D01*
X189000000Y-105550000D02*
X189050000Y-105500000D01*
X182243585Y-110354944D02*
X182345056Y-110354944D01*
X186539258Y-104860742D02*
X186900000Y-104500000D01*
X187953472Y-106342113D02*
X187957887Y-106342113D01*
X183039411Y-109660589D02*
X183360589Y-109660589D01*
%TO.N,Net-(D1-Pad2)*%
X189500000Y-118010000D02*
X189500000Y-119015000D01*
D52*
%TO.N,/USB_D-*%
X185750000Y-94750000D02*
X186100000Y-94400000D01*
D53*
X185750000Y-96503123D02*
X189860624Y-100613747D01*
X189860624Y-100613747D02*
X189860624Y-103989376D01*
D52*
X186100000Y-94400000D02*
X187300000Y-94400000D01*
D53*
X185750000Y-94750000D02*
X185750000Y-96503123D01*
X189860624Y-103989376D02*
X189960624Y-104089376D01*
D52*
%TO.N,/USB_D+*%
X185406497Y-93750000D02*
X187300000Y-93750000D01*
D53*
X188910624Y-101007249D02*
X185201687Y-97298312D01*
X188910624Y-101250000D02*
X188910624Y-101007249D01*
X185201687Y-97298312D02*
X184800000Y-96896625D01*
D52*
X185203249Y-93953248D02*
X185406497Y-93750000D01*
D53*
X184800000Y-94356497D02*
X185203249Y-93953248D01*
X184800000Y-96896625D02*
X184800000Y-94356497D01*
X188860624Y-103639376D02*
X188910624Y-103589376D01*
X188910624Y-103589376D02*
X188910624Y-101250000D01*
D51*
%TO.N,/SD_DAT2*%
X182526427Y-104362214D02*
X182512214Y-104362214D01*
X179750000Y-88750000D02*
X179750000Y-86750000D01*
X183500000Y-83000000D02*
X183500000Y-75100000D01*
X183500000Y-75100000D02*
X181395000Y-72995000D01*
X182512214Y-104362214D02*
X181950000Y-103800000D01*
X181750000Y-103800000D02*
X181050000Y-103100000D01*
X179750000Y-86750000D02*
X183500000Y-83000000D01*
X181050000Y-103100000D02*
X181050000Y-103000000D01*
X181395000Y-72995000D02*
X181395000Y-68550000D01*
X181950000Y-103800000D02*
X181750000Y-103800000D01*
X180600000Y-89600000D02*
X179750000Y-88750000D01*
%TO.N,/SD_DAT3*%
X181600000Y-104150000D02*
X181000000Y-103550000D01*
X183900000Y-75000000D02*
X182495000Y-73595000D01*
X181750000Y-104150000D02*
X181700000Y-104150000D01*
X180450000Y-103200000D02*
X180450000Y-103000000D01*
X180100000Y-88450000D02*
X180100000Y-86900000D01*
X180600000Y-88950000D02*
X180100000Y-88450000D01*
X183900000Y-83100000D02*
X183900000Y-75000000D01*
X181850000Y-104250000D02*
X181750000Y-104150000D01*
X180100000Y-86900000D02*
X183900000Y-83100000D01*
X181700000Y-104150000D02*
X181600000Y-104150000D01*
X180900000Y-103450000D02*
X180700000Y-103450000D01*
X182243585Y-104643585D02*
X181850000Y-104250000D01*
X182243585Y-104645056D02*
X182243585Y-104643585D01*
X181000000Y-103550000D02*
X180900000Y-103450000D01*
X180700000Y-103450000D02*
X180450000Y-103200000D01*
X182495000Y-73595000D02*
X182495000Y-68550000D01*
%TO.N,/SD_CMD*%
X181960742Y-104927899D02*
X181960742Y-104910742D01*
X180600000Y-86900000D02*
X184300000Y-83200000D01*
X184300000Y-74900000D02*
X183595000Y-74195000D01*
X180750000Y-103800000D02*
X180500000Y-103800000D01*
X181450000Y-104500000D02*
X180750000Y-103800000D01*
X184300000Y-83200000D02*
X184300000Y-74900000D01*
X180600000Y-88300000D02*
X180600000Y-86900000D01*
X181550000Y-104500000D02*
X181450000Y-104500000D01*
X180500000Y-103800000D02*
X179850000Y-103150000D01*
X183595000Y-74195000D02*
X183595000Y-68550000D01*
X181960742Y-104910742D02*
X181550000Y-104500000D01*
X179850000Y-103150000D02*
X179850000Y-103000000D01*
%TO.N,/SD_CLK*%
X185795000Y-74755000D02*
X185795000Y-68550000D01*
X183374955Y-103474955D02*
X182900000Y-103000000D01*
X183374955Y-103513686D02*
X183374955Y-103474955D01*
X184850000Y-87850000D02*
X184850000Y-75700000D01*
X184850000Y-75700000D02*
X185795000Y-74755000D01*
%TO.N,/SD_DAT0*%
X185350000Y-88000000D02*
X185350000Y-76800000D01*
X183046528Y-103796528D02*
X182250000Y-103000000D01*
X183092113Y-103796528D02*
X183046528Y-103796528D01*
X184850000Y-88500000D02*
X185350000Y-88000000D01*
X187995000Y-74155000D02*
X187995000Y-68550000D01*
X185350000Y-76800000D02*
X187995000Y-74155000D01*
%TO.N,/SD_DAT1*%
X182779371Y-104079371D02*
X182250000Y-103550000D01*
X185700000Y-88300000D02*
X185700000Y-76950000D01*
X181650000Y-103200000D02*
X181650000Y-103000000D01*
X181900000Y-103450000D02*
X181650000Y-103200000D01*
X185700000Y-76950000D02*
X189045000Y-73605000D01*
X182809270Y-104079371D02*
X182779371Y-104079371D01*
X189045000Y-73605000D02*
X189045000Y-68550000D01*
X184850000Y-89150000D02*
X185700000Y-88300000D01*
X182250000Y-103550000D02*
X182150000Y-103450000D01*
X182150000Y-103450000D02*
X181900000Y-103450000D01*
%TO.N,/GPIO29*%
X189700000Y-109838731D02*
X189700000Y-114450000D01*
X189700000Y-114600000D02*
X189850000Y-114750000D01*
X188236314Y-108375045D02*
X189700000Y-109838731D01*
X189700000Y-114450000D02*
X189700000Y-114600000D01*
%TO.N,/GPIO28*%
X187953472Y-108657887D02*
X189350000Y-110054415D01*
X189350000Y-110054415D02*
X189350000Y-114250000D01*
X189350000Y-115100000D02*
X189500000Y-115250000D01*
X189350000Y-114250000D02*
X189350000Y-115100000D01*
%TO.N,/GPIO12*%
X179980843Y-108092202D02*
X179150000Y-108923045D01*
X179150000Y-115100000D02*
X179000000Y-115250000D01*
X179150000Y-114900000D02*
X179150000Y-115100000D01*
X179150000Y-108923045D02*
X179150000Y-114900000D01*
%TO.N,/GPIO27*%
X189000000Y-115600000D02*
X189150000Y-115750000D01*
X189000000Y-115400000D02*
X189000000Y-115600000D01*
X187670629Y-108940730D02*
X189000000Y-110270101D01*
X189000000Y-110270101D02*
X189000000Y-115400000D01*
%TO.N,/GPIO13*%
X179500000Y-109138731D02*
X179500000Y-115450000D01*
X179500000Y-115450000D02*
X179500000Y-115600000D01*
X179500000Y-115600000D02*
X179350000Y-115750000D01*
X180263686Y-108375045D02*
X179500000Y-109138731D01*
%TO.N,/GPIO26*%
X188650000Y-110485787D02*
X188650000Y-115750000D01*
X187387786Y-109223573D02*
X188650000Y-110485787D01*
X188650000Y-116100000D02*
X188800000Y-116250000D01*
X188650000Y-115750000D02*
X188650000Y-116100000D01*
%TO.N,/GPIO14*%
X179850000Y-116100000D02*
X179700000Y-116250000D01*
X179850000Y-109354415D02*
X179850000Y-115800000D01*
X179850000Y-115800000D02*
X179850000Y-116100000D01*
X180546528Y-108657887D02*
X179850000Y-109354415D01*
%TO.N,/LED*%
X187104944Y-109506415D02*
X188300000Y-110701471D01*
X188300000Y-110701471D02*
X188300000Y-116400000D01*
X188450000Y-116750000D02*
X189260000Y-116750000D01*
X188300000Y-116600000D02*
X188450000Y-116750000D01*
X189260000Y-116750000D02*
X189500000Y-116990000D01*
X188300000Y-116400000D02*
X188300000Y-116600000D01*
%TO.N,/GPIO15*%
X180200000Y-116200000D02*
X180200000Y-116600000D01*
X180200000Y-112800000D02*
X180200000Y-116200000D01*
X180200000Y-109570101D02*
X180200000Y-112800000D01*
X180829371Y-108940730D02*
X180200000Y-109570101D01*
X180200000Y-116600000D02*
X180050000Y-116750000D01*
%TO.N,/GPIO24*%
X187950000Y-117100000D02*
X188100000Y-117250000D01*
X186822101Y-109789258D02*
X187950000Y-110917157D01*
X187950000Y-116750000D02*
X187950000Y-117100000D01*
X187950000Y-110917157D02*
X187950000Y-116750000D01*
%TO.N,/SWCLK*%
X180550000Y-112614213D02*
X180550000Y-116900000D01*
X180550000Y-116900000D02*
X180550000Y-117100000D01*
X180550000Y-117100000D02*
X180400000Y-117250000D01*
X182526427Y-110637786D02*
X180550000Y-112614213D01*
%TO.N,/GPIO23*%
X186539258Y-110072101D02*
X187600000Y-111132843D01*
X187600000Y-111132843D02*
X187600000Y-117400000D01*
X187600000Y-117600000D02*
X187750000Y-117750000D01*
X187600000Y-117400000D02*
X187600000Y-117600000D01*
%TO.N,/SWD*%
X180900000Y-117400000D02*
X180900000Y-117600000D01*
X182809270Y-110920629D02*
X180900000Y-112829899D01*
X180900000Y-112829899D02*
X180900000Y-117400000D01*
X180900000Y-117600000D02*
X180750000Y-117750000D01*
%TO.N,/GPIO22*%
X187250000Y-111348529D02*
X187250000Y-112400000D01*
X187250000Y-118100000D02*
X187400000Y-118250000D01*
X186256415Y-110354944D02*
X187250000Y-111348529D01*
X187250000Y-112400000D02*
X187250000Y-118100000D01*
%TO.N,/RUN*%
X181250000Y-116900000D02*
X181250000Y-118100000D01*
X183092113Y-111203472D02*
X181250000Y-113045585D01*
X181250000Y-113045585D02*
X181250000Y-116900000D01*
X180000000Y-119350000D02*
X181100000Y-118250000D01*
X180000000Y-121000000D02*
X180000000Y-119350000D01*
X181250000Y-118100000D02*
X181100000Y-118250000D01*
%TO.N,/GPIO21*%
X186900000Y-112150000D02*
X186900000Y-112650000D01*
X185690730Y-110920629D02*
X185690730Y-110940730D01*
X185690730Y-110940730D02*
X186450000Y-111700000D01*
X186900000Y-112650000D02*
X186900000Y-118600000D01*
X186900000Y-118600000D02*
X187050000Y-118750000D01*
X186450000Y-111700000D02*
X186900000Y-112150000D01*
%TO.N,/GPIO16*%
X181600000Y-118600000D02*
X181450000Y-118750000D01*
X181600000Y-113261269D02*
X181600000Y-118250000D01*
X183374955Y-111486314D02*
X181600000Y-113261269D01*
X181600000Y-118250000D02*
X181600000Y-118600000D01*
%TO.N,/GPIO20*%
X185407887Y-111207887D02*
X186200000Y-112000000D01*
X186550000Y-112750000D02*
X186550000Y-119100000D01*
X185407887Y-111203472D02*
X185407887Y-111207887D01*
X186550000Y-119100000D02*
X186700000Y-119250000D01*
X186200000Y-112000000D02*
X186550000Y-112350000D01*
X186550000Y-112350000D02*
X186550000Y-112750000D01*
%TO.N,/GPIO17*%
X181950000Y-113476955D02*
X181950000Y-118350000D01*
X181950000Y-118350000D02*
X181950000Y-119100000D01*
X181950000Y-119100000D02*
X181800000Y-119250000D01*
X183657798Y-111769157D02*
X181950000Y-113476955D01*
%TO.N,/GPIO19*%
X186200000Y-119600000D02*
X186350000Y-119750000D01*
X186200000Y-113050000D02*
X186200000Y-119600000D01*
X186200000Y-112550000D02*
X186200000Y-113050000D01*
X185125045Y-111486314D02*
X185136314Y-111486314D01*
X185136314Y-111486314D02*
X185950000Y-112300000D01*
X185950000Y-112300000D02*
X186200000Y-112550000D01*
%TO.N,/GPIO11*%
X179657798Y-106907798D02*
X178500000Y-105750000D01*
X179980843Y-106907798D02*
X179657798Y-106907798D01*
%TO.N,/GPIO18*%
X185850000Y-112750000D02*
X185850000Y-119800000D01*
X185500000Y-112400000D02*
X185850000Y-112750000D01*
X185850000Y-119800000D02*
X185850000Y-120100000D01*
X184842202Y-111769157D02*
X184869157Y-111769157D01*
X184869157Y-111769157D02*
X185500000Y-112400000D01*
X185850000Y-120100000D02*
X186000000Y-120250000D01*
%TO.N,/GPIO10*%
X179700000Y-106050000D02*
X179650000Y-106000000D01*
X180263686Y-106624955D02*
X180263686Y-106613686D01*
X179650000Y-106000000D02*
X179500000Y-106000000D01*
X180263686Y-106613686D02*
X179700000Y-106050000D01*
X179500000Y-106000000D02*
X179050000Y-105550000D01*
%TO.N,/I2C0_SDA*%
X188375000Y-122675000D02*
X188500000Y-122675000D01*
X181150000Y-104700000D02*
X180900000Y-104450000D01*
X185800000Y-120800000D02*
X186790000Y-120800000D01*
X180900000Y-104450000D02*
X180750000Y-104450000D01*
X186790000Y-120800000D02*
X187490000Y-120100000D01*
X181677899Y-105210742D02*
X181660742Y-105210742D01*
X187800000Y-122100000D02*
X188375000Y-122675000D01*
X181660742Y-105210742D02*
X181150000Y-104700000D01*
%TO.N,/GPIO9*%
X180492113Y-106342113D02*
X179650000Y-105500000D01*
X180546528Y-106342113D02*
X180542113Y-106342113D01*
D54*
X180546528Y-106342113D02*
X180535474Y-106342113D01*
D51*
X180546528Y-106342113D02*
X180492113Y-106342113D01*
%TO.N,/I2C0_SCL*%
X187500000Y-121100000D02*
X188300000Y-121900000D01*
X188600000Y-121900000D02*
X189000000Y-122300000D01*
X187190000Y-121400000D02*
X187490000Y-121100000D01*
X188300000Y-121900000D02*
X188600000Y-121900000D01*
X187490000Y-121100000D02*
X187500000Y-121100000D01*
X185750000Y-121400000D02*
X187190000Y-121400000D01*
X181293585Y-105493585D02*
X180850000Y-105050000D01*
X189000000Y-122300000D02*
X189000000Y-122675000D01*
X181395056Y-105493585D02*
X181293585Y-105493585D01*
%TO.N,/GPIO8*%
X180829371Y-106029371D02*
X180300000Y-105500000D01*
X180829371Y-106059270D02*
X180829371Y-106029371D01*
%TO.N,Net-(JP1-Pad1)*%
X184075000Y-92285000D02*
X184590000Y-92800000D01*
X184075000Y-90400000D02*
X184075000Y-92285000D01*
%TO.N,/QSPI_SS*%
X179095000Y-100600000D02*
X179095000Y-97905000D01*
X179095000Y-101495000D02*
X179095000Y-100600000D01*
X185200000Y-102900000D02*
X185200000Y-102700000D01*
X184869157Y-103230843D02*
X185200000Y-102900000D01*
X185000000Y-102500000D02*
X180100000Y-102500000D01*
X179800000Y-97200000D02*
X179800000Y-92135000D01*
X180100000Y-102500000D02*
X179095000Y-101495000D01*
X179095000Y-97905000D02*
X179800000Y-97200000D01*
X185200000Y-102700000D02*
X185000000Y-102500000D01*
X184842202Y-103230843D02*
X184869157Y-103230843D01*
X179800000Y-92135000D02*
X181535000Y-90400000D01*
%TO.N,Net-(R4-Pad2)*%
X181610742Y-109789258D02*
X181200000Y-110200000D01*
X181200000Y-110200000D02*
X181200000Y-110400000D01*
X181677899Y-109789258D02*
X181610742Y-109789258D01*
%TO.N,Net-(R5-Pad1)*%
X187423573Y-105776427D02*
X187387786Y-105776427D01*
X188139376Y-105060624D02*
X187423573Y-105776427D01*
X188139376Y-104360624D02*
X188139376Y-105060624D01*
%TO.N,Net-(R6-Pad1)*%
X187690730Y-106059270D02*
X188939376Y-104810624D01*
X188939376Y-104810624D02*
X189239376Y-104810624D01*
X187670629Y-106059270D02*
X187690730Y-106059270D01*
%TO.N,/QSPI_SD1*%
X180800000Y-102100000D02*
X180365000Y-101665000D01*
X185125045Y-103513686D02*
X185186314Y-103513686D01*
X185186314Y-103513686D02*
X185600000Y-103100000D01*
X185600000Y-103100000D02*
X185600000Y-102600000D01*
X185100000Y-102100000D02*
X180800000Y-102100000D01*
X185600000Y-102600000D02*
X185100000Y-102100000D01*
X180365000Y-101665000D02*
X180365000Y-100600000D01*
%TO.N,/QSPI_SD2*%
X186000000Y-102500000D02*
X185200000Y-101700000D01*
X185200000Y-101700000D02*
X182100000Y-101700000D01*
X181635000Y-101235000D02*
X181635000Y-100600000D01*
X182100000Y-101700000D02*
X181635000Y-101235000D01*
X185407887Y-103796528D02*
X185407887Y-103792113D01*
X185407887Y-103792113D02*
X186000000Y-103200000D01*
X186000000Y-103200000D02*
X186000000Y-102500000D01*
%TO.N,/QSPI_SD0*%
X187000000Y-103100000D02*
X187000000Y-102500000D01*
X182905000Y-98405000D02*
X182905000Y-93400000D01*
X185690730Y-104079371D02*
X185720629Y-104079371D01*
X186600000Y-103200000D02*
X186900000Y-103200000D01*
X185720629Y-104079371D02*
X186600000Y-103200000D01*
X187000000Y-102500000D02*
X182905000Y-98405000D01*
X186900000Y-103200000D02*
X187000000Y-103100000D01*
%TO.N,/QSPI_SCLK*%
X182400000Y-98100000D02*
X182000000Y-98100000D01*
X185973573Y-104326427D02*
X186600000Y-103700000D01*
X187400000Y-102400000D02*
X187200000Y-102200000D01*
X187000000Y-103600000D02*
X187400000Y-103200000D01*
X187200000Y-102200000D02*
X183400000Y-98400000D01*
X181635000Y-97735000D02*
X181635000Y-93400000D01*
X186600000Y-103700000D02*
X186700000Y-103600000D01*
X186700000Y-103600000D02*
X187000000Y-103600000D01*
X187400000Y-103200000D02*
X187400000Y-103100000D01*
X187400000Y-103100000D02*
X187400000Y-102400000D01*
X183400000Y-98400000D02*
X183400000Y-98100000D01*
X182000000Y-98100000D02*
X181635000Y-97735000D01*
X185973573Y-104362214D02*
X185973573Y-104326427D01*
%TO.N,/QSPI_SD3*%
X187800000Y-103300000D02*
X187800000Y-102300000D01*
X181100000Y-97600000D02*
X180365000Y-96865000D01*
X183900000Y-98400000D02*
X183900000Y-97600000D01*
X186256415Y-104645056D02*
X186256415Y-104643585D01*
X186900000Y-104000000D02*
X187100000Y-104000000D01*
X186256415Y-104643585D02*
X186900000Y-104000000D01*
X187100000Y-104000000D02*
X187800000Y-103300000D01*
X187800000Y-102300000D02*
X183900000Y-98400000D01*
X180365000Y-96865000D02*
X180365000Y-93400000D01*
%TD*%
M02*
