M48
; DRILL file {KiCad (6.0.7)} date Thu 25 Aug 2022 07:07:40 PM EDT
; FORMAT={-:-/ absolute / inch / decimal}
; #@! TF.CreationDate,2022-08-25T19:07:40-04:00
; #@! TF.GenerationSoftware,Kicad,Pcbnew,(6.0.7)
; #@! TF.FileFunction,Plated,1,4,PTH
FMAT,2
INCH
; #@! TA.AperFunction,Plated,PTH,ViaDrill
T1C0.0100
; #@! TA.AperFunction,Plated,PTH,ComponentDrill
T2C0.0138
; #@! TA.AperFunction,Plated,PTH,ViaDrill
T3C0.0157
; #@! TA.AperFunction,Plated,PTH,ComponentDrill
T4C0.0236
; #@! TA.AperFunction,Plated,PTH,ComponentDrill
T5C0.0335
; #@! TA.AperFunction,Plated,PTH,ComponentDrill
T6C0.0394
; #@! TA.AperFunction,Plated,PTH,ComponentDrill
T7C0.0866
%
G90
G05
T1
X7.0157Y-4.2087
X7.0276Y-4.1634
X7.0472Y-4.5374
X7.0492Y-4.1555
X7.061Y-4.5571
X7.0728Y-4.1535
X7.0748Y-4.5768
X7.0807Y-4.0551
X7.0886Y-4.5965
X7.0984Y-4.1535
X7.1024Y-4.6161
X7.1043Y-4.0551
X7.1102Y-3.4764
X7.1102Y-3.502
X7.1102Y-3.5276
X7.1142Y-4.3307
X7.1161Y-4.1122
X7.1161Y-4.6358
X7.1201Y-4.1358
X7.128Y-4.0551
X7.1299Y-3.8425
X7.1299Y-4.6555
X7.1339Y-4.3465
X7.1417Y-4.2087
X7.1437Y-4.6752
X7.1496Y-4.2795
X7.1516Y-4.0551
X7.1575Y-4.6949
X7.1713Y-4.7146
X7.1752Y-4.0551
X7.1811Y-3.8622
X7.185Y-4.311
X7.185Y-4.7343
X7.1929Y-4.7559
X7.1949Y-4.7795
X7.2008Y-4.0551
X7.2165Y-4.5098
X7.2189Y-4.3173
X7.2205Y-3.8622
X7.2382Y-4.624
X7.2382Y-4.7028
X7.2382Y-4.7815
X7.2402Y-3.8425
X7.252Y-4.0866
X7.2539Y-4.8071
X7.2687Y-4.4754
X7.2697Y-4.624
X7.2697Y-4.7028
X7.2697Y-4.7815
X7.2776Y-3.4587
X7.2776Y-3.4843
X7.2776Y-3.5098
X7.2874Y-4.311
X7.313Y-4.7795
X7.315Y-4.7559
X7.3228Y-4.7343
X7.3366Y-4.7146
X7.3425Y-4.0433
X7.3425Y-4.1654
X7.3504Y-4.6949
X7.3642Y-4.6752
X7.3681Y-4.1142
X7.378Y-4.6555
X7.3917Y-4.6358
X7.3937Y-4.8071
X7.4016Y-4.2362
X7.4016Y-4.9168
X7.4055Y-4.6161
X7.4193Y-4.5965
X7.4213Y-4.8558
X7.4331Y-4.5768
X7.437Y-4.1772
X7.4409Y-4.2244
X7.4409Y-4.8755
X7.4429Y-4.1535
X7.4469Y-4.5571
X7.4606Y-4.5374
X7.4606Y-4.75
X7.4744Y-4.5177
X7.4744Y-4.9665
X7.4862Y-4.9168
X7.5039Y-4.2323
X7.5039Y-4.2874
T2
X7.1829Y-4.2323
X7.2184Y-4.1968
X7.2184Y-4.2678
X7.2539Y-4.1613
X7.2539Y-4.2323
X7.2539Y-4.3033
X7.2894Y-4.1968
X7.2894Y-4.2678
X7.3249Y-4.2323
T3
X7.0197Y-3.6772
X7.0512Y-3.5433
X7.0866Y-2.9409
X7.2008Y-3.9094
X7.2717Y-2.748
X7.3445Y-3.4508
X7.3583Y-2.752
X7.4291Y-3.378
T5
X7.374Y-3.5925
X7.374Y-3.7894
T6
X7.0866Y-4.7638
X7.0866Y-4.8638
X7.147Y-3.5591
X7.247Y-3.5591
T7
X7.0965Y-3.2677
X7.2539Y-4.9311
X7.4311Y-3.2677
T4
G00X7.4665Y-3.5531
M15
G01X7.4941Y-3.5531
M16
G05
G00X7.4941Y-3.8287
M15
G01X7.4665Y-3.8287
M16
G05
T0
M30
