999
"DXF R12 Output" (www.mydxf.blogspot.com)
 0 
SECTION
 2 
HEADER
 9 
$ACADVER
 1 
AC1009
 9 
$EXTMIN
 10 
 0 
 20 
 0 
 9 
$EXTMAX
 10 
 8.5 
 20 
 11 
 0 
ENDSEC
 0 
SECTION
 2 
ENTITIES
0
LINE
8
Layer 1
10
0.000000
20
0.238436
11
0.000000
21
0.476864
0
LINE
8
Layer 1
10
0.000000
20
0.476864
11
0.238428
21
0.476864
0
LINE
8
Layer 1
10
0.238428
20
0.476864
11
0.476858
21
0.476864
0
LINE
8
Layer 1
10
0.476858
20
0.476864
11
0.476858
21
0.238436
0
LINE
8
Layer 1
10
0.476858
20
0.238436
11
0.476858
21
0.000007
0
LINE
8
Layer 1
10
0.476858
20
0.000007
11
0.238428
21
0.000007
0
LINE
8
Layer 1
10
0.238428
20
0.000007
11
0.000000
21
0.000007
0
LINE
8
Layer 1
10
0.000000
20
0.000007
11
0.000000
21
0.238436
0
LINE
8
Layer 1
10
0.408735
20
0.238436
11
0.408735
21
0.408742
0
LINE
8
Layer 1
10
0.408735
20
0.408742
11
0.238428
21
0.408742
0
LINE
8
Layer 1
10
0.238428
20
0.408742
11
0.068123
21
0.408742
0
LINE
8
Layer 1
10
0.068123
20
0.408742
11
0.068123
21
0.238436
0
LINE
8
Layer 1
10
0.068123
20
0.238436
11
0.068123
21
0.068129
0
LINE
8
Layer 1
10
0.068123
20
0.068129
11
0.238428
21
0.068129
0
LINE
8
Layer 1
10
0.238428
20
0.068129
11
0.408735
21
0.068129
0
LINE
8
Layer 1
10
0.408735
20
0.068129
11
0.408735
21
0.238436
0
LINE
8
Layer 1
10
0.136245
20
0.238436
11
0.136245
21
0.340619
0
LINE
8
Layer 1
10
0.136245
20
0.340619
11
0.238428
21
0.340619
0
LINE
8
Layer 1
10
0.238428
20
0.340619
11
0.340613
21
0.340619
0
LINE
8
Layer 1
10
0.340613
20
0.340619
11
0.340613
21
0.238436
0
LINE
8
Layer 1
10
0.340613
20
0.238436
11
0.340613
21
0.136252
0
LINE
8
Layer 1
10
0.340613
20
0.136252
11
0.238428
21
0.136252
0
LINE
8
Layer 1
10
0.238428
20
0.136252
11
0.136245
21
0.136252
0
LINE
8
Layer 1
10
0.136245
20
0.136252
11
0.136245
21
0.238436
0
LINE
8
Layer 1
10
0.544980
20
0.170313
11
0.544980
21
0.340619
0
LINE
8
Layer 1
10
0.544980
20
0.340619
11
0.579041
21
0.340619
0
LINE
8
Layer 1
10
0.579041
20
0.340619
11
0.613103
21
0.340619
0
LINE
8
Layer 1
10
0.613103
20
0.340619
11
0.613103
21
0.238436
0
LINE
8
Layer 1
10
0.613103
20
0.238436
11
0.613103
21
0.136252
0
LINE
8
Layer 1
10
0.613103
20
0.136252
11
0.647164
21
0.136252
0
LINE
8
Layer 1
10
0.647164
20
0.136252
11
0.681225
21
0.136252
0
LINE
8
Layer 1
10
0.681225
20
0.136252
11
0.681225
21
0.102191
0
LINE
8
Layer 1
10
0.681225
20
0.102191
11
0.681225
21
0.068129
0
LINE
8
Layer 1
10
0.681225
20
0.068129
11
0.715286
21
0.068129
0
LINE
8
Layer 1
10
0.715286
20
0.068129
11
0.749348
21
0.068129
0
LINE
8
Layer 1
10
0.749348
20
0.068129
11
0.749348
21
0.102191
0
LINE
8
Layer 1
10
0.749348
20
0.102191
11
0.749348
21
0.136252
0
LINE
8
Layer 1
10
0.749348
20
0.136252
11
0.817471
21
0.136252
0
LINE
8
Layer 1
10
0.817471
20
0.136252
11
0.885593
21
0.136252
0
LINE
8
Layer 1
10
0.885593
20
0.136252
11
0.885593
21
0.102191
0
LINE
8
Layer 1
10
0.885593
20
0.102191
11
0.885593
21
0.068129
0
LINE
8
Layer 1
10
0.885593
20
0.068129
11
0.919654
21
0.068129
0
LINE
8
Layer 1
10
0.919654
20
0.068129
11
0.953716
21
0.068129
0
LINE
8
Layer 1
10
0.953716
20
0.068129
11
0.953716
21
0.136252
0
LINE
8
Layer 1
10
0.953716
20
0.136252
11
0.953716
21
0.204374
0
LINE
8
Layer 1
10
0.953716
20
0.204374
11
1.021840
21
0.204374
0
LINE
8
Layer 1
10
1.021840
20
0.204374
11
1.089960
21
0.204374
0
LINE
8
Layer 1
10
1.089960
20
0.204374
11
1.089960
21
0.238436
0
LINE
8
Layer 1
10
1.089960
20
0.238436
11
1.089960
21
0.272497
0
LINE
8
Layer 1
10
1.089960
20
0.272497
11
1.021840
21
0.272497
0
LINE
8
Layer 1
10
1.021840
20
0.272497
11
0.953715
21
0.272497
0
LINE
8
Layer 1
10
0.953715
20
0.272497
11
0.953715
21
0.238436
0
LINE
8
Layer 1
10
0.953715
20
0.238436
11
0.953715
21
0.204374
0
LINE
8
Layer 1
10
0.953715
20
0.204374
11
0.919654
21
0.204374
0
LINE
8
Layer 1
10
0.919654
20
0.204374
11
0.885593
21
0.204374
0
LINE
8
Layer 1
10
0.885593
20
0.204374
11
0.885593
21
0.238436
0
LINE
8
Layer 1
10
0.885593
20
0.238436
11
0.885593
21
0.272497
0
LINE
8
Layer 1
10
0.885593
20
0.272497
11
0.851531
21
0.272497
0
LINE
8
Layer 1
10
0.851531
20
0.272497
11
0.817470
21
0.272497
0
LINE
8
Layer 1
10
0.817470
20
0.272497
11
0.817470
21
0.306558
0
LINE
8
Layer 1
10
0.817470
20
0.306558
11
0.817470
21
0.340619
0
LINE
8
Layer 1
10
0.817470
20
0.340619
11
0.783409
21
0.340619
0
LINE
8
Layer 1
10
0.783409
20
0.340619
11
0.749348
21
0.340619
0
LINE
8
Layer 1
10
0.749348
20
0.340619
11
0.749348
21
0.374681
0
LINE
8
Layer 1
10
0.749348
20
0.374681
11
0.749348
21
0.408742
0
LINE
8
Layer 1
10
0.749348
20
0.408742
11
0.783409
21
0.408742
0
LINE
8
Layer 1
10
0.783409
20
0.408742
11
0.817470
21
0.408742
0
LINE
8
Layer 1
10
0.817470
20
0.408742
11
0.817470
21
0.442803
0
LINE
8
Layer 1
10
0.817470
20
0.442803
11
0.817470
21
0.476864
0
LINE
8
Layer 1
10
0.817470
20
0.476864
11
0.851531
21
0.476864
0
LINE
8
Layer 1
10
0.851531
20
0.476864
11
0.885593
21
0.476864
0
LINE
8
Layer 1
10
0.885593
20
0.476864
11
0.885593
21
0.510926
0
LINE
8
Layer 1
10
0.885593
20
0.510926
11
0.885593
21
0.544987
0
LINE
8
Layer 1
10
0.885593
20
0.544987
11
0.851531
21
0.544987
0
LINE
8
Layer 1
10
0.851531
20
0.544987
11
0.817470
21
0.544987
0
LINE
8
Layer 1
10
0.817470
20
0.544987
11
0.817470
21
0.613109
0
LINE
8
Layer 1
10
0.817470
20
0.613109
11
0.817470
21
0.681232
0
LINE
8
Layer 1
10
0.817470
20
0.681232
11
0.851531
21
0.681232
0
LINE
8
Layer 1
10
0.851531
20
0.681232
11
0.885593
21
0.681232
0
LINE
8
Layer 1
10
0.885593
20
0.681232
11
0.885593
21
0.647171
0
LINE
8
Layer 1
10
0.885593
20
0.647171
11
0.885593
21
0.613109
0
LINE
8
Layer 1
10
0.885593
20
0.613109
11
0.919654
21
0.613109
0
LINE
8
Layer 1
10
0.919654
20
0.613109
11
0.953715
21
0.613109
0
LINE
8
Layer 1
10
0.953715
20
0.613109
11
0.953715
21
0.544987
0
LINE
8
Layer 1
10
0.953715
20
0.544987
11
0.953715
21
0.476864
0
LINE
8
Layer 1
10
0.953715
20
0.476864
11
1.021840
21
0.476864
0
LINE
8
Layer 1
10
1.021840
20
0.476864
11
1.089960
21
0.476864
0
LINE
8
Layer 1
10
1.089960
20
0.476864
11
1.089960
21
0.408742
0
LINE
8
Layer 1
10
1.089960
20
0.408742
11
1.089960
21
0.340619
0
LINE
8
Layer 1
10
1.089960
20
0.340619
11
1.158080
21
0.340619
0
LINE
8
Layer 1
10
1.158080
20
0.340619
11
1.226210
21
0.340619
0
LINE
8
Layer 1
10
1.226210
20
0.340619
11
1.226210
21
0.306558
0
LINE
8
Layer 1
10
1.226210
20
0.306558
11
1.226210
21
0.272497
0
LINE
8
Layer 1
10
1.226210
20
0.272497
11
1.260270
21
0.272497
0
LINE
8
Layer 1
10
1.260270
20
0.272497
11
1.294330
21
0.272497
0
LINE
8
Layer 1
10
1.294330
20
0.272497
11
1.294330
21
0.238436
0
LINE
8
Layer 1
10
1.294330
20
0.238436
11
1.294330
21
0.204374
0
LINE
8
Layer 1
10
1.294330
20
0.204374
11
1.260270
21
0.204374
0
LINE
8
Layer 1
10
1.260270
20
0.204374
11
1.226210
21
0.204374
0
LINE
8
Layer 1
10
1.226210
20
0.204374
11
1.226210
21
0.170313
0
LINE
8
Layer 1
10
1.226210
20
0.170313
11
1.226210
21
0.136251
0
LINE
8
Layer 1
10
1.226210
20
0.136251
11
1.158080
21
0.136251
0
LINE
8
Layer 1
10
1.158080
20
0.136251
11
1.089960
21
0.136251
0
LINE
8
Layer 1
10
1.089960
20
0.136251
11
1.089960
21
0.102190
0
LINE
8
Layer 1
10
1.089960
20
0.102190
11
1.089960
21
0.068129
0
LINE
8
Layer 1
10
1.089960
20
0.068129
11
1.055900
21
0.068129
0
LINE
8
Layer 1
10
1.055900
20
0.068129
11
1.021840
21
0.068129
0
LINE
8
Layer 1
10
1.021840
20
0.068129
11
1.021840
21
0.034068
0
LINE
8
Layer 1
10
1.021840
20
0.034068
11
1.021840
21
0.000006
0
LINE
8
Layer 1
10
1.021840
20
0.000006
11
0.953715
21
0.000006
0
LINE
8
Layer 1
10
0.953715
20
0.000006
11
0.885593
21
0.000006
0
LINE
8
Layer 1
10
0.885593
20
0.000006
11
0.885593
21
0.034068
0
LINE
8
Layer 1
10
0.885593
20
0.034068
11
0.885593
21
0.068129
0
LINE
8
Layer 1
10
0.885593
20
0.068129
11
0.817470
21
0.068129
0
LINE
8
Layer 1
10
0.817470
20
0.068129
11
0.749348
21
0.068129
0
LINE
8
Layer 1
10
0.749348
20
0.068129
11
0.749348
21
0.034068
0
LINE
8
Layer 1
10
0.749348
20
0.034068
11
0.749348
21
0.000007
0
LINE
8
Layer 1
10
0.749348
20
0.000007
11
0.715286
21
0.000007
0
LINE
8
Layer 1
10
0.715286
20
0.000007
11
0.681225
21
0.000007
0
LINE
8
Layer 1
10
0.681225
20
0.000007
11
0.681225
21
0.034068
0
LINE
8
Layer 1
10
0.681225
20
0.034068
11
0.681225
21
0.068129
0
LINE
8
Layer 1
10
0.681225
20
0.068129
11
0.647163
21
0.068129
0
LINE
8
Layer 1
10
0.647163
20
0.068129
11
0.613103
21
0.068129
0
LINE
8
Layer 1
10
0.613103
20
0.068129
11
0.613103
21
0.034068
0
LINE
8
Layer 1
10
0.613103
20
0.034068
11
0.613103
21
0.000007
0
LINE
8
Layer 1
10
0.613103
20
0.000007
11
0.579041
21
0.000007
0
LINE
8
Layer 1
10
0.579041
20
0.000007
11
0.544980
21
0.000007
0
LINE
8
Layer 1
10
0.544980
20
0.000007
11
0.544980
21
0.170313
0
LINE
8
Layer 1
10
1.226210
20
0.238436
11
1.226210
21
0.272497
0
LINE
8
Layer 1
10
1.226210
20
0.272497
11
1.192140
21
0.272497
0
LINE
8
Layer 1
10
1.192140
20
0.272497
11
1.158080
21
0.272497
0
LINE
8
Layer 1
10
1.158080
20
0.272497
11
1.158080
21
0.238436
0
LINE
8
Layer 1
10
1.158080
20
0.238436
11
1.158080
21
0.204374
0
LINE
8
Layer 1
10
1.158080
20
0.204374
11
1.192140
21
0.204374
0
LINE
8
Layer 1
10
1.192140
20
0.204374
11
1.226210
21
0.204374
0
LINE
8
Layer 1
10
1.226210
20
0.204374
11
1.226210
21
0.238436
0
LINE
8
Layer 1
10
0.953715
20
0.374681
11
0.953715
21
0.408742
0
LINE
8
Layer 1
10
0.953715
20
0.408742
11
0.919654
21
0.408742
0
LINE
8
Layer 1
10
0.919654
20
0.408742
11
0.885593
21
0.408742
0
LINE
8
Layer 1
10
0.885593
20
0.408742
11
0.885593
21
0.374681
0
LINE
8
Layer 1
10
0.885593
20
0.374681
11
0.885593
21
0.340619
0
LINE
8
Layer 1
10
0.885593
20
0.340619
11
0.919654
21
0.340619
0
LINE
8
Layer 1
10
0.919654
20
0.340619
11
0.953715
21
0.340619
0
LINE
8
Layer 1
10
0.953715
20
0.340619
11
0.953715
21
0.374681
0
LINE
8
Layer 1
10
1.158080
20
0.034068
11
1.158080
21
0.068129
0
LINE
8
Layer 1
10
1.158080
20
0.068129
11
1.192140
21
0.068129
0
LINE
8
Layer 1
10
1.192140
20
0.068129
11
1.226210
21
0.068129
0
LINE
8
Layer 1
10
1.226210
20
0.068129
11
1.226210
21
0.034068
0
LINE
8
Layer 1
10
1.226210
20
0.034068
11
1.226210
21
0.000007
0
LINE
8
Layer 1
10
1.226210
20
0.000007
11
1.192140
21
0.000007
0
LINE
8
Layer 1
10
1.192140
20
0.000007
11
1.158080
21
0.000007
0
LINE
8
Layer 1
10
1.158080
20
0.000007
11
1.158080
21
0.034068
0
LINE
8
Layer 1
10
1.294325
20
0.034068
11
1.294330
21
0.068129
0
LINE
8
Layer 1
10
1.294330
20
0.068129
11
1.328390
21
0.068129
0
LINE
8
Layer 1
10
1.328390
20
0.068129
11
1.362450
21
0.068129
0
LINE
8
Layer 1
10
1.362450
20
0.068129
11
1.362450
21
0.136252
0
LINE
8
Layer 1
10
1.362450
20
0.136252
11
1.362450
21
0.204374
0
LINE
8
Layer 1
10
1.362450
20
0.204374
11
1.396510
21
0.204374
0
LINE
8
Layer 1
10
1.396510
20
0.204374
11
1.430570
21
0.204374
0
LINE
8
Layer 1
10
1.430570
20
0.204374
11
1.430570
21
0.238436
0
LINE
8
Layer 1
10
1.430570
20
0.238436
11
1.430570
21
0.272497
0
LINE
8
Layer 1
10
1.430570
20
0.272497
11
1.396510
21
0.272497
0
LINE
8
Layer 1
10
1.396510
20
0.272497
11
1.362450
21
0.272497
0
LINE
8
Layer 1
10
1.362450
20
0.272497
11
1.362450
21
0.306558
0
LINE
8
Layer 1
10
1.362450
20
0.306558
11
1.362450
21
0.340619
0
LINE
8
Layer 1
10
1.362450
20
0.340619
11
1.328390
21
0.340619
0
LINE
8
Layer 1
10
1.328390
20
0.340619
11
1.294330
21
0.340619
0
LINE
8
Layer 1
10
1.294330
20
0.340619
11
1.294330
21
0.408742
0
LINE
8
Layer 1
10
1.294330
20
0.408742
11
1.294330
21
0.476864
0
LINE
8
Layer 1
10
1.294330
20
0.476864
11
1.226210
21
0.476864
0
LINE
8
Layer 1
10
1.226210
20
0.476864
11
1.158080
21
0.476864
0
LINE
8
Layer 1
10
1.158080
20
0.476864
11
1.158080
21
0.544987
0
LINE
8
Layer 1
10
1.158080
20
0.544987
11
1.158080
21
0.613109
0
LINE
8
Layer 1
10
1.158080
20
0.613109
11
1.124020
21
0.613109
0
LINE
8
Layer 1
10
1.124020
20
0.613109
11
1.089960
21
0.613109
0
LINE
8
Layer 1
10
1.089960
20
0.613109
11
1.089960
21
0.647171
0
LINE
8
Layer 1
10
1.089960
20
0.647171
11
1.089960
21
0.681232
0
LINE
8
Layer 1
10
1.089960
20
0.681232
11
1.055900
21
0.681232
0
LINE
8
Layer 1
10
1.055900
20
0.681232
11
1.021840
21
0.681232
0
LINE
8
Layer 1
10
1.021840
20
0.681232
11
1.021840
21
0.647171
0
LINE
8
Layer 1
10
1.021840
20
0.647171
11
1.021840
21
0.613109
0
LINE
8
Layer 1
10
1.021840
20
0.613109
11
0.987776
21
0.613109
0
LINE
8
Layer 1
10
0.987776
20
0.613109
11
0.953715
21
0.613109
0
LINE
8
Layer 1
10
0.953715
20
0.613109
11
0.953715
21
0.647171
0
LINE
8
Layer 1
10
0.953715
20
0.647171
11
0.953715
21
0.681232
0
LINE
8
Layer 1
10
0.953715
20
0.681232
11
0.919653
21
0.681232
0
LINE
8
Layer 1
10
0.919653
20
0.681232
11
0.885593
21
0.681232
0
LINE
8
Layer 1
10
0.885593
20
0.681232
11
0.885593
21
0.749354
0
LINE
8
Layer 1
10
0.885593
20
0.749354
11
0.885593
21
0.817477
0
LINE
8
Layer 1
10
0.885593
20
0.817477
11
0.851531
21
0.817477
0
LINE
8
Layer 1
10
0.851531
20
0.817477
11
0.817470
21
0.817477
0
LINE
8
Layer 1
10
0.817470
20
0.817477
11
0.817470
21
0.783416
0
LINE
8
Layer 1
10
0.817470
20
0.783416
11
0.817470
21
0.749354
0
LINE
8
Layer 1
10
0.817470
20
0.749354
11
0.783408
21
0.749354
0
LINE
8
Layer 1
10
0.783408
20
0.749354
11
0.749347
21
0.749354
0
LINE
8
Layer 1
10
0.749347
20
0.749354
11
0.749347
21
0.851539
0
LINE
8
Layer 1
10
0.749347
20
0.851539
11
0.749347
21
0.953722
0
LINE
8
Layer 1
10
0.749347
20
0.953722
11
0.817470
21
0.953722
0
LINE
8
Layer 1
10
0.817470
20
0.953722
11
0.885592
21
0.953722
0
LINE
8
Layer 1
10
0.885592
20
0.953722
11
0.885592
21
0.919661
0
LINE
8
Layer 1
10
0.885592
20
0.919661
11
0.885592
21
0.885599
0
LINE
8
Layer 1
10
0.885592
20
0.885599
11
0.919653
21
0.885599
0
LINE
8
Layer 1
10
0.919653
20
0.885599
11
0.953715
21
0.885599
0
LINE
8
Layer 1
10
0.953715
20
0.885599
11
0.953715
21
0.919661
0
LINE
8
Layer 1
10
0.953715
20
0.919661
11
0.953715
21
0.953722
0
LINE
8
Layer 1
10
0.953715
20
0.953722
11
0.987776
21
0.953722
0
LINE
8
Layer 1
10
0.987776
20
0.953722
11
1.021840
21
0.953722
0
LINE
8
Layer 1
10
1.021840
20
0.953722
11
1.021840
21
0.919661
0
LINE
8
Layer 1
10
1.021840
20
0.919661
11
1.021840
21
0.885599
0
LINE
8
Layer 1
10
1.021840
20
0.885599
11
1.055900
21
0.885599
0
LINE
8
Layer 1
10
1.055900
20
0.885599
11
1.089960
21
0.885599
0
LINE
8
Layer 1
10
1.089960
20
0.885599
11
1.089960
21
0.851538
0
LINE
8
Layer 1
10
1.089960
20
0.851538
11
1.089960
21
0.817477
0
LINE
8
Layer 1
10
1.089960
20
0.817477
11
1.124020
21
0.817477
0
LINE
8
Layer 1
10
1.124020
20
0.817477
11
1.158080
21
0.817477
0
LINE
8
Layer 1
10
1.158080
20
0.817477
11
1.158080
21
0.851538
0
LINE
8
Layer 1
10
1.158080
20
0.851538
11
1.158080
21
0.885599
0
LINE
8
Layer 1
10
1.158080
20
0.885599
11
1.124020
21
0.885599
0
LINE
8
Layer 1
10
1.124020
20
0.885599
11
1.089960
21
0.885599
0
LINE
8
Layer 1
10
1.089960
20
0.885599
11
1.089960
21
0.919661
0
LINE
8
Layer 1
10
1.089960
20
0.919661
11
1.089960
21
0.953722
0
LINE
8
Layer 1
10
1.089960
20
0.953722
11
1.055900
21
0.953722
0
LINE
8
Layer 1
10
1.055900
20
0.953722
11
1.021840
21
0.953722
0
LINE
8
Layer 1
10
1.021840
20
0.953722
11
1.021840
21
0.987784
0
LINE
8
Layer 1
10
1.021840
20
0.987784
11
1.021840
21
1.021840
0
LINE
8
Layer 1
10
1.021840
20
1.021840
11
1.055900
21
1.021840
0
LINE
8
Layer 1
10
1.055900
20
1.021840
11
1.089960
21
1.021840
0
LINE
8
Layer 1
10
1.089960
20
1.021840
11
1.089960
21
1.055910
0
LINE
8
Layer 1
10
1.089960
20
1.055910
11
1.089960
21
1.089970
0
LINE
8
Layer 1
10
1.089960
20
1.089970
11
1.124020
21
1.089970
0
LINE
8
Layer 1
10
1.124020
20
1.089970
11
1.158080
21
1.089970
0
LINE
8
Layer 1
10
1.158080
20
1.089970
11
1.158080
21
1.124030
0
LINE
8
Layer 1
10
1.158080
20
1.124030
11
1.158080
21
1.158090
0
LINE
8
Layer 1
10
1.158080
20
1.158090
11
1.192140
21
1.158090
0
LINE
8
Layer 1
10
1.192140
20
1.158090
11
1.226210
21
1.158090
0
LINE
8
Layer 1
10
1.226210
20
1.158090
11
1.226210
21
1.124030
0
LINE
8
Layer 1
10
1.226210
20
1.124030
11
1.226210
21
1.089970
0
LINE
8
Layer 1
10
1.226210
20
1.089970
11
1.294330
21
1.089970
0
LINE
8
Layer 1
10
1.294330
20
1.089970
11
1.362450
21
1.089970
0
LINE
8
Layer 1
10
1.362450
20
1.089970
11
1.362450
21
1.124030
0
LINE
8
Layer 1
10
1.362450
20
1.124030
11
1.362450
21
1.158090
0
LINE
8
Layer 1
10
1.362450
20
1.158090
11
1.396510
21
1.158090
0
LINE
8
Layer 1
10
1.396510
20
1.158090
11
1.430570
21
1.158090
0
LINE
8
Layer 1
10
1.430570
20
1.158090
11
1.430570
21
1.192150
0
LINE
8
Layer 1
10
1.430570
20
1.192150
11
1.430570
21
1.226210
0
LINE
8
Layer 1
10
1.430570
20
1.226210
11
1.464630
21
1.226210
0
LINE
8
Layer 1
10
1.464630
20
1.226210
11
1.498700
21
1.226210
0
LINE
8
Layer 1
10
1.498700
20
1.226210
11
1.498700
21
1.158090
0
LINE
8
Layer 1
10
1.498700
20
1.158090
11
1.498700
21
1.089970
0
LINE
8
Layer 1
10
1.498700
20
1.089970
11
1.532760
21
1.089970
0
LINE
8
Layer 1
10
1.532760
20
1.089970
11
1.566820
21
1.089970
0
LINE
8
Layer 1
10
1.566820
20
1.089970
11
1.566820
21
0.987784
0
LINE
8
Layer 1
10
1.566820
20
0.987784
11
1.566820
21
0.885599
0
LINE
8
Layer 1
10
1.566820
20
0.885599
11
1.532760
21
0.885599
0
LINE
8
Layer 1
10
1.532760
20
0.885599
11
1.498700
21
0.885599
0
LINE
8
Layer 1
10
1.498700
20
0.885599
11
1.498700
21
0.851538
0
LINE
8
Layer 1
10
1.498700
20
0.851538
11
1.498700
21
0.817477
0
LINE
8
Layer 1
10
1.498700
20
0.817477
11
1.464630
21
0.817477
0
LINE
8
Layer 1
10
1.464630
20
0.817477
11
1.430570
21
0.817477
0
LINE
8
Layer 1
10
1.430570
20
0.817477
11
1.430570
21
0.783416
0
LINE
8
Layer 1
10
1.430570
20
0.783416
11
1.430570
21
0.749354
0
LINE
8
Layer 1
10
1.430570
20
0.749354
11
1.362450
21
0.749354
0
LINE
8
Layer 1
10
1.362450
20
0.749354
11
1.294330
21
0.749354
0
LINE
8
Layer 1
10
1.294330
20
0.749354
11
1.294330
21
0.647171
0
LINE
8
Layer 1
10
1.294330
20
0.647171
11
1.294330
21
0.544987
0
LINE
8
Layer 1
10
1.294330
20
0.544987
11
1.328390
21
0.544987
0
LINE
8
Layer 1
10
1.328390
20
0.544987
11
1.362450
21
0.544987
0
LINE
8
Layer 1
10
1.362450
20
0.544987
11
1.362450
21
0.613109
0
LINE
8
Layer 1
10
1.362450
20
0.613109
11
1.362450
21
0.681232
0
LINE
8
Layer 1
10
1.362450
20
0.681232
11
1.396510
21
0.681232
0
LINE
8
Layer 1
10
1.396510
20
0.681232
11
1.430570
21
0.681232
0
LINE
8
Layer 1
10
1.430570
20
0.681232
11
1.430570
21
0.715294
0
LINE
8
Layer 1
10
1.430570
20
0.715294
11
1.430570
21
0.749354
0
LINE
8
Layer 1
10
1.430570
20
0.749354
11
1.464630
21
0.749354
0
LINE
8
Layer 1
10
1.464630
20
0.749354
11
1.498700
21
0.749354
0
LINE
8
Layer 1
10
1.498700
20
0.749354
11
1.498700
21
0.783416
0
LINE
8
Layer 1
10
1.498700
20
0.783416
11
1.498700
21
0.817477
0
LINE
8
Layer 1
10
1.498700
20
0.817477
11
1.532760
21
0.817477
0
LINE
8
Layer 1
10
1.532760
20
0.817477
11
1.566820
21
0.817477
0
LINE
8
Layer 1
10
1.566820
20
0.817477
11
1.566820
21
0.851539
0
LINE
8
Layer 1
10
1.566820
20
0.851539
11
1.566820
21
0.885600
0
LINE
8
Layer 1
10
1.566820
20
0.885600
11
1.600880
21
0.885600
0
LINE
8
Layer 1
10
1.600880
20
0.885600
11
1.634940
21
0.885600
0
LINE
8
Layer 1
10
1.634940
20
0.885600
11
1.634940
21
0.919661
0
LINE
8
Layer 1
10
1.634940
20
0.919661
11
1.634940
21
0.953722
0
LINE
8
Layer 1
10
1.634940
20
0.953722
11
1.703060
21
0.953722
0
LINE
8
Layer 1
10
1.703060
20
0.953722
11
1.771190
21
0.953722
0
LINE
8
Layer 1
10
1.771190
20
0.953722
11
1.771190
21
0.987784
0
LINE
8
Layer 1
10
1.771190
20
0.987784
11
1.771190
21
1.021840
0
LINE
8
Layer 1
10
1.771190
20
1.021840
11
1.805250
21
1.021840
0
LINE
8
Layer 1
10
1.805250
20
1.021840
11
1.839310
21
1.021840
0
LINE
8
Layer 1
10
1.839310
20
1.021840
11
1.839310
21
1.055910
0
LINE
8
Layer 1
10
1.839310
20
1.055910
11
1.839310
21
1.089970
0
LINE
8
Layer 1
10
1.839310
20
1.089970
11
1.873370
21
1.089970
0
LINE
8
Layer 1
10
1.873370
20
1.089970
11
1.907430
21
1.089970
0
LINE
8
Layer 1
10
1.907430
20
1.089970
11
1.907430
21
1.124030
0
LINE
8
Layer 1
10
1.907430
20
1.124030
11
1.907430
21
1.158090
0
LINE
8
Layer 1
10
1.907430
20
1.158090
11
1.873370
21
1.158090
0
LINE
8
Layer 1
10
1.873370
20
1.158090
11
1.839310
21
1.158090
0
LINE
8
Layer 1
10
1.839310
20
1.158090
11
1.839310
21
1.294330
0
LINE
8
Layer 1
10
1.839310
20
1.294330
11
1.839310
21
1.430580
0
LINE
8
Layer 1
10
1.839310
20
1.430580
11
1.873370
21
1.430580
0
LINE
8
Layer 1
10
1.873370
20
1.430580
11
1.907430
21
1.430580
0
LINE
8
Layer 1
10
1.907430
20
1.430580
11
1.907430
21
1.396520
0
LINE
8
Layer 1
10
1.907430
20
1.396520
11
1.907430
21
1.362460
0
LINE
8
Layer 1
10
1.907430
20
1.362460
11
1.941490
21
1.362460
0
LINE
8
Layer 1
10
1.941490
20
1.362460
11
1.975550
21
1.362460
0
LINE
8
Layer 1
10
1.975550
20
1.362460
11
1.975550
21
1.328400
0
LINE
8
Layer 1
10
1.975550
20
1.328400
11
1.975550
21
1.294330
0
LINE
8
Layer 1
10
1.975550
20
1.294330
11
1.941490
21
1.294330
0
LINE
8
Layer 1
10
1.941490
20
1.294330
11
1.907430
21
1.294330
0
LINE
8
Layer 1
10
1.907430
20
1.294330
11
1.907430
21
1.260270
0
LINE
8
Layer 1
10
1.907430
20
1.260270
11
1.907430
21
1.226210
0
LINE
8
Layer 1
10
1.907430
20
1.226210
11
1.941490
21
1.226210
0
LINE
8
Layer 1
10
1.941490
20
1.226210
11
1.975550
21
1.226210
0
LINE
8
Layer 1
10
1.975550
20
1.226210
11
1.975550
21
1.124030
0
LINE
8
Layer 1
10
1.975550
20
1.124030
11
1.975550
21
1.021840
0
LINE
8
Layer 1
10
1.975550
20
1.021840
11
1.941490
21
1.021840
0
LINE
8
Layer 1
10
1.941490
20
1.021840
11
1.907430
21
1.021840
0
LINE
8
Layer 1
10
1.907430
20
1.021840
11
1.907430
21
0.987784
0
LINE
8
Layer 1
10
1.907430
20
0.987784
11
1.907430
21
0.953722
0
LINE
8
Layer 1
10
1.907430
20
0.953722
11
1.941490
21
0.953722
0
LINE
8
Layer 1
10
1.941490
20
0.953722
11
1.975550
21
0.953722
0
LINE
8
Layer 1
10
1.975550
20
0.953722
11
1.975550
21
0.919661
0
LINE
8
Layer 1
10
1.975550
20
0.919661
11
1.975550
21
0.885599
0
LINE
8
Layer 1
10
1.975550
20
0.885599
11
1.941490
21
0.885599
0
LINE
8
Layer 1
10
1.941490
20
0.885599
11
1.907430
21
0.885599
0
LINE
8
Layer 1
10
1.907430
20
0.885599
11
1.907430
21
0.851538
0
LINE
8
Layer 1
10
1.907430
20
0.851538
11
1.907430
21
0.817477
0
LINE
8
Layer 1
10
1.907430
20
0.817477
11
1.941490
21
0.817477
0
LINE
8
Layer 1
10
1.941490
20
0.817477
11
1.975550
21
0.817477
0
LINE
8
Layer 1
10
1.975550
20
0.817477
11
1.975550
21
0.783416
0
LINE
8
Layer 1
10
1.975550
20
0.783416
11
1.975550
21
0.749354
0
LINE
8
Layer 1
10
1.975550
20
0.749354
11
1.941490
21
0.749354
0
LINE
8
Layer 1
10
1.941490
20
0.749354
11
1.907430
21
0.749354
0
LINE
8
Layer 1
10
1.907430
20
0.749354
11
1.907430
21
0.783416
0
LINE
8
Layer 1
10
1.907430
20
0.783416
11
1.907430
21
0.817477
0
LINE
8
Layer 1
10
1.907430
20
0.817477
11
1.839310
21
0.817477
0
LINE
8
Layer 1
10
1.839310
20
0.817477
11
1.771190
21
0.817477
0
LINE
8
Layer 1
10
1.771190
20
0.817477
11
1.771190
21
0.851539
0
LINE
8
Layer 1
10
1.771190
20
0.851539
11
1.771190
21
0.885599
0
LINE
8
Layer 1
10
1.771190
20
0.885599
11
1.703060
21
0.885599
0
LINE
8
Layer 1
10
1.703060
20
0.885599
11
1.634940
21
0.885599
0
LINE
8
Layer 1
10
1.634940
20
0.885599
11
1.634940
21
0.851538
0
LINE
8
Layer 1
10
1.634940
20
0.851538
11
1.634940
21
0.817477
0
LINE
8
Layer 1
10
1.634940
20
0.817477
11
1.669000
21
0.817477
0
LINE
8
Layer 1
10
1.669000
20
0.817477
11
1.703060
21
0.817477
0
LINE
8
Layer 1
10
1.703060
20
0.817477
11
1.703060
21
0.783416
0
LINE
8
Layer 1
10
1.703060
20
0.783416
11
1.703060
21
0.749354
0
LINE
8
Layer 1
10
1.703060
20
0.749354
11
1.737120
21
0.749354
0
LINE
8
Layer 1
10
1.737120
20
0.749354
11
1.771190
21
0.749354
0
LINE
8
Layer 1
10
1.771190
20
0.749354
11
1.771190
21
0.681232
0
LINE
8
Layer 1
10
1.771190
20
0.681232
11
1.771190
21
0.613109
0
LINE
8
Layer 1
10
1.771190
20
0.613109
11
1.737120
21
0.613109
0
LINE
8
Layer 1
10
1.737120
20
0.613109
11
1.703060
21
0.613109
0
LINE
8
Layer 1
10
1.703060
20
0.613109
11
1.703060
21
0.544987
0
LINE
8
Layer 1
10
1.703060
20
0.544987
11
1.703060
21
0.476864
0
LINE
8
Layer 1
10
1.703060
20
0.476864
11
1.737120
21
0.476864
0
LINE
8
Layer 1
10
1.737120
20
0.476864
11
1.771190
21
0.476864
0
LINE
8
Layer 1
10
1.771190
20
0.476864
11
1.771190
21
0.544987
0
LINE
8
Layer 1
10
1.771190
20
0.544987
11
1.771190
21
0.613109
0
LINE
8
Layer 1
10
1.771190
20
0.613109
11
1.805250
21
0.613109
0
LINE
8
Layer 1
10
1.805250
20
0.613109
11
1.839310
21
0.613109
0
LINE
8
Layer 1
10
1.839310
20
0.613109
11
1.839310
21
0.579048
0
LINE
8
Layer 1
10
1.839310
20
0.579048
11
1.839310
21
0.544987
0
LINE
8
Layer 1
10
1.839310
20
0.544987
11
1.873370
21
0.544987
0
LINE
8
Layer 1
10
1.873370
20
0.544987
11
1.907430
21
0.544987
0
LINE
8
Layer 1
10
1.907430
20
0.544987
11
1.907430
21
0.579048
0
LINE
8
Layer 1
10
1.907430
20
0.579048
11
1.907430
21
0.613109
0
LINE
8
Layer 1
10
1.907430
20
0.613109
11
1.941490
21
0.613109
0
LINE
8
Layer 1
10
1.941490
20
0.613109
11
1.975550
21
0.613109
0
LINE
8
Layer 1
10
1.975550
20
0.613109
11
1.975550
21
0.579048
0
LINE
8
Layer 1
10
1.975550
20
0.579048
11
1.975550
21
0.544987
0
LINE
8
Layer 1
10
1.975550
20
0.544987
11
1.941490
21
0.544987
0
LINE
8
Layer 1
10
1.941490
20
0.544987
11
1.907430
21
0.544987
0
LINE
8
Layer 1
10
1.907430
20
0.544987
11
1.907430
21
0.510926
0
LINE
8
Layer 1
10
1.907430
20
0.510926
11
1.907430
21
0.476864
0
LINE
8
Layer 1
10
1.907430
20
0.476864
11
1.873370
21
0.476864
0
LINE
8
Layer 1
10
1.873370
20
0.476864
11
1.839310
21
0.476864
0
LINE
8
Layer 1
10
1.839310
20
0.476864
11
1.839310
21
0.442803
0
LINE
8
Layer 1
10
1.839310
20
0.442803
11
1.839310
21
0.408741
0
LINE
8
Layer 1
10
1.839310
20
0.408741
11
1.805250
21
0.408741
0
LINE
8
Layer 1
10
1.805250
20
0.408741
11
1.771190
21
0.408741
0
LINE
8
Layer 1
10
1.771190
20
0.408741
11
1.771190
21
0.374681
0
LINE
8
Layer 1
10
1.771190
20
0.374681
11
1.771190
21
0.340619
0
LINE
8
Layer 1
10
1.771190
20
0.340619
11
1.737120
21
0.340619
0
LINE
8
Layer 1
10
1.737120
20
0.340619
11
1.703060
21
0.340619
0
LINE
8
Layer 1
10
1.703060
20
0.340619
11
1.703060
21
0.306558
0
LINE
8
Layer 1
10
1.703060
20
0.306558
11
1.703060
21
0.272496
0
LINE
8
Layer 1
10
1.703060
20
0.272496
11
1.600880
21
0.272496
0
LINE
8
Layer 1
10
1.600880
20
0.272496
11
1.498700
21
0.272496
0
LINE
8
Layer 1
10
1.498700
20
0.272496
11
1.498700
21
0.204374
0
LINE
8
Layer 1
10
1.498700
20
0.204374
11
1.498700
21
0.136251
0
LINE
8
Layer 1
10
1.498700
20
0.136251
11
1.532760
21
0.136251
0
LINE
8
Layer 1
10
1.532760
20
0.136251
11
1.566820
21
0.136251
0
LINE
8
Layer 1
10
1.566820
20
0.136251
11
1.566820
21
0.068129
0
LINE
8
Layer 1
10
1.566820
20
0.068129
11
1.566820
21
0.000007
0
LINE
8
Layer 1
10
1.566820
20
0.000007
11
1.498700
21
0.000007
0
LINE
8
Layer 1
10
1.498700
20
0.000007
11
1.430570
21
0.000007
0
LINE
8
Layer 1
10
1.430570
20
0.000007
11
1.430570
21
0.034068
0
LINE
8
Layer 1
10
1.430570
20
0.034068
11
1.430570
21
0.068129
0
LINE
8
Layer 1
10
1.430570
20
0.068129
11
1.396510
21
0.068129
0
LINE
8
Layer 1
10
1.396510
20
0.068129
11
1.362450
21
0.068129
0
LINE
8
Layer 1
10
1.362450
20
0.068129
11
1.362450
21
0.034068
0
LINE
8
Layer 1
10
1.362450
20
0.034068
11
1.362450
21
0.000007
0
LINE
8
Layer 1
10
1.362450
20
0.000007
11
1.328390
21
0.000007
0
LINE
8
Layer 1
10
1.328390
20
0.000007
11
1.294330
21
0.000007
0
LINE
8
Layer 1
10
1.294330
20
0.000007
11
1.294325
21
0.034068
0
LINE
8
Layer 1
10
1.634940
20
0.442803
11
1.634940
21
0.544987
0
LINE
8
Layer 1
10
1.634940
20
0.544987
11
1.532760
21
0.544987
0
LINE
8
Layer 1
10
1.532760
20
0.544987
11
1.430570
21
0.544987
0
LINE
8
Layer 1
10
1.430570
20
0.544987
11
1.430570
21
0.442803
0
LINE
8
Layer 1
10
1.430570
20
0.442803
11
1.430570
21
0.340619
0
LINE
8
Layer 1
10
1.430570
20
0.340619
11
1.532760
21
0.340619
0
LINE
8
Layer 1
10
1.532760
20
0.340619
11
1.634940
21
0.340619
0
LINE
8
Layer 1
10
1.634940
20
0.340619
11
1.634940
21
0.442803
0
LINE
8
Layer 1
10
1.498695
20
0.442803
11
1.498700
21
0.476864
0
LINE
8
Layer 1
10
1.498700
20
0.476864
11
1.532760
21
0.476864
0
LINE
8
Layer 1
10
1.532760
20
0.476864
11
1.566820
21
0.476864
0
LINE
8
Layer 1
10
1.566820
20
0.476864
11
1.566820
21
0.442803
0
LINE
8
Layer 1
10
1.566820
20
0.442803
11
1.566820
21
0.408742
0
LINE
8
Layer 1
10
1.566820
20
0.408742
11
1.532760
21
0.408742
0
LINE
8
Layer 1
10
1.532760
20
0.408742
11
1.498700
21
0.408742
0
LINE
8
Layer 1
10
1.498700
20
0.408742
11
1.498695
21
0.442803
0
LINE
8
Layer 1
10
1.226210
20
0.681232
11
1.226210
21
0.749354
0
LINE
8
Layer 1
10
1.226210
20
0.749354
11
1.260270
21
0.749354
0
LINE
8
Layer 1
10
1.260270
20
0.749354
11
1.294330
21
0.749354
0
LINE
8
Layer 1
10
1.294330
20
0.749354
11
1.294330
21
0.783416
0
LINE
8
Layer 1
10
1.294330
20
0.783416
11
1.294330
21
0.817477
0
LINE
8
Layer 1
10
1.294330
20
0.817477
11
1.328390
21
0.817477
0
LINE
8
Layer 1
10
1.328390
20
0.817477
11
1.362450
21
0.817477
0
LINE
8
Layer 1
10
1.362450
20
0.817477
11
1.362450
21
0.885599
0
LINE
8
Layer 1
10
1.362450
20
0.885599
11
1.362450
21
0.953722
0
LINE
8
Layer 1
10
1.362450
20
0.953722
11
1.430570
21
0.953722
0
LINE
8
Layer 1
10
1.430570
20
0.953722
11
1.498700
21
0.953722
0
LINE
8
Layer 1
10
1.498700
20
0.953722
11
1.498700
21
0.987784
0
LINE
8
Layer 1
10
1.498700
20
0.987784
11
1.498700
21
1.021840
0
LINE
8
Layer 1
10
1.498700
20
1.021840
11
1.396510
21
1.021840
0
LINE
8
Layer 1
10
1.396510
20
1.021840
11
1.294330
21
1.021840
0
LINE
8
Layer 1
10
1.294330
20
1.021840
11
1.294330
21
0.987784
0
LINE
8
Layer 1
10
1.294330
20
0.987784
11
1.294330
21
0.953722
0
LINE
8
Layer 1
10
1.294330
20
0.953722
11
1.260270
21
0.953722
0
LINE
8
Layer 1
10
1.260270
20
0.953722
11
1.226210
21
0.953722
0
LINE
8
Layer 1
10
1.226210
20
0.953722
11
1.226210
21
0.987784
0
LINE
8
Layer 1
10
1.226210
20
0.987784
11
1.226210
21
1.021840
0
LINE
8
Layer 1
10
1.226210
20
1.021840
11
1.192140
21
1.021840
0
LINE
8
Layer 1
10
1.192140
20
1.021840
11
1.158080
21
1.021840
0
LINE
8
Layer 1
10
1.158080
20
1.021840
11
1.158080
21
0.953722
0
LINE
8
Layer 1
10
1.158080
20
0.953722
11
1.158080
21
0.885599
0
LINE
8
Layer 1
10
1.158080
20
0.885599
11
1.192140
21
0.885599
0
LINE
8
Layer 1
10
1.192140
20
0.885599
11
1.226210
21
0.885599
0
LINE
8
Layer 1
10
1.226210
20
0.885599
11
1.226210
21
0.851538
0
LINE
8
Layer 1
10
1.226210
20
0.851538
11
1.226210
21
0.817477
0
LINE
8
Layer 1
10
1.226210
20
0.817477
11
1.192140
21
0.817477
0
LINE
8
Layer 1
10
1.192140
20
0.817477
11
1.158080
21
0.817477
0
LINE
8
Layer 1
10
1.158080
20
0.817477
11
1.158080
21
0.783416
0
LINE
8
Layer 1
10
1.158080
20
0.783416
11
1.158080
21
0.749354
0
LINE
8
Layer 1
10
1.158080
20
0.749354
11
1.124020
21
0.749354
0
LINE
8
Layer 1
10
1.124020
20
0.749354
11
1.089960
21
0.749354
0
LINE
8
Layer 1
10
1.089960
20
0.749354
11
1.089960
21
0.783416
0
LINE
8
Layer 1
10
1.089960
20
0.783416
11
1.089960
21
0.817477
0
LINE
8
Layer 1
10
1.089960
20
0.817477
11
1.021840
21
0.817477
0
LINE
8
Layer 1
10
1.021840
20
0.817477
11
0.953715
21
0.817477
0
LINE
8
Layer 1
10
0.953715
20
0.817477
11
0.953715
21
0.783416
0
LINE
8
Layer 1
10
0.953715
20
0.783416
11
0.953715
21
0.749354
0
LINE
8
Layer 1
10
0.953715
20
0.749354
11
1.021840
21
0.749354
0
LINE
8
Layer 1
10
1.021840
20
0.749354
11
1.089960
21
0.749354
0
LINE
8
Layer 1
10
1.089960
20
0.749354
11
1.089960
21
0.715293
0
LINE
8
Layer 1
10
1.089960
20
0.715293
11
1.089960
21
0.681232
0
LINE
8
Layer 1
10
1.089960
20
0.681232
11
1.124020
21
0.681232
0
LINE
8
Layer 1
10
1.124020
20
0.681232
11
1.158080
21
0.681232
0
LINE
8
Layer 1
10
1.158080
20
0.681232
11
1.158080
21
0.647171
0
LINE
8
Layer 1
10
1.158080
20
0.647171
11
1.158080
21
0.613109
0
LINE
8
Layer 1
10
1.158080
20
0.613109
11
1.192140
21
0.613109
0
LINE
8
Layer 1
10
1.192140
20
0.613109
11
1.226210
21
0.613109
0
LINE
8
Layer 1
10
1.226210
20
0.613109
11
1.226210
21
0.681232
0
LINE
8
Layer 1
10
1.634940
20
0.715294
11
1.634940
21
0.817477
0
LINE
8
Layer 1
10
1.634940
20
0.817477
11
1.600880
21
0.817477
0
LINE
8
Layer 1
10
1.600880
20
0.817477
11
1.566820
21
0.817477
0
LINE
8
Layer 1
10
1.566820
20
0.817477
11
1.566820
21
0.783416
0
LINE
8
Layer 1
10
1.566820
20
0.783416
11
1.566820
21
0.749354
0
LINE
8
Layer 1
10
1.566820
20
0.749354
11
1.532760
21
0.749354
0
LINE
8
Layer 1
10
1.532760
20
0.749354
11
1.498700
21
0.749354
0
LINE
8
Layer 1
10
1.498700
20
0.749354
11
1.498700
21
0.681232
0
LINE
8
Layer 1
10
1.498700
20
0.681232
11
1.498700
21
0.613109
0
LINE
8
Layer 1
10
1.498700
20
0.613109
11
1.566820
21
0.613109
0
LINE
8
Layer 1
10
1.566820
20
0.613109
11
1.634940
21
0.613109
0
LINE
8
Layer 1
10
1.634940
20
0.613109
11
1.634940
21
0.715294
0
LINE
8
Layer 1
10
1.907430
20
0.919661
11
1.907430
21
0.953722
0
LINE
8
Layer 1
10
1.907430
20
0.953722
11
1.839310
21
0.953722
0
LINE
8
Layer 1
10
1.839310
20
0.953722
11
1.771190
21
0.953722
0
LINE
8
Layer 1
10
1.771190
20
0.953722
11
1.771190
21
0.919661
0
LINE
8
Layer 1
10
1.771190
20
0.919661
11
1.771190
21
0.885599
0
LINE
8
Layer 1
10
1.771190
20
0.885599
11
1.839310
21
0.885599
0
LINE
8
Layer 1
10
1.839310
20
0.885599
11
1.907430
21
0.885599
0
LINE
8
Layer 1
10
1.907430
20
0.885599
11
1.907430
21
0.919661
0
LINE
8
Layer 1
10
1.634940
20
0.034068
11
1.634940
21
0.068129
0
LINE
8
Layer 1
10
1.634940
20
0.068129
11
1.669000
21
0.068129
0
LINE
8
Layer 1
10
1.669000
20
0.068129
11
1.703060
21
0.068129
0
LINE
8
Layer 1
10
1.703060
20
0.068129
11
1.703060
21
0.102191
0
LINE
8
Layer 1
10
1.703060
20
0.102191
11
1.703060
21
0.136252
0
LINE
8
Layer 1
10
1.703060
20
0.136252
11
1.669000
21
0.136252
0
LINE
8
Layer 1
10
1.669000
20
0.136252
11
1.634940
21
0.136252
0
LINE
8
Layer 1
10
1.634940
20
0.136252
11
1.634940
21
0.170313
0
LINE
8
Layer 1
10
1.634940
20
0.170313
11
1.634940
21
0.204374
0
LINE
8
Layer 1
10
1.634940
20
0.204374
11
1.669000
21
0.204374
0
LINE
8
Layer 1
10
1.669000
20
0.204374
11
1.703060
21
0.204374
0
LINE
8
Layer 1
10
1.703060
20
0.204374
11
1.703060
21
0.238436
0
LINE
8
Layer 1
10
1.703060
20
0.238436
11
1.703060
21
0.272497
0
LINE
8
Layer 1
10
1.703060
20
0.272497
11
1.737120
21
0.272497
0
LINE
8
Layer 1
10
1.737120
20
0.272497
11
1.771190
21
0.272497
0
LINE
8
Layer 1
10
1.771190
20
0.272497
11
1.771190
21
0.306559
0
LINE
8
Layer 1
10
1.771190
20
0.306559
11
1.771190
21
0.340620
0
LINE
8
Layer 1
10
1.771190
20
0.340620
11
1.805250
21
0.340620
0
LINE
8
Layer 1
10
1.805250
20
0.340620
11
1.839310
21
0.340620
0
LINE
8
Layer 1
10
1.839310
20
0.340620
11
1.839310
21
0.374681
0
LINE
8
Layer 1
10
1.839310
20
0.374681
11
1.839310
21
0.408742
0
LINE
8
Layer 1
10
1.839310
20
0.408742
11
1.907430
21
0.408742
0
LINE
8
Layer 1
10
1.907430
20
0.408742
11
1.975550
21
0.408742
0
LINE
8
Layer 1
10
1.975550
20
0.408742
11
1.975550
21
0.374681
0
LINE
8
Layer 1
10
1.975550
20
0.374681
11
1.975550
21
0.340620
0
LINE
8
Layer 1
10
1.975550
20
0.340620
11
1.941490
21
0.340620
0
LINE
8
Layer 1
10
1.941490
20
0.340620
11
1.907430
21
0.340620
0
LINE
8
Layer 1
10
1.907430
20
0.340620
11
1.907430
21
0.306559
0
LINE
8
Layer 1
10
1.907430
20
0.306559
11
1.907430
21
0.272497
0
LINE
8
Layer 1
10
1.907430
20
0.272497
11
1.941490
21
0.272497
0
LINE
8
Layer 1
10
1.941490
20
0.272497
11
1.975550
21
0.272497
0
LINE
8
Layer 1
10
1.975550
20
0.272497
11
1.975550
21
0.238436
0
LINE
8
Layer 1
10
1.975550
20
0.238436
11
1.975550
21
0.204374
0
LINE
8
Layer 1
10
1.975550
20
0.204374
11
1.941490
21
0.204374
0
LINE
8
Layer 1
10
1.941490
20
0.204374
11
1.907430
21
0.204374
0
LINE
8
Layer 1
10
1.907430
20
0.204374
11
1.907430
21
0.136252
0
LINE
8
Layer 1
10
1.907430
20
0.136252
11
1.907430
21
0.068129
0
LINE
8
Layer 1
10
1.907430
20
0.068129
11
1.873370
21
0.068129
0
LINE
8
Layer 1
10
1.873370
20
0.068129
11
1.839310
21
0.068129
0
LINE
8
Layer 1
10
1.839310
20
0.068129
11
1.839310
21
0.034068
0
LINE
8
Layer 1
10
1.839310
20
0.034068
11
1.839310
21
0.000007
0
LINE
8
Layer 1
10
1.839310
20
0.000007
11
1.737120
21
0.000007
0
LINE
8
Layer 1
10
1.737120
20
0.000007
11
1.634940
21
0.000007
0
LINE
8
Layer 1
10
1.634940
20
0.000007
11
1.634940
21
0.034068
0
LINE
8
Layer 1
10
1.839310
20
0.136252
11
1.839310
21
0.204374
0
LINE
8
Layer 1
10
1.839310
20
0.204374
11
1.873370
21
0.204374
0
LINE
8
Layer 1
10
1.873370
20
0.204374
11
1.907430
21
0.204374
0
LINE
8
Layer 1
10
1.907430
20
0.204374
11
1.907430
21
0.238436
0
LINE
8
Layer 1
10
1.907430
20
0.238436
11
1.907430
21
0.272497
0
LINE
8
Layer 1
10
1.907430
20
0.272497
11
1.839310
21
0.272497
0
LINE
8
Layer 1
10
1.839310
20
0.272497
11
1.771190
21
0.272497
0
LINE
8
Layer 1
10
1.771190
20
0.272497
11
1.771190
21
0.170313
0
LINE
8
Layer 1
10
1.771190
20
0.170313
11
1.771190
21
0.068129
0
LINE
8
Layer 1
10
1.771190
20
0.068129
11
1.805250
21
0.068129
0
LINE
8
Layer 1
10
1.805250
20
0.068129
11
1.839310
21
0.068129
0
LINE
8
Layer 1
10
1.839310
20
0.068129
11
1.839310
21
0.136252
0
LINE
8
Layer 1
10
0.681225
20
0.238436
11
0.681225
21
0.272497
0
LINE
8
Layer 1
10
0.681225
20
0.272497
11
0.749348
21
0.272497
0
LINE
8
Layer 1
10
0.749348
20
0.272497
11
0.817470
21
0.272497
0
LINE
8
Layer 1
10
0.817470
20
0.272497
11
0.817470
21
0.238436
0
LINE
8
Layer 1
10
0.817470
20
0.238436
11
0.817470
21
0.204374
0
LINE
8
Layer 1
10
0.817470
20
0.204374
11
0.749348
21
0.204374
0
LINE
8
Layer 1
10
0.749348
20
0.204374
11
0.681225
21
0.204374
0
LINE
8
Layer 1
10
0.681225
20
0.204374
11
0.681225
21
0.238436
0
LINE
8
Layer 1
10
0.544980
20
0.476864
11
0.544980
21
0.544987
0
LINE
8
Layer 1
10
0.544980
20
0.544987
11
0.476858
21
0.544987
0
LINE
8
Layer 1
10
0.476858
20
0.544987
11
0.408735
21
0.544987
0
LINE
8
Layer 1
10
0.408735
20
0.544987
11
0.408735
21
0.579049
0
LINE
8
Layer 1
10
0.408735
20
0.579049
11
0.408735
21
0.613109
0
LINE
8
Layer 1
10
0.408735
20
0.613109
11
0.476858
21
0.613109
0
LINE
8
Layer 1
10
0.476858
20
0.613109
11
0.544980
21
0.613109
0
LINE
8
Layer 1
10
0.544980
20
0.613109
11
0.544980
21
0.647171
0
LINE
8
Layer 1
10
0.544980
20
0.647171
11
0.544980
21
0.681232
0
LINE
8
Layer 1
10
0.544980
20
0.681232
11
0.579041
21
0.681232
0
LINE
8
Layer 1
10
0.579041
20
0.681232
11
0.613103
21
0.681232
0
LINE
8
Layer 1
10
0.613103
20
0.681232
11
0.613103
21
0.647171
0
LINE
8
Layer 1
10
0.613103
20
0.647171
11
0.613103
21
0.613109
0
LINE
8
Layer 1
10
0.613103
20
0.613109
11
0.681225
21
0.613109
0
LINE
8
Layer 1
10
0.681225
20
0.613109
11
0.749348
21
0.613109
0
LINE
8
Layer 1
10
0.749348
20
0.613109
11
0.749348
21
0.579049
0
LINE
8
Layer 1
10
0.749348
20
0.579049
11
0.749348
21
0.544987
0
LINE
8
Layer 1
10
0.749348
20
0.544987
11
0.783409
21
0.544987
0
LINE
8
Layer 1
10
0.783409
20
0.544987
11
0.817471
21
0.544987
0
LINE
8
Layer 1
10
0.817471
20
0.544987
11
0.817471
21
0.510926
0
LINE
8
Layer 1
10
0.817471
20
0.510926
11
0.817471
21
0.476864
0
LINE
8
Layer 1
10
0.817471
20
0.476864
11
0.749348
21
0.476864
0
LINE
8
Layer 1
10
0.749348
20
0.476864
11
0.681225
21
0.476864
0
LINE
8
Layer 1
10
0.681225
20
0.476864
11
0.681225
21
0.510926
0
LINE
8
Layer 1
10
0.681225
20
0.510926
11
0.681225
21
0.544987
0
LINE
8
Layer 1
10
0.681225
20
0.544987
11
0.647164
21
0.544987
0
LINE
8
Layer 1
10
0.647164
20
0.544987
11
0.613103
21
0.544987
0
LINE
8
Layer 1
10
0.613103
20
0.544987
11
0.613103
21
0.476864
0
LINE
8
Layer 1
10
0.613103
20
0.476864
11
0.613103
21
0.408742
0
LINE
8
Layer 1
10
0.613103
20
0.408742
11
0.579041
21
0.408742
0
LINE
8
Layer 1
10
0.579041
20
0.408742
11
0.544980
21
0.408742
0
LINE
8
Layer 1
10
0.544980
20
0.408742
11
0.544980
21
0.476864
0
LINE
8
Layer 1
10
0.000000
20
0.681232
11
0.000000
21
0.817477
0
LINE
8
Layer 1
10
0.000000
20
0.817477
11
0.034061
21
0.817477
0
LINE
8
Layer 1
10
0.034061
20
0.817477
11
0.068123
21
0.817477
0
LINE
8
Layer 1
10
0.068123
20
0.817477
11
0.068123
21
0.851539
0
LINE
8
Layer 1
10
0.068123
20
0.851539
11
0.068123
21
0.885600
0
LINE
8
Layer 1
10
0.068123
20
0.885600
11
0.102183
21
0.885600
0
LINE
8
Layer 1
10
0.102183
20
0.885600
11
0.136245
21
0.885600
0
LINE
8
Layer 1
10
0.136245
20
0.885600
11
0.136245
21
0.851539
0
LINE
8
Layer 1
10
0.136245
20
0.851539
11
0.136245
21
0.817477
0
LINE
8
Layer 1
10
0.136245
20
0.817477
11
0.102183
21
0.817477
0
LINE
8
Layer 1
10
0.102183
20
0.817477
11
0.068123
21
0.817477
0
LINE
8
Layer 1
10
0.068123
20
0.817477
11
0.068123
21
0.681232
0
LINE
8
Layer 1
10
0.068123
20
0.681232
11
0.068123
21
0.544987
0
LINE
8
Layer 1
10
0.068123
20
0.544987
11
0.034061
21
0.544987
0
LINE
8
Layer 1
10
0.034061
20
0.544987
11
0.000000
21
0.544987
0
LINE
8
Layer 1
10
0.000000
20
0.544987
11
0.000000
21
0.681232
0
LINE
8
Layer 1
10
0.136245
20
0.613109
11
0.136245
21
0.681232
0
LINE
8
Layer 1
10
0.136245
20
0.681232
11
0.170306
21
0.681232
0
LINE
8
Layer 1
10
0.170306
20
0.681232
11
0.204368
21
0.681232
0
LINE
8
Layer 1
10
0.204368
20
0.681232
11
0.204368
21
0.783416
0
LINE
8
Layer 1
10
0.204368
20
0.783416
11
0.204368
21
0.885599
0
LINE
8
Layer 1
10
0.204368
20
0.885599
11
0.170306
21
0.885599
0
LINE
8
Layer 1
10
0.170306
20
0.885599
11
0.136245
21
0.885599
0
LINE
8
Layer 1
10
0.136245
20
0.885599
11
0.136245
21
0.919661
0
LINE
8
Layer 1
10
0.136245
20
0.919661
11
0.136245
21
0.953722
0
LINE
8
Layer 1
10
0.136245
20
0.953722
11
0.068123
21
0.953722
0
LINE
8
Layer 1
10
0.068123
20
0.953722
11
0.000000
21
0.953722
0
LINE
8
Layer 1
10
0.000000
20
0.953722
11
0.000000
21
0.987784
0
LINE
8
Layer 1
10
0.000000
20
0.987784
11
0.000000
21
1.021840
0
LINE
8
Layer 1
10
0.000000
20
1.021840
11
0.034061
21
1.021840
0
LINE
8
Layer 1
10
0.034061
20
1.021840
11
0.068123
21
1.021840
0
LINE
8
Layer 1
10
0.068123
20
1.021840
11
0.068123
21
1.055910
0
LINE
8
Layer 1
10
0.068123
20
1.055910
11
0.068123
21
1.089970
0
LINE
8
Layer 1
10
0.068123
20
1.089970
11
0.034061
21
1.089970
0
LINE
8
Layer 1
10
0.034061
20
1.089970
11
0.000000
21
1.089970
0
LINE
8
Layer 1
10
0.000000
20
1.089970
11
0.000000
21
1.158090
0
LINE
8
Layer 1
10
0.000000
20
1.158090
11
0.000000
21
1.226210
0
LINE
8
Layer 1
10
0.000000
20
1.226210
11
0.034061
21
1.226210
0
LINE
8
Layer 1
10
0.034061
20
1.226210
11
0.068123
21
1.226210
0
LINE
8
Layer 1
10
0.068123
20
1.226210
11
0.068123
21
1.260270
0
LINE
8
Layer 1
10
0.068123
20
1.260270
11
0.068123
21
1.294330
0
LINE
8
Layer 1
10
0.068123
20
1.294330
11
0.034061
21
1.294330
0
LINE
8
Layer 1
10
0.034061
20
1.294330
11
0.000000
21
1.294330
0
LINE
8
Layer 1
10
0.000000
20
1.294330
11
0.000000
21
1.362460
0
LINE
8
Layer 1
10
0.000000
20
1.362460
11
0.000000
21
1.430580
0
LINE
8
Layer 1
10
0.000000
20
1.430580
11
0.170306
21
1.430580
0
LINE
8
Layer 1
10
0.170306
20
1.430580
11
0.340613
21
1.430580
0
LINE
8
Layer 1
10
0.340613
20
1.430580
11
0.340613
21
1.396520
0
LINE
8
Layer 1
10
0.340613
20
1.396520
11
0.340613
21
1.362460
0
LINE
8
Layer 1
10
0.340613
20
1.362460
11
0.374673
21
1.362460
0
LINE
8
Layer 1
10
0.374673
20
1.362460
11
0.408735
21
1.362460
0
LINE
8
Layer 1
10
0.408735
20
1.362460
11
0.408735
21
1.396520
0
LINE
8
Layer 1
10
0.408735
20
1.396520
11
0.408735
21
1.430580
0
LINE
8
Layer 1
10
0.408735
20
1.430580
11
0.510919
21
1.430580
0
LINE
8
Layer 1
10
0.510919
20
1.430580
11
0.613103
21
1.430580
0
LINE
8
Layer 1
10
0.613103
20
1.430580
11
0.613103
21
1.464640
0
LINE
8
Layer 1
10
0.613103
20
1.464640
11
0.613103
21
1.498700
0
LINE
8
Layer 1
10
0.613103
20
1.498700
11
0.647164
21
1.498700
0
LINE
8
Layer 1
10
0.647164
20
1.498700
11
0.681225
21
1.498700
0
LINE
8
Layer 1
10
0.681225
20
1.498700
11
0.681225
21
1.532760
0
LINE
8
Layer 1
10
0.681225
20
1.532760
11
0.681225
21
1.566820
0
LINE
8
Layer 1
10
0.681225
20
1.566820
11
0.715286
21
1.566820
0
LINE
8
Layer 1
10
0.715286
20
1.566820
11
0.749348
21
1.566820
0
LINE
8
Layer 1
10
0.749348
20
1.566820
11
0.749348
21
1.532760
0
LINE
8
Layer 1
10
0.749348
20
1.532760
11
0.749348
21
1.498700
0
LINE
8
Layer 1
10
0.749348
20
1.498700
11
0.783409
21
1.498700
0
LINE
8
Layer 1
10
0.783409
20
1.498700
11
0.817471
21
1.498700
0
LINE
8
Layer 1
10
0.817471
20
1.498700
11
0.817471
21
1.566820
0
LINE
8
Layer 1
10
0.817471
20
1.566820
11
0.817471
21
1.634950
0
LINE
8
Layer 1
10
0.817471
20
1.634950
11
0.783409
21
1.634950
0
LINE
8
Layer 1
10
0.783409
20
1.634950
11
0.749348
21
1.634950
0
LINE
8
Layer 1
10
0.749348
20
1.634950
11
0.749348
21
1.669010
0
LINE
8
Layer 1
10
0.749348
20
1.669010
11
0.749348
21
1.703070
0
LINE
8
Layer 1
10
0.749348
20
1.703070
11
0.715286
21
1.703070
0
LINE
8
Layer 1
10
0.715286
20
1.703070
11
0.681225
21
1.703070
0
LINE
8
Layer 1
10
0.681225
20
1.703070
11
0.681225
21
1.634950
0
LINE
8
Layer 1
10
0.681225
20
1.634950
11
0.681225
21
1.566820
0
LINE
8
Layer 1
10
0.681225
20
1.566820
11
0.647164
21
1.566820
0
LINE
8
Layer 1
10
0.647164
20
1.566820
11
0.613103
21
1.566820
0
LINE
8
Layer 1
10
0.613103
20
1.566820
11
0.613103
21
1.532760
0
LINE
8
Layer 1
10
0.613103
20
1.532760
11
0.613103
21
1.498700
0
LINE
8
Layer 1
10
0.613103
20
1.498700
11
0.579041
21
1.498700
0
LINE
8
Layer 1
10
0.579041
20
1.498700
11
0.544980
21
1.498700
0
LINE
8
Layer 1
10
0.544980
20
1.498700
11
0.544980
21
1.566820
0
LINE
8
Layer 1
10
0.544980
20
1.566820
11
0.544980
21
1.634950
0
LINE
8
Layer 1
10
0.544980
20
1.634950
11
0.579041
21
1.634950
0
LINE
8
Layer 1
10
0.579041
20
1.634950
11
0.613103
21
1.634950
0
LINE
8
Layer 1
10
0.613103
20
1.634950
11
0.613103
21
1.669010
0
LINE
8
Layer 1
10
0.613103
20
1.669010
11
0.613103
21
1.703070
0
LINE
8
Layer 1
10
0.613103
20
1.703070
11
0.579041
21
1.703070
0
LINE
8
Layer 1
10
0.579041
20
1.703070
11
0.544980
21
1.703070
0
LINE
8
Layer 1
10
0.544980
20
1.703070
11
0.544980
21
1.737130
0
LINE
8
Layer 1
10
0.544980
20
1.737130
11
0.544980
21
1.771190
0
LINE
8
Layer 1
10
0.544980
20
1.771190
11
0.647164
21
1.771190
0
LINE
8
Layer 1
10
0.647164
20
1.771190
11
0.749348
21
1.771190
0
LINE
8
Layer 1
10
0.749348
20
1.771190
11
0.749348
21
1.805250
0
LINE
8
Layer 1
10
0.749348
20
1.805250
11
0.749348
21
1.839310
0
LINE
8
Layer 1
10
0.749348
20
1.839310
11
0.715286
21
1.839310
0
LINE
8
Layer 1
10
0.715286
20
1.839310
11
0.681225
21
1.839310
0
LINE
8
Layer 1
10
0.681225
20
1.839310
11
0.681225
21
1.873380
0
LINE
8
Layer 1
10
0.681225
20
1.873380
11
0.681225
21
1.907440
0
LINE
8
Layer 1
10
0.681225
20
1.907440
11
0.715286
21
1.907440
0
LINE
8
Layer 1
10
0.715286
20
1.907440
11
0.749348
21
1.907440
0
LINE
8
Layer 1
10
0.749348
20
1.907440
11
0.749348
21
1.873380
0
LINE
8
Layer 1
10
0.749348
20
1.873380
11
0.749348
21
1.839310
0
LINE
8
Layer 1
10
0.749348
20
1.839310
11
0.783409
21
1.839310
0
LINE
8
Layer 1
10
0.783409
20
1.839310
11
0.817470
21
1.839310
0
LINE
8
Layer 1
10
0.817470
20
1.839310
11
0.817470
21
1.805250
0
LINE
8
Layer 1
10
0.817470
20
1.805250
11
0.817470
21
1.771190
0
LINE
8
Layer 1
10
0.817470
20
1.771190
11
0.885593
21
1.771190
0
LINE
8
Layer 1
10
0.885593
20
1.771190
11
0.953715
21
1.771190
0
LINE
8
Layer 1
10
0.953715
20
1.771190
11
0.953715
21
1.873380
0
LINE
8
Layer 1
10
0.953715
20
1.873380
11
0.953715
21
1.975560
0
LINE
8
Layer 1
10
0.953715
20
1.975560
11
0.987776
21
1.975560
0
LINE
8
Layer 1
10
0.987776
20
1.975560
11
1.021840
21
1.975560
0
LINE
8
Layer 1
10
1.021840
20
1.975560
11
1.021840
21
1.941500
0
LINE
8
Layer 1
10
1.021840
20
1.941500
11
1.021840
21
1.907440
0
LINE
8
Layer 1
10
1.021840
20
1.907440
11
1.055900
21
1.907440
0
LINE
8
Layer 1
10
1.055900
20
1.907440
11
1.089960
21
1.907440
0
LINE
8
Layer 1
10
1.089960
20
1.907440
11
1.089960
21
1.839310
0
LINE
8
Layer 1
10
1.089960
20
1.839310
11
1.089960
21
1.771190
0
LINE
8
Layer 1
10
1.089960
20
1.771190
11
1.055900
21
1.771190
0
LINE
8
Layer 1
10
1.055900
20
1.771190
11
1.021840
21
1.771190
0
LINE
8
Layer 1
10
1.021840
20
1.771190
11
1.021840
21
1.737130
0
LINE
8
Layer 1
10
1.021840
20
1.737130
11
1.021840
21
1.703070
0
LINE
8
Layer 1
10
1.021840
20
1.703070
11
0.953715
21
1.703070
0
LINE
8
Layer 1
10
0.953715
20
1.703070
11
0.885593
21
1.703070
0
LINE
8
Layer 1
10
0.885593
20
1.703070
11
0.885593
21
1.669010
0
LINE
8
Layer 1
10
0.885593
20
1.669010
11
0.885593
21
1.634950
0
LINE
8
Layer 1
10
0.885593
20
1.634950
11
0.919654
21
1.634950
0
LINE
8
Layer 1
10
0.919654
20
1.634950
11
0.953716
21
1.634950
0
LINE
8
Layer 1
10
0.953716
20
1.634950
11
0.953716
21
1.600890
0
LINE
8
Layer 1
10
0.953716
20
1.600890
11
0.953716
21
1.566820
0
LINE
8
Layer 1
10
0.953716
20
1.566820
11
0.987776
21
1.566820
0
LINE
8
Layer 1
10
0.987776
20
1.566820
11
1.021840
21
1.566820
0
LINE
8
Layer 1
10
1.021840
20
1.566820
11
1.021840
21
1.600890
0
LINE
8
Layer 1
10
1.021840
20
1.600890
11
1.021840
21
1.634950
0
LINE
8
Layer 1
10
1.021840
20
1.634950
11
1.055900
21
1.634950
0
LINE
8
Layer 1
10
1.055900
20
1.634950
11
1.089960
21
1.634950
0
LINE
8
Layer 1
10
1.089960
20
1.634950
11
1.089960
21
1.669010
0
LINE
8
Layer 1
10
1.089960
20
1.669010
11
1.089960
21
1.703070
0
LINE
8
Layer 1
10
1.089960
20
1.703070
11
1.124020
21
1.703070
0
LINE
8
Layer 1
10
1.124020
20
1.703070
11
1.158080
21
1.703070
0
LINE
8
Layer 1
10
1.158080
20
1.703070
11
1.158080
21
1.737130
0
LINE
8
Layer 1
10
1.158080
20
1.737130
11
1.158080
21
1.771190
0
LINE
8
Layer 1
10
1.158080
20
1.771190
11
1.226210
21
1.771190
0
LINE
8
Layer 1
10
1.226210
20
1.771190
11
1.294330
21
1.771190
0
LINE
8
Layer 1
10
1.294330
20
1.771190
11
1.294330
21
1.805250
0
LINE
8
Layer 1
10
1.294330
20
1.805250
11
1.294330
21
1.839310
0
LINE
8
Layer 1
10
1.294330
20
1.839310
11
1.328390
21
1.839310
0
LINE
8
Layer 1
10
1.328390
20
1.839310
11
1.362450
21
1.839310
0
LINE
8
Layer 1
10
1.362450
20
1.839310
11
1.362450
21
1.805250
0
LINE
8
Layer 1
10
1.362450
20
1.805250
11
1.362450
21
1.771190
0
LINE
8
Layer 1
10
1.362450
20
1.771190
11
1.396510
21
1.771190
0
LINE
8
Layer 1
10
1.396510
20
1.771190
11
1.430570
21
1.771190
0
LINE
8
Layer 1
10
1.430570
20
1.771190
11
1.430570
21
1.737130
0
LINE
8
Layer 1
10
1.430570
20
1.737130
11
1.430570
21
1.703070
0
LINE
8
Layer 1
10
1.430570
20
1.703070
11
1.396510
21
1.703070
0
LINE
8
Layer 1
10
1.396510
20
1.703070
11
1.362450
21
1.703070
0
LINE
8
Layer 1
10
1.362450
20
1.703070
11
1.362450
21
1.669010
0
LINE
8
Layer 1
10
1.362450
20
1.669010
11
1.362450
21
1.634950
0
LINE
8
Layer 1
10
1.362450
20
1.634950
11
1.396510
21
1.634950
0
LINE
8
Layer 1
10
1.396510
20
1.634950
11
1.430570
21
1.634950
0
LINE
8
Layer 1
10
1.430570
20
1.634950
11
1.430570
21
1.566820
0
LINE
8
Layer 1
10
1.430570
20
1.566820
11
1.430570
21
1.498700
0
LINE
8
Layer 1
10
1.430570
20
1.498700
11
1.396510
21
1.498700
0
LINE
8
Layer 1
10
1.396510
20
1.498700
11
1.362450
21
1.498700
0
LINE
8
Layer 1
10
1.362450
20
1.498700
11
1.362450
21
1.464640
0
LINE
8
Layer 1
10
1.362450
20
1.464640
11
1.362450
21
1.430580
0
LINE
8
Layer 1
10
1.362450
20
1.430580
11
1.430570
21
1.430580
0
LINE
8
Layer 1
10
1.430570
20
1.430580
11
1.498700
21
1.430580
0
LINE
8
Layer 1
10
1.498700
20
1.430580
11
1.498700
21
1.396520
0
LINE
8
Layer 1
10
1.498700
20
1.396520
11
1.498700
21
1.362460
0
LINE
8
Layer 1
10
1.498700
20
1.362460
11
1.532760
21
1.362460
0
LINE
8
Layer 1
10
1.532760
20
1.362460
11
1.566820
21
1.362460
0
LINE
8
Layer 1
10
1.566820
20
1.362460
11
1.566820
21
1.396520
0
LINE
8
Layer 1
10
1.566820
20
1.396520
11
1.566820
21
1.430580
0
LINE
8
Layer 1
10
1.566820
20
1.430580
11
1.600880
21
1.430580
0
LINE
8
Layer 1
10
1.600880
20
1.430580
11
1.634940
21
1.430580
0
LINE
8
Layer 1
10
1.634940
20
1.430580
11
1.634940
21
1.396520
0
LINE
8
Layer 1
10
1.634940
20
1.396520
11
1.634940
21
1.362460
0
LINE
8
Layer 1
10
1.634940
20
1.362460
11
1.669000
21
1.362460
0
LINE
8
Layer 1
10
1.669000
20
1.362460
11
1.703060
21
1.362460
0
LINE
8
Layer 1
10
1.703060
20
1.362460
11
1.703060
21
1.396520
0
LINE
8
Layer 1
10
1.703060
20
1.396520
11
1.703060
21
1.430580
0
LINE
8
Layer 1
10
1.703060
20
1.430580
11
1.737120
21
1.430580
0
LINE
8
Layer 1
10
1.737120
20
1.430580
11
1.771190
21
1.430580
0
LINE
8
Layer 1
10
1.771190
20
1.430580
11
1.771190
21
1.396520
0
LINE
8
Layer 1
10
1.771190
20
1.396520
11
1.771190
21
1.362460
0
LINE
8
Layer 1
10
1.771190
20
1.362460
11
1.737120
21
1.362460
0
LINE
8
Layer 1
10
1.737120
20
1.362460
11
1.703060
21
1.362460
0
LINE
8
Layer 1
10
1.703060
20
1.362460
11
1.703060
21
1.328400
0
LINE
8
Layer 1
10
1.703060
20
1.328400
11
1.703060
21
1.294330
0
LINE
8
Layer 1
10
1.703060
20
1.294330
11
1.669000
21
1.294330
0
LINE
8
Layer 1
10
1.669000
20
1.294330
11
1.634940
21
1.294330
0
LINE
8
Layer 1
10
1.634940
20
1.294330
11
1.634940
21
1.328400
0
LINE
8
Layer 1
10
1.634940
20
1.328400
11
1.634940
21
1.362460
0
LINE
8
Layer 1
10
1.634940
20
1.362460
11
1.600880
21
1.362460
0
LINE
8
Layer 1
10
1.600880
20
1.362460
11
1.566820
21
1.362460
0
LINE
8
Layer 1
10
1.566820
20
1.362460
11
1.566820
21
1.328400
0
LINE
8
Layer 1
10
1.566820
20
1.328400
11
1.566820
21
1.294330
0
LINE
8
Layer 1
10
1.566820
20
1.294330
11
1.532760
21
1.294330
0
LINE
8
Layer 1
10
1.532760
20
1.294330
11
1.498700
21
1.294330
0
LINE
8
Layer 1
10
1.498700
20
1.294330
11
1.498700
21
1.328400
0
LINE
8
Layer 1
10
1.498700
20
1.328400
11
1.498700
21
1.362460
0
LINE
8
Layer 1
10
1.498700
20
1.362460
11
1.464630
21
1.362460
0
LINE
8
Layer 1
10
1.464630
20
1.362460
11
1.430570
21
1.362460
0
LINE
8
Layer 1
10
1.430570
20
1.362460
11
1.430570
21
1.328400
0
LINE
8
Layer 1
10
1.430570
20
1.328400
11
1.430570
21
1.294330
0
LINE
8
Layer 1
10
1.430570
20
1.294330
11
1.328390
21
1.294330
0
LINE
8
Layer 1
10
1.328390
20
1.294330
11
1.226210
21
1.294330
0
LINE
8
Layer 1
10
1.226210
20
1.294330
11
1.226210
21
1.260270
0
LINE
8
Layer 1
10
1.226210
20
1.260270
11
1.226210
21
1.226210
0
LINE
8
Layer 1
10
1.226210
20
1.226210
11
1.158080
21
1.226210
0
LINE
8
Layer 1
10
1.158080
20
1.226210
11
1.089960
21
1.226210
0
LINE
8
Layer 1
10
1.089960
20
1.226210
11
1.089960
21
1.192150
0
LINE
8
Layer 1
10
1.089960
20
1.192150
11
1.089960
21
1.158090
0
LINE
8
Layer 1
10
1.089960
20
1.158090
11
1.055900
21
1.158090
0
LINE
8
Layer 1
10
1.055900
20
1.158090
11
1.021840
21
1.158090
0
LINE
8
Layer 1
10
1.021840
20
1.158090
11
1.021840
21
1.124030
0
LINE
8
Layer 1
10
1.021840
20
1.124030
11
1.021840
21
1.089970
0
LINE
8
Layer 1
10
1.021840
20
1.089970
11
0.987776
21
1.089970
0
LINE
8
Layer 1
10
0.987776
20
1.089970
11
0.953715
21
1.089970
0
LINE
8
Layer 1
10
0.953715
20
1.089970
11
0.953715
21
1.055910
0
LINE
8
Layer 1
10
0.953715
20
1.055910
11
0.953715
21
1.021840
0
LINE
8
Layer 1
10
0.953715
20
1.021840
11
0.919654
21
1.021840
0
LINE
8
Layer 1
10
0.919654
20
1.021840
11
0.885593
21
1.021840
0
LINE
8
Layer 1
10
0.885593
20
1.021840
11
0.885593
21
1.055910
0
LINE
8
Layer 1
10
0.885593
20
1.055910
11
0.885593
21
1.089970
0
LINE
8
Layer 1
10
0.885593
20
1.089970
11
0.851531
21
1.089970
0
LINE
8
Layer 1
10
0.851531
20
1.089970
11
0.817470
21
1.089970
0
LINE
8
Layer 1
10
0.817470
20
1.089970
11
0.817470
21
1.055910
0
LINE
8
Layer 1
10
0.817470
20
1.055910
11
0.817470
21
1.021840
0
LINE
8
Layer 1
10
0.817470
20
1.021840
11
0.783408
21
1.021840
0
LINE
8
Layer 1
10
0.783408
20
1.021840
11
0.749347
21
1.021840
0
LINE
8
Layer 1
10
0.749347
20
1.021840
11
0.749347
21
1.055910
0
LINE
8
Layer 1
10
0.749347
20
1.055910
11
0.749347
21
1.089970
0
LINE
8
Layer 1
10
0.749347
20
1.089970
11
0.715286
21
1.089970
0
LINE
8
Layer 1
10
0.715286
20
1.089970
11
0.681225
21
1.089970
0
LINE
8
Layer 1
10
0.681225
20
1.089970
11
0.681225
21
1.021840
0
LINE
8
Layer 1
10
0.681225
20
1.021840
11
0.681225
21
0.953722
0
LINE
8
Layer 1
10
0.681225
20
0.953722
11
0.647163
21
0.953722
0
LINE
8
Layer 1
10
0.647163
20
0.953722
11
0.613102
21
0.953722
0
LINE
8
Layer 1
10
0.613102
20
0.953722
11
0.613102
21
0.851539
0
LINE
8
Layer 1
10
0.613102
20
0.851539
11
0.613102
21
0.749354
0
LINE
8
Layer 1
10
0.613102
20
0.749354
11
0.579040
21
0.749354
0
LINE
8
Layer 1
10
0.579040
20
0.749354
11
0.544980
21
0.749354
0
LINE
8
Layer 1
10
0.544980
20
0.749354
11
0.544980
21
0.783416
0
LINE
8
Layer 1
10
0.544980
20
0.783416
11
0.544980
21
0.817477
0
LINE
8
Layer 1
10
0.544980
20
0.817477
11
0.442796
21
0.817477
0
LINE
8
Layer 1
10
0.442796
20
0.817477
11
0.340613
21
0.817477
0
LINE
8
Layer 1
10
0.340613
20
0.817477
11
0.340613
21
0.919661
0
LINE
8
Layer 1
10
0.340613
20
0.919661
11
0.340613
21
1.021840
0
LINE
8
Layer 1
10
0.340613
20
1.021840
11
0.306551
21
1.021840
0
LINE
8
Layer 1
10
0.306551
20
1.021840
11
0.272490
21
1.021840
0
LINE
8
Layer 1
10
0.272490
20
1.021840
11
0.272490
21
0.919661
0
LINE
8
Layer 1
10
0.272490
20
0.919661
11
0.272490
21
0.817477
0
LINE
8
Layer 1
10
0.272490
20
0.817477
11
0.306551
21
0.817477
0
LINE
8
Layer 1
10
0.306551
20
0.817477
11
0.340613
21
0.817477
0
LINE
8
Layer 1
10
0.340613
20
0.817477
11
0.340613
21
0.783416
0
LINE
8
Layer 1
10
0.340613
20
0.783416
11
0.340613
21
0.749354
0
LINE
8
Layer 1
10
0.340613
20
0.749354
11
0.408735
21
0.749354
0
LINE
8
Layer 1
10
0.408735
20
0.749354
11
0.476858
21
0.749354
0
LINE
8
Layer 1
10
0.476858
20
0.749354
11
0.476858
21
0.715293
0
LINE
8
Layer 1
10
0.476858
20
0.715293
11
0.476858
21
0.681232
0
LINE
8
Layer 1
10
0.476858
20
0.681232
11
0.442796
21
0.681232
0
LINE
8
Layer 1
10
0.442796
20
0.681232
11
0.408735
21
0.681232
0
LINE
8
Layer 1
10
0.408735
20
0.681232
11
0.408735
21
0.647171
0
LINE
8
Layer 1
10
0.408735
20
0.647171
11
0.408735
21
0.613109
0
LINE
8
Layer 1
10
0.408735
20
0.613109
11
0.374673
21
0.613109
0
LINE
8
Layer 1
10
0.374673
20
0.613109
11
0.340613
21
0.613109
0
LINE
8
Layer 1
10
0.340613
20
0.613109
11
0.340613
21
0.579048
0
LINE
8
Layer 1
10
0.340613
20
0.579048
11
0.340613
21
0.544986
0
LINE
8
Layer 1
10
0.340613
20
0.544986
11
0.238428
21
0.544986
0
LINE
8
Layer 1
10
0.238428
20
0.544986
11
0.136245
21
0.544986
0
LINE
8
Layer 1
10
0.136245
20
0.544986
11
0.136245
21
0.613109
0
LINE
8
Layer 1
10
0.476858
20
0.919661
11
0.476858
21
0.953722
0
LINE
8
Layer 1
10
0.476858
20
0.953722
11
0.510919
21
0.953722
0
LINE
8
Layer 1
10
0.510919
20
0.953722
11
0.544980
21
0.953722
0
LINE
8
Layer 1
10
0.544980
20
0.953722
11
0.544980
21
1.021840
0
LINE
8
Layer 1
10
0.544980
20
1.021840
11
0.544980
21
1.089970
0
LINE
8
Layer 1
10
0.544980
20
1.089970
11
0.579041
21
1.089970
0
LINE
8
Layer 1
10
0.579041
20
1.089970
11
0.613103
21
1.089970
0
LINE
8
Layer 1
10
0.613103
20
1.089970
11
0.613103
21
1.124030
0
LINE
8
Layer 1
10
0.613103
20
1.124030
11
0.613103
21
1.158090
0
LINE
8
Layer 1
10
0.613103
20
1.158090
11
0.681225
21
1.158090
0
LINE
8
Layer 1
10
0.681225
20
1.158090
11
0.749348
21
1.158090
0
LINE
8
Layer 1
10
0.749348
20
1.158090
11
0.749348
21
1.124030
0
LINE
8
Layer 1
10
0.749348
20
1.124030
11
0.749348
21
1.089970
0
LINE
8
Layer 1
10
0.749348
20
1.089970
11
0.783409
21
1.089970
0
LINE
8
Layer 1
10
0.783409
20
1.089970
11
0.817471
21
1.089970
0
LINE
8
Layer 1
10
0.817471
20
1.089970
11
0.817471
21
1.124030
0
LINE
8
Layer 1
10
0.817471
20
1.124030
11
0.817471
21
1.158090
0
LINE
8
Layer 1
10
0.817471
20
1.158090
11
0.919654
21
1.158090
0
LINE
8
Layer 1
10
0.919654
20
1.158090
11
1.021840
21
1.158090
0
LINE
8
Layer 1
10
1.021840
20
1.158090
11
1.021840
21
1.192150
0
LINE
8
Layer 1
10
1.021840
20
1.192150
11
1.021840
21
1.226210
0
LINE
8
Layer 1
10
1.021840
20
1.226210
11
0.953715
21
1.226210
0
LINE
8
Layer 1
10
0.953715
20
1.226210
11
0.885593
21
1.226210
0
LINE
8
Layer 1
10
0.885593
20
1.226210
11
0.885593
21
1.328400
0
LINE
8
Layer 1
10
0.885593
20
1.328400
11
0.885593
21
1.430580
0
LINE
8
Layer 1
10
0.885593
20
1.430580
11
0.783409
21
1.430580
0
LINE
8
Layer 1
10
0.783409
20
1.430580
11
0.681225
21
1.430580
0
LINE
8
Layer 1
10
0.681225
20
1.430580
11
0.681225
21
1.396520
0
LINE
8
Layer 1
10
0.681225
20
1.396520
11
0.681225
21
1.362460
0
LINE
8
Layer 1
10
0.681225
20
1.362460
11
0.544980
21
1.362460
0
LINE
8
Layer 1
10
0.544980
20
1.362460
11
0.408735
21
1.362460
0
LINE
8
Layer 1
10
0.408735
20
1.362460
11
0.408735
21
1.328400
0
LINE
8
Layer 1
10
0.408735
20
1.328400
11
0.408735
21
1.294330
0
LINE
8
Layer 1
10
0.408735
20
1.294330
11
0.374673
21
1.294330
0
LINE
8
Layer 1
10
0.374673
20
1.294330
11
0.340613
21
1.294330
0
LINE
8
Layer 1
10
0.340613
20
1.294330
11
0.340613
21
1.328400
0
LINE
8
Layer 1
10
0.340613
20
1.328400
11
0.340613
21
1.362460
0
LINE
8
Layer 1
10
0.340613
20
1.362460
11
0.238428
21
1.362460
0
LINE
8
Layer 1
10
0.238428
20
1.362460
11
0.136245
21
1.362460
0
LINE
8
Layer 1
10
0.136245
20
1.362460
11
0.136245
21
1.328400
0
LINE
8
Layer 1
10
0.136245
20
1.328400
11
0.136245
21
1.294330
0
LINE
8
Layer 1
10
0.136245
20
1.294330
11
0.170306
21
1.294330
0
LINE
8
Layer 1
10
0.170306
20
1.294330
11
0.204368
21
1.294330
0
LINE
8
Layer 1
10
0.204368
20
1.294330
11
0.204368
21
1.260270
0
LINE
8
Layer 1
10
0.204368
20
1.260270
11
0.204368
21
1.226210
0
LINE
8
Layer 1
10
0.204368
20
1.226210
11
0.170306
21
1.226210
0
LINE
8
Layer 1
10
0.170306
20
1.226210
11
0.136245
21
1.226210
0
LINE
8
Layer 1
10
0.136245
20
1.226210
11
0.136245
21
1.192150
0
LINE
8
Layer 1
10
0.136245
20
1.192150
11
0.136245
21
1.158090
0
LINE
8
Layer 1
10
0.136245
20
1.158090
11
0.102183
21
1.158090
0
LINE
8
Layer 1
10
0.102183
20
1.158090
11
0.068123
21
1.158090
0
LINE
8
Layer 1
10
0.068123
20
1.158090
11
0.068123
21
1.124030
0
LINE
8
Layer 1
10
0.068123
20
1.124030
11
0.068123
21
1.089970
0
LINE
8
Layer 1
10
0.068123
20
1.089970
11
0.102183
21
1.089970
0
LINE
8
Layer 1
10
0.102183
20
1.089970
11
0.136245
21
1.089970
0
LINE
8
Layer 1
10
0.136245
20
1.089970
11
0.136245
21
1.055910
0
LINE
8
Layer 1
10
0.136245
20
1.055910
11
0.136245
21
1.021840
0
LINE
8
Layer 1
10
0.136245
20
1.021840
11
0.170306
21
1.021840
0
LINE
8
Layer 1
10
0.170306
20
1.021840
11
0.204368
21
1.021840
0
LINE
8
Layer 1
10
0.204368
20
1.021840
11
0.204368
21
1.124030
0
LINE
8
Layer 1
10
0.204368
20
1.124030
11
0.204368
21
1.226210
0
LINE
8
Layer 1
10
0.204368
20
1.226210
11
0.238428
21
1.226210
0
LINE
8
Layer 1
10
0.238428
20
1.226210
11
0.272490
21
1.226210
0
LINE
8
Layer 1
10
0.272490
20
1.226210
11
0.272490
21
1.260270
0
LINE
8
Layer 1
10
0.272490
20
1.260270
11
0.272490
21
1.294330
0
LINE
8
Layer 1
10
0.272490
20
1.294330
11
0.306551
21
1.294330
0
LINE
8
Layer 1
10
0.306551
20
1.294330
11
0.340613
21
1.294330
0
LINE
8
Layer 1
10
0.340613
20
1.294330
11
0.340613
21
1.260270
0
LINE
8
Layer 1
10
0.340613
20
1.260270
11
0.340613
21
1.226210
0
LINE
8
Layer 1
10
0.340613
20
1.226210
11
0.306551
21
1.226210
0
LINE
8
Layer 1
10
0.306551
20
1.226210
11
0.272490
21
1.226210
0
LINE
8
Layer 1
10
0.272490
20
1.226210
11
0.272490
21
1.192150
0
LINE
8
Layer 1
10
0.272490
20
1.192150
11
0.272490
21
1.158090
0
LINE
8
Layer 1
10
0.272490
20
1.158090
11
0.306551
21
1.158090
0
LINE
8
Layer 1
10
0.306551
20
1.158090
11
0.340613
21
1.158090
0
LINE
8
Layer 1
10
0.340613
20
1.158090
11
0.340613
21
1.124030
0
LINE
8
Layer 1
10
0.340613
20
1.124030
11
0.340613
21
1.089970
0
LINE
8
Layer 1
10
0.340613
20
1.089970
11
0.374673
21
1.089970
0
LINE
8
Layer 1
10
0.374673
20
1.089970
11
0.408735
21
1.089970
0
LINE
8
Layer 1
10
0.408735
20
1.089970
11
0.408735
21
1.055910
0
LINE
8
Layer 1
10
0.408735
20
1.055910
11
0.408735
21
1.021840
0
LINE
8
Layer 1
10
0.408735
20
1.021840
11
0.442796
21
1.021840
0
LINE
8
Layer 1
10
0.442796
20
1.021840
11
0.476858
21
1.021840
0
LINE
8
Layer 1
10
0.476858
20
1.021840
11
0.476858
21
0.987783
0
LINE
8
Layer 1
10
0.476858
20
0.987783
11
0.476858
21
0.953722
0
LINE
8
Layer 1
10
0.476858
20
0.953722
11
0.442796
21
0.953722
0
LINE
8
Layer 1
10
0.442796
20
0.953722
11
0.408735
21
0.953722
0
LINE
8
Layer 1
10
0.408735
20
0.953722
11
0.408735
21
0.919661
0
LINE
8
Layer 1
10
0.408735
20
0.919661
11
0.408735
21
0.885599
0
LINE
8
Layer 1
10
0.408735
20
0.885599
11
0.442796
21
0.885599
0
LINE
8
Layer 1
10
0.442796
20
0.885599
11
0.476858
21
0.885599
0
LINE
8
Layer 1
10
0.476858
20
0.885599
11
0.476858
21
0.919661
0
LINE
8
Layer 1
10
0.408735
20
1.124030
11
0.408735
21
1.158090
0
LINE
8
Layer 1
10
0.408735
20
1.158090
11
0.374673
21
1.158090
0
LINE
8
Layer 1
10
0.374673
20
1.158090
11
0.340613
21
1.158090
0
LINE
8
Layer 1
10
0.340613
20
1.158090
11
0.340613
21
1.192150
0
LINE
8
Layer 1
10
0.340613
20
1.192150
11
0.340613
21
1.226210
0
LINE
8
Layer 1
10
0.340613
20
1.226210
11
0.374673
21
1.226210
0
LINE
8
Layer 1
10
0.374673
20
1.226210
11
0.408735
21
1.226210
0
LINE
8
Layer 1
10
0.408735
20
1.226210
11
0.408735
21
1.260270
0
LINE
8
Layer 1
10
0.408735
20
1.260270
11
0.408735
21
1.294330
0
LINE
8
Layer 1
10
0.408735
20
1.294330
11
0.476858
21
1.294330
0
LINE
8
Layer 1
10
0.476858
20
1.294330
11
0.544980
21
1.294330
0
LINE
8
Layer 1
10
0.544980
20
1.294330
11
0.544980
21
1.260270
0
LINE
8
Layer 1
10
0.544980
20
1.260270
11
0.544980
21
1.226210
0
LINE
8
Layer 1
10
0.544980
20
1.226210
11
0.476858
21
1.226210
0
LINE
8
Layer 1
10
0.476858
20
1.226210
11
0.408735
21
1.226210
0
LINE
8
Layer 1
10
0.408735
20
1.226210
11
0.408735
21
1.192150
0
LINE
8
Layer 1
10
0.408735
20
1.192150
11
0.408735
21
1.158090
0
LINE
8
Layer 1
10
0.408735
20
1.158090
11
0.442796
21
1.158090
0
LINE
8
Layer 1
10
0.442796
20
1.158090
11
0.476858
21
1.158090
0
LINE
8
Layer 1
10
0.476858
20
1.158090
11
0.476858
21
1.124030
0
LINE
8
Layer 1
10
0.476858
20
1.124030
11
0.476858
21
1.089970
0
LINE
8
Layer 1
10
0.476858
20
1.089970
11
0.442796
21
1.089970
0
LINE
8
Layer 1
10
0.442796
20
1.089970
11
0.408735
21
1.089970
0
LINE
8
Layer 1
10
0.408735
20
1.089970
11
0.408735
21
1.124030
0
LINE
8
Layer 1
10
0.681225
20
1.294330
11
0.681225
21
1.362460
0
LINE
8
Layer 1
10
0.681225
20
1.362460
11
0.749348
21
1.362460
0
LINE
8
Layer 1
10
0.749348
20
1.362460
11
0.817470
21
1.362460
0
LINE
8
Layer 1
10
0.817470
20
1.362460
11
0.817470
21
1.328400
0
LINE
8
Layer 1
10
0.817470
20
1.328400
11
0.817470
21
1.294330
0
LINE
8
Layer 1
10
0.817470
20
1.294330
11
0.783409
21
1.294330
0
LINE
8
Layer 1
10
0.783409
20
1.294330
11
0.749348
21
1.294330
0
LINE
8
Layer 1
10
0.749348
20
1.294330
11
0.749348
21
1.260270
0
LINE
8
Layer 1
10
0.749348
20
1.260270
11
0.749348
21
1.226210
0
LINE
8
Layer 1
10
0.749348
20
1.226210
11
0.715286
21
1.226210
0
LINE
8
Layer 1
10
0.715286
20
1.226210
11
0.681225
21
1.226210
0
LINE
8
Layer 1
10
0.681225
20
1.226210
11
0.681225
21
1.294330
0
LINE
8
Layer 1
10
1.089960
20
1.328400
11
1.089960
21
1.362460
0
LINE
8
Layer 1
10
1.089960
20
1.362460
11
1.055900
21
1.362460
0
LINE
8
Layer 1
10
1.055900
20
1.362460
11
1.021840
21
1.362460
0
LINE
8
Layer 1
10
1.021840
20
1.362460
11
1.021840
21
1.430580
0
LINE
8
Layer 1
10
1.021840
20
1.430580
11
1.021840
21
1.498700
0
LINE
8
Layer 1
10
1.021840
20
1.498700
11
1.055900
21
1.498700
0
LINE
8
Layer 1
10
1.055900
20
1.498700
11
1.089960
21
1.498700
0
LINE
8
Layer 1
10
1.089960
20
1.498700
11
1.089960
21
1.532760
0
LINE
8
Layer 1
10
1.089960
20
1.532760
11
1.089960
21
1.566820
0
LINE
8
Layer 1
10
1.089960
20
1.566820
11
1.124020
21
1.566820
0
LINE
8
Layer 1
10
1.124020
20
1.566820
11
1.158080
21
1.566820
0
LINE
8
Layer 1
10
1.158080
20
1.566820
11
1.158080
21
1.498700
0
LINE
8
Layer 1
10
1.158080
20
1.498700
11
1.158080
21
1.430580
0
LINE
8
Layer 1
10
1.158080
20
1.430580
11
1.192140
21
1.430580
0
LINE
8
Layer 1
10
1.192140
20
1.430580
11
1.226210
21
1.430580
0
LINE
8
Layer 1
10
1.226210
20
1.430580
11
1.226210
21
1.396520
0
LINE
8
Layer 1
10
1.226210
20
1.396520
11
1.226210
21
1.362460
0
LINE
8
Layer 1
10
1.226210
20
1.362460
11
1.192140
21
1.362460
0
LINE
8
Layer 1
10
1.192140
20
1.362460
11
1.158080
21
1.362460
0
LINE
8
Layer 1
10
1.158080
20
1.362460
11
1.158080
21
1.328400
0
LINE
8
Layer 1
10
1.158080
20
1.328400
11
1.158080
21
1.294330
0
LINE
8
Layer 1
10
1.158080
20
1.294330
11
1.192140
21
1.294330
0
LINE
8
Layer 1
10
1.192140
20
1.294330
11
1.226210
21
1.294330
0
LINE
8
Layer 1
10
1.226210
20
1.294330
11
1.226210
21
1.328400
0
LINE
8
Layer 1
10
1.226210
20
1.328400
11
1.226210
21
1.362460
0
LINE
8
Layer 1
10
1.226210
20
1.362460
11
1.294330
21
1.362460
0
LINE
8
Layer 1
10
1.294330
20
1.362460
11
1.362450
21
1.362460
0
LINE
8
Layer 1
10
1.362450
20
1.362460
11
1.362450
21
1.396520
0
LINE
8
Layer 1
10
1.362450
20
1.396520
11
1.362450
21
1.430580
0
LINE
8
Layer 1
10
1.362450
20
1.430580
11
1.328390
21
1.430580
0
LINE
8
Layer 1
10
1.328390
20
1.430580
11
1.294330
21
1.430580
0
LINE
8
Layer 1
10
1.294330
20
1.430580
11
1.294330
21
1.464640
0
LINE
8
Layer 1
10
1.294330
20
1.464640
11
1.294330
21
1.498700
0
LINE
8
Layer 1
10
1.294330
20
1.498700
11
1.260270
21
1.498700
0
LINE
8
Layer 1
10
1.260270
20
1.498700
11
1.226210
21
1.498700
0
LINE
8
Layer 1
10
1.226210
20
1.498700
11
1.226210
21
1.532760
0
LINE
8
Layer 1
10
1.226210
20
1.532760
11
1.226210
21
1.566820
0
LINE
8
Layer 1
10
1.226210
20
1.566820
11
1.192140
21
1.566820
0
LINE
8
Layer 1
10
1.192140
20
1.566820
11
1.158080
21
1.566820
0
LINE
8
Layer 1
10
1.158080
20
1.566820
11
1.158080
21
1.600890
0
LINE
8
Layer 1
10
1.158080
20
1.600890
11
1.158080
21
1.634950
0
LINE
8
Layer 1
10
1.158080
20
1.634950
11
1.124020
21
1.634950
0
LINE
8
Layer 1
10
1.124020
20
1.634950
11
1.089960
21
1.634950
0
LINE
8
Layer 1
10
1.089960
20
1.634950
11
1.089960
21
1.600890
0
LINE
8
Layer 1
10
1.089960
20
1.600890
11
1.089960
21
1.566820
0
LINE
8
Layer 1
10
1.089960
20
1.566820
11
1.055900
21
1.566820
0
LINE
8
Layer 1
10
1.055900
20
1.566820
11
1.021840
21
1.566820
0
LINE
8
Layer 1
10
1.021840
20
1.566820
11
1.021840
21
1.532760
0
LINE
8
Layer 1
10
1.021840
20
1.532760
11
1.021840
21
1.498700
0
LINE
8
Layer 1
10
1.021840
20
1.498700
11
0.987776
21
1.498700
0
LINE
8
Layer 1
10
0.987776
20
1.498700
11
0.953715
21
1.498700
0
LINE
8
Layer 1
10
0.953715
20
1.498700
11
0.953715
21
1.532760
0
LINE
8
Layer 1
10
0.953715
20
1.532760
11
0.953715
21
1.566820
0
LINE
8
Layer 1
10
0.953715
20
1.566820
11
0.919653
21
1.566820
0
LINE
8
Layer 1
10
0.919653
20
1.566820
11
0.885592
21
1.566820
0
LINE
8
Layer 1
10
0.885592
20
1.566820
11
0.885592
21
1.498700
0
LINE
8
Layer 1
10
0.885592
20
1.498700
11
0.885592
21
1.430580
0
LINE
8
Layer 1
10
0.885592
20
1.430580
11
0.919653
21
1.430580
0
LINE
8
Layer 1
10
0.919653
20
1.430580
11
0.953715
21
1.430580
0
LINE
8
Layer 1
10
0.953715
20
1.430580
11
0.953715
21
1.362460
0
LINE
8
Layer 1
10
0.953715
20
1.362460
11
0.953715
21
1.294330
0
LINE
8
Layer 1
10
0.953715
20
1.294330
11
1.021840
21
1.294330
0
LINE
8
Layer 1
10
1.021840
20
1.294330
11
1.089960
21
1.294330
0
LINE
8
Layer 1
10
1.089960
20
1.294330
11
1.089960
21
1.328400
0
LINE
8
Layer 1
10
1.362450
20
1.566820
11
1.362450
21
1.634950
0
LINE
8
Layer 1
10
1.362450
20
1.634950
11
1.294330
21
1.634950
0
LINE
8
Layer 1
10
1.294330
20
1.634950
11
1.226210
21
1.634950
0
LINE
8
Layer 1
10
1.226210
20
1.634950
11
1.226210
21
1.600890
0
LINE
8
Layer 1
10
1.226210
20
1.600890
11
1.226210
21
1.566820
0
LINE
8
Layer 1
10
1.226210
20
1.566820
11
1.260270
21
1.566820
0
LINE
8
Layer 1
10
1.260270
20
1.566820
11
1.294330
21
1.566820
0
LINE
8
Layer 1
10
1.294330
20
1.566820
11
1.294330
21
1.532760
0
LINE
8
Layer 1
10
1.294330
20
1.532760
11
1.294330
21
1.498700
0
LINE
8
Layer 1
10
1.294330
20
1.498700
11
1.328390
21
1.498700
0
LINE
8
Layer 1
10
1.328390
20
1.498700
11
1.362450
21
1.498700
0
LINE
8
Layer 1
10
1.362450
20
1.498700
11
1.362450
21
1.566820
0
LINE
8
Layer 1
10
1.634940
20
1.055910
11
1.634940
21
1.089970
0
LINE
8
Layer 1
10
1.634940
20
1.089970
11
1.669000
21
1.089970
0
LINE
8
Layer 1
10
1.669000
20
1.089970
11
1.703060
21
1.089970
0
LINE
8
Layer 1
10
1.703060
20
1.089970
11
1.703060
21
1.055910
0
LINE
8
Layer 1
10
1.703060
20
1.055910
11
1.703060
21
1.021840
0
LINE
8
Layer 1
10
1.703060
20
1.021840
11
1.669000
21
1.021840
0
LINE
8
Layer 1
10
1.669000
20
1.021840
11
1.634940
21
1.021840
0
LINE
8
Layer 1
10
1.634940
20
1.021840
11
1.634940
21
1.055910
0
LINE
8
Layer 1
10
1.566820
20
1.192150
11
1.566820
21
1.226210
0
LINE
8
Layer 1
10
1.566820
20
1.226210
11
1.600880
21
1.226210
0
LINE
8
Layer 1
10
1.600880
20
1.226210
11
1.634940
21
1.226210
0
LINE
8
Layer 1
10
1.634940
20
1.226210
11
1.634940
21
1.192150
0
LINE
8
Layer 1
10
1.634940
20
1.192150
11
1.634940
21
1.158090
0
LINE
8
Layer 1
10
1.634940
20
1.158090
11
1.600880
21
1.158090
0
LINE
8
Layer 1
10
1.600880
20
1.158090
11
1.566820
21
1.158090
0
LINE
8
Layer 1
10
1.566820
20
1.158090
11
1.566820
21
1.192150
0
LINE
8
Layer 1
10
1.703065
20
1.192150
11
1.703060
21
1.226210
0
LINE
8
Layer 1
10
1.703060
20
1.226210
11
1.737120
21
1.226210
0
LINE
8
Layer 1
10
1.737120
20
1.226210
11
1.771190
21
1.226210
0
LINE
8
Layer 1
10
1.771190
20
1.226210
11
1.771190
21
1.192150
0
LINE
8
Layer 1
10
1.771190
20
1.192150
11
1.771190
21
1.158090
0
LINE
8
Layer 1
10
1.771190
20
1.158090
11
1.737120
21
1.158090
0
LINE
8
Layer 1
10
1.737120
20
1.158090
11
1.703060
21
1.158090
0
LINE
8
Layer 1
10
1.703060
20
1.158090
11
1.703065
21
1.192150
0
LINE
8
Layer 1
10
0.000000
20
1.737130
11
0.000000
21
1.975560
0
LINE
8
Layer 1
10
0.000000
20
1.975560
11
0.238428
21
1.975560
0
LINE
8
Layer 1
10
0.238428
20
1.975560
11
0.476858
21
1.975560
0
LINE
8
Layer 1
10
0.476858
20
1.975560
11
0.476858
21
1.737130
0
LINE
8
Layer 1
10
0.476858
20
1.737130
11
0.476858
21
1.498700
0
LINE
8
Layer 1
10
0.476858
20
1.498700
11
0.238428
21
1.498700
0
LINE
8
Layer 1
10
0.238428
20
1.498700
11
0.000000
21
1.498700
0
LINE
8
Layer 1
10
0.000000
20
1.498700
11
0.000000
21
1.737130
0
LINE
8
Layer 1
10
0.408735
20
1.737130
11
0.408735
21
1.907440
0
LINE
8
Layer 1
10
0.408735
20
1.907440
11
0.238428
21
1.907440
0
LINE
8
Layer 1
10
0.238428
20
1.907440
11
0.068123
21
1.907440
0
LINE
8
Layer 1
10
0.068123
20
1.907440
11
0.068123
21
1.737130
0
LINE
8
Layer 1
10
0.068123
20
1.737130
11
0.068123
21
1.566820
0
LINE
8
Layer 1
10
0.068123
20
1.566820
11
0.238428
21
1.566820
0
LINE
8
Layer 1
10
0.238428
20
1.566820
11
0.408735
21
1.566820
0
LINE
8
Layer 1
10
0.408735
20
1.566820
11
0.408735
21
1.737130
0
LINE
8
Layer 1
10
0.136245
20
1.737130
11
0.136245
21
1.839310
0
LINE
8
Layer 1
10
0.136245
20
1.839310
11
0.238428
21
1.839310
0
LINE
8
Layer 1
10
0.238428
20
1.839310
11
0.340613
21
1.839310
0
LINE
8
Layer 1
10
0.340613
20
1.839310
11
0.340613
21
1.737130
0
LINE
8
Layer 1
10
0.340613
20
1.737130
11
0.340613
21
1.634950
0
LINE
8
Layer 1
10
0.340613
20
1.634950
11
0.238428
21
1.634950
0
LINE
8
Layer 1
10
0.238428
20
1.634950
11
0.136245
21
1.634950
0
LINE
8
Layer 1
10
0.136245
20
1.634950
11
0.136245
21
1.737130
0
LINE
8
Layer 1
10
1.498695
20
1.737130
11
1.498700
21
1.975560
0
LINE
8
Layer 1
10
1.498700
20
1.975560
11
1.737120
21
1.975560
0
LINE
8
Layer 1
10
1.737120
20
1.975560
11
1.975550
21
1.975560
0
LINE
8
Layer 1
10
1.975550
20
1.975560
11
1.975550
21
1.737130
0
LINE
8
Layer 1
10
1.975550
20
1.737130
11
1.975550
21
1.498700
0
LINE
8
Layer 1
10
1.975550
20
1.498700
11
1.737120
21
1.498700
0
LINE
8
Layer 1
10
1.737120
20
1.498700
11
1.498700
21
1.498700
0
LINE
8
Layer 1
10
1.498700
20
1.498700
11
1.498695
21
1.737130
0
LINE
8
Layer 1
10
1.907430
20
1.737130
11
1.907430
21
1.907440
0
LINE
8
Layer 1
10
1.907430
20
1.907440
11
1.737120
21
1.907440
0
LINE
8
Layer 1
10
1.737120
20
1.907440
11
1.566820
21
1.907440
0
LINE
8
Layer 1
10
1.566820
20
1.907440
11
1.566820
21
1.737130
0
LINE
8
Layer 1
10
1.566820
20
1.737130
11
1.566820
21
1.566820
0
LINE
8
Layer 1
10
1.566820
20
1.566820
11
1.737120
21
1.566820
0
LINE
8
Layer 1
10
1.737120
20
1.566820
11
1.907430
21
1.566820
0
LINE
8
Layer 1
10
1.907430
20
1.566820
11
1.907430
21
1.737130
0
LINE
8
Layer 1
10
1.634940
20
1.737130
11
1.634940
21
1.839310
0
LINE
8
Layer 1
10
1.634940
20
1.839310
11
1.737120
21
1.839310
0
LINE
8
Layer 1
10
1.737120
20
1.839310
11
1.839310
21
1.839310
0
LINE
8
Layer 1
10
1.839310
20
1.839310
11
1.839310
21
1.737130
0
LINE
8
Layer 1
10
1.839310
20
1.737130
11
1.839310
21
1.634950
0
LINE
8
Layer 1
10
1.839310
20
1.634950
11
1.737120
21
1.634950
0
LINE
8
Layer 1
10
1.737120
20
1.634950
11
1.634940
21
1.634950
0
LINE
8
Layer 1
10
1.634940
20
1.634950
11
1.634940
21
1.737130
0
LINE
8
Layer 1
10
0.544980
20
1.873380
11
0.544980
21
1.907440
0
LINE
8
Layer 1
10
0.544980
20
1.907440
11
0.579041
21
1.907440
0
LINE
8
Layer 1
10
0.579041
20
1.907440
11
0.613103
21
1.907440
0
LINE
8
Layer 1
10
0.613103
20
1.907440
11
0.613103
21
1.873380
0
LINE
8
Layer 1
10
0.613103
20
1.873380
11
0.613103
21
1.839310
0
LINE
8
Layer 1
10
0.613103
20
1.839310
11
0.579041
21
1.839310
0
LINE
8
Layer 1
10
0.579041
20
1.839310
11
0.544980
21
1.839310
0
LINE
8
Layer 1
10
0.544980
20
1.839310
11
0.544980
21
1.873380
0
LINE
8
Layer 1
10
1.158083
20
1.873380
11
1.158080
21
1.907440
0
LINE
8
Layer 1
10
1.158080
20
1.907440
11
1.124020
21
1.907440
0
LINE
8
Layer 1
10
1.124020
20
1.907440
11
1.089960
21
1.907440
0
LINE
8
Layer 1
10
1.089960
20
1.907440
11
1.089960
21
1.941500
0
LINE
8
Layer 1
10
1.089960
20
1.941500
11
1.089960
21
1.975560
0
LINE
8
Layer 1
10
1.089960
20
1.975560
11
1.226210
21
1.975560
0
LINE
8
Layer 1
10
1.226210
20
1.975560
11
1.362450
21
1.975560
0
LINE
8
Layer 1
10
1.362450
20
1.975560
11
1.362450
21
1.941500
0
LINE
8
Layer 1
10
1.362450
20
1.941500
11
1.362450
21
1.907440
0
LINE
8
Layer 1
10
1.362450
20
1.907440
11
1.294330
21
1.907440
0
LINE
8
Layer 1
10
1.294330
20
1.907440
11
1.226210
21
1.907440
0
LINE
8
Layer 1
10
1.226210
20
1.907440
11
1.226210
21
1.873380
0
LINE
8
Layer 1
10
1.226210
20
1.873380
11
1.226210
21
1.839310
0
LINE
8
Layer 1
10
1.226210
20
1.839310
11
1.192140
21
1.839310
0
LINE
8
Layer 1
10
1.192140
20
1.839310
11
1.158080
21
1.839310
0
LINE
8
Layer 1
10
1.158080
20
1.839310
11
1.158083
21
1.873380
0
LINE
8
Layer 1
10
0.817470
20
1.941500
11
0.817470
21
1.975560
0
LINE
8
Layer 1
10
0.817470
20
1.975560
11
0.851531
21
1.975560
0
LINE
8
Layer 1
10
0.851531
20
1.975560
11
0.885593
21
1.975560
0
LINE
8
Layer 1
10
0.885593
20
1.975560
11
0.885593
21
1.941500
0
LINE
8
Layer 1
10
0.885593
20
1.941500
11
0.885593
21
1.907440
0
LINE
8
Layer 1
10
0.885593
20
1.907440
11
0.851531
21
1.907440
0
LINE
8
Layer 1
10
0.851531
20
1.907440
11
0.817470
21
1.907440
0
LINE
8
Layer 1
10
0.817470
20
1.907440
11
0.817470
21
1.941500
 0 
ENDSEC
 0 
EOF