<?xml version="1.0" encoding="UTF-8" standalone="no"?>
<!-- Created with Inkscape (http://www.inkscape.org/) -->

<svg
   width="7mm"
   height="7mm"
   viewBox="0 0 7 7"
   version="1.1"
   id="svg5"
   sodipodi:docname="qrcode.svg"
   inkscape:export-filename="/home/thompsonc/Projects/msbaker/docs/qrcode.png"
   inkscape:export-xdpi="1200"
   inkscape:export-ydpi="1200"
   inkscape:version="1.1 (c4e8f9ed74, 2021-05-24)"
   xmlns:inkscape="http://www.inkscape.org/namespaces/inkscape"
   xmlns:sodipodi="http://sodipodi.sourceforge.net/DTD/sodipodi-0.dtd"
   xmlns="http://www.w3.org/2000/svg"
   xmlns:svg="http://www.w3.org/2000/svg">
  <sodipodi:namedview
     id="namedview103"
     pagecolor="#ffffff"
     bordercolor="#666666"
     borderopacity="1.0"
     inkscape:pageshadow="2"
     inkscape:pageopacity="0.0"
     inkscape:pagecheckerboard="0"
     inkscape:document-units="mm"
     showgrid="false"
     inkscape:zoom="25.815774"
     inkscape:cx="12.821618"
     inkscape:cy="13.208978"
     inkscape:window-width="1920"
     inkscape:window-height="1056"
     inkscape:window-x="0"
     inkscape:window-y="0"
     inkscape:window-maximized="1"
     inkscape:current-layer="svg5" />
  <defs
     id="defs2" />
  <g
     id="layer1">
    <path
       style="fill:#000000;stroke-width:0.0804595"
       d="M 0,6.155169 V 5.3103433 H 0.84482578 1.6896546 V 6.155169 6.9999978 H 0.84482578 0 Z m 1.4482753,0 V 5.5517226 H 0.84482578 0.24137923 V 6.155169 6.7586187 H 0.84482578 1.4482753 Z m -0.96551686,0 V 5.7931018 H 0.84482578 1.2068961 V 6.155169 6.5172394 H 0.84482578 0.48275844 Z M 1.9310338,6.3965483 V 5.7931018 H 2.0517222 2.1724133 V 6.155169 6.5172394 H 2.2931017 2.4137928 V 6.6379278 6.7586189 H 2.5344812 2.6551724 V 6.6379278 6.5172394 H 2.8965518 3.137931 V 6.6379278 6.7586189 H 3.2586194 3.3793105 V 6.5172394 6.2758602 H 3.6206896 3.8620689 V 6.155169 6.0344809 H 3.6206885 3.3793094 V 6.1551693 6.2758605 H 3.2586182 3.1379299 V 6.1551693 6.0344809 H 3.0172387 2.8965504 V 5.9137898 5.7931014 H 2.7758592 2.6551708 V 5.6724102 5.5517219 H 2.7758592 2.8965504 V 5.4310321 5.3103438 H 3.0172387 3.1379299 V 5.1896522 5.0689641 H 3.0172387 2.8965504 V 4.827585 4.5862058 H 3.0172387 3.1379299 V 4.7068941 4.8275853 H 3.2586182 3.3793094 V 5.0689641 5.3103433 H 3.6206886 3.8620677 V 5.5517226 5.7931018 H 4.103447 4.3448262 V 5.9137902 6.0344813 H 4.4655146 4.5862058 V 6.1551697 6.2758609 H 4.4655146 4.3448262 V 6.3965492 6.5172404 H 4.1034468 3.8620677 V 6.6379288 6.7586199 H 3.7413766 3.6206882 V 6.8793083 6.9999994 H 3.3793094 3.1379302 V 6.8793067 6.7586187 H 2.8965509 2.6551715 V 6.879307 6.9999982 H 2.5344804 2.413792 V 6.879307 6.7586187 H 2.2931008 2.1724125 V 6.879307 6.9999982 H 2.0517213 1.931033 Z M 4.3448262,6.155169 V 6.0344806 H 4.2241351 4.1034467 V 6.155169 6.2758602 H 4.2241351 4.3448262 Z M 3.3793094,5.6724107 V 5.5517223 H 3.2586182 3.1379299 V 5.6724107 5.7931018 H 3.2586182 3.3793094 Z M 4.103447,6.8793067 V 6.7586184 H 4.2241353 4.3448265 V 6.8793067 6.9999979 H 4.2241353 4.103447 Z m 0.4827585,0 V 6.7586184 H 4.7068938 4.827585 V 6.5172394 6.2758602 H 4.9482734 5.0689645 V 6.155169 6.0344809 H 4.9482732 4.827585 V 5.9137899 5.7931018 H 4.7068934 4.5862055 V 5.5517226 5.3103433 H 4.3448262 4.1034468 V 5.0689641 4.827585 H 3.9827557 3.8620673 V 4.7068938 4.5862055 H 3.7413762 3.6206878 V 4.7068938 4.827585 H 3.4999968 3.3793084 V 4.7068938 4.5862058 H 3.2586171 3.1379289 V 4.3448265 4.1034473 H 3.0172377 2.8965494 V 4.2241356 4.3448268 H 2.7758581 2.6551697 V 3.9827562 3.6206889 H 2.8965491 3.1379282 V 3.7413773 3.8620684 H 3.2586166 3.3793077 V 3.7413773 3.6206889 H 3.4999961 3.6206872 V 3.7413773 3.8620684 H 3.7413756 3.8620668 V 3.9827568 4.103448 H 3.9827551 4.1034463 V 3.9827568 3.8620684 H 3.9827551 3.8620668 V 3.7413773 3.6206889 H 3.7413756 3.6206872 V 3.4999978 3.3793094 H 3.7413756 3.8620668 V 3.2586185 3.1379304 H 3.9827551 4.1034463 V 3.0172393 2.8965511 H 4.2241346 4.3448258 V 3.0172394 3.1379306 H 4.5862053 4.8275846 V 3.0172394 2.8965511 H 4.9482729 5.0689641 V 2.7758599 2.6551715 H 5.1896525 5.3103436 V 2.8965511 3.1379304 H 5.431032 5.5517231 V 3.4999978 3.8620682 H 5.431032 5.3103436 V 3.9827565 4.1034477 H 5.1896525 5.0689641 V 4.224136 4.3448272 H 4.8275847 4.5862055 V 4.7068938 5.0689641 H 4.7068938 4.827585 V 4.827585 4.5862058 H 4.9482734 5.0689645 V 4.4655146 4.3448262 H 5.1896529 5.310344 V 4.2241351 4.1034467 H 5.4310324 5.5517236 V 3.9827555 3.8620672 H 5.6724119 5.7931031 V 3.741376 3.6206877 H 6.0344823 6.2758616 V 3.4999965 3.3793081 H 6.3965499 6.5172411 V 3.2586184 3.13793 H 6.6379295 6.7586206 V 3.0172393 2.8965511 H 6.6379293 6.517241 V 2.4137927 1.9310342 H 6.6379293 6.7586205 V 2.0517226 2.1724137 H 6.8793088 7 V 2.2931021 2.4137933 H 6.879306 6.7586177 V 2.5344816 2.6551728 H 6.879306 6.9999972 V 3.0172393 3.3793097 H 6.8793066 6.7586187 V 3.499998 3.6206892 H 6.879307 6.9999982 V 3.7413776 3.8620687 H 6.8793066 6.7586187 V 3.9827571 4.1034482 H 6.879307 6.9999982 V 4.2241366 4.3448278 H 6.8793066 6.7586187 V 4.2241353 4.1034473 H 6.5172393 6.27586 V 3.9827562 3.8620682 H 6.0344808 5.7931015 V 3.9827565 4.1034477 H 5.9137899 6.0344811 V 4.224136 4.3448272 H 6.1551694 6.2758606 V 4.5862058 4.827585 H 6.1551694 6.0344811 V 5.0689641 5.3103433 H 6.1551694 6.2758606 V 5.0689641 4.827585 H 6.396549 6.5172401 V 4.9482734 5.0689645 H 6.6379285 6.7586196 V 4.9482734 4.827585 H 6.879308 6.9999992 V 4.9482734 5.0689645 H 6.8793066 6.7586187 V 5.1896529 5.310344 H 6.6379275 6.5172391 V 5.4310324 5.5517236 H 6.396548 6.2758596 V 5.6724119 5.7931031 H 6.1551685 6.0344801 V 5.9137914 6.0344826 H 5.6724105 5.3103431 V 6.2758619 6.5172411 H 5.4310314 5.5517226 V 6.7586187 6.9999978 H 5.3103431 5.068964 V 6.8793066 6.7586182 H 4.9482728 4.8275844 V 6.8793066 6.9999978 H 4.7068934 4.5862055 Z M 5.7931015,5.4310314 V 5.0689641 H 5.4310313 5.068964 v 0.3620673 0.3620704 h 0.3620673 0.3620702 z m -0.4827584,0 V 5.3103431 H 5.4310314 5.5517226 V 5.4310314 5.5517226 H 5.4310316 5.3103431 Z M 4.3448262,4.5862058 V 4.3448265 H 4.4655146 4.5862058 V 4.2241353 4.103447 H 4.7068941 4.8275853 V 3.8620682 3.6206889 H 5.0689642 5.3103435 V 3.4999978 3.3793097 H 4.9482728 4.5862055 V 3.499998 3.6206892 H 4.4655143 4.3448259 V 3.499998 3.3793097 H 4.2241348 4.1034464 V 3.6206889 3.8620682 H 4.2241348 4.3448259 V 3.9827565 4.1034477 H 4.2241348 4.1034464 V 4.224136 4.3448272 H 3.9827555 3.8620672 V 4.2241353 4.1034473 H 3.6206885 3.3793094 V 4.2241356 4.3448268 H 3.6206886 3.8620677 V 4.4655152 4.5862063 H 3.9827561 4.1034473 V 4.7068947 4.8275858 H 4.2241356 4.3448268 Z M 5.7931015,4.4655146 V 4.1034473 H 5.6724104 5.551722 V 4.2241356 4.3448268 H 5.4310313 5.3103429 V 4.5862058 4.827585 H 5.5517224 5.7931015 Z M 6.7586187,3.741377 V 3.6206889 H 6.5172393 6.27586 V 3.7413773 3.8620684 H 6.5172393 6.7586187 Z M 5.7931015,6.8793067 V 6.7586184 H 5.9137899 6.0344811 V 6.6379275 6.5172394 H 5.9137896 5.7931015 V 6.3965483 6.2758599 H 5.9137899 6.0344811 V 6.1551687 6.0344804 H 6.1551694 6.2758606 V 5.9137892 5.7931008 H 6.396549 6.5172401 V 5.6724097 5.5517213 H 6.7586194 6.9999985 V 5.6724097 5.7931008 H 6.8793066 6.7586187 V 5.9137892 6.0344804 H 6.879307 6.9999982 V 6.1551687 6.2758599 H 6.8793066 6.7586187 V 6.5172391 6.7586184 H 6.6379275 6.5172391 V 6.8793067 6.9999979 H 6.1551689 5.7931015 Z M 6.5172393,6.5172394 V 6.2758602 H 6.6379276 6.7586188 V 6.155169 6.0344809 H 6.5172393 6.27586 V 6.3965483 6.7586187 H 6.3965484 6.5172396 Z M 2.4137923,6.155169 V 6.0344806 H 2.6551715 2.8965509 V 6.155169 6.2758602 H 2.6551715 2.4137923 Z M 1.9310338,5.3103433 V 5.0689641 H 1.6896546 1.4482753 V 4.9482729 4.8275846 H 1.6896546 1.9310338 V 4.7068934 4.5862051 H 2.0517222 2.1724133 V 4.7068934 4.8275846 H 2.4137926 2.6551718 V 4.9482729 5.0689641 H 2.7758602 2.8965513 V 5.1896525 5.3103436 H 2.6551715 2.4137923 V 5.1896522 5.0689641 H 2.2931011 2.1724128 V 5.3103433 5.5517226 H 2.0517216 1.9310332 Z M 0,4.5862058 V 4.1034473 H 0.12068962 0.24137923 V 3.9827561 3.8620677 H 0.36206731 0.48275847 V 3.9827561 4.1034473 H 0.36206731 0.24137923 V 4.5862058 5.0689641 H 0.12068962 0 Z M 0.48275844,4.827585 V 4.5862058 H 0.60344652 0.72413769 V 4.2241353 3.8620682 H 0.60344652 0.48275844 V 3.741377 3.6206889 H 0.24137923 0 V 3.4999978 3.3793094 H 0.12068962 0.24137923 V 3.2586185 3.1379304 H 0.12068962 0 V 2.8965511 2.655172 H 0.12068962 0.24137923 V 2.5344808 2.4137927 H 0.12068962 0 V 2.1724135 1.9310342 H 0.60344654 1.2068961 V 2.0517226 2.1724137 H 1.3275842 1.4482754 V 2.0517226 1.9310342 H 1.8103427 2.1724131 V 1.8103445 1.6896547 H 2.2931015 2.4137926 V 1.5689649 1.4482752 H 2.534481 2.6551722 V 1.5689649 1.6896547 H 2.7758605 2.8965517 V 1.4482753 1.206896 H 2.7758605 2.6551721 V 1.0862064 0.96551682 H 2.5344809 2.4137926 V 1.206896 1.4482753 H 2.2931014 2.172413 V 1.5689651 1.6896548 H 2.0517219 1.9310335 V 1.4482753 1.206896 H 2.0517219 2.172413 V 1.0862064 0.96551682 H 2.0517219 1.9310338 V 0.84482721 0.72413762 H 2.2931011 2.6551715 V 0.60344799 0.48275837 H 2.5344804 2.413792 V 0.36206875 0.24137913 H 2.5344804 2.6551715 V 0.36206875 0.48275837 H 2.7758599 2.8965511 V 0.60344799 0.72413762 H 3.1379302 3.3793094 V 0.36206879 0 h 0.1206884 0.1206911 v 0.12068961 0.12068962 h 0.1206884 0.1206911 v 0.2413792 0.24137921 H 3.7413773 3.6206889 V 0.84482727 0.96551689 H 3.3793094 3.1379302 V 1.0862065 1.2068961 H 3.2586185 3.3793097 V 1.3275858 1.4482755 H 3.499998 3.6206892 V 1.3275858 1.2068961 H 3.7413776 3.8620687 V 1.0862065 0.96551689 H 3.9827571 4.1034482 V 0.84482727 0.72413764 H 4.3448264 4.5862056 V 0.60344802 0.4827584 H 4.706894 4.8275851 V 0.60344802 0.72413764 H 4.9482735 5.0689647 V 0.84482727 0.96551689 H 4.9482732 4.827585 V 1.0862065 1.2068961 H 4.9482734 5.0689645 V 1.4482753 1.6896544 H 4.9482732 4.827585 V 1.8103442 1.9310339 H 5.0689642 5.3103435 V 2.0517223 2.1724135 H 5.4310318 5.551723 V 2.0517223 1.9310339 H 5.6724114 5.7931025 V 2.0517223 2.1724135 H 5.9137909 6.034482 V 2.0517223 1.9310339 H 6.1551704 6.2758616 V 2.0517223 2.1724135 H 6.1551704 6.034482 V 2.2931018 2.413793 H 5.9137896 5.7931015 V 2.2931021 2.1724137 H 5.6724104 5.551722 V 2.2931021 2.4137933 H 5.4310309 5.3103425 V 2.2931021 2.1724137 H 5.1896513 5.068963 V 2.2931021 2.4137933 H 4.7068934 4.3448262 V 2.5344816 2.6551728 H 4.1034468 3.8620677 V 2.7758612 2.8965523 H 3.7413766 3.6206882 V 3.0172407 3.1379318 H 3.4999971 3.3793087 V 3.2586202 3.3793114 H 3.2586175 3.1379292 V 3.2586188 3.1379304 H 3.017238 2.8965497 V 3.2586188 3.37931 H 2.7758584 2.65517 V 3.2586185 3.1379304 H 2.5344788 2.4137905 V 3.3793097 3.6206889 H 2.2930993 2.1724111 V 3.9827562 4.3448265 H 2.0517198 1.9310314 V 4.2241353 4.1034473 H 1.5689634 1.2068961 V 3.741377 3.3793097 H 1.086205 0.9655169 V 3.741377 4.1034473 H 1.086205 1.2068961 V 4.2241356 4.3448268 H 1.4482753 1.6896546 V 4.4655152 4.5862063 H 1.5689634 1.448275 V 4.7068947 4.8275858 H 1.3275839 1.2068958 V 4.9482742 5.0689654 H 0.84482578 0.48275844 Z M 1.6896546,3.741377 V 3.6206886 H 1.8103429 1.9310341 V 3.3793097 3.1379304 H 2.0517224 2.1724136 V 3.0172393 2.8965511 H 2.4137928 2.655172 V 3.0172394 3.1379306 H 2.7758603 2.8965515 V 3.0172393 2.8965511 H 3.2586191 3.6206895 V 2.77586 2.655172 H 3.3793094 3.1379302 V 2.2931015 1.9310342 H 2.7758598 2.4137923 V 2.0517226 2.1724137 H 1.9310338 1.4482753 V 2.2931021 2.4137933 H 1.3275842 1.2068961 V 2.2931015 2.1724135 H 0.84482578 0.48275844 V 2.2931018 2.413793 H 0.60344652 0.72413769 V 2.5344813 2.6551725 H 0.60344652 0.48275844 V 2.7758609 2.896552 H 0.36206728 0.2413792 V 3.0172404 3.1379316 H 0.36206728 0.48275844 V 3.2586199 3.3793111 H 0.60344652 0.72413769 V 3.0172393 2.655172 H 0.84482577 0.96551693 V 2.5344808 2.4137924 H 1.086205 1.2068962 V 2.5344808 2.655172 H 1.086205 0.96551693 V 2.7758603 2.8965515 H 1.086205 1.2068962 V 3.0172398 3.137931 H 1.3275843 1.4482754 V 3.2586194 3.3793105 H 1.5689638 1.6896549 V 3.4999989 3.62069 H 1.5689638 1.4482754 V 3.7413784 3.8620696 H 1.5689638 1.6896549 Z M 1.4482753,3.0172393 V 2.8965509 H 1.3275842 1.2068961 V 2.7758598 2.6551714 H 1.3275842 1.4482753 V 2.5344802 2.4137919 H 1.6896546 1.9310338 V 2.5344802 2.6551714 H 1.6896546 1.4482753 V 2.7758598 2.8965509 H 1.5689637 1.6896548 V 3.0172393 3.1379304 H 1.5689634 1.4482753 Z M 2.4137923,2.4137927 V 2.1724135 H 2.6551715 2.8965509 V 2.2931018 2.413793 H 2.7758598 2.6551714 V 2.5344813 2.6551725 H 2.5344801 2.4137917 Z M 3.8620677,2.2931015 V 2.1724135 H 3.7413766 3.6206881 V 1.9310342 1.6896544 H 3.7413764 3.8620676 V 1.5689647 1.4482749 H 3.982756 4.1034471 V 1.689654 1.9310338 H 4.2241355 4.3448266 V 2.0517222 2.1724133 H 4.2241355 4.1034471 V 2.2931017 2.4137928 H 4.2241355 4.3448266 V 2.2931017 2.1724133 H 4.5862053 4.8275846 V 2.0517222 1.9310338 H 4.7068934 4.5862051 V 1.810344 1.6896543 H 4.4655139 4.3448255 V 1.5689645 1.4482748 H 4.2241344 4.103446 V 1.327585 1.2068954 H 3.9827548 3.8620665 V 1.327585 1.4482748 H 3.7413753 3.620687 V 1.5689645 1.6896543 H 3.4999958 3.3793074 V 1.5689645 1.4482748 H 3.2586163 3.1379279 v 0.2413791 0.2413798 h 0.1206884 0.1206911 v 0.2413798 0.2413792 h 0.24138 0.2413789 z M 4.8275847,1.4482753 V 1.206896 H 4.5862055 4.3448262 V 1.3275856 1.4482754 H 4.4655146 4.5862058 V 1.5689652 1.6896549 H 4.7068941 4.8275853 Z M 5.7931015,3.2586185 V 3.1379302 H 5.9137899 6.0344811 V 3.2586185 3.3793097 H 5.9137896 5.7931015 Z M 5.5517224,2.77586 V 2.6551717 H 5.6724108 5.793102 V 2.77586 2.8965512 H 5.6724108 5.5517224 Z m 0.4827584,0 V 2.6551717 H 6.1551692 6.2758603 V 2.77586 2.8965512 H 6.1551689 6.0344808 Z M 0,0.84482721 V 0 H 0.84482578 1.6896546 V 0.84482721 1.6896544 H 0.84482578 0 Z m 1.4482753,0 V 0.2413792 H 0.84482578 0.24137923 V 0.84482721 1.4482753 H 0.84482578 1.4482753 Z m -0.96551686,0 V 0.4827584 H 0.84482578 1.2068961 V 0.84482721 1.206896 H 0.84482578 0.48275844 Z m 4.82758476,0 V 0 H 6.1551689 6.9999978 V 0.84482721 1.6896544 H 6.1551689 5.3103431 Z m 1.4482755,0 V 0.2413792 H 6.1551689 5.5517224 V 0.84482721 1.4482753 h 0.6034465 0.6034498 z m -0.965517,0 V 0.4827584 H 6.1551689 6.5172393 V 0.84482721 1.206896 H 6.1551689 5.7931015 Z M 1.9310338,0.36206879 V 0.24137917 H 2.0517222 2.1724133 V 0.36206879 0.48275842 H 2.0517222 1.9310338 Z m 2.172413,0 V 0.2413792 H 3.9827557 3.8620675 V 0.12068961 0 H 4.3448259 4.8275843 V 0.12068961 0.2413792 H 4.5862055 4.3448262 V 0.36206882 0.48275844 H 4.2241351 4.1034468 Z M 2.8965509,0.12068961 V 0 H 3.0172393 3.1379304 V 0.12068961 0.24137923 H 3.0172393 2.8965509 Z"
       id="path22604" />
  </g>
</svg>
